<svg width="960" height="440" viewBox="0 0 960 440" fill="none" xmlns="http://www.w3.org/2000/svg">
<path d="M455.193 161.721C479.879 150.326 513.871 134.086 527.5 125C524.5 139 567 127 586 119C583.5 135 646 125 646 125C646 125 622 149.5 602 142C593.579 138.842 502.5 136.218 522 146.092C509.846 157.5 427 174.5 427 174.5C444.97 172.061 450.689 175.04 449.964 182.199C463.939 185.658 481.938 187.889 497 182.5C514.521 176.231 512.908 163.058 529.5 154.632C525.5 166 556.5 150.5 565 150.5C561 156.868 601 157.935 617 163C606.5 176.935 648 170.5 648 170.5C574.152 249.098 497.445 219.401 448.161 188.691C441.972 204.153 422.111 230.335 415.5 261.5C412.156 277.262 435 283 441 307.5C430.531 302.22 434 326.5 445.333 334C438 337.5 451 351 463.5 358C442.5 362 430 348 432.5 356.5C421 346.5 406.309 340.321 405.5 344.5C400 336 398.5 345 393 326.5C387.5 308 377 301.5 375 317C367.777 311.747 370.902 294.584 378.358 273.898C354.07 298.565 320.496 317.728 277 322.606C285.5 310 246 336 214.5 319C232 311.5 270 306.35 258 298.925C269.5 296.5 294.496 282.038 289 277C308 277 372.5 251.5 352 251.5C364.959 243.806 406.124 198.066 421.305 180.955C403.697 198.095 374.71 206.344 368 222C358 205 339 249.5 291.5 263.805C295.5 249.611 249.5 267 229.5 269.349C247 254 191 269.349 165 257C165 257 244 239.5 235 226C252.5 226 308.5 248.5 293.5 233.5C311 236.5 342 219.5 314.5 207.5C335.294 205.501 394.787 185.591 417.777 177.699C405.955 178.729 387.956 174.223 375 175.956C387 161 327.5 156 298.111 173.5C303 143 190.549 146.19 167 123.5C167 123.5 293.5 151 276 110C311 130.5 347 134 330 110C368 123.5 370.5 148.5 375 117C385 127.5 427 174.5 427 174.5C429.062 137.186 388.271 94.5 368 84.5C395.5 75 307.8 57.0577 270 51C317 33.5 360.5 52 352 33.5C394 46.5 410 70 410 40C425.5 49 424 117 444 99C439 123.5 427 174.5 427 174.5C427 174.5 472.5 80.5 507.5 66.5C501 87 528.5 48 555.5 51C544 75 624 66.5 624 66.5C615.965 74.8563 590.5 90.5912 574 84.5C557.5 78.4088 537 90.5 544 96C520.747 96 489.484 138.934 455.193 161.721Z" fill="black"/>
<path d="M427 174.5C427 174.5 505 140 527.5 125C524.5 139 567 127 586 119C583.5 135 646 125 646 125C646 125 622 149.5 602 142C593.579 138.842 502.5 136.218 522 146.092C509.846 157.5 427 174.5 427 174.5ZM427 174.5C427 174.5 472.5 80.5 507.5 66.5C501 87 528.5 48 555.5 51C544 75 624 66.5 624 66.5C615.965 74.8563 590.5 90.5912 574 84.5C557.5 78.4088 537 90.5 544 96C514.5 96 472.109 165.098 427 174.5ZM427 174.5C427 174.5 439 123.5 444 99C424 117 425.5 49 410 40C410 70 394 46.5 352 33.5C360.5 52 317 33.5 270 51C307.8 57.0577 395.5 75 368 84.5C388.271 94.5 429.062 137.186 427 174.5ZM427 174.5C427 174.5 385 127.5 375 117C370.5 148.5 368 123.5 330 110C347 134 311 130.5 276 110C293.5 151 167 123.5 167 123.5C190.549 146.19 303 143 298.111 173.5C327.5 156 387 161 375 175.956C392.192 173.656 418.263 182.343 427 174.5ZM427 174.5C427 174.5 340.5 205 314.5 207.5C342 219.5 311 236.5 293.5 233.5C308.5 248.5 252.5 226 235 226C244 239.5 165 257 165 257C191 269.349 247 254 229.5 269.349C249.5 267 295.5 249.611 291.5 263.805C339 249.5 358 205 368 222C375.5 204.5 410.836 196.253 427 174.5ZM427 174.5C427 174.5 368 242 352 251.5C372.5 251.5 308 277 289 277C294.496 282.038 269.5 296.5 258 298.925C270 306.35 232 311.5 214.5 319C246 336 285.5 310 277 322.606C373.842 311.744 421.498 230.072 427 174.5ZM427 174.5C427 174.5 353 301 375 317C377 301.5 387.5 308 393 326.5C398.5 345 400 336 405.5 344.5C406.309 340.321 421 346.5 432.5 356.5C430 348 442.5 362 463.5 358C451 351 438 337.5 445.333 334C434 326.5 430.531 302.22 441 307.5C435 283 412.156 277.262 415.5 261.5C427.118 206.73 479.658 167.352 427 174.5ZM427 174.5C427 174.5 467.597 193.021 497 182.5C514.521 176.231 512.908 163.058 529.5 154.632C525.5 166 556.5 150.5 565 150.5C561 156.868 601 157.935 617 163C606.5 176.935 648 170.5 648 170.5C562.5 261.5 473.167 207.333 427 174.5Z" stroke="white" stroke-width="4"/>
<path d="M579 272C571 263.5 544 256 534 295C508.969 314.468 509.496 349.206 512 353C514.504 356.794 504.5 362.5 504 374.5C504 374.5 512 381.5 515 389C518 396.5 509 413.5 509.5 407.5C509.93 402.337 505.548 405.319 500.813 406.251C500.1 406.593 499.327 406.695 498.5 406.5C495.079 404.129 492.598 403.568 488.789 404.986C487.851 406.006 486.752 406.574 485.5 406.5C481.359 406.5 471 397 472 403.5C473 410 466 396 469 387.5C472 379 484.5 372.5 484.5 372.5C489.5 360.5 485.5 351.5 490.5 346.5C505.32 332.421 506 280 495 259.5C496.107 264.581 500.5 279 485.5 275C479.219 273.325 471.443 290.43 478.5 299C485.5 307.5 496.114 316.5 496.114 316.5C496.114 316.5 496 334.5 492 330.5C488 326.5 481.5 329 480 328C478.5 327 481.061 318.748 468.5 302C458 288 432.5 282 453.5 282C465.5 282 460 256 447.5 250.5C415 265 414 300 403 298C404 289 385.5 285.5 365.5 298C349.5 308 349.5 322.5 348 330C348 330 354.731 333.905 356.5 337.5C359.007 342.593 359.5 347 355.5 352C355.165 349.655 350.117 351.574 346.821 353.097C346.086 354.125 345.143 354.676 344 354.5C342.694 354.299 341.569 353.31 340.667 351.859C339.148 351.081 337.854 351.132 336.512 351.795C335.715 353.627 334.54 354.737 333 354.5C332.385 354.405 331.81 354.132 331.28 353.714C323.722 350.302 320.289 349.454 320.5 354C320.5 354 311.382 349.196 324.5 331C340 309.5 349 293 349 281.5C357.5 285 360.678 290.042 377 271C384.014 262.817 388.753 247.846 386.5 235.5C385.862 232.004 379.772 228.258 379 225.5C389 230.5 396 218.167 389 220.5C382 222.833 381 219.5 380 216C383 216.5 430 190.5 436 160.5C438.733 163.311 447 181.5 446.5 163.5C467.5 179 501.84 179.506 528 170.5C539.5 166.541 562 182.5 555.5 161.435C564.151 164.545 572.41 170.165 580 179.5C584.869 185.489 594 185.5 592 165.5C618.5 172.57 629.5 201.5 631 187.5C642.797 193.8 642.497 200.1 647 206C649.158 207.204 650 200.5 650 197.5C673.5 211 671.167 264.833 669.5 281.5C676.915 300.784 686.48 309.179 705 323.5C705 323.5 710.5 339 717.5 342C724.5 345 733 340 733 340C740.5 342.5 744 338.5 744 338.5C752 341.5 748 338 754.5 338.5C761 339 761.5 360.5 761.5 360.5C757.95 359.877 756.059 359.291 754.5 364.5C750.21 360.479 748.241 360.386 746 366.5L743 368.5C739.833 365.667 739.7 360.5 728.5 362.5C714.5 365 698.5 339 682 336C669.621 301.114 613.402 274.525 579 272Z" fill="black"/>
<path d="M579 272C571 263.5 544 256 534 295C508.969 314.468 509.496 349.206 512 353C514.504 356.794 504.5 362.5 504 374.5C504 374.5 512 381.5 515 389C518 396.5 509 413.5 509.5 407.5C510 401.5 504 406.5 498.5 406.5M579 272C576 255 567.5 235 555.5 227.5C568 227.5 575.5 226.3 569.5 219.5C563.5 212.7 553.167 214.167 548 215.5C550.5 212 556 206 564 206M579 272C613.402 274.525 669.621 301.114 682 336C698.5 339 714.5 365 728.5 362.5C739.7 360.5 739.833 365.667 743 368.5L746 366.5M485.5 406.5C481.359 406.5 471 397 472 403.5C473 410 466 396 469 387.5C472 379 484.5 372.5 484.5 372.5C489.5 360.5 485.5 351.5 490.5 346.5C505.32 332.421 506 280 495 259.5M485.5 406.5C474.594 405.064 477.782 377.942 486.641 377.942C495.5 377.942 494 407 485.5 406.5ZM485.5 406.5C491.369 403.398 494.188 403.511 498.5 406.5M447.5 250.5C415 265 414 300 403 298C404 289 385.5 285.5 365.5 298C349.5 308 349.5 322.5 348 330C348 330 354.731 333.905 356.5 337.5C359.007 342.593 359.5 347 355.5 352C355 348.5 344 354.5 344 354.5M447.5 250.5C460 256 465.5 282 453.5 282C432.5 282 458 288 468.5 302C481.061 318.748 478.5 327 480 328C481.5 329 488 326.5 492 330.5C496 334.5 496.114 316.5 496.114 316.5C496.114 316.5 485.5 307.5 478.5 299C471.443 290.43 479.219 273.325 485.5 275C500.5 279 496.107 264.581 495 259.5M447.5 250.5C452.224 248.392 456.707 247.006 461 246.35M580 179.5C584.869 185.489 594 185.5 592 165.5C618.5 172.57 629.5 201.5 631 187.5C642.797 193.8 642.497 200.1 647 206C649.158 207.204 650 200.5 650 197.5C673.5 211 671.167 264.833 669.5 281.5C676.915 300.784 686.48 309.179 705 323.5C705 323.5 710.5 339 717.5 342C724.5 345 733 340 733 340M580 179.5C572.41 170.165 564.151 164.545 555.5 161.435M580 179.5L555.5 161.435M733 340C740.5 342.5 744 338.5 744 338.5M733 340C745.195 351.512 746.193 357.013 746 366.5M746 366.5C748.241 360.386 750.21 360.479 754.5 364.5M495 259.5C493.768 258.246 492.53 257.079 491.287 256M498.5 406.5C494.188 403.511 491.185 378.782 500.5 379C509.815 379.218 507 408.5 498.5 406.5ZM744 338.5C751.5 344.5 753 356.5 754.5 364.5M744 338.5C752 341.5 748 338 754.5 338.5C761 339 761.5 360.5 761.5 360.5C757.95 359.877 756.059 359.291 754.5 364.5M555.5 161.435C562 182.5 539.5 166.541 528 170.5C501.84 179.506 467.5 179 446.5 163.5C447 181.5 438.733 163.311 436 160.5C430 190.5 383 216.5 380 216C381 219.5 382 222.833 389 220.5C396 218.167 389 230.5 379 225.5C379.772 228.258 385.862 232.004 386.5 235.5C388.753 247.846 384.014 262.817 377 271C360.678 290.042 357.5 285 349 281.5C349 293 340 309.5 324.5 331C311.382 349.196 320.5 354 320.5 354C320.274 349.123 324.242 350.455 333 354.5M333 354.5C339.5 355.5 339.5 332.5 332 332.5C324.5 332.5 326.5 353.5 333 354.5ZM333 354.5C336.945 350.778 339.251 349.688 344 354.5M344 354.5C350.5 355.5 350.5 333 343 333C335.5 333 337.5 353.5 344 354.5ZM640 220.5C643 215.5 643 207 634.5 200.5C635.5 208 636.724 212.749 632.5 217.5C629 221.437 627 195.5 612.5 192.5C618 202.5 619.5 217.5 617.5 214.5C612.423 206.885 605.5 201.5 597.5 199.5C601.5 204.5 603.5 210.5 603.5 213.5M455.5 224.5C455.5 229.5 453.39 235.5 456 236.5C458.61 237.5 459.807 244.784 461 246.35M461 246.35C466.436 245.52 473.568 246.467 478.5 248M471.5 220C473 233 464.5 238 468.5 238.5C472.5 239 474.333 243.869 478.5 248M478.5 248C483.604 249.586 486.494 251.841 491.287 256M486 226C487 235 480.5 241 484 242C487.5 243 491.287 252.5 491.287 256" stroke="white" stroke-width="4"/>
<path d="M578 277.5C581.5 287.5 580.5 299.5 572 305.5C584.5 309.5 600.993 310.044 602 321.5C606 367 613.5 363 613.5 363C613.5 363 625 367 638 321.5C644 313 660.5 316.5 672.5 314C666.1 309.2 665 293 668.5 286.5C662.371 289.006 661.895 289.584 660 284.5C669 269.5 668 243.5 660 231.5C652.707 244.262 651 253 639.5 260C629.361 260.25 624.145 259.161 615.5 255.5C608.748 246.497 604.468 238.839 599.5 228C596.588 234.097 581.5 257.5 590 276C590 276 583.5 281 578 277.5Z" fill="black"/>
<path d="M608 272.5C611.167 268.667 620.164 261.523 627 262.5M627 262.5C634 263.5 640.5 270 643.5 273.5M627 262.5L624.5 285M616.5 343L621.5 309M610.5 350.5C611.5 349.5 613 350.5 616 351C619 351.5 620.5 351 621 352M610.5 350.5C614.5 352.5 614.767 351.341 614.5 360M610.5 350.5C609.5 355.428 610 357.5 614.5 360M610.5 350.5C611.5 349.5 612.5 352 615.5 352.5C618.5 353 620.5 351 621 352M621 352C616.5 352.5 616.75 351.629 614.5 360M621 352C620 357.5 619 359.5 614.5 360M643.5 264.5L657 272.5C660.472 262 661 255.5 659 249C653.5 258.5 645 260.5 640 259.5C651.5 252.5 653.207 247.262 660.5 234.5C668.5 246.5 668 269.5 659 284.5C660.895 289.584 663.871 289.006 670 286.5C666.5 293 667.6 310.2 674 315C662 317.5 639.5 304.5 632 335.5C624.5 366.5 614 362 614 362C614 362 604.5 362.5 603.5 331.5C602.5 300.5 584 309 571.5 305C580 299 582 288 578.5 278C584 281.5 590.5 277 590.5 277C582 258.5 597.088 237.097 600 231C604.968 241.839 609.248 245.997 616 255C610.5 254 604 253 600.5 244.5C595.5 252 594.5 262.5 596 268.5L611 259.5M617.5 301.5C613 301 597 286.5 597 286.5C597 286.5 601 301.5 603.5 308C605.774 303.113 609.303 302.031 617.5 301.5ZM617.5 301.5C613.5 305 609 306.5 604.5 316.5M634.5 320C633.5 312 628.5 308 627 302.5M627 302.5C633 302.5 651.5 291.5 651.5 291.5C651.5 291.5 643.5 306 637.5 312C636.611 307.042 633.957 304.362 627 302.5Z" stroke="white" stroke-width="3"/>
</svg>
