<svg width="960" height="440" viewBox="0 0 960 440" fill="none" xmlns="http://www.w3.org/2000/svg">
<path d="M565.621 364H352V279.517L403.897 227.621H409.097C413.565 225.542 420.157 224 428.034 224C435.912 224 439.933 225.542 440.937 227.621H461.115C465.582 225.542 472.174 224 480.052 224C487.929 224 491.95 225.542 492.954 227.621H512.89C517.358 225.542 523.95 224 531.828 224C539.705 224 543.726 225.542 544.73 227.621H564.908C569.375 225.542 575.967 224 583.845 224C591.722 224 595.743 225.542 596.747 227.621H617.517V312.069L565.621 364Z" fill="black"/>
<path d="M352 279.517H565.621M352 279.517L403.897 227.621H617.517M352 279.517V364H565.621M565.621 364V279.517M565.621 364L617.517 312.069V227.621M565.621 279.517L617.517 227.621M402.858 242.103C403.34 244.479 407.343 246.328 415.966 246.328C430.763 246.328 441.025 240.885 441.19 236.672M402.858 242.103C401.991 237.828 412.519 231.845 428.034 231.845C437.375 231.845 441.294 234.013 441.19 236.672M402.858 242.103V234.259M402.858 234.259C403.34 236.635 407.343 238.483 415.966 238.483C430.763 238.483 441.025 233.04 441.19 228.828M402.858 234.259C401.991 229.984 412.519 224 428.034 224C437.375 224 441.294 226.169 441.19 228.828M441.19 236.672V228.828M454.875 242.103C455.358 244.479 459.36 246.328 467.983 246.328C482.78 246.328 493.042 240.885 493.207 236.672M454.875 242.103C454.008 237.828 464.537 231.845 480.052 231.845C489.392 231.845 493.311 234.013 493.207 236.672M454.875 242.103V234.259M454.875 234.259C455.358 236.635 459.36 238.483 467.983 238.483C482.78 238.483 493.042 233.04 493.207 228.828M454.875 234.259C454.008 229.984 464.537 224 480.052 224C489.392 224 493.311 226.169 493.207 228.828M493.207 236.672V228.828M506.651 242.103C507.134 244.479 511.136 246.328 519.759 246.328C534.556 246.328 544.818 240.885 544.983 236.672M506.651 242.103C505.784 237.828 516.312 231.845 531.828 231.845C541.168 231.845 545.087 234.013 544.983 236.672M506.651 242.103V234.259M506.651 234.259C507.133 236.635 511.136 238.483 519.759 238.483C534.556 238.483 544.818 233.04 544.983 228.828M506.651 234.259C505.784 229.984 516.312 224 531.828 224C541.168 224 545.087 226.169 544.983 228.828M544.983 236.672V228.828M558.669 242.103C559.151 244.479 563.153 246.328 571.776 246.328C586.573 246.328 596.835 240.885 597 236.672M558.669 242.103C557.801 237.828 568.33 231.845 583.845 231.845C593.185 231.845 597.104 234.013 597 236.672M558.669 242.103V234.259M558.669 234.259C559.151 236.635 563.153 238.483 571.776 238.483C586.573 238.483 596.835 233.04 597 228.828M558.669 234.259C557.801 229.984 568.33 224 583.845 224C593.185 224 597.104 226.169 597 228.828M597 236.672V228.828M376.306 268.655C376.789 271.031 380.791 272.879 389.414 272.879C404.211 272.879 414.473 267.436 414.638 263.224M376.306 268.655C375.439 264.38 385.968 258.397 401.483 258.397C410.823 258.397 414.742 260.565 414.638 263.224M376.306 268.655V260.81M376.306 260.81C376.789 263.186 380.791 265.034 389.414 265.034C404.211 265.034 414.473 259.592 414.638 255.379M376.306 260.81C375.439 256.535 385.968 250.552 401.483 250.552C410.823 250.552 414.742 252.72 414.638 255.379M414.638 263.224V255.379M428.324 268.655C428.806 271.031 432.808 272.879 441.431 272.879C456.228 272.879 466.49 267.436 466.655 263.224M428.324 268.655C427.456 264.38 437.985 258.397 453.5 258.397C462.84 258.397 466.759 260.565 466.655 263.224M428.324 268.655V260.81M428.324 260.81C428.806 263.186 432.808 265.034 441.431 265.034C456.228 265.034 466.49 259.592 466.655 255.379M428.324 260.81C427.456 256.535 437.985 250.552 453.5 250.552C462.841 250.552 466.759 252.72 466.655 255.379M466.655 263.224V255.379M480.1 268.655C480.582 271.031 484.584 272.879 493.207 272.879C508.004 272.879 518.266 267.436 518.431 263.224M480.1 268.655C479.232 264.38 489.761 258.397 505.276 258.397C514.616 258.397 518.535 260.565 518.431 263.224M480.1 268.655V260.81M480.1 260.81C480.582 263.186 484.584 265.034 493.207 265.034C508.004 265.034 518.266 259.592 518.431 255.379M480.1 260.81C479.232 256.535 489.761 250.552 505.276 250.552C514.616 250.552 518.535 252.72 518.431 255.379M518.431 263.224V255.379M532.117 268.655C532.599 271.031 536.601 272.879 545.224 272.879C560.022 272.879 570.283 267.436 570.448 263.224M532.117 268.655C531.249 264.38 541.778 258.397 557.293 258.397C566.634 258.397 570.552 260.565 570.448 263.224M532.117 268.655V260.81M532.117 260.81C532.599 263.186 536.601 265.034 545.224 265.034C560.021 265.034 570.283 259.592 570.448 255.379M532.117 260.81C531.249 256.535 541.778 250.552 557.293 250.552C566.634 250.552 570.552 252.72 570.448 255.379M570.448 263.224V255.379" stroke="white" stroke-width="3"/>
<path d="M402.858 234.259C403.34 236.635 407.343 238.483 415.966 238.483C430.763 238.483 441.025 233.04 441.19 228.828C441.294 226.169 437.375 224 428.034 224C412.519 224 401.991 229.984 402.858 234.259Z" fill="black"/>
<path d="M454.875 234.259C455.358 236.635 459.36 238.483 467.983 238.483C482.78 238.483 493.042 233.04 493.207 228.828C493.311 226.169 489.392 224 480.052 224C464.537 224 454.008 229.984 454.875 234.259Z" fill="black"/>
<path d="M506.651 234.259C507.133 236.635 511.136 238.483 519.759 238.483C534.556 238.483 544.818 233.04 544.983 228.828C545.087 226.169 541.168 224 531.828 224C516.312 224 505.784 229.984 506.651 234.259Z" fill="black"/>
<path d="M558.669 234.259C559.151 236.635 563.153 238.483 571.776 238.483C586.573 238.483 596.835 233.04 597 228.828C597.104 226.169 593.185 224 583.845 224C568.33 224 557.801 229.984 558.669 234.259Z" fill="black"/>
<path d="M376.306 260.81C376.789 263.186 380.791 265.034 389.414 265.034C404.211 265.034 414.473 259.592 414.638 255.379C414.742 252.72 410.823 250.552 401.483 250.552C385.968 250.552 375.439 256.535 376.306 260.81Z" fill="black"/>
<path d="M428.324 260.81C428.806 263.186 432.808 265.034 441.431 265.034C456.228 265.034 466.49 259.592 466.655 255.379C466.759 252.72 462.841 250.552 453.5 250.552C437.985 250.552 427.456 256.535 428.324 260.81Z" fill="black"/>
<path d="M480.1 260.81C480.582 263.186 484.584 265.034 493.207 265.034C508.004 265.034 518.266 259.592 518.431 255.379C518.535 252.72 514.616 250.552 505.276 250.552C489.761 250.552 479.232 256.535 480.1 260.81Z" fill="black"/>
<path d="M532.117 260.81C532.599 263.186 536.601 265.034 545.224 265.034C560.021 265.034 570.283 259.592 570.448 255.379C570.552 252.72 566.634 250.552 557.293 250.552C541.778 250.552 531.249 256.535 532.117 260.81Z" fill="black"/>
<path d="M402.858 234.259C403.34 236.635 407.343 238.483 415.966 238.483C430.763 238.483 441.025 233.04 441.19 228.828C441.294 226.169 437.375 224 428.034 224C412.519 224 401.991 229.984 402.858 234.259Z" stroke="white" stroke-width="3"/>
<path d="M454.875 234.259C455.358 236.635 459.36 238.483 467.983 238.483C482.78 238.483 493.042 233.04 493.207 228.828C493.311 226.169 489.392 224 480.052 224C464.537 224 454.008 229.984 454.875 234.259Z" stroke="white" stroke-width="3"/>
<path d="M506.651 234.259C507.133 236.635 511.136 238.483 519.759 238.483C534.556 238.483 544.818 233.04 544.983 228.828C545.087 226.169 541.168 224 531.828 224C516.312 224 505.784 229.984 506.651 234.259Z" stroke="white" stroke-width="3"/>
<path d="M558.669 234.259C559.151 236.635 563.153 238.483 571.776 238.483C586.573 238.483 596.835 233.04 597 228.828C597.104 226.169 593.185 224 583.845 224C568.33 224 557.801 229.984 558.669 234.259Z" stroke="white" stroke-width="3"/>
<path d="M376.306 260.81C376.789 263.186 380.791 265.034 389.414 265.034C404.211 265.034 414.473 259.592 414.638 255.379C414.742 252.72 410.823 250.552 401.483 250.552C385.968 250.552 375.439 256.535 376.306 260.81Z" stroke="white" stroke-width="3"/>
<path d="M428.324 260.81C428.806 263.186 432.808 265.034 441.431 265.034C456.228 265.034 466.49 259.592 466.655 255.379C466.759 252.72 462.841 250.552 453.5 250.552C437.985 250.552 427.456 256.535 428.324 260.81Z" stroke="white" stroke-width="3"/>
<path d="M480.1 260.81C480.582 263.186 484.584 265.034 493.207 265.034C508.004 265.034 518.266 259.592 518.431 255.379C518.535 252.72 514.616 250.552 505.276 250.552C489.761 250.552 479.232 256.535 480.1 260.81Z" stroke="white" stroke-width="3"/>
<path d="M532.117 260.81C532.599 263.186 536.601 265.034 545.224 265.034C560.021 265.034 570.283 259.592 570.448 255.379C570.552 252.72 566.634 250.552 557.293 250.552C541.778 250.552 531.249 256.535 532.117 260.81Z" stroke="white" stroke-width="3"/>
<path d="M565.621 279H352V194.517L403.897 142.621H409.097C413.565 140.542 420.157 139 428.034 139C435.912 139 439.933 140.542 440.937 142.621H461.115C465.582 140.542 472.174 139 480.052 139C487.929 139 491.95 140.542 492.954 142.621H512.89C517.358 140.542 523.95 139 531.828 139C539.705 139 543.726 140.542 544.73 142.621H564.908C569.375 140.542 575.967 139 583.845 139C591.722 139 595.743 140.542 596.747 142.621H617.517V227.069L565.621 279Z" fill="black"/>
<path d="M352 194.517H565.621M352 194.517L403.897 142.621H617.517M352 194.517V279H565.621M565.621 279V194.517M565.621 279L617.517 227.069V142.621M565.621 194.517L617.517 142.621M402.858 157.103C403.34 159.479 407.343 161.328 415.966 161.328C430.763 161.328 441.025 155.885 441.19 151.672M402.858 157.103C401.991 152.828 412.519 146.845 428.034 146.845C437.375 146.845 441.294 149.013 441.19 151.672M402.858 157.103V149.259M402.858 149.259C403.34 151.635 407.343 153.483 415.966 153.483C430.763 153.483 441.025 148.04 441.19 143.828M402.858 149.259C401.991 144.984 412.519 139 428.034 139C437.375 139 441.294 141.169 441.19 143.828M441.19 151.672V143.828M454.875 157.103C455.358 159.479 459.36 161.328 467.983 161.328C482.78 161.328 493.042 155.885 493.207 151.672M454.875 157.103C454.008 152.828 464.537 146.845 480.052 146.845C489.392 146.845 493.311 149.013 493.207 151.672M454.875 157.103V149.259M454.875 149.259C455.358 151.635 459.36 153.483 467.983 153.483C482.78 153.483 493.042 148.04 493.207 143.828M454.875 149.259C454.008 144.984 464.537 139 480.052 139C489.392 139 493.311 141.169 493.207 143.828M493.207 151.672V143.828M506.651 157.103C507.134 159.479 511.136 161.328 519.759 161.328C534.556 161.328 544.818 155.885 544.983 151.672M506.651 157.103C505.784 152.828 516.312 146.845 531.828 146.845C541.168 146.845 545.087 149.013 544.983 151.672M506.651 157.103V149.259M506.651 149.259C507.133 151.635 511.136 153.483 519.759 153.483C534.556 153.483 544.818 148.04 544.983 143.828M506.651 149.259C505.784 144.984 516.312 139 531.828 139C541.168 139 545.087 141.169 544.983 143.828M544.983 151.672V143.828M558.669 157.103C559.151 159.479 563.153 161.328 571.776 161.328C586.573 161.328 596.835 155.885 597 151.672M558.669 157.103C557.801 152.828 568.33 146.845 583.845 146.845C593.185 146.845 597.104 149.013 597 151.672M558.669 157.103V149.259M558.669 149.259C559.151 151.635 563.153 153.483 571.776 153.483C586.573 153.483 596.835 148.04 597 143.828M558.669 149.259C557.801 144.984 568.33 139 583.845 139C593.185 139 597.104 141.169 597 143.828M597 151.672V143.828M376.306 183.655C376.789 186.031 380.791 187.879 389.414 187.879C404.211 187.879 414.473 182.436 414.638 178.224M376.306 183.655C375.439 179.38 385.968 173.397 401.483 173.397C410.823 173.397 414.742 175.565 414.638 178.224M376.306 183.655V175.81M376.306 175.81C376.789 178.186 380.791 180.034 389.414 180.034C404.211 180.034 414.473 174.592 414.638 170.379M376.306 175.81C375.439 171.535 385.968 165.552 401.483 165.552C410.823 165.552 414.742 167.72 414.638 170.379M414.638 178.224V170.379M428.324 183.655C428.806 186.031 432.808 187.879 441.431 187.879C456.228 187.879 466.49 182.436 466.655 178.224M428.324 183.655C427.456 179.38 437.985 173.397 453.5 173.397C462.84 173.397 466.759 175.565 466.655 178.224M428.324 183.655V175.81M428.324 175.81C428.806 178.186 432.808 180.034 441.431 180.034C456.228 180.034 466.49 174.592 466.655 170.379M428.324 175.81C427.456 171.535 437.985 165.552 453.5 165.552C462.841 165.552 466.759 167.72 466.655 170.379M466.655 178.224V170.379M480.1 183.655C480.582 186.031 484.584 187.879 493.207 187.879C508.004 187.879 518.266 182.436 518.431 178.224M480.1 183.655C479.232 179.38 489.761 173.397 505.276 173.397C514.616 173.397 518.535 175.565 518.431 178.224M480.1 183.655V175.81M480.1 175.81C480.582 178.186 484.584 180.034 493.207 180.034C508.004 180.034 518.266 174.592 518.431 170.379M480.1 175.81C479.232 171.535 489.761 165.552 505.276 165.552C514.616 165.552 518.535 167.72 518.431 170.379M518.431 178.224V170.379M532.117 183.655C532.599 186.031 536.601 187.879 545.224 187.879C560.022 187.879 570.283 182.436 570.448 178.224M532.117 183.655C531.249 179.38 541.778 173.397 557.293 173.397C566.634 173.397 570.552 175.565 570.448 178.224M532.117 183.655V175.81M532.117 175.81C532.599 178.186 536.601 180.034 545.224 180.034C560.021 180.034 570.283 174.592 570.448 170.379M532.117 175.81C531.249 171.535 541.778 165.552 557.293 165.552C566.634 165.552 570.552 167.72 570.448 170.379M570.448 178.224V170.379" stroke="white" stroke-width="3"/>
<path d="M402.858 149.259C403.34 151.635 407.343 153.483 415.966 153.483C430.763 153.483 441.025 148.04 441.19 143.828C441.294 141.169 437.375 139 428.034 139C412.519 139 401.991 144.984 402.858 149.259Z" fill="black"/>
<path d="M454.875 149.259C455.358 151.635 459.36 153.483 467.983 153.483C482.78 153.483 493.042 148.04 493.207 143.828C493.311 141.169 489.392 139 480.052 139C464.537 139 454.008 144.984 454.875 149.259Z" fill="black"/>
<path d="M506.651 149.259C507.133 151.635 511.136 153.483 519.759 153.483C534.556 153.483 544.818 148.04 544.983 143.828C545.087 141.169 541.168 139 531.828 139C516.312 139 505.784 144.984 506.651 149.259Z" fill="black"/>
<path d="M558.669 149.259C559.151 151.635 563.153 153.483 571.776 153.483C586.573 153.483 596.835 148.04 597 143.828C597.104 141.169 593.185 139 583.845 139C568.33 139 557.801 144.984 558.669 149.259Z" fill="black"/>
<path d="M376.306 175.81C376.789 178.186 380.791 180.034 389.414 180.034C404.211 180.034 414.473 174.592 414.638 170.379C414.742 167.72 410.823 165.552 401.483 165.552C385.968 165.552 375.439 171.535 376.306 175.81Z" fill="black"/>
<path d="M428.324 175.81C428.806 178.186 432.808 180.034 441.431 180.034C456.228 180.034 466.49 174.592 466.655 170.379C466.759 167.72 462.841 165.552 453.5 165.552C437.985 165.552 427.456 171.535 428.324 175.81Z" fill="black"/>
<path d="M480.1 175.81C480.582 178.186 484.584 180.034 493.207 180.034C508.004 180.034 518.266 174.592 518.431 170.379C518.535 167.72 514.616 165.552 505.276 165.552C489.761 165.552 479.232 171.535 480.1 175.81Z" fill="black"/>
<path d="M532.117 175.81C532.599 178.186 536.601 180.034 545.224 180.034C560.021 180.034 570.283 174.592 570.448 170.379C570.552 167.72 566.634 165.552 557.293 165.552C541.778 165.552 531.249 171.535 532.117 175.81Z" fill="black"/>
<path d="M402.858 149.259C403.34 151.635 407.343 153.483 415.966 153.483C430.763 153.483 441.025 148.04 441.19 143.828C441.294 141.169 437.375 139 428.034 139C412.519 139 401.991 144.984 402.858 149.259Z" stroke="white" stroke-width="3"/>
<path d="M454.875 149.259C455.358 151.635 459.36 153.483 467.983 153.483C482.78 153.483 493.042 148.04 493.207 143.828C493.311 141.169 489.392 139 480.052 139C464.537 139 454.008 144.984 454.875 149.259Z" stroke="white" stroke-width="3"/>
<path d="M506.651 149.259C507.133 151.635 511.136 153.483 519.759 153.483C534.556 153.483 544.818 148.04 544.983 143.828C545.087 141.169 541.168 139 531.828 139C516.312 139 505.784 144.984 506.651 149.259Z" stroke="white" stroke-width="3"/>
<path d="M558.669 149.259C559.151 151.635 563.153 153.483 571.776 153.483C586.573 153.483 596.835 148.04 597 143.828C597.104 141.169 593.185 139 583.845 139C568.33 139 557.801 144.984 558.669 149.259Z" stroke="white" stroke-width="3"/>
<path d="M376.306 175.81C376.789 178.186 380.791 180.034 389.414 180.034C404.211 180.034 414.473 174.592 414.638 170.379C414.742 167.72 410.823 165.552 401.483 165.552C385.968 165.552 375.439 171.535 376.306 175.81Z" stroke="white" stroke-width="3"/>
<path d="M428.324 175.81C428.806 178.186 432.808 180.034 441.431 180.034C456.228 180.034 466.49 174.592 466.655 170.379C466.759 167.72 462.841 165.552 453.5 165.552C437.985 165.552 427.456 171.535 428.324 175.81Z" stroke="white" stroke-width="3"/>
<path d="M480.1 175.81C480.582 178.186 484.584 180.034 493.207 180.034C508.004 180.034 518.266 174.592 518.431 170.379C518.535 167.72 514.616 165.552 505.276 165.552C489.761 165.552 479.232 171.535 480.1 175.81Z" stroke="white" stroke-width="3"/>
<path d="M532.117 175.81C532.599 178.186 536.601 180.034 545.224 180.034C560.021 180.034 570.283 174.592 570.448 170.379C570.552 167.72 566.634 165.552 557.293 165.552C541.778 165.552 531.249 171.535 532.117 175.81Z" stroke="white" stroke-width="3"/>
<path d="M513.621 192H408V107.517L428.64 86.8769C429.173 85.8043 430.272 84.6993 431.858 83.6588L455.192 60.3252C455.724 59.2526 456.824 58.1476 458.41 57.1071L459.897 55.6207H461.115C465.582 53.5425 472.174 52 480.052 52C487.929 52 491.95 53.5425 492.954 55.6207H512.89C517.358 53.5425 523.95 52 531.828 52C539.705 52 543.726 53.5425 544.73 55.6207H565.517V140.069L513.621 192Z" fill="black"/>
<path d="M408 107.517H513.621M408 107.517L459.897 55.6207H565.517M408 107.517V192H513.621M513.621 192V107.517M513.621 192L565.517 140.069V55.6207M513.621 107.517L565.517 55.6207M454.875 70.1034C455.358 72.4794 459.36 74.3276 467.983 74.3276C482.78 74.3276 493.042 68.8848 493.207 64.6724M454.875 70.1034C454.008 65.8284 464.537 59.8448 480.052 59.8448C489.392 59.8448 493.311 62.0135 493.207 64.6724M454.875 70.1034V62.2586M454.875 62.2586C455.358 64.6346 459.36 66.4828 467.983 66.4828C482.78 66.4828 493.042 61.04 493.207 56.8277M454.875 62.2586C454.008 57.9836 464.537 52 480.052 52C489.392 52 493.311 54.1687 493.207 56.8277M493.207 64.6724V56.8277M506.651 70.1034C507.134 72.4794 511.136 74.3276 519.759 74.3276C534.556 74.3276 544.818 68.8848 544.983 64.6724M506.651 70.1034C505.784 65.8284 516.312 59.8448 531.828 59.8448C541.168 59.8448 545.087 62.0135 544.983 64.6724M506.651 70.1034V62.2586M506.651 62.2586C507.134 64.6346 511.136 66.4828 519.759 66.4828C534.556 66.4828 544.818 61.04 544.983 56.8277M506.651 62.2586C505.784 57.9836 516.312 52 531.828 52C541.168 52 545.087 54.1687 544.983 56.8277M544.983 64.6724V56.8277M428.324 96.6552C428.806 99.0311 432.808 100.879 441.431 100.879C456.228 100.879 466.49 95.4365 466.655 91.2241M428.324 96.6552C427.456 92.3801 437.985 86.3966 453.5 86.3966C462.84 86.3966 466.759 88.5652 466.655 91.2241M428.324 96.6552V88.8103M428.324 88.8103C428.806 91.1863 432.808 93.0345 441.431 93.0345C456.228 93.0345 466.49 87.5917 466.655 83.3794M428.324 88.8103C427.456 84.5353 437.985 78.5517 453.5 78.5517C462.841 78.5517 466.759 80.7204 466.655 83.3794M466.655 91.2241V83.3794M480.1 96.6552C480.582 99.0311 484.584 100.879 493.207 100.879C508.004 100.879 518.266 95.4365 518.431 91.2241M480.1 96.6552C479.232 92.3801 489.761 86.3966 505.276 86.3966C514.616 86.3966 518.535 88.5652 518.431 91.2241M480.1 96.6552V88.8103M480.1 88.8103C480.582 91.1863 484.584 93.0345 493.207 93.0345C508.004 93.0345 518.266 87.5917 518.431 83.3794M480.1 88.8103C479.232 84.5353 489.761 78.5517 505.276 78.5517C514.616 78.5517 518.535 80.7204 518.431 83.3794M518.431 91.2241V83.3794" stroke="white" stroke-width="3"/>
<path d="M454.875 62.2586C455.358 64.6346 459.36 66.4828 467.983 66.4828C482.78 66.4828 493.042 61.04 493.207 56.8277C493.311 54.1687 489.392 52 480.052 52C464.537 52 454.008 57.9836 454.875 62.2586Z" fill="black"/>
<path d="M506.651 62.2586C507.133 64.6346 511.136 66.4828 519.759 66.4828C534.556 66.4828 544.818 61.04 544.983 56.8277C545.087 54.1687 541.168 52 531.828 52C516.312 52 505.784 57.9836 506.651 62.2586Z" fill="black"/>
<path d="M428.324 88.8103C428.806 91.1863 432.808 93.0345 441.431 93.0345C456.228 93.0345 466.49 87.5917 466.655 83.3794C466.759 80.7204 462.841 78.5517 453.5 78.5517C437.985 78.5517 427.456 84.5353 428.324 88.8103Z" fill="black"/>
<path d="M480.1 88.8103C480.582 91.1863 484.584 93.0345 493.207 93.0345C508.004 93.0345 518.266 87.5917 518.431 83.3794C518.535 80.7204 514.616 78.5517 505.276 78.5517C489.761 78.5517 479.232 84.5353 480.1 88.8103Z" fill="black"/>
<path d="M454.875 62.2586C455.358 64.6346 459.36 66.4828 467.983 66.4828C482.78 66.4828 493.042 61.04 493.207 56.8277C493.311 54.1687 489.392 52 480.052 52C464.537 52 454.008 57.9836 454.875 62.2586Z" stroke="white" stroke-width="3"/>
<path d="M506.651 62.2586C507.133 64.6346 511.136 66.4828 519.759 66.4828C534.556 66.4828 544.818 61.04 544.983 56.8277C545.087 54.1687 541.168 52 531.828 52C516.312 52 505.784 57.9836 506.651 62.2586Z" stroke="white" stroke-width="3"/>
<path d="M428.324 88.8103C428.806 91.1863 432.808 93.0345 441.431 93.0345C456.228 93.0345 466.49 87.5917 466.655 83.3794C466.759 80.7204 462.841 78.5517 453.5 78.5517C437.985 78.5517 427.456 84.5353 428.324 88.8103Z" stroke="white" stroke-width="3"/>
<path d="M480.1 88.8103C480.582 91.1863 484.584 93.0345 493.207 93.0345C508.004 93.0345 518.266 87.5917 518.431 83.3794C518.535 80.7204 514.616 78.5517 505.276 78.5517C489.761 78.5517 479.232 84.5353 480.1 88.8103Z" stroke="white" stroke-width="3"/>
<path d="M485 213H437V261H485V213Z" fill="white"/>
<path d="M469.244 250.5C470.211 252.079 471.469 253.239 473.693 253.239C475.562 253.239 476.756 252.305 476.756 251.014C476.756 249.468 475.53 248.92 473.472 248.02L472.345 247.536C469.09 246.15 466.928 244.413 466.928 240.74C466.928 237.357 469.505 234.782 473.533 234.782C476.401 234.782 478.463 235.78 479.949 238.394L476.436 240.649C475.663 239.262 474.829 238.716 473.533 238.716C472.212 238.716 471.375 239.554 471.375 240.649C471.375 242.002 472.213 242.55 474.148 243.388L475.276 243.871C479.108 245.514 481.272 247.19 481.272 250.957C481.272 255.018 478.082 257.242 473.798 257.242C469.609 257.242 466.902 255.246 465.578 252.63L469.244 250.5ZM453.31 250.891C454.019 252.148 454.663 253.211 456.213 253.211C457.695 253.211 458.63 252.631 458.63 250.377V235.04H463.14V250.438C463.14 255.108 460.402 257.234 456.405 257.234C452.794 257.234 450.702 255.365 449.638 253.114L453.31 250.891Z" fill="black"/>
<path d="M467.126 128.243V128H486.093V173H436.907V128H455.846V128.243C455.846 129.611 456.441 130.923 457.498 131.891C458.556 132.859 459.991 133.402 461.486 133.402C462.982 133.402 464.417 132.859 465.474 131.891C466.532 130.923 467.126 129.611 467.126 128.243Z" fill="white"/>
<path d="M460.38 168.183L457.985 157.341H457.944L455.353 168.183H452.053L448.315 152.252H451.573L453.804 163.094H453.845L456.532 152.252H459.58L461.994 163.228H462.035L464.58 152.252H467.78L463.625 168.183H460.38Z" fill="black"/>
<path fill-rule="evenodd" clip-rule="evenodd" d="M478.323 168.183L477.213 164.637H471.349L470.494 168.183H467.236L471.45 152.252H476.591L481.715 168.183H478.323ZM471.989 162.024L473.41 156.178H474.781L476.413 162.024H471.989Z" fill="black"/>
<path d="M398.953 301.812V298.266H412.203V301.844C412.203 302.208 412.073 302.521 411.812 302.781C411.552 303.031 411.245 303.156 410.891 303.156C410.526 303.156 410.208 303.026 409.938 302.766C409.677 302.505 409.547 302.198 409.547 301.844V300.891H406.891V317.688C406.891 318.052 406.76 318.365 406.5 318.625C406.24 318.875 405.932 319 405.578 319C405.203 319 404.885 318.875 404.625 318.625C404.365 318.365 404.234 318.052 404.234 317.688V300.891H401.578V301.812C401.578 302.177 401.448 302.49 401.188 302.75C400.938 303 400.63 303.125 400.266 303.125C399.901 303.125 399.589 303 399.328 302.75C399.078 302.49 398.953 302.177 398.953 301.812ZM414.578 317.688V299.547C414.578 299.193 414.703 298.885 414.953 298.625C415.214 298.365 415.526 298.234 415.891 298.234C416.245 298.234 416.552 298.365 416.812 298.625C417.073 298.885 417.203 299.193 417.203 299.547V307.281H425.203V299.547C425.203 299.193 425.328 298.885 425.578 298.625C425.839 298.365 426.151 298.234 426.516 298.234C426.88 298.234 427.188 298.365 427.438 298.625C427.698 298.885 427.828 299.203 427.828 299.578V317.688C427.828 318.042 427.693 318.349 427.422 318.609C427.161 318.87 426.859 319 426.516 319C426.141 319 425.828 318.875 425.578 318.625C425.328 318.365 425.203 318.052 425.203 317.688V309.906H417.234V317.688C417.234 318.042 417.099 318.349 416.828 318.609C416.568 318.87 416.255 319 415.891 319C415.536 319 415.229 318.875 414.969 318.625C414.708 318.365 414.578 318.052 414.578 317.688ZM442.109 300.891H432.828V307.281H436.828C437.182 307.281 437.49 307.411 437.75 307.672C438.01 307.932 438.141 308.24 438.141 308.594C438.141 308.969 438.01 309.286 437.75 309.547C437.5 309.807 437.193 309.938 436.828 309.938H432.828V316.375H442.141C442.495 316.375 442.802 316.505 443.062 316.766C443.323 317.016 443.453 317.323 443.453 317.688C443.453 318.052 443.318 318.365 443.047 318.625C442.786 318.875 442.474 319 442.109 319H430.203V298.234H442.109C442.474 298.234 442.786 298.37 443.047 298.641C443.318 298.901 443.453 299.214 443.453 299.578C443.453 299.932 443.318 300.24 443.047 300.5C442.786 300.76 442.474 300.891 442.109 300.891ZM443.438 301.812C443.438 302.177 443.312 302.49 443.062 302.75C442.812 303 442.5 303.125 442.125 303.125C441.76 303.125 441.453 303 441.203 302.75C440.953 302.49 440.828 302.177 440.828 301.812V299.578C440.828 299.214 440.953 298.906 441.203 298.656C441.453 298.396 441.76 298.266 442.125 298.266C442.5 298.266 442.812 298.396 443.062 298.656C443.312 298.906 443.438 299.214 443.438 299.578V301.812ZM443.438 317.656C443.438 318.021 443.312 318.333 443.062 318.594C442.812 318.844 442.5 318.969 442.125 318.969C441.76 318.969 441.453 318.844 441.203 318.594C440.953 318.333 440.828 318.021 440.828 317.656V315.422C440.828 315.057 440.953 314.75 441.203 314.5C441.453 314.24 441.76 314.109 442.125 314.109C442.5 314.109 442.812 314.24 443.062 314.5C443.312 314.75 443.438 315.057 443.438 315.422V317.656ZM480.391 314.516C481.745 305.974 482.547 301.573 482.797 301.312C483.057 301.052 483.37 300.922 483.734 300.922C484.089 300.922 484.396 301.052 484.656 301.312C484.917 301.573 485.651 306.016 486.859 314.641L487.703 299.547C487.703 299.193 487.833 298.885 488.094 298.625C488.354 298.365 488.661 298.234 489.016 298.234C489.38 298.234 489.693 298.365 489.953 298.625C490.224 298.875 490.359 299.182 490.359 299.547L488.734 317.922C488.734 318.641 488.406 319 487.75 319H486.531C486.052 319 485.724 318.74 485.547 318.219L483.703 308.062L481.703 318.219C481.495 318.74 481.167 319 480.719 319H479.266C478.641 319 478.328 318.651 478.328 317.953L477.078 299.547C477.078 299.193 477.203 298.885 477.453 298.625C477.714 298.365 478.026 298.234 478.391 298.234C478.755 298.234 479.062 298.365 479.312 298.625C479.573 298.875 479.703 299.182 479.703 299.547L480.391 314.516ZM504.609 300.891H495.328V307.281H499.328C499.682 307.281 499.99 307.411 500.25 307.672C500.51 307.932 500.641 308.24 500.641 308.594C500.641 308.969 500.51 309.286 500.25 309.547C500 309.807 499.693 309.938 499.328 309.938H495.328V316.375H504.641C504.995 316.375 505.302 316.505 505.562 316.766C505.823 317.016 505.953 317.323 505.953 317.688C505.953 318.052 505.818 318.365 505.547 318.625C505.286 318.875 504.974 319 504.609 319H492.703V298.234H504.609C504.974 298.234 505.286 298.37 505.547 298.641C505.818 298.901 505.953 299.214 505.953 299.578C505.953 299.932 505.818 300.24 505.547 300.5C505.286 300.76 504.974 300.891 504.609 300.891ZM505.938 301.812C505.938 302.177 505.812 302.49 505.562 302.75C505.312 303 505 303.125 504.625 303.125C504.26 303.125 503.953 303 503.703 302.75C503.453 302.49 503.328 302.177 503.328 301.812V299.578C503.328 299.214 503.453 298.906 503.703 298.656C503.953 298.396 504.26 298.266 504.625 298.266C505 298.266 505.312 298.396 505.562 298.656C505.812 298.906 505.938 299.214 505.938 299.578V301.812ZM505.938 317.656C505.938 318.021 505.812 318.333 505.562 318.594C505.312 318.844 505 318.969 504.625 318.969C504.26 318.969 503.953 318.844 503.703 318.594C503.453 318.333 503.328 318.021 503.328 317.656V315.422C503.328 315.057 503.453 314.75 503.703 314.5C503.953 314.24 504.26 314.109 504.625 314.109C505 314.109 505.312 314.24 505.562 314.5C505.812 314.75 505.938 315.057 505.938 315.422V317.656ZM521.609 312.562V313.719C521.609 315.167 521.094 316.411 520.062 317.453C519.042 318.484 517.807 319 516.359 319H508.328V298.234H516.359C517.807 298.234 519.042 298.75 520.062 299.781C521.094 300.812 521.609 302.057 521.609 303.516V304.625C521.609 306.177 521.01 307.5 519.812 308.594C521.01 309.708 521.609 311.031 521.609 312.562ZM518.922 304.594V303.516C518.922 302.786 518.661 302.161 518.141 301.641C517.63 301.12 517.016 300.859 516.297 300.859H510.953V307.219H516.297C517.005 307.219 517.62 306.964 518.141 306.453C518.661 305.932 518.922 305.312 518.922 304.594ZM518.922 313.719V312.625C518.922 311.896 518.661 311.271 518.141 310.75C517.63 310.229 517.016 309.969 516.297 309.969H510.984V316.344H516.297C517.005 316.344 517.62 316.089 518.141 315.578C518.661 315.057 518.922 314.438 518.922 313.719ZM398.953 345.688V326.234H408.266C409.339 326.234 410.26 326.625 411.031 327.406C411.812 328.188 412.203 329.12 412.203 330.203V335.125C412.203 336.208 411.818 337.135 411.047 337.906C410.276 338.677 409.349 339.062 408.266 339.062H401.609V345.688C401.609 346.052 401.479 346.365 401.219 346.625C400.969 346.875 400.661 347 400.297 347C399.922 347 399.604 346.875 399.344 346.625C399.083 346.365 398.953 346.052 398.953 345.688ZM401.609 336.438H408.266C408.62 336.438 408.927 336.312 409.188 336.062C409.448 335.802 409.578 335.49 409.578 335.125V330.203C409.578 329.839 409.448 329.531 409.188 329.281C408.927 329.021 408.62 328.891 408.266 328.891H401.609V336.438ZM414.578 347V327.547C414.578 327.193 414.708 326.885 414.969 326.625C415.229 326.365 415.536 326.234 415.891 326.234C416.245 326.234 416.552 326.365 416.812 326.625C417.073 326.885 417.203 327.193 417.203 327.547V344.375H426.484C426.849 344.375 427.161 344.505 427.422 344.766C427.693 345.016 427.828 345.323 427.828 345.688C427.828 346.052 427.693 346.365 427.422 346.625C427.161 346.875 426.849 347 426.484 347H414.578ZM427.938 345.656C427.938 346.021 427.812 346.333 427.562 346.594C427.312 346.844 427 346.969 426.625 346.969C426.26 346.969 425.953 346.844 425.703 346.594C425.453 346.333 425.328 346.021 425.328 345.656V343.422C425.328 343.057 425.453 342.75 425.703 342.5C425.953 342.24 426.26 342.109 426.625 342.109C427 342.109 427.312 342.24 427.562 342.5C427.812 342.75 427.938 343.057 427.938 343.422V345.656ZM430.281 345.172L435.594 327.219C435.802 326.562 436.24 326.234 436.906 326.234C437.552 326.234 437.958 326.51 438.125 327.062L443.359 345.297C443.401 345.432 443.422 345.562 443.422 345.688C443.422 346.052 443.297 346.365 443.047 346.625C442.797 346.875 442.51 347 442.188 347C441.5 347 441.062 346.682 440.875 346.047L439.812 342.484H433.828L432.672 346.297C432.641 346.464 432.51 346.625 432.281 346.781C432.052 346.927 431.802 347 431.531 347C431.146 347 430.828 346.87 430.578 346.609C430.328 346.349 430.203 346.031 430.203 345.656C430.203 345.5 430.229 345.339 430.281 345.172ZM436.875 332.312L434.625 339.828H439.047L436.875 332.312ZM445.828 329.812V326.266H459.078V329.844C459.078 330.208 458.948 330.521 458.688 330.781C458.427 331.031 458.12 331.156 457.766 331.156C457.401 331.156 457.083 331.026 456.812 330.766C456.552 330.505 456.422 330.198 456.422 329.844V328.891H453.766V345.688C453.766 346.052 453.635 346.365 453.375 346.625C453.115 346.875 452.807 347 452.453 347C452.078 347 451.76 346.875 451.5 346.625C451.24 346.365 451.109 346.052 451.109 345.688V328.891H448.453V329.812C448.453 330.177 448.323 330.49 448.062 330.75C447.812 331 447.505 331.125 447.141 331.125C446.776 331.125 446.464 331 446.203 330.75C445.953 330.49 445.828 330.177 445.828 329.812ZM473.375 328.891H464.094V335.281H468.094C468.448 335.281 468.755 335.411 469.016 335.672C469.276 335.932 469.406 336.24 469.406 336.594C469.406 336.969 469.276 337.286 469.016 337.547C468.766 337.807 468.458 337.938 468.094 337.938H464.094V344.375L461.469 344.531V326.234H473.375C473.74 326.234 474.052 326.37 474.312 326.641C474.583 326.901 474.719 327.214 474.719 327.578C474.719 327.932 474.583 328.24 474.312 328.5C474.052 328.76 473.74 328.891 473.375 328.891ZM474.703 329.812C474.703 330.177 474.578 330.49 474.328 330.75C474.078 331 473.766 331.125 473.391 331.125C473.026 331.125 472.719 331 472.469 330.75C472.219 330.49 472.094 330.177 472.094 329.812V327.578C472.094 327.214 472.219 326.906 472.469 326.656C472.719 326.396 473.026 326.266 473.391 326.266C473.766 326.266 474.078 326.396 474.328 326.656C474.578 326.906 474.703 327.214 474.703 327.578V329.812ZM464.062 345.688C464.062 346.052 463.938 346.365 463.688 346.625C463.438 346.875 463.125 347 462.75 347C462.385 347 462.078 346.875 461.828 346.625C461.578 346.365 461.453 346.052 461.453 345.688V343.453C461.453 343.089 461.578 342.781 461.828 342.531C462.078 342.271 462.385 342.141 462.75 342.141C463.125 342.141 463.438 342.271 463.688 342.531C463.938 342.781 464.062 343.089 464.062 343.453V345.688ZM486.828 328.156L489.719 334.047C490.125 334.849 490.328 335.719 490.328 336.656C490.328 337.573 490.125 338.438 489.719 339.25L486.828 345.078C486.214 346.359 485.172 347 483.703 347C483.005 347 482.375 346.818 481.812 346.453C481.26 346.089 480.844 345.63 480.562 345.078L477.656 339.25C477.271 338.49 477.078 337.625 477.078 336.656C477.078 335.688 477.271 334.818 477.656 334.047L480.562 328.156C481.219 326.875 482.266 326.234 483.703 326.234C485.161 326.234 486.203 326.875 486.828 328.156ZM482.828 329.469L480.109 335C479.859 335.552 479.734 336.094 479.734 336.625C479.734 337.198 479.859 337.745 480.109 338.266L482.906 343.859C483.052 344.203 483.318 344.375 483.703 344.375C484.036 344.375 484.292 344.203 484.469 343.859L487.281 338.266C487.542 337.714 487.672 337.167 487.672 336.625C487.672 336.052 487.542 335.51 487.281 335L484.531 329.469C484.354 329.062 484.078 328.859 483.703 328.859C483.328 328.859 483.036 329.062 482.828 329.469ZM492.703 345.688V326.234H501.984C503.057 326.234 503.979 326.625 504.75 327.406C505.531 328.188 505.922 329.12 505.922 330.203V331.703C505.922 332.797 505.536 333.734 504.766 334.516C503.995 335.286 503.068 335.672 501.984 335.672H500.312L505.688 344.891C505.854 345.161 505.938 345.432 505.938 345.703C505.938 346.057 505.802 346.365 505.531 346.625C505.26 346.875 504.953 347 504.609 347C504.089 347 503.693 346.766 503.422 346.297L497.25 335.672H495.359V345.688C495.359 346.052 495.224 346.365 494.953 346.625C494.693 346.875 494.38 347 494.016 347C493.651 347 493.339 346.875 493.078 346.625C492.828 346.365 492.703 346.052 492.703 345.688ZM495.328 333.047H501.984C502.349 333.047 502.656 332.922 502.906 332.672C503.167 332.411 503.297 332.099 503.297 331.734V330.203C503.297 329.839 503.167 329.531 502.906 329.281C502.656 329.021 502.349 328.891 501.984 328.891H495.328V333.047ZM510.953 331.172V345.688C510.953 346.052 510.823 346.365 510.562 346.625C510.312 346.875 510.005 347 509.641 347C509.276 347 508.964 346.87 508.703 346.609C508.453 346.349 508.328 346.042 508.328 345.688V326.234H511.719L514.922 333.578L518.281 326.234H521.609V345.688C521.609 346.052 521.474 346.365 521.203 346.625C520.943 346.875 520.63 347 520.266 347C519.911 347 519.604 346.87 519.344 346.609C519.083 346.349 518.953 346.042 518.953 345.688V331.234C517.161 334.578 516.135 336.38 515.875 336.641C515.615 336.901 515.307 337.031 514.953 337.031C514.589 337.031 514.276 336.901 514.016 336.641C513.766 336.38 512.745 334.557 510.953 331.172Z" fill="white"/>
</svg>
