<svg width="960" height="440" viewBox="0 0 960 440" fill="none" xmlns="http://www.w3.org/2000/svg">
<path d="M33.5 305C138.833 278 367.9 229.4 441.5 251C533.5 278 576 190.5 607.5 157C639 123.5 620.5 74.5 645.5 67.5C670.5 60.5 693.5 55 711 43.5C725 34.3 787.667 34.6667 794.5 20.5C814.5 -9.49998 838.631 49.6607 863 30.5C928.5 -21 897 74 921.5 96.5C946 119 969 148.5 953 188.5C940.2 220.5 970 301.833 986.5 338.5L1015.5 374.5M507 275C507 275 547 285.5 587.5 275C620.817 266.362 678.495 265.169 770 287.285M927 313.5C913.05 318.061 886.024 315.229 863 311.16M770 287.285C789.729 292.053 811.031 297.905 834 305C841.355 306.866 851.695 309.162 863 311.16M770 287.285C764.167 245.69 742 215 794.5 181C847 147 892 203.5 893 232C894 260.5 870.667 303.202 863 311.16M537.5 268.5C606.3 230.5 642.5 163 652 134L683 119.5L903.5 178L913.5 304.5M808 43.5C852 83.1 843.667 86.8334 834 96.5C842.333 109 865.8 134 893 134M408 232C426.333 227.167 466.1 205.4 478.5 157C494 96.5 518 136 537.5 157C557 178 553.258 180 587.5 157" stroke="white" stroke-width="8"/>
<path d="M389 276H367V210C364.333 207.333 354.848 209.755 347 204C317 182 364 209 362 193C360 177 337 148 309 136C286.6 126.4 274.333 116 271 112C285 115.667 313.8 123 317 123C320.2 123 351.667 155.667 367 172L373 136L389 94C392.379 95.8857 384.564 127.902 389 130.5C403.382 138.923 432.389 119.943 433 123C433.8 127 409 140.333 398 143C387.333 155.333 369.718 174.4 379.318 220C388.918 265.6 410.682 264 389 276Z" fill="black"/>
<path d="M373 136L389 94C392.379 95.8857 384.564 127.902 389 130.5M373 136L367 172C351.667 155.667 320.2 123 317 123C313.8 123 285 115.667 271 112C274.333 116 286.6 126.4 309 136C337 148 360 177 362 193C364 209 317 182 347 204C354.848 209.755 364.333 207.333 367 210V276H389C410.682 264 388.918 265.6 379.318 220C369.718 174.4 387.333 155.333 398 143C409 140.333 433.8 127 433 123C432.389 119.943 403.382 138.923 389 130.5M373 136C367.726 119.667 347.5 115 341 77M389 130.5C411.5 108.5 398 96 410 72M410 72C433 60 433 90.5 445 66.5C457 42.5 463.667 45 474 51M410 72C419.5 46.5 400 65 387.5 41.5" stroke="white" stroke-width="4"/>
<path d="M213.631 202.924C206.147 202.976 197.24 195.346 192.702 180.49C188.164 165.633 191.441 149.987 201.523 137.142C211.604 124.297 234.099 133.276 245.498 138.504C247.9 150.346 263 141 252.139 168.545C251.017 172.033 253.554 169.076 254.409 172.748C255.265 176.419 254.883 181.24 243.692 182.128C243.861 182.233 245.215 182.203 246.221 182.829C243.215 186.54 226.943 202.831 213.631 202.924Z" fill="black" stroke="white" stroke-width="2"/>
<path d="M201.841 154.93C205.6 155.28 205.353 164.737 201.593 164.388C197.833 164.038 198.081 154.58 201.841 154.93Z" fill="white"/>
<path d="M226.124 154.787C229.884 155.136 229.637 164.594 225.877 164.244C222.117 163.895 222.365 154.437 226.124 154.787Z" fill="white"/>
<path d="M211.473 159.217L204.274 168.66L207.239 173.275L210.341 172.552L207.511 168.518L211.473 159.217Z" fill="white"/>
<path d="M198.927 152.952L206.377 148.968L205.699 146.061L198.927 152.952Z" fill="white"/>
<path d="M224.381 149.063L227.031 146.402L233.489 153.07L231.971 154.446L224.381 149.063Z" fill="white"/>
<path d="M204 189.016L213 189.016L213 190.016L207 191L204 189.016Z" fill="white"/>
<path fill-rule="evenodd" clip-rule="evenodd" d="M198.572 177.597L196.641 180.21L196.61 182.823C204.211 186.627 206.299 186 212 186C217.701 186 221.491 185.801 229 181L226 177.5L224.5 177.5L225 179C223 179 218 180 214 180C209 180 203 180 198.985 179.022L198.572 177.597ZM199 182.5L198.985 181L198.985 180.21C203 181 209 181 214 181C218 181 221 180.5 226 180L227 181C223.614 183.424 218.651 185 212 185C204.95 185 204 185 199 182.5Z" fill="white"/>
<path d="M256.846 158.967C256.144 163.337 255.702 167.314 252.045 167.306C251.607 167.113 250.85 166.165 251.215 165.022C251.755 164.084 252.206 164.002 252.58 162.908C253.018 161.628 253.349 161.332 253.589 160.232C253.958 158.542 254.113 158.314 254.113 158.314C251.687 154.363 249.831 152.861 245.147 150.296C250.24 146.313 251.22 149.214 250.65 146.766C249.5 141.832 249.107 144.76 242.968 144.256C240.365 144.042 238.216 139.556 238.216 139.556C238.216 139.556 226.427 139.724 228.16 142.546C224.407 142.13 221.315 135.324 212.033 140.713C204.608 145.025 198.979 143.756 197.075 142.049C194.065 142.751 190.9 153.382 190.9 153.382C190.9 153.382 188.379 142.571 194.528 139.202C190.178 120.963 207.659 121.947 207.659 121.947C207.659 121.947 200.906 128.038 205.685 131.01C211.547 126.633 220.957 122.719 223.241 126.057C225.525 129.396 228.852 122.448 236.472 124.694C244.092 126.939 247.581 128.986 239.829 130.793C257.718 127.268 258.426 149.137 256.846 158.967Z" fill="black"/>
<path d="M251.215 165.022C250.85 166.165 251.607 167.113 252.045 167.306C255.702 167.314 256.144 163.337 256.846 158.967C258.426 149.137 257.718 127.268 239.829 130.793C247.581 128.986 244.092 126.939 236.472 124.694C228.852 122.448 225.525 129.396 223.241 126.057C220.957 122.719 211.547 126.633 205.685 131.01C200.906 128.038 207.659 121.947 207.659 121.947C207.659 121.947 190.178 120.963 194.528 139.202C188.379 142.571 190.9 153.382 190.9 153.382C190.9 153.382 194.065 142.751 197.075 142.049C198.979 143.756 204.608 145.025 212.033 140.713C221.315 135.324 224.407 142.13 228.16 142.546C226.427 139.724 238.216 139.556 238.216 139.556C238.216 139.556 240.365 144.042 242.968 144.256C249.107 144.76 249.5 141.832 250.65 146.766C251.22 149.214 250.24 146.313 245.147 150.296C249.831 152.861 251.687 154.363 254.113 158.314C254.113 158.314 253.958 158.542 253.589 160.232M251.215 165.022C251.755 164.084 252.206 164.002 252.58 162.908M251.215 165.022C249.71 163.796 247.095 162.112 244.22 160.846M253.589 160.232C251.375 158.239 246.389 154.254 244.153 154.259M253.589 160.232C253.349 161.332 253.018 161.628 252.58 162.908M252.58 162.908C250.292 161.004 245.349 157.282 243.88 157.624" stroke="white" stroke-width="2"/>
<path fill-rule="evenodd" clip-rule="evenodd" d="M272.85 328.148L278.5 319.5C278.5 319.5 276.168 323.665 272.85 328.148Z" fill="black"/>
<path d="M269.5 298C269.5 298 268 302 265.15 307.5C264.791 308.192 264.149 309.188 263.441 310.285C263.877 312.192 264.297 314.056 264.702 315.876C268.539 313.807 270.155 312.137 271.163 311.095C271.7 310.54 272.065 310.163 272.5 310C272.5 310 271.603 315.5 268 322.5C267.7 323.083 267.377 323.705 267.041 324.351L266.688 325.029C267.311 327.975 267.891 330.793 268.429 333.488C270.005 331.826 271.508 329.961 272.85 328.148L278.5 319.5C278.5 319.5 276.168 323.665 272.85 328.148L271.966 329.5C275.5 335 283.601 323.62 286.5 317C289.117 311.023 288.5 299.376 289.5 296.064C285.862 298.284 280.921 298.188 274.508 298.063C272.929 298.032 271.26 298 269.5 298Z" fill="black"/>
<path d="M258.5 289.537C225.619 296.763 200.187 298.437 183.5 292.5C167.5 330 173.5 389.5 173.5 389.5C174.881 390.487 176.211 391.31 177.5 391.991C185.656 396.298 192.207 394.913 200 393.241L200.076 393.225C201.2 392.983 202.351 392.736 203.537 392.5C202.856 367.004 206.881 358.574 217.205 336.947C218.815 333.575 220.578 329.883 222.5 325.755L221.5 322.5C229.446 345.387 235.5 361 253 394.5L255 393.875L273 390.125L275 389.5C275 389.5 277.498 378.884 268.429 333.488C267.151 334.837 265.826 336.053 264.5 337C258.285 341.44 263.026 332.082 266.688 325.029C266.07 322.105 265.409 319.056 264.702 315.876C264.323 316.08 263.923 316.288 263.5 316.5C257.493 319.503 260.879 314.255 263.431 310.3L263.441 310.285C261.977 303.875 260.337 296.971 258.5 289.537Z" fill="black"/>
<path d="M183.5 292.5C200.187 298.437 225.619 296.763 258.5 289.537C258.5 289.537 253 273.678 252 269C252 269 245 270.975 226.595 272.377C220.506 259.173 222.736 230.91 223.772 216.904C231.305 216.009 242.934 206.846 244.455 199.072L235.899 198.808C234.647 202.971 230.723 207.972 217.6 208.88C205.835 209.695 202.044 202.112 201.537 199.936L196.233 201.173C196.443 203.919 193.029 207.726 203.063 215.71C199.386 242.375 202.068 255.728 206.252 273.678C196.584 274.642 188.809 272.377 188.809 272.377L183.5 292.5Z" fill="black"/>
<path d="M196.233 201.173C196.233 201.173 189.827 203.308 185.5 208C167.663 227.34 155 246 155 246L133.5 252.306L138.5 278L141.5 278.847C149.142 278.666 167.203 274.654 176 269C185.518 262.882 185.924 257.391 187.078 252.306C187.211 251.72 187.347 251.12 187.5 250.5C191.018 258 188.809 272.377 188.809 272.377C188.809 272.377 196.584 274.642 206.252 273.678C202.068 255.728 199.386 242.375 203.063 215.71C193.029 207.726 196.443 203.919 196.233 201.173Z" fill="black"/>
<path d="M261.5 208.88C256.614 204.917 244.455 199.072 244.455 199.072C242.934 206.846 231.305 216.009 223.772 216.904C222.736 230.91 220.506 259.173 226.595 272.377C245 270.975 252 269 252 269C252.699 259.676 253 257.5 250.5 249.5C252.906 249.941 262.164 272.274 267.12 296.064C267.255 296.708 269.381 297.354 269.5 298C271.26 298 272.929 298.032 274.508 298.063C280.921 298.188 285.862 298.284 289.5 296.064C291.425 294.889 292.132 293.065 293.221 290.254L293.222 290.253C293.312 290.021 293.404 289.782 293.5 289.537C292.727 285.151 292.117 280.575 291.491 275.886C288.473 253.271 285.106 228.029 261.5 208.88Z" fill="black"/>
<path d="M255 393.875C251.787 395.583 255.5 402.5 263 408.5C268 410.5 279 409 284.5 404C286.183 398.158 281.844 395.542 276.674 392.426C275.473 391.702 274.226 390.95 273 390.125L255 393.875Z" fill="black"/>
<path d="M177.5 391.991C164 392.5 148.098 399.869 153.5 404C160.981 409.721 173.129 407.748 181.031 406.465C182.107 406.29 183.104 406.128 184 406C187.5 405.5 190.5 404.5 192 402.5C192 405.719 202.587 405.595 203 400.5C203.537 393.875 200 393.241 200 393.241C192.207 394.913 185.656 396.298 177.5 391.991Z" fill="black"/>
<path d="M183.5 292.5C200.187 298.437 225.619 296.763 258.5 289.537M183.5 292.5L188.809 272.377M183.5 292.5C167.5 330 173.5 389.5 173.5 389.5C174.881 390.487 176.211 391.31 177.5 391.991M258.5 289.537C258.5 289.537 253 273.678 252 269M258.5 289.537C260.337 296.971 261.977 303.875 263.441 310.285M196.233 201.173L201.537 199.936C202.044 202.112 205.835 209.695 217.6 208.88C230.723 207.972 234.647 202.971 235.899 198.808L244.455 199.072M196.233 201.173C196.233 201.173 189.827 203.308 185.5 208C167.663 227.34 155 246 155 246L133.5 252.306L138.5 278L141.5 278.847C149.142 278.666 167.203 274.654 176 269C185.518 262.882 185.924 257.391 187.078 252.306C187.211 251.72 187.347 251.12 187.5 250.5C191.018 258 188.809 272.377 188.809 272.377M196.233 201.173C196.443 203.919 193.029 207.726 203.063 215.71C199.386 242.375 202.068 255.728 206.252 273.678C196.584 274.642 188.809 272.377 188.809 272.377M244.455 199.072C244.455 199.072 256.614 204.917 261.5 208.88C285.106 228.029 288.473 253.271 291.491 275.886C292.117 280.575 292.727 285.151 293.5 289.537C293.404 289.782 293.312 290.021 293.222 290.253L293.221 290.254C292.132 293.065 291.425 294.889 289.5 296.064M244.455 199.072C242.934 206.846 231.305 216.009 223.772 216.904C222.736 230.91 220.506 259.173 226.595 272.377C245 270.975 252 269 252 269M252 269C252.699 259.676 253 257.5 250.5 249.5C252.906 249.941 262.164 272.274 267.12 296.064C267.255 296.708 269.381 297.354 269.5 298M269.5 298C269.5 298 268 302 265.15 307.5C264.791 308.192 264.149 309.188 263.441 310.285M269.5 298C271.26 298 272.929 298.032 274.508 298.063C280.921 298.188 285.862 298.284 289.5 296.064M255 393.875L253 394.5C235.5 361 229.446 345.387 221.5 322.5L222.5 325.755C220.578 329.883 218.815 333.575 217.205 336.947C206.881 358.574 202.856 367.004 203.537 392.5C202.351 392.736 201.2 392.983 200.076 393.225M255 393.875C251.787 395.583 255.5 402.5 263 408.5C268 410.5 279 409 284.5 404C286.183 398.158 281.844 395.542 276.674 392.426C275.473 391.702 274.226 390.95 273 390.125M255 393.875L273 390.125M273 390.125L275 389.5C275 389.5 277.498 378.884 268.429 333.488M177.5 391.991C164 392.5 148.098 399.869 153.5 404C160.981 409.721 173.129 407.748 181.031 406.465C182.107 406.29 183.104 406.128 184 406C187.5 405.5 190.5 404.5 192 402.5C192 405.719 202.587 405.595 203 400.5C203.537 393.875 200 393.241 200 393.241M177.5 391.991C185.656 396.298 192.207 394.913 200 393.241M200 393.241L200.076 393.225M200 393.241C200.025 393.236 200.05 393.23 200.076 393.225M289.5 296.064C288.5 299.376 289.117 311.023 286.5 317C283.601 323.62 275.5 335 271.966 329.5L272.85 328.148M272.85 328.148C271.508 329.961 270.005 331.826 268.429 333.488M272.85 328.148L278.5 319.5C278.5 319.5 276.168 323.665 272.85 328.148ZM268.429 333.488C267.891 330.793 267.311 327.975 266.688 325.029M268.429 333.488C267.151 334.837 265.826 336.053 264.5 337C258.285 341.44 263.026 332.082 266.688 325.029M266.688 325.029C266.807 324.8 266.925 324.574 267.041 324.351M266.688 325.029C266.07 322.105 265.409 319.056 264.702 315.876M266.688 325.029L267.041 324.351M267.041 324.351C267.377 323.705 267.7 323.083 268 322.5C271.603 315.5 272.5 310 272.5 310C272.065 310.163 271.7 310.54 271.163 311.095C270.155 312.137 268.539 313.807 264.702 315.876M264.702 315.876C264.297 314.056 263.877 312.192 263.441 310.285M264.702 315.876C264.323 316.08 263.923 316.288 263.5 316.5C257.493 319.503 260.879 314.255 263.431 310.3M263.441 310.285L263.431 310.3M263.441 310.285C263.438 310.29 263.434 310.295 263.431 310.3" stroke="white" stroke-width="3"/>
<path d="M112.158 237.586L103.158 240.086C106.658 257.086 105.158 261.986 103.158 267.586C101.158 273.186 104.658 282.252 106.658 286.086L104.658 296.586L109.658 298.086L116.158 293.586L122.658 297.086L124.158 291.586L134.658 291.586L135.158 286.086L128.658 279.586C127.991 275.586 127.558 265.486 123.158 261.086C118.758 256.686 116.158 251.586 112.158 237.586Z" fill="black" stroke="white" stroke-width="3"/>
<path d="M111.308 257.854C113.615 255.912 132.5 256.058 132.5 256.058L136 275.386L129.5 277L128.5 266C128.5 266 118.615 266.354 115.308 265.296C112 264.238 109 259.796 111.308 257.854Z" fill="black"/>
<path d="M92.5 272C88.9 266.491 101 263.5 101 263.5C101 263.5 98.4 269.8 102 269C105.6 268.2 112 270.5 110.5 272C109.856 272.644 106.922 273.937 103.5 274.764L110.5 277C115.308 283.114 107 284 107 284C108.167 286.5 109.8 292 107 294C104.2 296 98.8333 285.5 96.5 280C92.5739 277.859 91 272.667 92.5 272Z" fill="black"/>
<path d="M92.5 272C88.9 266.491 101 263.5 101 263.5C101 263.5 98.4 269.8 102 269C105.6 268.2 112 270.5 110.5 272C109.856 272.644 106.922 273.937 103.5 274.764M92.5 272C91 272.667 92.5739 277.859 96.5 280M92.5 272C94.5533 275.142 98.9572 275.862 103.5 274.764M96.5 280C102 283 103.167 284 107 284M96.5 280C98.8333 285.5 104.2 296 107 294C109.8 292 108.167 286.5 107 284M107 284C107 284 115.308 283.114 110.5 277L103.5 274.764M136 275.386L129.5 277L128.5 266C128.5 266 118.615 266.354 115.308 265.296C112 264.238 109 259.796 111.308 257.854C113.615 255.912 132.5 256.058 132.5 256.058L136 275.386Z" stroke="white" stroke-width="3"/>
<path d="M760.321 160.025L767.093 157.888C767.486 158.311 767.899 158.751 768.315 159.194C768.973 159.894 769.636 160.6 770.235 161.257C771.244 162.363 772.152 163.412 772.879 164.364L768.857 170.523C767.586 172.091 766.258 173.736 765.276 175.126C764.752 175.868 764.241 176.655 763.888 177.392C763.713 177.757 763.519 178.226 763.41 178.747C763.312 179.219 763.198 180.128 763.647 181.091C765.217 184.465 766.47 188.017 767.366 191.708C767.655 192.899 768.375 193.874 768.985 194.568C769.64 195.312 770.445 196.037 771.276 196.717C772.739 197.916 774.547 199.19 776.262 200.397C776.481 200.552 776.699 200.705 776.914 200.857C778.885 202.248 780.666 203.535 781.961 204.696C782.608 205.276 783.036 205.74 783.286 206.087C783.357 206.184 783.401 206.256 783.428 206.304C783.569 210.451 783.191 214.575 782.254 218.59C782.027 218.692 781.697 218.816 781.24 218.954C779.852 219.374 777.979 219.725 775.864 220.109C775.751 220.13 775.638 220.15 775.524 220.171C773.599 220.519 771.5 220.899 769.787 221.375C768.88 221.627 767.936 221.944 767.118 222.368C766.391 222.744 765.247 223.463 764.66 224.778C763.644 227.055 762.468 229.28 761.151 231.437C760.283 232.86 760.633 234.388 760.811 235.034C761.042 235.87 761.438 236.732 761.844 237.514C762.632 239.031 763.759 240.802 764.793 242.428L764.92 242.627C766.04 244.387 767.037 245.968 767.669 247.222C767.803 247.488 767.906 247.71 767.983 247.892C765.718 250.707 763.223 253.354 760.562 255.796C760.254 255.779 759.793 255.714 759.157 255.574C757.633 255.238 755.71 254.61 753.586 253.903C753.47 253.865 753.353 253.826 753.235 253.787C751.297 253.141 749.21 252.446 747.435 252.017C746.495 251.79 745.506 251.602 744.587 251.56C743.793 251.524 742.434 251.556 741.265 252.376C738.85 254.069 736.49 255.053 733.778 256.184C732.669 256.646 731.501 257.133 730.246 257.703C728.153 258.654 727.344 260.765 726.967 262.044C726.653 263.112 726.445 264.325 726.278 265.43L724.272 270.489C720.179 271.418 715.918 271.911 711.54 271.915C711.464 271.875 711.273 271.742 710.956 271.353C710.367 270.631 709.784 269.565 709.052 268.141C708.986 268.014 708.919 267.884 708.851 267.751C708.227 266.532 707.486 265.084 706.645 263.885C705.748 262.606 704.317 260.974 702.129 260.495C700.585 260.157 698.658 259.859 696.749 259.565C695.749 259.411 694.754 259.257 693.822 259.099C690.891 258.602 688.408 258.038 686.778 257.261C685.254 256.534 683.772 257.105 683.229 257.333C682.481 257.648 681.732 258.117 681.068 258.577C679.852 259.419 678.461 260.563 677.17 261.634L672.014 264.859C668.825 262.722 665.862 260.274 663.168 257.558L664.3 249.776C664.749 248.098 665.208 246.348 665.494 244.855C665.66 243.988 665.793 243.082 665.809 242.254C665.822 241.601 665.797 240.267 664.982 239.148C662.923 236.322 661.115 233.301 659.592 230.12C659.231 229.366 658.683 228.885 658.291 228.604C657.882 228.311 657.451 228.099 657.078 227.943C656.337 227.632 655.475 227.398 654.646 227.212C653.059 226.854 651.09 226.56 649.259 226.287L648.975 226.245C646.983 225.948 645.177 225.671 643.824 225.345C643.441 225.253 643.142 225.168 642.916 225.094C641.804 221.667 641.004 218.099 640.552 214.422C640.655 214.362 640.77 214.296 640.898 214.226C642.026 213.608 643.598 212.907 645.345 212.132L645.463 212.08C647.1 211.354 648.887 210.562 650.27 209.812C650.968 209.433 651.706 208.99 652.307 208.493C652.608 208.244 652.974 207.902 653.284 207.462C653.587 207.033 653.987 206.296 653.987 205.325C653.987 201.54 654.274 197.891 654.839 194.394C655.059 193.033 654.509 191.763 654.191 191.098C653.792 190.262 653.236 189.366 652.642 188.49C651.505 186.813 649.992 184.866 648.554 183.017C648.485 182.928 648.416 182.839 648.347 182.751C646.805 180.767 645.373 178.912 644.373 177.396C643.893 176.667 643.58 176.116 643.407 175.733C644.466 172.446 645.811 169.326 647.435 166.389L653.918 168.069C655.763 168.795 657.721 169.56 659.335 170.052C660.191 170.314 661.119 170.552 661.966 170.633C662.386 170.673 662.94 170.691 663.525 170.575C664.103 170.46 665.005 170.151 665.693 169.292C668.412 165.903 671.605 162.827 675.274 160.107C676.193 159.425 676.48 158.487 676.579 158.078C676.696 157.594 676.717 157.128 676.717 156.779C676.715 156.065 676.613 155.256 676.489 154.49C676.244 152.978 675.818 151.097 675.419 149.335L675.384 149.182C674.96 147.31 674.572 145.582 674.367 144.273C674.344 144.128 674.325 143.995 674.309 143.874C676.972 142.327 680.615 140.502 683.434 139.309C683.543 139.408 683.666 139.523 683.803 139.658C684.749 140.581 685.905 141.912 687.182 143.391L687.29 143.516C688.482 144.896 689.778 146.396 690.914 147.52C691.492 148.091 692.14 148.679 692.797 149.118C693.126 149.338 693.558 149.589 694.065 149.763C694.555 149.931 695.36 150.109 696.279 149.857C701.12 148.533 706.218 147.825 711.487 147.825C712.904 147.825 713.951 147.003 714.391 146.632C714.968 146.147 715.513 145.54 715.994 144.954C716.927 143.819 717.944 142.355 718.871 141.022L718.973 140.875C719.975 139.433 720.871 138.153 721.633 137.242C721.801 137.041 721.944 136.881 722.063 136.756C725.232 137.145 728.321 137.791 731.308 138.674C731.348 138.804 731.393 138.967 731.44 139.168C731.697 140.256 731.873 141.731 732.066 143.459C732.076 143.548 732.086 143.637 732.096 143.727C732.269 145.282 732.464 147.025 732.771 148.462C732.934 149.222 733.16 150.055 733.506 150.801C733.817 151.471 734.454 152.576 735.721 153.166C741.388 155.803 744.492 157.819 748.928 162.007C749.751 162.784 750.715 162.925 751.182 162.958C751.71 162.995 752.208 162.933 752.59 162.866C753.367 162.728 754.234 162.457 755.061 162.164C756.617 161.611 758.514 160.802 760.321 160.025ZM731.141 138.242C731.141 138.241 731.145 138.248 731.153 138.263C731.145 138.25 731.141 138.242 731.141 138.242ZM722.478 136.379C722.477 136.381 722.454 136.4 722.409 136.426C722.456 136.389 722.479 136.376 722.478 136.379ZM682.844 138.837C682.844 138.837 682.847 138.839 682.854 138.843C682.848 138.839 682.844 138.837 682.844 138.837ZM674.234 142.942C674.234 142.942 674.234 142.947 674.233 142.955C674.234 142.946 674.234 142.942 674.234 142.942ZM639.88 214.871C639.88 214.871 639.883 214.868 639.89 214.863C639.884 214.868 639.881 214.871 639.88 214.871ZM642.455 224.912C642.455 224.912 642.456 224.913 642.459 224.914C642.456 224.913 642.455 224.912 642.455 224.912ZM711.577 271.93C711.577 271.931 711.569 271.929 711.552 271.921C711.568 271.924 711.577 271.928 711.577 271.93ZM760.888 255.791C760.889 255.792 760.873 255.795 760.839 255.797C760.869 255.791 760.887 255.79 760.888 255.791ZM768.189 248.513C768.187 248.512 768.181 248.486 768.177 248.439C768.189 248.491 768.191 248.515 768.189 248.513ZM782.607 218.4C782.607 218.4 782.597 218.408 782.573 218.424C782.593 218.407 782.606 218.399 782.607 218.4Z" fill="black" stroke="white" stroke-width="6"/>
</svg>
