<svg width="960" height="440" viewBox="0 0 960 440" fill="none" xmlns="http://www.w3.org/2000/svg">
<path d="M158 118.696C357.907 150.526 603.202 142.734 706.552 167.56C706.552 167.56 795.195 184.898 834.946 167.56C874.696 150.221 894.01 131.287 898.546 142.734C902.918 153.767 871.118 172.42 856.013 178.593C874.298 178.593 938.296 146.753 938.296 167.56C938.296 188.366 851.243 205.784 851.243 205.784C851.243 205.784 936.706 198.691 951.811 215.241C966.719 231.576 838.523 231.792 838.523 231.792C838.523 231.792 921.203 253.465 927.563 271.986C933.935 290.541 827.791 253.465 827.791 253.465C827.791 253.465 810.18 247.554 797.58 253.465C776.523 263.344 832.561 268.44 832.561 290.983C832.561 309.855 739.336 256.561 724.043 245.19L685.087 247.554L158 290.113" stroke="white" stroke-width="3.18001"/>
<path d="M285.703 50.217L311.025 53.1588L309.342 67.3894L307.425 83.6062L305.508 99.823L303.826 114.054L278.504 111.112L285.703 50.217Z" fill="white" stroke="black" stroke-width="4" stroke-linecap="round" stroke-linejoin="round"/>
<path d="M638.182 349.223H270.493L273.445 144.31L307.935 125.395L317.602 48.1586L698.205 125.395V166.87V177.239V187.608V197.976V208.345V218.714V229.083V239.452V249.82V291.296H653.716L638.182 349.223Z" fill="black"/>
<path d="M698.205 125.395L317.602 48.1586L307.935 125.395L273.445 144.31L270.493 349.223H638.182L653.716 291.296M698.205 125.395L653.716 291.296M698.205 125.395V166.87M653.716 291.296H698.205V249.82M698.205 208.345H682.702M698.205 208.345V197.976M698.205 208.345V218.714M698.205 166.87H693.435M698.205 166.87V177.239M698.205 187.608H687.87M698.205 187.608V177.239M698.205 187.608V197.976M698.205 177.239H690.652M698.205 197.976H685.087M698.205 249.82H671.175M698.205 249.82V239.452M698.205 229.083H678.33M698.205 229.083V218.714M698.205 229.083V239.452M698.205 218.714L680.317 219.182M698.205 239.452H674.355" stroke="white" stroke-width="4.77002"/>
<path d="M335.286 108.533C335.286 97.7754 344.001 89.0557 354.758 89.0557H354.845H354.932H355.019H355.106H355.193H355.28H355.367H355.454H355.541H355.628H355.716H355.803H355.89H355.978H356.065H356.153H356.24H356.327H356.415H356.502H356.59H356.678H356.765H356.853H356.941H357.028H357.116H357.204H357.292H357.379H357.467H357.555H357.643H357.731H357.819H357.907H357.995H358.083H358.171H358.259H358.347H358.435H358.523H358.611H358.7H358.788H358.876H358.964H359.053H359.141H359.229H359.318H359.406H359.494H359.583H359.671H359.759H359.848H359.936H360.025H360.113H360.202H360.29H360.379H360.467H360.556H360.645H360.733H360.822H360.91H360.999H361.088H361.176H361.265H361.354H361.443H361.531H361.62H361.709H361.798H361.886H361.975H362.064H362.153H362.242H362.33H362.419H362.508H362.597H362.686H362.775H362.864H362.953H363.042H363.13H363.219H363.308H363.397H363.486H363.575H363.664H363.753H363.842H363.931H364.02H364.109H364.198H364.287H364.376H364.465H364.554H364.643H364.732H364.821H364.91H364.999H365.088H365.177H365.266H365.355H365.444H365.533H365.622H365.711H365.8H365.889H365.978H366.067H366.156H366.245H366.334H366.423H366.512H366.601H366.69H366.779H366.868H366.957H367.046H367.135H367.224H367.313H367.402H367.49H367.579H367.668H367.757H367.846H367.935H368.024H368.113H368.202H368.29H368.379H368.468H368.557H368.646H368.735H368.823H368.912H369.001H369.09H369.178H369.267H369.356H369.445H369.533H369.622H369.711H369.799H369.888H369.977H370.065H370.154H370.242H370.331H370.419H370.508H370.597H370.685H370.773H370.862H370.95H371.039H371.127H371.216H371.304H371.392H371.481H371.569H371.657H371.745H371.834H371.922H372.01H372.098H372.186H372.275H372.363H372.451H372.539H372.627H372.715H372.803H372.891H372.979H373.067H373.155H373.243H373.33H373.418H373.506H373.594H373.681H373.769H373.857H373.945H374.032H374.12H374.207H374.295H374.382H374.47H374.557H374.645H374.732H374.819H374.907H374.994H375.081H375.169H375.256H375.343H375.43H375.517H375.604H375.691H375.778H375.865H375.952H376.039H376.126H376.213H376.3H376.386H376.473H376.56H376.646H376.733H376.82H376.906H376.993H377.079H377.165H377.252H377.338H377.424H377.511H377.597H377.683H377.769H377.855H377.941H378.027H378.113H378.199H378.285H378.371H378.457H378.543H378.628H378.714H378.8H378.885H378.971H379.056H379.142H379.227H379.312H379.398H379.483H379.568H379.653H379.738H379.823H379.908H379.993H380.078H380.163H380.248H380.333H380.418H380.502H380.587H380.671H380.756H380.84H380.925H381.009H381.094H381.178H381.262H381.346H381.43H381.514H381.598H381.682H381.766H381.85H381.934H382.018H382.101H382.185H382.268H382.352H382.435H382.519H382.602H382.685H382.769H382.852H382.935H383.018H383.101H383.184H383.267H383.349H383.432H383.515H383.597H383.68H383.762H383.845H383.927H384.01H384.092H384.174H384.256H384.338H384.42H384.502H384.584H384.666H384.748H384.829H384.911H384.992H385.074H385.155H385.237H385.318H385.399H385.48H385.561H385.642H385.723H385.804H385.885H385.966H386.046H386.127H386.207H386.288H386.368H386.448H386.529H386.609H386.689H386.769H386.849H386.929H387.009H387.088H387.168H387.248H387.327H387.407H387.486H387.565H387.644H387.723H387.803H387.882H387.96H388.039H388.118H388.197H388.275H388.354H388.432H388.511H388.589H388.667H388.745H388.823H388.901H388.979H389.057H389.135H389.212H389.29H389.367H389.445H389.522H389.599H389.676H389.753H389.83H389.907H389.984H390.061H390.137H390.214H390.29H390.367H390.443H390.519H390.595H390.671H390.747H390.823H390.899H390.975H391.05H391.126H391.201H391.277H391.352H391.427H391.502H391.577H391.652H391.727H391.801H391.876H391.95H392.025H392.099H392.173H392.248H392.322H392.396H392.469H392.543H392.617H392.69H392.764H392.837H392.911H392.984H393.057H393.13H393.203H393.276H393.348H393.421H393.494H393.566H393.638H393.711H393.783H393.855H393.927H393.998H394.07H394.142H394.213H394.285H394.356H394.427H394.498H394.569H394.64H394.711H394.782H394.853H394.923H394.993H395.064H395.134H395.204H395.274H395.344H395.414H395.483H395.553H395.622H395.692H395.761H395.83H395.899H395.968H396.037H396.105H396.174H396.243H396.311H396.379H396.447H396.515H396.583H396.651H396.719H396.786H396.854H396.921H396.988H397.056H397.123H397.19H397.256H397.323C406.402 89.0557 413.738 81.6952 413.738 72.623C413.738 65.5565 419.609 59.9049 426.67 60.1743L518.238 63.6673C523.99 63.8868 528.54 68.6137 528.54 74.3701C528.54 82.4808 535.115 89.0557 543.225 89.0557H585.314C596.072 89.0557 604.792 97.7761 604.792 108.533V271.013C604.792 281.77 596.072 290.49 585.314 290.49H354.763C344.006 290.49 335.286 281.77 335.286 271.013V108.533Z" fill="black" stroke="white" stroke-width="3.97502"/>
<path d="M582.134 109.632C571.004 95.4462 368.278 97.0224 354.763 109.632C341.248 122.242 345.223 259.376 354.763 271.986C364.303 284.596 567.029 281.444 582.134 271.986C597.239 262.529 593.264 123.819 582.134 109.632Z" stroke="white" stroke-width="4.77002"/>
<rect x="407.631" y="308.651" width="123.226" height="81.1426" rx="9.14254" fill="black" stroke="white" stroke-width="3.97502"/>
<g filter="url(#filter0_d)">
<path d="M632.22 188.445C632.22 190.021 631.425 190.809 629.835 190.809C628.245 190.809 627.45 190.021 627.45 188.445C627.45 186.869 628.245 186.081 629.835 186.081M632.22 188.445C632.22 186.869 631.425 186.081 629.835 186.081M632.22 188.445L637.785 179.776C637.785 179.776 634.802 182.08 629.835 186.081M604.792 164.407V212.877C629.835 212.877 652.572 209.567 652.89 188.445C653.208 167.323 629.835 164.013 604.792 164.407ZM623.475 204.996C623.475 204.996 647.722 204.996 648.12 187.854C648.517 170.712 623.475 170.712 623.475 170.712V188.642V204.996Z" stroke="white" stroke-width="1.59001"/>
</g>
<path d="M605.587 319.668C605.587 330.099 597.054 338.573 586.507 338.573C575.96 338.573 567.427 330.099 567.427 319.668C567.427 309.237 575.96 300.763 586.507 300.763C597.054 300.763 605.587 309.237 605.587 319.668Z" stroke="white" stroke-width="2.38501"/>
<ellipse cx="586.507" cy="319.668" rx="12.3226" ry="12.216" fill="white"/>
<path d="M671.572 312.969L670.38 307.058L671.572 303.511L657.66 300.753L656.865 303.511L654.48 302.723L644.542 339.371L646.132 340.159L645.337 343.706L658.852 346.858L660.442 342.524L664.815 339.371M671.572 312.969L656.865 309.816M671.572 312.969L668.194 326.17M664.815 339.371L650.505 335.825M664.815 339.371L668.194 326.17M668.194 326.17L653.685 322.821" stroke="white" stroke-width="3.18001" stroke-linejoin="round"/>
<path d="M446.984 316.91H425.519V364.197H446.984M446.984 316.91V364.197M446.984 316.91H458.412M446.984 364.197H492.697M492.697 316.91H513.764V364.197H492.697M492.697 316.91V364.197M492.697 316.91H481.268M469.84 316.91V340.947M469.84 316.91H481.268M469.84 316.91H458.412M481.268 316.91V340.947M458.412 316.91V340.947M312.628 266.075H301.896M312.628 266.075V250.806M312.628 266.075V281.345M312.628 235.536V204.996H279.636V245.19M312.628 235.536H301.896M312.628 235.536V250.806M312.628 250.806H301.896M312.628 296.615V327.155H279.636V255.14M312.628 296.615H301.896M312.628 296.615V281.345M312.628 281.345H301.896M279.636 255.14H292.753L297.126 250.806L292.753 245.19H279.636M279.636 255.14V245.19" stroke="white" stroke-width="3.18001" stroke-linejoin="round"/>
<mask id="path-13-inside-1" fill="white">
<path d="M486.906 121C485.325 121 484.043 122.282 484.043 123.863V123.864V123.865V123.867V123.868V123.869V123.871V123.872V123.873V123.875V123.876V123.878V123.879V123.88V123.882V123.883V123.884V123.886V123.887V123.888V123.89V123.891V123.892V123.894V123.895V123.896V123.898V123.899V123.9V123.902V123.903V123.905V123.906V123.907V123.909V123.91V123.911V123.913V123.914V123.915V123.917V123.918V123.919V123.921V123.922V123.923V123.925V123.926V123.927V123.929V123.93V123.931V123.933V123.934V123.936V123.937V123.938V123.94V123.941V123.942V123.944V123.945V123.946V123.948V123.949V123.95V123.952V123.953V123.954V123.956V123.957V123.958V123.96V123.961V123.962V123.964V123.965V123.967V123.968V123.969V123.971V123.972V123.973V123.975V123.976V123.977V123.979V123.98V123.981V123.983V123.984V123.985V123.987V123.988V123.989V123.991V123.992V123.994V123.995V123.996V123.998V123.999V124V124.002V124.003V124.004V124.006V124.007V124.008V124.01V124.011V124.012V124.014V124.015V124.017V124.018V124.019V124.021V124.022V124.023V124.025V124.026V124.027V124.029V124.03V124.031V124.033V124.034V124.035V124.037V124.038V124.039V124.041V124.042V124.044V124.045V124.046V124.048V124.049V124.05V124.052V124.053V124.054V124.056V124.057V124.058V124.06V124.061V124.062V124.064V124.065V124.067V124.068V124.069V124.071V124.072V124.073V124.075V124.076V124.077V124.079V124.08V124.081V124.083V124.084V124.086V124.087V124.088V124.09V124.091V124.092V124.094V124.095V124.096V124.098V124.099V124.1V124.102V124.103V124.104V124.106V124.107V124.109V124.11V124.111V124.113V124.114V124.115V124.117V124.118V124.119V124.121V124.122V124.123V124.125V124.126V124.128V124.129V124.13V124.132V124.133V124.134V124.136V124.137V124.138V124.14V124.141V124.142V124.144V124.145V124.147V124.148V124.149V124.151V124.152V124.153V124.155V124.156V124.157V124.159V124.16V124.162V124.163V124.164V124.166V124.167V124.168V124.17V124.171V124.172V124.174V124.175V124.176V124.178V124.179V124.181V124.182V124.183V124.185V124.186V124.187V124.189V124.19V124.191V124.193V124.194V124.196V124.197V124.198V124.2V124.201V124.202V124.204V124.205V124.206V124.208V124.209V124.211V124.212V124.213V124.215V124.216V124.217V124.219V124.22V124.222V124.223V124.224V124.226V124.227V124.228V124.23V124.231V124.232V124.234V124.235V124.237V124.238V124.239V124.241V124.242V124.243V124.245V124.246V124.248V124.249V124.25V124.252V124.253V124.254V124.256V124.257V124.258V124.26V124.261V124.263V124.264V124.265V124.267V124.268V124.269V124.271V124.272V124.274V124.275V124.276V124.278V124.279V124.28V124.282V124.283V124.285V124.286V124.287V124.289V124.29V124.291V124.293V124.294V124.296V124.297V124.298V124.3V124.301V124.302V124.304V124.305V124.307V124.308V124.309V124.311V124.312V124.313V124.315V124.316V124.318V124.319V124.32V124.322V124.323V124.324V124.326V124.327V124.329V124.33V124.331V124.333V124.334V124.335V124.337V124.338V124.34V124.341V124.342V124.344V124.345V124.347V124.348V124.349V124.351V124.352V124.353V124.355V124.356V124.358V124.359V124.36V124.362V124.363V124.365V124.366V124.367V124.369V124.37V124.371V124.373V124.374V124.376V124.377V124.378V124.38V124.381V124.383V124.384V124.385V124.387V124.388V124.389V124.391V124.392V124.394V124.395V124.396V124.398V124.399V124.401V124.402V124.403V124.405V124.406V124.408V124.409V124.41V124.412V124.413V124.414V124.416V124.417V124.419V124.42V124.421V124.423V124.424V124.426V124.427V124.428V124.43V124.431V124.433V124.434V124.435V124.437V124.438V124.44V124.441V124.442V124.444V124.445V124.447V124.448V124.449V124.451V124.452V124.454V124.455V124.456V124.458V124.459V124.461V124.462V124.463V124.465V124.466V124.468V124.469V124.47V124.472V124.473V124.475V124.476V124.477V124.479V124.48V124.482V124.483V124.484V124.486V124.487V124.489V124.49V124.491V124.493V124.494V124.496V124.497V124.498V124.5V124.501V124.503V124.504V124.505V124.507V124.508V124.51V124.511V124.513V124.514V124.515V124.517V124.518V124.52V124.521V124.522V124.524V124.525V124.527V124.528V124.529V124.531V124.532V124.534V124.535V124.537V124.538V124.539V124.541V124.542V124.544V124.545V124.546V124.548V124.549V124.551V124.552V124.554V124.555V124.556V124.558V124.559V124.561V124.562V124.563V124.565C484.043 127.767 482.771 130.839 480.507 133.103C478.242 135.368 475.17 136.64 471.968 136.64C468.765 136.64 465.693 135.368 463.429 133.103C461.164 130.839 459.892 127.767 459.892 124.565V124.563V124.562V124.561V124.559V124.558V124.556V124.555V124.554V124.552V124.551V124.549V124.548V124.546V124.545V124.544V124.542V124.541V124.539V124.538V124.537V124.535V124.534V124.532V124.531V124.529V124.528V124.527V124.525V124.524V124.522V124.521V124.52V124.518V124.517V124.515V124.514V124.513V124.511V124.51V124.508V124.507V124.505V124.504V124.503V124.501V124.5V124.498V124.497V124.496V124.494V124.493V124.491V124.49V124.489V124.487V124.486V124.484V124.483V124.482V124.48V124.479V124.477V124.476V124.475V124.473V124.472V124.47V124.469V124.468V124.466V124.465V124.463V124.462V124.461V124.459V124.458V124.456V124.455V124.454V124.452V124.451V124.449V124.448V124.447V124.445V124.444V124.442V124.441V124.44V124.438V124.437V124.435V124.434V124.433V124.431V124.43V124.428V124.427V124.426V124.424V124.423V124.421V124.42V124.419V124.417V124.416V124.414V124.413V124.412V124.41V124.409V124.408V124.406V124.405V124.403V124.402V124.401V124.399V124.398V124.396V124.395V124.394V124.392V124.391V124.389V124.388V124.387V124.385V124.384V124.383V124.381V124.38V124.378V124.377V124.376V124.374V124.373V124.371V124.37V124.369V124.367V124.366V124.365V124.363V124.362V124.36V124.359V124.358V124.356V124.355V124.353V124.352V124.351V124.349V124.348V124.347V124.345V124.344V124.342V124.341V124.34V124.338V124.337V124.335V124.334V124.333V124.331V124.33V124.329V124.327V124.326V124.324V124.323V124.322V124.32V124.319V124.318V124.316V124.315V124.313V124.312V124.311V124.309V124.308V124.307V124.305V124.304V124.302V124.301V124.3V124.298V124.297V124.296V124.294V124.293V124.291V124.29V124.289V124.287V124.286V124.285V124.283V124.282V124.28V124.279V124.278V124.276V124.275V124.274V124.272V124.271V124.269V124.268V124.267V124.265V124.264V124.263V124.261V124.26V124.258V124.257V124.256V124.254V124.253V124.252V124.25V124.249V124.248V124.246V124.245V124.243V124.242V124.241V124.239V124.238V124.237V124.235V124.234V124.232V124.231V124.23V124.228V124.227V124.226V124.224V124.223V124.222V124.22V124.219V124.217V124.216V124.215V124.213V124.212V124.211V124.209V124.208V124.206V124.205V124.204V124.202V124.201V124.2V124.198V124.197V124.196V124.194V124.193V124.191V124.19V124.189V124.187V124.186V124.185V124.183V124.182V124.181V124.179V124.178V124.176V124.175V124.174V124.172V124.171V124.17V124.168V124.167V124.166V124.164V124.163V124.162V124.16V124.159V124.157V124.156V124.155V124.153V124.152V124.151V124.149V124.148V124.147V124.145V124.144V124.142V124.141V124.14V124.138V124.137V124.136V124.134V124.133V124.132V124.13V124.129V124.128V124.126V124.125V124.123V124.122V124.121V124.119V124.118V124.117V124.115V124.114V124.113V124.111V124.11V124.109V124.107V124.106V124.104V124.103V124.102V124.1V124.099V124.098V124.096V124.095V124.094V124.092V124.091V124.09V124.088V124.087V124.086V124.084V124.083V124.081V124.08V124.079V124.077V124.076V124.075V124.073V124.072V124.071V124.069V124.068V124.067V124.065V124.064V124.062V124.061V124.06V124.058V124.057V124.056V124.054V124.053V124.052V124.05V124.049V124.048V124.046V124.045V124.044V124.042V124.041V124.039V124.038V124.037V124.035V124.034V124.033V124.031V124.03V124.029V124.027V124.026V124.025V124.023V124.022V124.021V124.019V124.018V124.017V124.015V124.014V124.012V124.011V124.01V124.008V124.007V124.006V124.004V124.003V124.002V124V123.999V123.998V123.996V123.995V123.994V123.992V123.991V123.989V123.988V123.987V123.985V123.984V123.983V123.981V123.98V123.979V123.977V123.976V123.975V123.973V123.972V123.971V123.969V123.968V123.967V123.965V123.964V123.962V123.961V123.96V123.958V123.957V123.956V123.954V123.953V123.952V123.95V123.949V123.948V123.946V123.945V123.944V123.942V123.941V123.94V123.938V123.937V123.936V123.934V123.933V123.931V123.93V123.929V123.927V123.926V123.925V123.923V123.922V123.921V123.919V123.918V123.917V123.915V123.914V123.913V123.911V123.91V123.909V123.907V123.906V123.905V123.903V123.902V123.9V123.899V123.898V123.896V123.895V123.894V123.892V123.891V123.89V123.888V123.887V123.886V123.884V123.883V123.882V123.88V123.879V123.878V123.876V123.875V123.873V123.872V123.871V123.869V123.868V123.867V123.865V123.864V123.863C459.892 122.282 458.61 121 457.029 121H406.863C405.282 121 404 122.282 404 123.863V254.137C404 255.719 405.282 257 406.863 257H537.145C538.726 257 540.008 255.719 540.008 254.137V123.863C540.008 122.282 538.726 121 537.145 121H486.906Z"/>
</mask>
<path d="M486.906 121C485.325 121 484.043 122.282 484.043 123.863V123.864V123.865V123.867V123.868V123.869V123.871V123.872V123.873V123.875V123.876V123.878V123.879V123.88V123.882V123.883V123.884V123.886V123.887V123.888V123.89V123.891V123.892V123.894V123.895V123.896V123.898V123.899V123.9V123.902V123.903V123.905V123.906V123.907V123.909V123.91V123.911V123.913V123.914V123.915V123.917V123.918V123.919V123.921V123.922V123.923V123.925V123.926V123.927V123.929V123.93V123.931V123.933V123.934V123.936V123.937V123.938V123.94V123.941V123.942V123.944V123.945V123.946V123.948V123.949V123.95V123.952V123.953V123.954V123.956V123.957V123.958V123.96V123.961V123.962V123.964V123.965V123.967V123.968V123.969V123.971V123.972V123.973V123.975V123.976V123.977V123.979V123.98V123.981V123.983V123.984V123.985V123.987V123.988V123.989V123.991V123.992V123.994V123.995V123.996V123.998V123.999V124V124.002V124.003V124.004V124.006V124.007V124.008V124.01V124.011V124.012V124.014V124.015V124.017V124.018V124.019V124.021V124.022V124.023V124.025V124.026V124.027V124.029V124.03V124.031V124.033V124.034V124.035V124.037V124.038V124.039V124.041V124.042V124.044V124.045V124.046V124.048V124.049V124.05V124.052V124.053V124.054V124.056V124.057V124.058V124.06V124.061V124.062V124.064V124.065V124.067V124.068V124.069V124.071V124.072V124.073V124.075V124.076V124.077V124.079V124.08V124.081V124.083V124.084V124.086V124.087V124.088V124.09V124.091V124.092V124.094V124.095V124.096V124.098V124.099V124.1V124.102V124.103V124.104V124.106V124.107V124.109V124.11V124.111V124.113V124.114V124.115V124.117V124.118V124.119V124.121V124.122V124.123V124.125V124.126V124.128V124.129V124.13V124.132V124.133V124.134V124.136V124.137V124.138V124.14V124.141V124.142V124.144V124.145V124.147V124.148V124.149V124.151V124.152V124.153V124.155V124.156V124.157V124.159V124.16V124.162V124.163V124.164V124.166V124.167V124.168V124.17V124.171V124.172V124.174V124.175V124.176V124.178V124.179V124.181V124.182V124.183V124.185V124.186V124.187V124.189V124.19V124.191V124.193V124.194V124.196V124.197V124.198V124.2V124.201V124.202V124.204V124.205V124.206V124.208V124.209V124.211V124.212V124.213V124.215V124.216V124.217V124.219V124.22V124.222V124.223V124.224V124.226V124.227V124.228V124.23V124.231V124.232V124.234V124.235V124.237V124.238V124.239V124.241V124.242V124.243V124.245V124.246V124.248V124.249V124.25V124.252V124.253V124.254V124.256V124.257V124.258V124.26V124.261V124.263V124.264V124.265V124.267V124.268V124.269V124.271V124.272V124.274V124.275V124.276V124.278V124.279V124.28V124.282V124.283V124.285V124.286V124.287V124.289V124.29V124.291V124.293V124.294V124.296V124.297V124.298V124.3V124.301V124.302V124.304V124.305V124.307V124.308V124.309V124.311V124.312V124.313V124.315V124.316V124.318V124.319V124.32V124.322V124.323V124.324V124.326V124.327V124.329V124.33V124.331V124.333V124.334V124.335V124.337V124.338V124.34V124.341V124.342V124.344V124.345V124.347V124.348V124.349V124.351V124.352V124.353V124.355V124.356V124.358V124.359V124.36V124.362V124.363V124.365V124.366V124.367V124.369V124.37V124.371V124.373V124.374V124.376V124.377V124.378V124.38V124.381V124.383V124.384V124.385V124.387V124.388V124.389V124.391V124.392V124.394V124.395V124.396V124.398V124.399V124.401V124.402V124.403V124.405V124.406V124.408V124.409V124.41V124.412V124.413V124.414V124.416V124.417V124.419V124.42V124.421V124.423V124.424V124.426V124.427V124.428V124.43V124.431V124.433V124.434V124.435V124.437V124.438V124.44V124.441V124.442V124.444V124.445V124.447V124.448V124.449V124.451V124.452V124.454V124.455V124.456V124.458V124.459V124.461V124.462V124.463V124.465V124.466V124.468V124.469V124.47V124.472V124.473V124.475V124.476V124.477V124.479V124.48V124.482V124.483V124.484V124.486V124.487V124.489V124.49V124.491V124.493V124.494V124.496V124.497V124.498V124.5V124.501V124.503V124.504V124.505V124.507V124.508V124.51V124.511V124.513V124.514V124.515V124.517V124.518V124.52V124.521V124.522V124.524V124.525V124.527V124.528V124.529V124.531V124.532V124.534V124.535V124.537V124.538V124.539V124.541V124.542V124.544V124.545V124.546V124.548V124.549V124.551V124.552V124.554V124.555V124.556V124.558V124.559V124.561V124.562V124.563V124.565C484.043 127.767 482.771 130.839 480.507 133.103C478.242 135.368 475.17 136.64 471.968 136.64C468.765 136.64 465.693 135.368 463.429 133.103C461.164 130.839 459.892 127.767 459.892 124.565V124.563V124.562V124.561V124.559V124.558V124.556V124.555V124.554V124.552V124.551V124.549V124.548V124.546V124.545V124.544V124.542V124.541V124.539V124.538V124.537V124.535V124.534V124.532V124.531V124.529V124.528V124.527V124.525V124.524V124.522V124.521V124.52V124.518V124.517V124.515V124.514V124.513V124.511V124.51V124.508V124.507V124.505V124.504V124.503V124.501V124.5V124.498V124.497V124.496V124.494V124.493V124.491V124.49V124.489V124.487V124.486V124.484V124.483V124.482V124.48V124.479V124.477V124.476V124.475V124.473V124.472V124.47V124.469V124.468V124.466V124.465V124.463V124.462V124.461V124.459V124.458V124.456V124.455V124.454V124.452V124.451V124.449V124.448V124.447V124.445V124.444V124.442V124.441V124.44V124.438V124.437V124.435V124.434V124.433V124.431V124.43V124.428V124.427V124.426V124.424V124.423V124.421V124.42V124.419V124.417V124.416V124.414V124.413V124.412V124.41V124.409V124.408V124.406V124.405V124.403V124.402V124.401V124.399V124.398V124.396V124.395V124.394V124.392V124.391V124.389V124.388V124.387V124.385V124.384V124.383V124.381V124.38V124.378V124.377V124.376V124.374V124.373V124.371V124.37V124.369V124.367V124.366V124.365V124.363V124.362V124.36V124.359V124.358V124.356V124.355V124.353V124.352V124.351V124.349V124.348V124.347V124.345V124.344V124.342V124.341V124.34V124.338V124.337V124.335V124.334V124.333V124.331V124.33V124.329V124.327V124.326V124.324V124.323V124.322V124.32V124.319V124.318V124.316V124.315V124.313V124.312V124.311V124.309V124.308V124.307V124.305V124.304V124.302V124.301V124.3V124.298V124.297V124.296V124.294V124.293V124.291V124.29V124.289V124.287V124.286V124.285V124.283V124.282V124.28V124.279V124.278V124.276V124.275V124.274V124.272V124.271V124.269V124.268V124.267V124.265V124.264V124.263V124.261V124.26V124.258V124.257V124.256V124.254V124.253V124.252V124.25V124.249V124.248V124.246V124.245V124.243V124.242V124.241V124.239V124.238V124.237V124.235V124.234V124.232V124.231V124.23V124.228V124.227V124.226V124.224V124.223V124.222V124.22V124.219V124.217V124.216V124.215V124.213V124.212V124.211V124.209V124.208V124.206V124.205V124.204V124.202V124.201V124.2V124.198V124.197V124.196V124.194V124.193V124.191V124.19V124.189V124.187V124.186V124.185V124.183V124.182V124.181V124.179V124.178V124.176V124.175V124.174V124.172V124.171V124.17V124.168V124.167V124.166V124.164V124.163V124.162V124.16V124.159V124.157V124.156V124.155V124.153V124.152V124.151V124.149V124.148V124.147V124.145V124.144V124.142V124.141V124.14V124.138V124.137V124.136V124.134V124.133V124.132V124.13V124.129V124.128V124.126V124.125V124.123V124.122V124.121V124.119V124.118V124.117V124.115V124.114V124.113V124.111V124.11V124.109V124.107V124.106V124.104V124.103V124.102V124.1V124.099V124.098V124.096V124.095V124.094V124.092V124.091V124.09V124.088V124.087V124.086V124.084V124.083V124.081V124.08V124.079V124.077V124.076V124.075V124.073V124.072V124.071V124.069V124.068V124.067V124.065V124.064V124.062V124.061V124.06V124.058V124.057V124.056V124.054V124.053V124.052V124.05V124.049V124.048V124.046V124.045V124.044V124.042V124.041V124.039V124.038V124.037V124.035V124.034V124.033V124.031V124.03V124.029V124.027V124.026V124.025V124.023V124.022V124.021V124.019V124.018V124.017V124.015V124.014V124.012V124.011V124.01V124.008V124.007V124.006V124.004V124.003V124.002V124V123.999V123.998V123.996V123.995V123.994V123.992V123.991V123.989V123.988V123.987V123.985V123.984V123.983V123.981V123.98V123.979V123.977V123.976V123.975V123.973V123.972V123.971V123.969V123.968V123.967V123.965V123.964V123.962V123.961V123.96V123.958V123.957V123.956V123.954V123.953V123.952V123.95V123.949V123.948V123.946V123.945V123.944V123.942V123.941V123.94V123.938V123.937V123.936V123.934V123.933V123.931V123.93V123.929V123.927V123.926V123.925V123.923V123.922V123.921V123.919V123.918V123.917V123.915V123.914V123.913V123.911V123.91V123.909V123.907V123.906V123.905V123.903V123.902V123.9V123.899V123.898V123.896V123.895V123.894V123.892V123.891V123.89V123.888V123.887V123.886V123.884V123.883V123.882V123.88V123.879V123.878V123.876V123.875V123.873V123.872V123.871V123.869V123.868V123.867V123.865V123.864V123.863C459.892 122.282 458.61 121 457.029 121H406.863C405.282 121 404 122.282 404 123.863V254.137C404 255.719 405.282 257 406.863 257H537.145C538.726 257 540.008 255.719 540.008 254.137V123.863C540.008 122.282 538.726 121 537.145 121H486.906Z" stroke="white" stroke-width="14" stroke-miterlimit="16" mask="url(#path-13-inside-1)"/>
<path d="M526.228 202.079C526.273 202.722 526.329 203.351 526.385 203.976C526.433 204.515 526.48 205.051 526.521 205.59L526.58 206.623C526.695 208.636 526.255 210.64 525.303 212.419L525.302 212.421C525.169 212.673 525.022 212.935 524.873 213.202C524.638 213.621 524.396 214.053 524.19 214.477L524.185 214.487L524.181 214.496C523.814 215.339 522.939 215.845 522.017 215.743L522 215.741L521.983 215.741C521.45 215.719 520.922 215.883 520.498 216.212C519.475 216.882 518.436 217.541 517.384 218.162C516.043 218.898 514.441 218.984 513.024 218.392L513.017 218.389L513.009 218.386C510.387 217.389 507.601 216.877 504.796 216.876C501.88 216.788 499.088 218.063 497.248 220.315L497.238 220.327L497.229 220.34C496.491 221.366 495.925 222.499 495.556 223.706C495.422 224.046 495.302 224.549 495.192 225.146C495.078 225.766 494.968 226.52 494.863 227.363C494.655 229.05 494.466 231.113 494.307 233.209C494.021 236.967 493.83 240.856 493.794 242.9C493.414 242.806 492.859 242.659 492.156 242.445C490.73 242.009 488.695 241.295 486.271 240.185C481.48 237.991 475.173 234.251 469.043 228.053L472.192 219.811L472.451 219.132H471.725H462.674L469.261 212.169L470.059 211.325H468.898H457.355L463.944 204.362L464.742 203.519H463.58H452.681L465.309 190.144C469.356 186.14 474.441 183.345 479.996 182.085C482.652 181.633 484.287 181.541 485.653 181.672C486.923 181.794 487.98 182.11 489.455 182.55C489.573 182.586 489.694 182.622 489.819 182.659L489.819 182.659L491.659 183.206L491.66 183.206L492.292 183.394L492.296 183.395L494.637 184.11L494.644 184.112L494.652 184.114C496.272 184.553 497.972 184.577 499.601 184.187L499.601 184.187L499.611 184.184C501.584 183.666 503.681 183.913 505.478 184.875C507.058 185.777 508.117 187.381 508.323 189.182L508.323 189.183C508.543 191.076 509.647 192.756 511.303 193.708L511.303 193.708L511.312 193.714C513.595 194.959 515.975 196.003 518.427 196.843C519.276 197.167 520.126 197.511 520.98 197.859L521.16 197.932C521.955 198.256 522.754 198.581 523.55 198.89L523.553 198.891C524.315 199.182 524.989 199.667 525.508 200.299L525.509 200.3C525.928 200.805 526.179 201.426 526.228 202.079ZM526.228 202.079C526.228 202.079 526.228 202.078 526.228 202.078L526.727 202.043L526.228 202.08C526.228 202.08 526.228 202.079 526.228 202.079Z" fill="white" stroke="white" stroke-miterlimit="16"/>
<defs>
<filter id="filter0_d" x="600.817" y="163.583" width="56.0509" height="56.4494" filterUnits="userSpaceOnUse" color-interpolation-filters="sRGB">
<feFlood flood-opacity="0" result="BackgroundImageFix"/>
<feColorMatrix in="SourceAlpha" type="matrix" values="0 0 0 0 0 0 0 0 0 0 0 0 0 0 0 0 0 0 127 0"/>
<feOffset dy="3.18001"/>
<feGaussianBlur stdDeviation="1.59001"/>
<feColorMatrix type="matrix" values="0 0 0 0 0 0 0 0 0 0 0 0 0 0 0 0 0 0 0.25 0"/>
<feBlend mode="normal" in2="BackgroundImageFix" result="effect1_dropShadow"/>
<feBlend mode="normal" in="SourceGraphic" in2="effect1_dropShadow" result="shape"/>
</filter>
</defs>
</svg>
