<svg width="960" height="440" viewBox="0 0 960 440" fill="none" xmlns="http://www.w3.org/2000/svg">
<path d="M158 118.696C357.907 150.526 603.202 142.734 706.552 167.56C706.552 167.56 795.195 184.898 834.946 167.56C874.696 150.221 894.01 131.287 898.546 142.734C902.918 153.767 871.118 172.42 856.013 178.593C874.298 178.593 938.296 146.753 938.296 167.56C938.296 188.366 851.243 205.784 851.243 205.784C851.243 205.784 936.706 198.691 951.811 215.241C966.719 231.576 838.523 231.792 838.523 231.792C838.523 231.792 921.203 253.465 927.563 271.986C933.935 290.541 827.791 253.465 827.791 253.465C827.791 253.465 810.18 247.554 797.58 253.465C776.523 263.344 832.561 268.44 832.561 290.983C832.561 309.855 739.336 256.561 724.043 245.19L685.087 247.554L158 290.113" stroke="white" stroke-width="3.18001"/>
<path d="M288.745 79.163C287.657 79.0224 286.658 79.7907 286.516 80.8791C286.373 81.9674 287.14 82.9637 288.228 83.1044L307.207 85.5563L305.758 97.8189L286.881 95.3206C285.793 95.1766 284.793 95.9418 284.646 97.0297C284.5 98.1177 285.264 99.1163 286.352 99.2604L305.291 101.767L303.837 114.067L278.49 111.123L285.692 50.2031L311.038 53.1478L309.591 65.3916L291.153 63.0091C290.065 62.8685 289.066 63.6367 288.924 64.7251C288.781 65.8134 289.547 66.8098 290.636 66.9504L309.124 69.3394L307.674 81.6084L288.745 79.163Z" fill="white" stroke="black" stroke-width="3.97502" stroke-linecap="round" stroke-linejoin="round"/>
<path d="M638.182 349.223H270.493L273.445 144.31L307.935 125.395L317.602 48.1586L698.205 125.395V166.87V177.239V187.608V197.976V208.345V218.714V229.083V239.452V249.82V291.296H653.716L638.182 349.223Z" fill="black"/>
<path d="M698.205 125.395L317.602 48.1586L307.935 125.395L273.445 144.31L270.493 349.223H638.182L653.716 291.296M698.205 125.395L653.716 291.296M698.205 125.395V166.87M653.716 291.296H698.205V249.82M698.205 208.345H682.702M698.205 208.345V197.976M698.205 208.345V218.714M698.205 166.87H693.435M698.205 166.87V177.239M698.205 187.608H687.87M698.205 187.608V177.239M698.205 187.608V197.976M698.205 177.239H690.652M698.205 197.976H685.087M698.205 249.82H671.175M698.205 249.82V239.452M698.205 229.083H678.33M698.205 229.083V218.714M698.205 229.083V239.452M698.205 218.714L680.317 219.182M698.205 239.452H674.355" stroke="white" stroke-width="4.77002"/>
<path d="M604.792 108.533V271.013C604.792 281.77 596.072 290.49 585.314 290.49H354.763C344.006 290.49 335.286 281.77 335.286 271.013V108.533C335.286 97.7754 344.001 89.0557 354.758 89.0557H354.845H354.932H355.019H355.106H355.193H355.28H355.367H355.454H355.541H355.628H355.716H355.803H355.89H355.978H356.065H356.153H356.24H356.327H356.415H356.502H356.59H356.678H356.765H356.853H356.941H357.028H357.116H357.204H357.292H357.379H357.467H357.555H357.643H357.731H357.819H357.907H357.995H358.083H358.171H358.259H358.347H358.435H358.523H358.611H358.7H358.788H358.876H358.964H359.053H359.141H359.229H359.318H359.406H359.494H359.583H359.671H359.759H359.848H359.936H360.025H360.113H360.202H360.29H360.379H360.467H360.556H360.645H360.733H360.822H360.91H360.999H361.088H361.176H361.265H361.354H361.443H361.531H361.62H361.709H361.798H361.886H361.975H362.064H362.153H362.242H362.33H362.419H362.508H362.597H362.686H362.775H362.864H362.953H363.042H363.13H363.219H363.308H363.397H363.486H363.575H363.664H363.753H363.842H363.931H364.02H364.109H364.198H364.287H364.376H364.465H364.554H364.643H364.732H364.821H364.91H364.999H365.088H365.177H365.266H365.355H365.444H365.533H365.622H365.711H365.8H365.889H365.978H366.067H366.156H366.245H366.334H366.423H366.512H366.601H366.69H366.779H366.868H366.957H367.046H367.135H367.224H367.313H367.402H367.49H367.579H367.668H367.757H367.846H367.935H368.024H368.113H368.202H368.29H368.379H368.468H368.557H368.646H368.735H368.823H368.912H369.001H369.09H369.178H369.267H369.356H369.445H369.533H369.622H369.711H369.799H369.888H369.977H370.065H370.154H370.242H370.331H370.419H370.508H370.597H370.685H370.773H370.862H370.95H371.039H371.127H371.216H371.304H371.392H371.481H371.569H371.657H371.745H371.834H371.922H372.01H372.098H372.186H372.275H372.363H372.451H372.539H372.627H372.715H372.803H372.891H372.979H373.067H373.155H373.243H373.33H373.418H373.506H373.594H373.682H373.769H373.857H373.945H374.032H374.12H374.207H374.295H374.382H374.47H374.557H374.645H374.732H374.819H374.907H374.994H375.081H375.169H375.256H375.343H375.43H375.517H375.604H375.691H375.778H375.865H375.952H376.039H376.126H376.213H376.3H376.386H376.473H376.56H376.646H376.733H376.82H376.906H376.993H377.079H377.165H377.252H377.338H377.424H377.511H377.597H377.683H377.769H377.855H377.941H378.027H378.113H378.199H378.285H378.371H378.457H378.543H378.628H378.714H378.8H378.885H378.971H379.056H379.142H379.227H379.312H379.398H379.483H379.568H379.653H379.738H379.823H379.908H379.993H380.078H380.163H380.248H380.333H380.418H380.502H380.587H380.671H380.756H380.84H380.925H381.009H381.094H381.178H381.262H381.346H381.43H381.514H381.598H381.682H381.766H381.85H381.934H382.018H382.101H382.185H382.268H382.352H382.435H382.519H382.602H382.685H382.769H382.852H382.935H383.018H383.101H383.184H383.267H383.349H383.432H383.515H383.597H383.68H383.763H383.845H383.927H384.01H384.092H384.174H384.256H384.338H384.42H384.502H384.584H384.666H384.748H384.829H384.911H384.992H385.074H385.155H385.237H385.318H385.399H385.48H385.561H385.642H385.723H385.804H385.885H385.966H386.046H386.127H386.207H386.288H386.368H386.448H386.529H386.609H386.689H386.769H386.849H386.929H387.009H387.088H387.168H387.248H387.327H387.407H387.486H387.565H387.644H387.723H387.803H387.882H387.96H388.039H388.118H388.197H388.275H388.354H388.432H388.511H388.589H388.667H388.745H388.823H388.901H388.979H389.057H389.135H389.212H389.29H389.367H389.445H389.522H389.599H389.676H389.753H389.83H389.907H389.984H390.061H390.137H390.214H390.29H390.367H390.443H390.519H390.595H390.671H390.747H390.823H390.899H390.975H391.05H391.126H391.201H391.277H391.352H391.427H391.502H391.577H391.652H391.727H391.801H391.876H391.95H392.025H392.099H392.173H392.248H392.322H392.396H392.469H392.543H392.617H392.69H392.764H392.837H392.911H392.984H393.057H393.13H393.203H393.276H393.348H393.421H393.494H393.566H393.638H393.711H393.783H393.855H393.927H393.998H394.07H394.142H394.213H394.285H394.356H394.427H394.498H394.569H394.64H394.711H394.782H394.853H394.923H394.993H395.064H395.134H395.204H395.274H395.344H395.414H395.483H395.553H395.622H395.692H395.761H395.83H395.899H395.968H396.037H396.105H396.174H396.243H396.311H396.379H396.447H396.515H396.583H396.651H396.719H396.786H396.854H396.921H396.988H397.056H397.123H397.19H397.256H397.323C406.402 89.0557 413.738 81.6952 413.738 72.623C413.738 65.5565 419.609 59.9049 426.67 60.1743L518.238 63.6673C523.99 63.8868 528.54 68.6137 528.54 74.3701C528.54 82.4808 535.115 89.0557 543.225 89.0557H585.314C596.072 89.0557 604.792 97.7761 604.792 108.533Z" fill="black" stroke="white" stroke-width="3.97502"/>
<path d="M582.134 109.632C571.004 95.4462 368.278 97.0224 354.763 109.632C341.248 122.242 345.223 259.376 354.763 271.986C364.303 284.596 567.029 281.444 582.134 271.986C597.239 262.529 593.264 123.819 582.134 109.632Z" stroke="white" stroke-width="4.77002"/>
<rect x="407.631" y="308.651" width="123.226" height="81.1426" rx="9.14254" fill="black" stroke="white" stroke-width="3.97502"/>
<g filter="url(#filter0_d)">
<path d="M632.22 188.445C632.22 190.021 631.425 190.809 629.835 190.809C628.245 190.809 627.45 190.021 627.45 188.445C627.45 186.869 628.245 186.081 629.835 186.081M632.22 188.445C632.22 186.869 631.425 186.081 629.835 186.081M632.22 188.445L637.785 179.776C637.785 179.776 634.802 182.08 629.835 186.081M604.792 164.407V212.877C629.835 212.877 652.572 209.567 652.89 188.445C653.208 167.323 629.835 164.013 604.792 164.407ZM623.475 204.996C623.475 204.996 647.722 204.996 648.12 187.854C648.517 170.712 623.475 170.712 623.475 170.712V188.642V204.996Z" stroke="white" stroke-width="1.59001"/>
</g>
<path d="M605.587 319.668C605.587 330.099 597.054 338.573 586.507 338.573C575.96 338.573 567.427 330.099 567.427 319.668C567.427 309.237 575.96 300.763 586.507 300.763C597.054 300.763 605.587 309.237 605.587 319.668Z" stroke="white" stroke-width="2.38501"/>
<ellipse cx="586.507" cy="319.668" rx="12.3226" ry="12.216" fill="white"/>
<path d="M671.572 312.969L670.38 307.058L671.572 303.511L657.66 300.753L656.865 303.511L654.48 302.723L644.542 339.371L646.132 340.159L645.337 343.706L658.852 346.858L660.442 342.524L664.815 339.371M671.572 312.969L656.865 309.816M671.572 312.969L668.194 326.17M664.815 339.371L650.505 335.825M664.815 339.371L668.194 326.17M668.194 326.17L653.685 322.821" stroke="white" stroke-width="3.18001" stroke-linejoin="round"/>
<path d="M446.984 316.91H425.519V364.197H446.984M446.984 316.91V364.197M446.984 316.91H458.412M446.984 364.197H492.697M492.697 316.91H513.764V364.197H492.697M492.697 316.91V364.197M492.697 316.91H481.268M469.84 316.91V340.947M469.84 316.91H481.268M469.84 316.91H458.412M481.268 316.91V340.947M458.412 316.91V340.947M312.628 266.075H301.896M312.628 266.075V250.806M312.628 266.075V281.345M312.628 235.536V204.996H279.636V245.19M312.628 235.536H301.896M312.628 235.536V250.806M312.628 250.806H301.896M312.628 296.615V327.155H279.636V255.14M312.628 296.615H301.896M312.628 296.615V281.345M312.628 281.345H301.896M279.636 255.14H292.753L297.126 250.806L292.753 245.19H279.636M279.636 255.14V245.19" stroke="white" stroke-width="3.18001" stroke-linejoin="round"/>
<path d="M429.196 151.173C429.196 149.708 429.054 148.274 428.782 146.883M404.098 174.77C402.028 174.77 400.016 174.534 398.091 174.09M398.091 174.09C387.131 171.559 379 162.259 379 151.173C379 138.142 390.237 127.577 404.098 127.577C416.401 127.577 426.636 135.9 428.782 146.883M398.091 174.09L403.883 163.615C396.775 163.615 391.013 158.045 391.013 151.173C391.013 144.302 396.775 138.732 403.883 138.732C410.992 138.732 416.754 144.302 416.754 151.173L428.782 146.883M558.561 151.603C558.561 138.571 547.324 128.006 533.463 128.006C521.16 128.006 510.925 136.329 508.779 147.312L520.807 151.603C520.807 144.731 526.569 139.161 533.678 139.161C540.786 139.161 546.548 144.731 546.548 151.603C546.548 158.474 540.786 164.044 533.678 164.044L539.469 174.519C550.43 171.988 558.561 162.688 558.561 151.603Z" stroke="white" stroke-width="4"/>
<path d="M400.88 169.621C409.461 157.8 413.751 143.108 468.666 141.735C511.568 140.662 528.492 153.962 539.025 173.054C545.89 185.495 544.603 210.808 529.587 226.252C498.128 258.61 443.353 252.956 409.461 226.252C391.325 211.964 392.3 181.443 400.88 169.621Z" fill="black" stroke="white" stroke-width="5"/>
<path d="M446.356 139.016C456.595 135.842 468.952 144.307 471.24 150.599C473.957 142.877 484.575 136.639 494.407 139.016C509.226 142.599 507.393 170.068 494.407 178.057C485.983 183.239 469.095 177.199 469.095 177.199C469.095 177.199 454.157 182.312 446.356 178.057C432.972 170.755 431.794 143.53 446.356 139.016Z" fill="black" stroke="white" stroke-width="4"/>
<ellipse cx="460.514" cy="169.621" rx="3.8612" ry="5.57729" fill="white"/>
<ellipse cx="478.533" cy="169.621" rx="3.8612" ry="5.57729" fill="white"/>
<path d="M511.139 213.451C507.768 201.653 504.06 185.136 469.095 184.921C434.129 184.707 429.126 198.006 425.978 213.451C419.114 247.129 450.861 260 469.095 260C487.328 260 516.502 242.625 511.139 213.451Z" fill="black"/>
<path d="M469.095 184.921L469.107 182.921L469.095 184.921ZM511.139 213.451L513.106 213.09L513.088 212.995L513.062 212.902L511.139 213.451ZM425.978 213.451L427.938 213.851L427.938 213.851L425.978 213.451ZM469.082 186.921C486.269 187.027 495.347 191.134 500.561 196.267C505.84 201.465 507.499 207.993 509.216 214.001L513.062 212.902C511.407 207.111 509.527 199.482 503.368 193.417C497.144 187.289 486.886 183.03 469.107 182.921L469.082 186.921ZM509.172 213.813C511.702 227.578 506.127 238.55 497.629 246.177C489.063 253.867 477.677 258 469.095 258V262C478.745 262 491.064 257.446 500.301 249.154C509.608 240.8 515.938 228.498 513.106 213.09L509.172 213.813ZM469.095 258C460.351 258 448.316 254.89 439.368 247.788C430.552 240.791 424.668 229.894 427.938 213.851L424.018 213.052C420.424 230.687 426.981 243.064 436.881 250.921C446.65 258.675 459.605 262 469.095 262V258ZM427.938 213.851C429.507 206.153 431.45 199.576 436.917 194.823C442.39 190.065 451.79 186.815 469.082 186.921L469.107 182.921C451.434 182.813 440.849 186.105 434.293 191.804C427.73 197.509 425.597 205.304 424.018 213.052L427.938 213.851Z" fill="white"/>
<path d="M448.502 211.091C451.29 207.23 485.183 206.372 489.259 211.091C493.334 215.811 477.89 238.978 469.095 238.978C460.3 238.978 445.713 214.953 448.502 211.091Z" fill="white"/>
<path d="M450.123 212.262C450.044 212.372 450.041 212.316 450.324 212.163C450.581 212.025 450.964 211.864 451.495 211.694C452.555 211.356 454.007 211.043 455.772 210.776C459.29 210.244 463.819 209.927 468.42 209.874C473.023 209.821 477.624 210.034 481.29 210.539C483.127 210.792 484.673 211.111 485.845 211.484C487.103 211.884 487.618 212.252 487.745 212.399L490.772 209.784C489.88 208.751 488.445 208.113 487.058 207.672C485.586 207.204 483.793 206.846 481.836 206.576C477.914 206.036 473.103 205.82 468.374 205.874C463.645 205.928 458.923 206.254 455.174 206.821C453.306 207.104 451.621 207.455 450.278 207.884C449.607 208.098 448.972 208.347 448.424 208.643C447.902 208.925 447.308 209.329 446.88 209.92L450.123 212.262ZM487.745 212.399C487.777 212.436 487.964 212.709 487.925 213.554C487.888 214.367 487.65 215.451 487.181 216.767C486.245 219.387 484.521 222.566 482.363 225.66C480.208 228.75 477.69 231.656 475.228 233.766C472.672 235.955 470.533 236.978 469.095 236.978V240.978C472.053 240.978 475.143 239.105 477.83 236.803C480.61 234.421 483.347 231.241 485.644 227.949C487.936 224.661 489.859 221.163 490.948 218.112C491.49 216.592 491.859 215.093 491.921 213.736C491.981 212.41 491.759 210.927 490.772 209.784L487.745 212.399ZM469.095 236.978C467.692 236.978 465.619 235.941 463.115 233.679C460.708 231.506 458.249 228.518 456.11 225.361C453.971 222.205 452.211 218.968 451.164 216.338C450.638 215.016 450.322 213.922 450.204 213.111C450.069 212.181 450.259 212.074 450.123 212.262L446.88 209.92C446.047 211.074 446.083 212.563 446.246 213.686C446.426 214.927 446.861 216.344 447.448 217.817C448.626 220.778 450.54 224.272 452.799 227.605C455.057 230.937 457.719 234.196 460.434 236.648C463.051 239.012 466.1 240.978 469.095 240.978V236.978Z" fill="white"/>
<path d="M440.482 132.567C440.657 132.202 441.312 131.464 442.892 130.628C444.379 129.841 446.328 129.157 448.469 128.683C450.603 128.21 452.821 127.968 454.815 128.003C456.854 128.039 458.439 128.36 459.448 128.837L462.01 123.411C459.93 122.429 457.396 122.048 454.92 122.004C452.401 121.96 449.709 122.263 447.171 122.825C444.642 123.385 442.158 124.228 440.086 125.324C438.107 126.372 436.075 127.875 435.07 129.978L440.482 132.567ZM480.196 128.946C483.372 127.799 487.663 127.743 491.689 128.649C495.808 129.576 498.879 131.328 500.139 133.046L504.978 129.498C502.462 126.068 497.703 123.852 493.006 122.795C488.216 121.717 482.704 121.661 478.158 123.302L480.196 128.946Z" fill="white"/>
<defs>
<filter id="filter0_d" x="600.817" y="163.583" width="56.0509" height="56.4494" filterUnits="userSpaceOnUse" color-interpolation-filters="sRGB">
<feFlood flood-opacity="0" result="BackgroundImageFix"/>
<feColorMatrix in="SourceAlpha" type="matrix" values="0 0 0 0 0 0 0 0 0 0 0 0 0 0 0 0 0 0 127 0"/>
<feOffset dy="3.18001"/>
<feGaussianBlur stdDeviation="1.59001"/>
<feColorMatrix type="matrix" values="0 0 0 0 0 0 0 0 0 0 0 0 0 0 0 0 0 0 0.25 0"/>
<feBlend mode="normal" in2="BackgroundImageFix" result="effect1_dropShadow"/>
<feBlend mode="normal" in="SourceGraphic" in2="effect1_dropShadow" result="shape"/>
</filter>
</defs>
</svg>
