<svg width="960" height="440" viewBox="0 0 960 440" fill="none" xmlns="http://www.w3.org/2000/svg">
<path d="M157.5 122.023C357.407 154.131 602.702 146.27 706.052 171.313C706.052 171.313 794.695 188.803 834.446 171.313C874.196 153.823 893.51 134.723 898.046 146.27C902.418 157.4 870.618 176.215 855.513 182.443C873.798 182.443 937.796 150.325 937.796 171.313C937.796 192.301 850.743 209.871 850.743 209.871C850.743 209.871 936.206 202.716 951.311 219.411C966.219 235.888 838.023 236.106 838.023 236.106C838.023 236.106 920.703 257.968 927.063 276.651C933.435 295.368 827.291 257.968 827.291 257.968C827.291 257.968 809.68 252.006 797.08 257.968C776.023 267.933 832.061 273.073 832.061 295.814C832.061 314.85 738.836 261.091 723.543 249.621L684.587 252.006L157.5 294.936" stroke="white" stroke-width="3.18001"/>
<path d="M288.244 82.1619C287.155 82.02 286.158 82.7874 286.016 83.8759C285.874 84.9643 286.641 85.9617 287.73 86.1035L306.71 88.5769L305.256 100.981L286.38 98.4605C285.292 98.3152 284.292 99.0795 284.147 100.167C284.001 101.255 284.766 102.255 285.854 102.401L304.793 104.929L303.335 117.371L277.988 114.4L285.194 52.9152L310.541 55.8856L309.089 68.2702L290.652 65.867C289.563 65.7251 288.566 66.4925 288.424 67.5809C288.282 68.6694 289.049 69.6668 290.138 69.8086L308.627 72.2185L307.172 84.6285L288.244 82.1619Z" fill="white" stroke="black" stroke-width="3.97502" stroke-linecap="round" stroke-linejoin="round"/>
<path d="M637.682 354.561H269.993L272.945 147.86L307.435 128.78L317.102 50.8699L697.705 128.78V170.617V181.077V191.536V201.995V212.454V222.914V233.373V243.832V254.291V296.128H653.216L637.682 354.561Z" fill="black"/>
<path d="M697.705 128.78L317.102 50.8699L307.435 128.78L272.945 147.86L269.993 354.561H637.682L653.216 296.128M697.705 128.78L653.216 296.128M697.705 128.78V170.617M653.216 296.128H697.705V254.291M697.705 212.454H682.202M697.705 212.454V201.995M697.705 212.454V222.914M697.705 170.617H692.935M697.705 170.617V181.077M697.705 191.536H687.37M697.705 191.536V181.077M697.705 191.536V201.995M697.705 181.077H690.152M697.705 201.995H684.587M697.705 254.291H670.675M697.705 254.291V243.832M697.705 233.373H677.83M697.705 233.373V222.914M697.705 233.373V243.832M697.705 222.914L679.817 223.386M697.705 243.832H673.855" stroke="white" stroke-width="4.77002"/>
<path d="M604.292 111.584V275.856C604.292 286.613 595.572 295.333 584.814 295.333H354.263C343.506 295.333 334.786 286.613 334.786 275.856V111.584C334.786 100.826 343.501 92.1065 354.258 92.1065H354.344H354.431H354.518H354.604H354.691H354.778H354.865H354.951H355.038H355.125H355.212H355.299H355.386H355.473H355.56H355.647H355.735H355.822H355.909H355.996H356.083H356.171H356.258H356.345H356.433H356.52H356.607H356.695H356.782H356.87H356.957H357.045H357.132H357.22H357.308H357.395H357.483H357.571H357.658H357.746H357.834H357.922H358.009H358.097H358.185H358.273H358.361H358.449H358.537H358.625H358.713H358.801H358.889H358.977H359.065H359.153H359.241H359.329H359.417H359.505H359.594H359.682H359.77H359.858H359.946H360.035H360.123H360.211H360.3H360.388H360.476H360.565H360.653H360.741H360.83H360.918H361.006H361.095H361.183H361.272H361.36H361.449H361.537H361.626H361.714H361.803H361.891H361.98H362.068H362.157H362.245H362.334H362.422H362.511H362.6H362.688H362.777H362.865H362.954H363.043H363.131H363.22H363.309H363.397H363.486H363.574H363.663H363.752H363.84H363.929H364.018H364.106H364.195H364.284H364.373H364.461H364.55H364.639H364.727H364.816H364.905H364.993H365.082H365.171H365.259H365.348H365.437H365.525H365.614H365.703H365.791H365.88H365.969H366.057H366.146H366.235H366.323H366.412H366.501H366.589H366.678H366.767H366.855H366.944H367.032H367.121H367.21H367.298H367.387H367.475H367.564H367.652H367.741H367.829H367.918H368.006H368.095H368.183H368.272H368.36H368.449H368.537H368.626H368.714H368.802H368.891H368.979H369.068H369.156H369.244H369.333H369.421H369.509H369.598H369.686H369.774H369.862H369.95H370.039H370.127H370.215H370.303H370.391H370.479H370.568H370.656H370.744H370.832H370.92H371.008H371.096H371.184H371.272H371.359H371.447H371.535H371.623H371.711H371.799H371.887H371.974H372.062H372.15H372.237H372.325H372.413H372.5H372.588H372.676H372.763H372.851H372.938H373.026H373.113H373.2H373.288H373.375H373.462H373.55H373.637H373.724H373.811H373.899H373.986H374.073H374.16H374.247H374.334H374.421H374.508H374.595H374.682H374.769H374.856H374.942H375.029H375.116H375.203H375.289H375.376H375.463H375.549H375.636H375.722H375.809H375.895H375.982H376.068H376.154H376.241H376.327H376.413H376.499H376.585H376.671H376.757H376.843H376.929H377.015H377.101H377.187H377.273H377.359H377.444H377.53H377.616H377.701H377.787H377.873H377.958H378.043H378.129H378.214H378.3H378.385H378.47H378.555H378.64H378.725H378.81H378.895H378.98H379.065H379.15H379.235H379.32H379.404H379.489H379.574H379.658H379.743H379.827H379.912H379.996H380.08H380.165H380.249H380.333H380.417H380.501H380.585H380.669H380.753H380.837H380.921H381.005H381.088H381.172H381.255H381.339H381.423H381.506H381.589H381.673H381.756H381.839H381.922H382.005H382.088H382.171H382.254H382.337H382.42H382.503H382.585H382.668H382.751H382.833H382.916H382.998H383.08H383.163H383.245H383.327H383.409H383.491H383.573H383.655H383.737H383.818H383.9H383.982H384.063H384.145H384.226H384.308H384.389H384.47H384.552H384.633H384.714H384.795H384.876H384.957H385.037H385.118H385.199H385.279H385.36H385.44H385.521H385.601H385.681H385.761H385.841H385.922H386.001H386.081H386.161H386.241H386.321H386.4H386.48H386.559H386.639H386.718H386.797H386.876H386.955H387.034H387.113H387.192H387.271H387.35H387.428H387.507H387.586H387.664H387.742H387.821H387.899H387.977H388.055H388.133H388.211H388.288H388.366H388.444H388.521H388.599H388.676H388.753H388.831H388.908H388.985H389.062H389.139H389.216H389.292H389.369H389.446H389.522H389.598H389.675H389.751H389.827H389.903H389.979H390.055H390.131H390.207H390.282H390.358H390.433H390.509H390.584H390.659H390.734H390.809H390.884H390.959H391.034H391.108H391.183H391.257H391.332H391.406H391.48H391.554H391.628H391.702H391.776H391.85H391.924H391.997H392.071H392.144H392.217H392.29H392.364H392.437H392.509H392.582H392.655H392.728H392.8H392.873H392.945H393.017H393.089H393.161H393.233H393.305H393.377H393.448H393.52H393.591H393.663H393.734H393.805H393.876H393.947H394.018H394.089H394.159H394.23H394.3H394.371H394.441H394.511H394.581H394.651H394.721H394.79H394.86H394.929H394.999H395.068H395.137H395.206H395.275H395.344H395.413H395.481H395.55H395.618H395.687H395.755H395.823H395.891H395.959H396.027H396.094H396.162H396.229H396.297H396.364H396.431H396.498H396.565H396.632H396.698C405.845 92.1065 413.238 84.6909 413.238 75.5502C413.238 68.4119 419.17 62.7036 426.303 62.9781L517.633 66.4926C523.444 66.7162 528.04 71.4923 528.04 77.308C528.04 85.481 534.665 92.1065 542.838 92.1065H584.814C595.572 92.1065 604.292 100.827 604.292 111.584Z" fill="black" stroke="white" stroke-width="3.97502"/>
<path d="M581.634 112.88C570.504 98.5701 367.778 100.16 354.263 112.88C340.748 125.6 344.723 263.931 354.263 276.651C363.803 289.371 566.529 286.191 581.634 276.651C596.739 267.111 592.764 127.19 581.634 112.88Z" stroke="white" stroke-width="4.77002"/>
<rect x="407.131" y="313.619" width="123.226" height="81.8854" rx="9.14254" fill="black" stroke="white" stroke-width="3.97502"/>
<g filter="url(#filter0_d)">
<path d="M631.72 192.381C631.72 193.971 630.925 194.766 629.335 194.766C627.745 194.766 626.95 193.971 626.95 192.381C626.95 190.79 627.745 189.995 629.335 189.995M631.72 192.381C631.72 190.79 630.925 189.995 629.335 189.995M631.72 192.381L637.285 183.635C637.285 183.635 634.302 185.959 629.335 189.995M604.292 168.133V217.026C629.335 217.026 652.072 213.687 652.39 192.381C652.708 171.074 629.335 167.735 604.292 168.133ZM622.975 209.076C622.975 209.076 647.222 209.076 647.62 191.784C648.017 174.493 622.975 174.493 622.975 174.493V192.579V209.076Z" stroke="white" stroke-width="1.59001"/>
</g>
<circle cx="586.007" cy="324.749" r="19.0801" stroke="white" stroke-width="2.38501"/>
<circle cx="586.007" cy="324.749" r="12.3226" fill="white"/>
<path d="M671.072 317.991L669.88 312.029L671.072 308.451L657.16 305.669L656.365 308.451L653.98 307.656L644.042 344.624L645.632 345.419L644.837 348.996L658.352 352.176L659.942 347.804L664.315 344.624M671.072 317.991L656.365 314.811M671.072 317.991L667.694 331.307M664.315 344.624L650.005 341.046M664.315 344.624L667.694 331.307M667.694 331.307L653.185 327.929" stroke="white" stroke-width="3.18001" stroke-linejoin="round"/>
<path d="M446.484 321.966H425.019V369.666H446.484M446.484 321.966V369.666M446.484 321.966H457.912M446.484 369.666H492.197M492.197 321.966H513.264V369.666H492.197M492.197 321.966V369.666M492.197 321.966H480.768M469.34 321.966V346.214M469.34 321.966H480.768M469.34 321.966H457.912M480.768 321.966V346.214M457.912 321.966V346.214M312.128 270.688H301.396M312.128 270.688V255.285M312.128 270.688V286.092M312.128 239.882V209.076H279.136V249.621M312.128 239.882H301.396M312.128 239.882V255.285M312.128 255.285H301.396M312.128 301.495V332.301H279.136V259.658M312.128 301.495H301.396M312.128 301.495V286.092M312.128 286.092H301.396M279.136 259.658H292.253L296.626 255.285L292.253 249.621H279.136M279.136 259.658V249.621" stroke="white" stroke-width="3.18001" stroke-linejoin="round"/>
<defs>
<filter id="filter0_d" x="600.317" y="167.308" width="56.0509" height="56.8727" filterUnits="userSpaceOnUse" color-interpolation-filters="sRGB">
<feFlood flood-opacity="0" result="BackgroundImageFix"/>
<feColorMatrix in="SourceAlpha" type="matrix" values="0 0 0 0 0 0 0 0 0 0 0 0 0 0 0 0 0 0 127 0"/>
<feOffset dy="3.18001"/>
<feGaussianBlur stdDeviation="1.59001"/>
<feColorMatrix type="matrix" values="0 0 0 0 0 0 0 0 0 0 0 0 0 0 0 0 0 0 0.25 0"/>
<feBlend mode="normal" in2="BackgroundImageFix" result="effect1_dropShadow"/>
<feBlend mode="normal" in="SourceGraphic" in2="effect1_dropShadow" result="shape"/>
</filter>
</defs>
</svg>
