<svg width="960" height="440" viewBox="0 0 960 440" fill="none" xmlns="http://www.w3.org/2000/svg">
<path d="M418.184 332.843V379.639C463.056 409.945 495.874 409.945 540.746 379.639V332.843" stroke="white" stroke-width="4" stroke-linejoin="round"/>
<path d="M471.805 342.648L469.251 414.401C467.549 419.601 471.805 430 481.167 430C489.679 430 493.083 419.601 493.083 414.401L489.679 342.648H471.805Z" fill="black"/>
<path d="M456.485 70.7849C451.378 65.8825 450.952 58.7517 455.633 56.0776C460.315 53.4036 452.689 48.7162 453.796 44.0443C454.451 41.2795 456.485 37.6778 456.485 37.6778H502.445C502.445 37.6778 505.787 41.1638 506.696 44.0443C508.12 48.5546 499.467 53.4036 504.999 56.0776C510.531 58.7517 507.978 66.3282 504.999 70.7849M456.485 70.7849C462.868 74.796 498.615 74.3503 504.999 70.7849M456.485 70.7849C456.485 70.7849 429.248 180.867 424.993 200.031C420.737 219.195 416.481 263.317 416.481 263.317V322.146M504.999 70.7849C504.999 70.7849 533.512 183.095 537.342 200.031C541.172 216.967 545.853 263.317 545.853 263.317L544.576 322.146M403.715 338.191C390.948 354.235 400.31 394.346 400.31 394.346H416.481C416.481 394.346 437.76 414.401 469.251 414.401M403.715 338.191C416.481 322.146 416.481 322.146 416.481 322.146M403.715 338.191L416.481 322.146M469.251 414.401L471.805 342.648H489.679L493.083 414.401M469.251 414.401C467.549 419.601 471.805 430 481.167 430C489.679 430 493.083 419.601 493.083 414.401M493.083 414.401C522.447 414.401 541.597 394.346 541.597 394.346H558.62C558.62 394.346 568.328 354.127 556.492 338.191M556.492 338.191C544.576 322.146 544.576 322.146 544.576 322.146M556.492 338.191L544.576 322.146M481.167 181.313C450.968 181.455 429.756 211.203 428.823 249.055C427.899 286.536 449.622 319.315 481.167 319.472C512.808 319.63 534.061 286.635 533.086 249.055C532.147 212.881 514.02 181.157 481.167 181.313Z" stroke="white" stroke-width="6" stroke-linejoin="round"/>
<path d="M474.038 248.306C454.035 244.716 440.932 257.313 437.035 262.249C433.137 267.184 433.513 275.377 437.035 275.377C441.437 275.377 442.766 271.357 441.849 270.136C440.932 268.914 438.823 272.934 439.098 269.525C439.373 266.116 447.844 259.239 458.356 257.007C468.903 254.769 486.006 261.18 498.57 262.859C511.133 264.538 522.135 260.417 526.494 254.819C530.853 249.222 531.105 243.077 529.933 244.744C524.568 252.377 521.368 255.989 505.952 254.819C495.222 254.005 492.759 251.667 474.038 248.306Z" fill="white"/>
<path d="M457.164 295.823C455.147 296.443 453.496 296.424 451.433 295.823C449.369 295.222 450.211 293.24 451.433 291.863C454.28 288.654 452.579 293.268 455.147 290.595C457.714 287.921 459.961 269.474 458.866 266.95C458.586 269.22 455.972 269.474 455.055 267.693C454.138 265.912 458.42 261.011 461.451 262.376C464.03 263.537 462.779 269.03 461.862 274.78C465.115 275.952 465.624 268.027 467.298 265.454C469.086 262.706 473.268 260.926 476.973 264.233C480.677 267.54 489.17 262.096 487.244 264.233C485.318 266.37 480.045 269.59 476.468 267.235C472.892 264.881 470.797 265.76 469.453 268.304C468.109 270.848 469.361 278.277 461.434 277.807C461.434 277.807 465.42 278.025 466.381 279.753C468.729 283.976 464.356 292.51 466.931 293.446C467.62 293.697 468.142 293.823 468.99 294.058C468.868 293.867 468.755 293.663 468.651 293.446C466.158 288.267 468.948 282.602 470.737 280.72C472.525 278.837 474.397 278.647 474.909 280.516C475.143 281.368 475.967 282.626 474.497 282.626C471.16 282.626 469.761 293.862 472.696 293.862C475.46 293.862 476.312 288.446 476.01 286.614C475.707 284.783 474.13 283.889 476.193 282.093C478.257 280.297 478.073 283.162 478.532 283.213C480.112 283.213 481.321 281.176 482.194 280.315C482.677 279.543 483.246 279.038 483.851 279.333C485.547 280.16 484.872 281.683 485.141 282.931C485.41 284.18 486.599 279.333 489.269 279.333C491.94 279.333 491.233 281.992 490.637 283.518C490.041 285.045 488.574 286.266 487.611 286.266C486.648 286.266 486.94 284.8 487.244 284.281C487.802 283.33 486.235 284.281 485.456 285.045C484.676 285.808 482.704 287.742 483.759 295.018C484.135 297.613 481.026 297.308 480.595 295.018C479.648 289.985 480.23 286.191 480.556 284.686C479.417 285.477 478.303 285.808 478.303 285.808C478.303 285.808 479.174 286.068 478.853 289.525C478.532 292.983 477.752 294.865 476.01 295.969C475.106 296.542 473.606 296.769 472.139 296.373C471.926 296.471 471.583 296.492 471.104 296.392C469.144 295.985 461.138 298.225 462.059 293.922C463.825 285.673 463.398 282.382 461.069 281.354C460.48 286.425 459.177 295.204 457.164 295.823Z" fill="white"/>
<path d="M493.021 289.523C490.855 288.131 497.469 290.798 497.469 283.518C497.469 278.74 492.304 287.115 492.304 289.729C492.304 292.458 493.273 293.967 495.222 294.407C497.074 294.825 499.592 293.003 500.32 292.741C499.985 290.763 500.172 288.418 500.816 286.419C502.158 282.254 505.159 277.664 507.236 280.312C508.752 282.246 505.448 284.129 504.622 286.113C503.612 288.543 503.149 291.829 504.989 292.728C508.671 294.528 506.163 278.932 510.17 280.109C517.145 282.157 508.111 291.308 512.09 291.308C516.069 291.308 511.638 296.951 510.533 296.951C507.68 296.951 509.315 289.94 508.111 292.199C506.337 295.526 506.118 297.649 503.266 296.951C501.726 296.575 500.789 295.045 500.386 293.097C500.292 293.255 500.147 293.468 499.945 293.746C497.836 296.646 496.584 297.776 493.325 296.85C490.872 296.153 489.056 294.544 488.994 290.798C488.908 285.566 492.7 280.592 494.718 279.638C496.735 278.684 499.769 279.702 500.266 282.093C500.763 284.485 499.945 288.098 498.249 289.115C496.552 290.133 494.397 290.406 493.021 289.523Z" fill="white"/>
<path d="M456.263 207.935C454.582 209.747 452.304 212.84 454.367 214.875C456.431 216.911 458.035 213.654 458.311 211.415C458.907 213.298 456.609 225.616 453.89 231.283C450.491 238.367 444.226 245.085 443.495 243.802C441.684 240.627 446.14 229.082 447.367 233.054C448.744 237.512 452.1 228.78 451.239 227.375C450.379 225.97 448.099 224.688 444.829 228.78C439.393 235.582 438.332 253.268 443.323 251.13C448.314 248.993 452.599 243.68 455.998 234.337C459.397 224.993 463.39 208.922 462.025 207.395C460.659 205.869 457.944 206.123 456.263 207.935Z" fill="white"/>
<path d="M470.299 218.296C470.944 215.426 467.578 213.48 465.695 214.632C464.196 215.549 462.512 218.602 464.491 221.044C466.47 223.487 468.578 225.909 470.729 230.917C472.88 235.924 470.385 240.382 464.577 241.115C458.768 241.848 455.37 240.138 456.66 236.047C457.966 231.908 462.813 227.314 462.813 232.871C462.813 238.428 461.379 235.114 461.565 236.902C461.899 240.118 464.888 237.337 466.255 235.375C468.98 229.632 460.489 223.487 462.468 216.709C464.749 208.9 470.703 210.534 472.536 212.983C473.784 214.65 475.376 218.48 472.45 222.083C470.03 225.063 467.76 222.999 468.75 221.167C469.74 219.334 469.836 220.354 470.299 218.296Z" fill="white"/>
<path d="M482.389 212.312C480.668 212.312 477.493 213.561 473.999 222.693C472.088 227.687 469.935 239.811 476.968 240.993C481.692 241.787 483.786 239.365 484.299 236.8C485.145 232.567 486.519 228.665 486.519 228.665C483.249 233.489 481.655 234.764 480.409 235.497C479.164 236.23 477.761 236.047 476.795 234.947C475.829 233.848 476.191 228.384 476.795 225.075C477.694 220.153 481.512 213.908 482.796 215.13C484.08 216.351 479.77 222.083 483.484 222.083C484.974 222.083 486.003 221.163 486.519 218.844C487.151 216.004 485.669 212.312 482.389 212.312Z" fill="white"/>
<path d="M484.061 236.544C484.061 233.479 485.003 226.696 490.82 225.154C491.692 224.923 492.738 225.408 492.738 227.189C492.738 228.97 492.093 228.998 491.141 229.336C487.748 230.541 487.294 238.484 489.018 238.731C491.875 239.139 493.113 235.89 492.738 231.358C493.898 233.197 495.446 233.133 496.048 232.888C496.95 237.677 494.626 242.612 489.018 242.346C485.763 242.191 484.061 239.608 484.061 236.544Z" fill="white"/>
<path d="M501.204 230.132C501.204 230.132 503.037 225.291 505.51 225.291C509.548 225.291 508.646 231.908 507.615 237.546C507.144 240.121 507.701 241.284 508.603 242.081C507.873 242.878 505.51 244.287 504.092 242.081C502.504 239.26 506.87 229.458 504.221 229.458C503.19 229.458 501.276 230.5 501.019 234.239C500.812 237.243 501.847 242.305 499.312 242.612C496.777 242.918 497.021 241.876 497.107 240.037C497.156 238.969 496.598 224.34 499.899 225.51C503.201 226.68 501.907 228.449 501.204 230.132Z" fill="white"/>
<path d="M492.738 231.358C492.7 232.532 494.586 234.548 496.122 233.346C495.681 231.82 498.478 227.953 499.028 226.68C500.52 223.23 496.048 228.868 496.048 228.868C496.048 228.868 495.818 227.545 494.626 227.545C493.434 227.545 492.841 228.512 492.738 231.358Z" fill="white"/>
<path d="M506.548 242.612C506.548 240.475 515.856 233.702 515.856 222.711C515.856 211.72 513.929 220.422 513.853 223.984C513.701 231.158 512.89 250.827 514.165 254.209C515.441 257.591 516.069 259.609 517.874 260.957C519.678 262.306 514.007 265.248 511.515 261.815C509.023 258.383 510.63 248.588 510.497 239.444C510.368 230.557 508.311 222.21 512.753 215.181C514.939 211.72 517.962 212.884 518.699 215.689C523.284 233.143 506.548 244.749 506.548 242.612Z" fill="white"/>
<path d="M513.415 239.147C515.616 239.147 517.828 236.654 518.424 235.84C519.02 235.025 520.671 236.529 520.212 238.18C519.754 239.832 518.557 242.367 514.624 243.225C510.69 244.083 508.953 241.754 508.351 240.957C507.522 239.858 508.14 235.332 509.299 237.01C510.354 238.536 510.985 239.147 513.415 239.147Z" fill="white"/>
<path d="M504.293 28H456.199L449.245 41.6798C449.245 41.6798 457.902 35.0154 464.923 42.2863C471.945 35.0154 479.891 42.2863 479.891 42.2863C479.891 42.2863 487.836 35.0154 494.858 42.2863C501.454 35.0154 511.387 41.6798 511.387 41.6798L504.293 28Z" fill="white" stroke="white" stroke-width="5" stroke-linejoin="round"/>
<path d="M201.328 184.258L209.297 157.328C209.609 156.344 210.266 155.852 211.266 155.852C212.234 155.852 212.844 156.266 213.094 157.094L220.945 184.445C221.008 184.648 221.039 184.844 221.039 185.031C221.039 185.578 220.852 186.047 220.477 186.438C220.102 186.812 219.672 187 219.188 187C218.156 187 217.5 186.523 217.219 185.57L215.625 180.227H206.648L204.914 185.945C204.867 186.195 204.672 186.438 204.328 186.672C203.984 186.891 203.609 187 203.203 187C202.625 187 202.148 186.805 201.773 186.414C201.398 186.023 201.211 185.547 201.211 184.984C201.211 184.75 201.25 184.508 201.328 184.258ZM211.219 164.969L207.844 176.242H214.477L211.219 164.969ZM88.9922 235.273C91.0234 222.461 92.2266 215.859 92.6016 215.469C92.9922 215.078 93.4609 214.883 94.0078 214.883C94.5391 214.883 95 215.078 95.3906 215.469C95.7812 215.859 96.8828 222.523 98.6953 235.461L99.9609 212.82C99.9609 212.289 100.156 211.828 100.547 211.438C100.938 211.047 101.398 210.852 101.93 210.852C102.477 210.852 102.945 211.047 103.336 211.438C103.742 211.812 103.945 212.273 103.945 212.82L101.508 240.383C101.508 241.461 101.016 242 100.031 242H98.2031C97.4844 242 96.9922 241.609 96.7266 240.828L93.9609 225.594L90.9609 240.828C90.6484 241.609 90.1562 242 89.4844 242H87.3047C86.3672 242 85.8984 241.477 85.8984 240.43L84.0234 212.82C84.0234 212.289 84.2109 211.828 84.5859 211.438C84.9766 211.047 85.4453 210.852 85.9922 210.852C86.5391 210.852 87 211.047 87.375 211.438C87.7656 211.812 87.9609 212.273 87.9609 212.82L88.9922 235.273ZM125.32 214.836H111.398V224.422H117.398C117.93 224.422 118.391 224.617 118.781 225.008C119.172 225.398 119.367 225.859 119.367 226.391C119.367 226.953 119.172 227.43 118.781 227.82C118.406 228.211 117.945 228.406 117.398 228.406H111.398V238.062H125.367C125.898 238.062 126.359 238.258 126.75 238.648C127.141 239.023 127.336 239.484 127.336 240.031C127.336 240.578 127.133 241.047 126.727 241.438C126.336 241.812 125.867 242 125.32 242H107.461V210.852H125.32C125.867 210.852 126.336 211.055 126.727 211.461C127.133 211.852 127.336 212.32 127.336 212.867C127.336 213.398 127.133 213.859 126.727 214.25C126.336 214.641 125.867 214.836 125.32 214.836ZM127.312 216.219C127.312 216.766 127.125 217.234 126.75 217.625C126.375 218 125.906 218.188 125.344 218.188C124.797 218.188 124.336 218 123.961 217.625C123.586 217.234 123.398 216.766 123.398 216.219V212.867C123.398 212.32 123.586 211.859 123.961 211.484C124.336 211.094 124.797 210.898 125.344 210.898C125.906 210.898 126.375 211.094 126.75 211.484C127.125 211.859 127.312 212.32 127.312 212.867V216.219ZM127.312 239.984C127.312 240.531 127.125 241 126.75 241.391C126.375 241.766 125.906 241.953 125.344 241.953C124.797 241.953 124.336 241.766 123.961 241.391C123.586 241 123.398 240.531 123.398 239.984V236.633C123.398 236.086 123.586 235.625 123.961 235.25C124.336 234.859 124.797 234.664 125.344 234.664C125.906 234.664 126.375 234.859 126.75 235.25C127.125 235.625 127.312 236.086 127.312 236.633V239.984ZM150.82 232.344V234.078C150.82 236.25 150.047 238.117 148.5 239.68C146.969 241.227 145.117 242 142.945 242H130.898V210.852H142.945C145.117 210.852 146.969 211.625 148.5 213.172C150.047 214.719 150.82 216.586 150.82 218.773V220.438C150.82 222.766 149.922 224.75 148.125 226.391C149.922 228.062 150.82 230.047 150.82 232.344ZM146.789 220.391V218.773C146.789 217.68 146.398 216.742 145.617 215.961C144.852 215.18 143.93 214.789 142.852 214.789H134.836V224.328H142.852C143.914 224.328 144.836 223.945 145.617 223.18C146.398 222.398 146.789 221.469 146.789 220.391ZM146.789 234.078V232.438C146.789 231.344 146.398 230.406 145.617 229.625C144.852 228.844 143.93 228.453 142.852 228.453H134.883V238.016H142.852C143.914 238.016 144.836 237.633 145.617 236.867C146.398 236.086 146.789 235.156 146.789 234.078ZM154.453 239.258L162.422 212.328C162.734 211.344 163.391 210.852 164.391 210.852C165.359 210.852 165.969 211.266 166.219 212.094L174.07 239.445C174.133 239.648 174.164 239.844 174.164 240.031C174.164 240.578 173.977 241.047 173.602 241.438C173.227 241.812 172.797 242 172.312 242C171.281 242 170.625 241.523 170.344 240.57L168.75 235.227H159.773L158.039 240.945C157.992 241.195 157.797 241.438 157.453 241.672C157.109 241.891 156.734 242 156.328 242C155.75 242 155.273 241.805 154.898 241.414C154.523 241.023 154.336 240.547 154.336 239.984C154.336 239.75 154.375 239.508 154.453 239.258ZM164.344 219.969L160.969 231.242H167.602L164.344 219.969ZM182.391 210.852H192.633C193.883 210.852 195.062 211.383 196.172 212.445C197.297 213.492 197.859 214.766 197.859 216.266C197.859 216.828 197.656 217.305 197.25 217.695C196.859 218.086 196.422 218.281 195.938 218.281C195.266 218.281 194.805 218.133 194.555 217.836C194.305 217.523 194.062 216.953 193.828 216.125C193.609 215.297 193.109 214.883 192.328 214.883H182.602C182.133 214.883 181.898 215.031 181.898 215.328V219.711L196.945 231.055C197.648 231.508 197.961 232.141 197.883 232.953L197.859 237.57C197.859 238.742 197.43 239.773 196.57 240.664C195.727 241.555 194.781 242 193.734 242H183.117C181.711 242 180.484 241.469 179.438 240.406C178.406 239.328 177.891 238.148 177.891 236.867C177.891 235.398 178.578 234.664 179.953 234.664C180.484 234.664 180.938 234.859 181.312 235.25C181.688 235.625 181.875 236.07 181.875 236.586C181.875 237.008 182.016 237.359 182.297 237.641C182.594 237.922 182.961 238.062 183.398 238.062H193.195C193.617 238.062 193.844 237.781 193.875 237.219V233.586L178.805 222.383C178.117 221.492 177.828 220.734 177.938 220.109L177.914 215.375C177.914 214.156 178.352 213.102 179.227 212.211C180.102 211.305 181.156 210.852 182.391 210.852ZM205.828 210.852H216.07C217.32 210.852 218.5 211.383 219.609 212.445C220.734 213.492 221.297 214.766 221.297 216.266C221.297 216.828 221.094 217.305 220.688 217.695C220.297 218.086 219.859 218.281 219.375 218.281C218.703 218.281 218.242 218.133 217.992 217.836C217.742 217.523 217.5 216.953 217.266 216.125C217.047 215.297 216.547 214.883 215.766 214.883H206.039C205.57 214.883 205.336 215.031 205.336 215.328V219.711L220.383 231.055C221.086 231.508 221.398 232.141 221.32 232.953L221.297 237.57C221.297 238.742 220.867 239.773 220.008 240.664C219.164 241.555 218.219 242 217.172 242H206.555C205.148 242 203.922 241.469 202.875 240.406C201.844 239.328 201.328 238.148 201.328 236.867C201.328 235.398 202.016 234.664 203.391 234.664C203.922 234.664 204.375 234.859 204.75 235.25C205.125 235.625 205.312 236.07 205.312 236.586C205.312 237.008 205.453 237.359 205.734 237.641C206.031 237.922 206.398 238.062 206.836 238.062H216.633C217.055 238.062 217.281 237.781 217.312 237.219V233.586L202.242 222.383C201.555 221.492 201.266 220.734 201.375 220.109L201.352 215.375C201.352 214.156 201.789 213.102 202.664 212.211C203.539 211.305 204.594 210.852 205.828 210.852ZM242.508 214.836H228.586V224.422H234.586C235.117 224.422 235.578 224.617 235.969 225.008C236.359 225.398 236.555 225.859 236.555 226.391C236.555 226.953 236.359 227.43 235.969 227.82C235.594 228.211 235.133 228.406 234.586 228.406H228.586V238.062H242.555C243.086 238.062 243.547 238.258 243.938 238.648C244.328 239.023 244.523 239.484 244.523 240.031C244.523 240.578 244.32 241.047 243.914 241.438C243.523 241.812 243.055 242 242.508 242H224.648V210.852H242.508C243.055 210.852 243.523 211.055 243.914 211.461C244.32 211.852 244.523 212.32 244.523 212.867C244.523 213.398 244.32 213.859 243.914 214.25C243.523 214.641 243.055 214.836 242.508 214.836ZM244.5 216.219C244.5 216.766 244.312 217.234 243.938 217.625C243.562 218 243.094 218.188 242.531 218.188C241.984 218.188 241.523 218 241.148 217.625C240.773 217.234 240.586 216.766 240.586 216.219V212.867C240.586 212.32 240.773 211.859 241.148 211.484C241.523 211.094 241.984 210.898 242.531 210.898C243.094 210.898 243.562 211.094 243.938 211.484C244.312 211.859 244.5 212.32 244.5 212.867V216.219ZM244.5 239.984C244.5 240.531 244.312 241 243.938 241.391C243.562 241.766 243.094 241.953 242.531 241.953C241.984 241.953 241.523 241.766 241.148 241.391C240.773 241 240.586 240.531 240.586 239.984V236.633C240.586 236.086 240.773 235.625 241.148 235.25C241.523 234.859 241.984 234.664 242.531 234.664C243.094 234.664 243.562 234.859 243.938 235.25C244.312 235.625 244.5 236.086 244.5 236.633V239.984ZM252.023 218.258V240.031C252.023 240.578 251.828 241.047 251.438 241.438C251.062 241.812 250.602 242 250.055 242C249.508 242 249.039 241.805 248.648 241.414C248.273 241.023 248.086 240.562 248.086 240.031V210.852H253.172L257.977 221.867L263.016 210.852H268.008V240.031C268.008 240.578 267.805 241.047 267.398 241.438C267.008 241.812 266.539 242 265.992 242C265.461 242 265 241.805 264.609 241.414C264.219 241.023 264.023 240.562 264.023 240.031V218.352C261.336 223.367 259.797 226.07 259.406 226.461C259.016 226.852 258.555 227.047 258.023 227.047C257.477 227.047 257.008 226.852 256.617 226.461C256.242 226.07 254.711 223.336 252.023 218.258ZM291.445 232.344V234.078C291.445 236.25 290.672 238.117 289.125 239.68C287.594 241.227 285.742 242 283.57 242H271.523V210.852H283.57C285.742 210.852 287.594 211.625 289.125 213.172C290.672 214.719 291.445 216.586 291.445 218.773V220.438C291.445 222.766 290.547 224.75 288.75 226.391C290.547 228.062 291.445 230.047 291.445 232.344ZM287.414 220.391V218.773C287.414 217.68 287.023 216.742 286.242 215.961C285.477 215.18 284.555 214.789 283.477 214.789H275.461V224.328H283.477C284.539 224.328 285.461 223.945 286.242 223.18C287.023 222.398 287.414 221.469 287.414 220.391ZM287.414 234.078V232.438C287.414 231.344 287.023 230.406 286.242 229.625C285.477 228.844 284.555 228.453 283.477 228.453H275.508V238.016H283.477C284.539 238.016 285.461 237.633 286.242 236.867C287.023 236.086 287.414 235.156 287.414 234.078ZM294.961 242V212.82C294.961 212.289 295.156 211.828 295.547 211.438C295.938 211.047 296.398 210.852 296.93 210.852C297.461 210.852 297.922 211.047 298.312 211.438C298.703 211.828 298.898 212.289 298.898 212.82V238.062H312.82C313.367 238.062 313.836 238.258 314.227 238.648C314.633 239.023 314.836 239.484 314.836 240.031C314.836 240.578 314.633 241.047 314.227 241.438C313.836 241.812 313.367 242 312.82 242H294.961ZM315 239.984C315 240.531 314.812 241 314.438 241.391C314.062 241.766 313.594 241.953 313.031 241.953C312.484 241.953 312.023 241.766 311.648 241.391C311.273 241 311.086 240.531 311.086 239.984V236.633C311.086 236.086 311.273 235.625 311.648 235.25C312.023 234.859 312.484 234.664 313.031 234.664C313.594 234.664 314.062 234.859 314.438 235.25C314.812 235.625 315 236.086 315 236.633V239.984ZM330.305 227.07V240.031C330.305 240.578 330.109 241.047 329.719 241.438C329.328 241.812 328.867 242 328.336 242C327.773 242 327.297 241.812 326.906 241.438C326.516 241.047 326.32 240.578 326.32 240.031V227.07L318.398 217.039V212.867C318.398 212.305 318.586 211.828 318.961 211.438C319.352 211.047 319.82 210.852 320.367 210.852C320.914 210.852 321.383 211.055 321.773 211.461C322.18 211.852 322.383 212.32 322.383 212.867V215.562L328.289 223.18L334.289 215.609V212.867C334.289 212.32 334.484 211.852 334.875 211.461C335.266 211.055 335.727 210.852 336.258 210.852C336.773 210.852 337.227 211.039 337.617 211.414C338.023 211.773 338.227 212.258 338.227 212.867V216.992L330.305 227.07ZM101.906 269.836H87.9844V279.422H93.9844C94.5156 279.422 94.9766 279.617 95.3672 280.008C95.7578 280.398 95.9531 280.859 95.9531 281.391C95.9531 281.953 95.7578 282.43 95.3672 282.82C94.9922 283.211 94.5312 283.406 93.9844 283.406H87.9844V293.062L84.0469 293.297V265.852H101.906C102.453 265.852 102.922 266.055 103.312 266.461C103.719 266.852 103.922 267.32 103.922 267.867C103.922 268.398 103.719 268.859 103.312 269.25C102.922 269.641 102.453 269.836 101.906 269.836ZM103.898 271.219C103.898 271.766 103.711 272.234 103.336 272.625C102.961 273 102.492 273.188 101.93 273.188C101.383 273.188 100.922 273 100.547 272.625C100.172 272.234 99.9844 271.766 99.9844 271.219V267.867C99.9844 267.32 100.172 266.859 100.547 266.484C100.922 266.094 101.383 265.898 101.93 265.898C102.492 265.898 102.961 266.094 103.336 266.484C103.711 266.859 103.898 267.32 103.898 267.867V271.219ZM87.9375 295.031C87.9375 295.578 87.75 296.047 87.375 296.438C87 296.812 86.5312 297 85.9688 297C85.4219 297 84.9609 296.812 84.5859 296.438C84.2109 296.047 84.0234 295.578 84.0234 295.031V291.68C84.0234 291.133 84.2109 290.672 84.5859 290.297C84.9609 289.906 85.4219 289.711 85.9688 289.711C86.5312 289.711 87 289.906 87.375 290.297C87.75 290.672 87.9375 291.133 87.9375 291.68V295.031ZM109.43 265.852H125.367C125.883 265.852 126.336 266.047 126.727 266.438C127.133 266.828 127.336 267.289 127.336 267.82C127.336 268.367 127.141 268.844 126.75 269.25C126.359 269.641 125.898 269.836 125.367 269.836H119.414V293.062H125.367C125.914 293.062 126.375 293.258 126.75 293.648C127.141 294.023 127.336 294.484 127.336 295.031C127.336 295.578 127.141 296.047 126.75 296.438C126.359 296.812 125.898 297 125.367 297H109.43C108.883 297 108.414 296.812 108.023 296.438C107.648 296.047 107.461 295.578 107.461 295.031C107.461 294.484 107.648 294.023 108.023 293.648C108.414 293.258 108.883 293.062 109.43 293.062H115.477V269.836H109.43C108.883 269.836 108.414 269.641 108.023 269.25C107.648 268.859 107.461 268.398 107.461 267.867C107.461 267.305 107.648 266.828 108.023 266.438C108.414 266.047 108.883 265.852 109.43 265.852ZM148.758 269.836H134.836V279.422H140.836C141.367 279.422 141.828 279.617 142.219 280.008C142.609 280.398 142.805 280.859 142.805 281.391C142.805 281.953 142.609 282.43 142.219 282.82C141.844 283.211 141.383 283.406 140.836 283.406H134.836V293.062H148.805C149.336 293.062 149.797 293.258 150.188 293.648C150.578 294.023 150.773 294.484 150.773 295.031C150.773 295.578 150.57 296.047 150.164 296.438C149.773 296.812 149.305 297 148.758 297H130.898V265.852H148.758C149.305 265.852 149.773 266.055 150.164 266.461C150.57 266.852 150.773 267.32 150.773 267.867C150.773 268.398 150.57 268.859 150.164 269.25C149.773 269.641 149.305 269.836 148.758 269.836ZM150.75 271.219C150.75 271.766 150.562 272.234 150.188 272.625C149.812 273 149.344 273.188 148.781 273.188C148.234 273.188 147.773 273 147.398 272.625C147.023 272.234 146.836 271.766 146.836 271.219V267.867C146.836 267.32 147.023 266.859 147.398 266.484C147.773 266.094 148.234 265.898 148.781 265.898C149.344 265.898 149.812 266.094 150.188 266.484C150.562 266.859 150.75 267.32 150.75 267.867V271.219ZM150.75 294.984C150.75 295.531 150.562 296 150.188 296.391C149.812 296.766 149.344 296.953 148.781 296.953C148.234 296.953 147.773 296.766 147.398 296.391C147.023 296 146.836 295.531 146.836 294.984V291.633C146.836 291.086 147.023 290.625 147.398 290.25C147.773 289.859 148.234 289.664 148.781 289.664C149.344 289.664 149.812 289.859 150.188 290.25C150.562 290.625 150.75 291.086 150.75 291.633V294.984ZM154.336 297V267.82C154.336 267.289 154.531 266.828 154.922 266.438C155.312 266.047 155.773 265.852 156.305 265.852C156.836 265.852 157.297 266.047 157.688 266.438C158.078 266.828 158.273 267.289 158.273 267.82V293.062H172.195C172.742 293.062 173.211 293.258 173.602 293.648C174.008 294.023 174.211 294.484 174.211 295.031C174.211 295.578 174.008 296.047 173.602 296.438C173.211 296.812 172.742 297 172.195 297H154.336ZM174.375 294.984C174.375 295.531 174.188 296 173.812 296.391C173.438 296.766 172.969 296.953 172.406 296.953C171.859 296.953 171.398 296.766 171.023 296.391C170.648 296 170.461 295.531 170.461 294.984V291.633C170.461 291.086 170.648 290.625 171.023 290.25C171.398 289.859 171.859 289.664 172.406 289.664C172.969 289.664 173.438 289.859 173.812 290.25C174.188 290.625 174.375 291.086 174.375 291.633V294.984ZM179.789 265.852H187.57C188.586 265.867 189.57 266.195 190.523 266.836C191.492 267.477 192.203 268.25 192.656 269.156L196.547 277.031C197.281 278.453 197.648 279.938 197.648 281.484C197.648 282.922 197.258 284.398 196.477 285.914L192.562 293.695C192.062 294.695 191.344 295.5 190.406 296.109C189.469 296.703 188.422 297 187.266 297H179.742C179.195 297 178.727 296.805 178.336 296.414C177.961 296.023 177.773 295.562 177.773 295.031C177.773 294.484 177.961 294.016 178.336 293.625C178.727 293.219 179.195 293.016 179.742 293.016H181.805V269.836H179.789C179.242 269.836 178.773 269.641 178.383 269.25C178.008 268.844 177.82 268.367 177.82 267.82C177.82 267.289 178.008 266.828 178.383 266.438C178.773 266.047 179.242 265.852 179.789 265.852ZM185.742 269.836V293.062H187.125C188 293.062 188.656 292.633 189.094 291.773L192.984 284.039C193.469 283.023 193.711 282.172 193.711 281.484C193.711 280.625 193.516 279.812 193.125 279.047L189.094 271.031C188.672 270.234 187.984 269.836 187.031 269.836H185.742ZM236.156 265.852H242.695C243.242 265.852 243.703 266.047 244.078 266.438C244.469 266.812 244.664 267.273 244.664 267.82C244.664 268.398 244.453 268.883 244.031 269.273C243.625 269.648 243.18 269.836 242.695 269.836H236.461C235.852 269.836 235.32 270.125 234.867 270.703L229.336 277.805C228.867 278.367 228.633 279.148 228.633 280.148V291.047C228.633 291.609 228.82 292.086 229.195 292.477C229.586 292.867 230.055 293.062 230.602 293.062H238.617C239.148 293.062 239.609 292.867 240 292.477C240.391 292.086 240.586 291.625 240.586 291.094V284.25H236.508C235.945 284.25 235.477 284.062 235.102 283.688C234.727 283.297 234.539 282.828 234.539 282.281C234.539 281.734 234.727 281.273 235.102 280.898C235.477 280.508 235.945 280.312 236.508 280.312H244.523V291.094C244.523 292.719 243.945 294.109 242.789 295.266C241.633 296.422 240.242 297 238.617 297H230.602C228.961 297 227.555 296.422 226.383 295.266C225.227 294.109 224.648 292.719 224.648 291.094V280.195C224.648 278.242 225.172 276.594 226.219 275.25L232.031 267.867C232.453 267.305 233.039 266.828 233.789 266.438C234.555 266.047 235.344 265.852 236.156 265.852ZM244.734 271.219C244.734 271.766 244.547 272.234 244.172 272.625C243.797 273 243.328 273.188 242.766 273.188C242.219 273.188 241.758 273 241.383 272.625C241.008 272.234 240.82 271.766 240.82 271.219V267.867C240.82 267.32 241.008 266.859 241.383 266.484C241.758 266.094 242.219 265.898 242.766 265.898C243.328 265.898 243.797 266.094 244.172 266.484C244.547 266.859 244.734 267.32 244.734 267.867V271.219ZM248.086 289.922V267.867C248.086 267.32 248.281 266.852 248.672 266.461C249.062 266.055 249.523 265.852 250.055 265.852C250.586 265.852 251.047 266.047 251.438 266.438C251.828 266.828 252.023 267.289 252.023 267.82V289.922C252.023 290.438 252.383 291.086 253.102 291.867C253.82 292.633 254.445 293.016 254.977 293.016H260.836C261.383 293.016 262.047 292.633 262.828 291.867C263.625 291.102 264.023 290.453 264.023 289.922V267.867C264.023 267.305 264.211 266.828 264.586 266.438C264.977 266.047 265.445 265.852 265.992 265.852C266.539 265.852 267 266.047 267.375 266.438C267.766 266.828 267.961 267.305 267.961 267.867V289.875C267.961 291.5 267.375 293.094 266.203 294.656C265.047 296.219 263.258 297 260.836 297H254.977C252.695 297 250.977 296.227 249.82 294.68C248.664 293.133 248.086 291.547 248.086 289.922ZM273.492 265.852H289.43C289.945 265.852 290.398 266.047 290.789 266.438C291.195 266.828 291.398 267.289 291.398 267.82C291.398 268.367 291.203 268.844 290.812 269.25C290.422 269.641 289.961 269.836 289.43 269.836H283.477V293.062H289.43C289.977 293.062 290.438 293.258 290.812 293.648C291.203 294.023 291.398 294.484 291.398 295.031C291.398 295.578 291.203 296.047 290.812 296.438C290.422 296.812 289.961 297 289.43 297H273.492C272.945 297 272.477 296.812 272.086 296.438C271.711 296.047 271.523 295.578 271.523 295.031C271.523 294.484 271.711 294.023 272.086 293.648C272.477 293.258 272.945 293.062 273.492 293.062H279.539V269.836H273.492C272.945 269.836 272.477 269.641 272.086 269.25C271.711 268.859 271.523 268.398 271.523 267.867C271.523 267.305 271.711 266.828 272.086 266.438C272.477 266.047 272.945 265.852 273.492 265.852ZM296.977 265.852H304.758C305.773 265.867 306.758 266.195 307.711 266.836C308.68 267.477 309.391 268.25 309.844 269.156L313.734 277.031C314.469 278.453 314.836 279.938 314.836 281.484C314.836 282.922 314.445 284.398 313.664 285.914L309.75 293.695C309.25 294.695 308.531 295.5 307.594 296.109C306.656 296.703 305.609 297 304.453 297H296.93C296.383 297 295.914 296.805 295.523 296.414C295.148 296.023 294.961 295.562 294.961 295.031C294.961 294.484 295.148 294.016 295.523 293.625C295.914 293.219 296.383 293.016 296.93 293.016H298.992V269.836H296.977C296.43 269.836 295.961 269.641 295.57 269.25C295.195 268.844 295.008 268.367 295.008 267.82C295.008 267.289 295.195 266.828 295.57 266.438C295.961 266.047 296.43 265.852 296.977 265.852ZM302.93 269.836V293.062H304.312C305.188 293.062 305.844 292.633 306.281 291.773L310.172 284.039C310.656 283.023 310.898 282.172 310.898 281.484C310.898 280.625 310.703 279.812 310.312 279.047L306.281 271.031C305.859 270.234 305.172 269.836 304.219 269.836H302.93ZM336.258 269.836H322.336V279.422H328.336C328.867 279.422 329.328 279.617 329.719 280.008C330.109 280.398 330.305 280.859 330.305 281.391C330.305 281.953 330.109 282.43 329.719 282.82C329.344 283.211 328.883 283.406 328.336 283.406H322.336V293.062H336.305C336.836 293.062 337.297 293.258 337.688 293.648C338.078 294.023 338.273 294.484 338.273 295.031C338.273 295.578 338.07 296.047 337.664 296.438C337.273 296.812 336.805 297 336.258 297H318.398V265.852H336.258C336.805 265.852 337.273 266.055 337.664 266.461C338.07 266.852 338.273 267.32 338.273 267.867C338.273 268.398 338.07 268.859 337.664 269.25C337.273 269.641 336.805 269.836 336.258 269.836ZM338.25 271.219C338.25 271.766 338.062 272.234 337.688 272.625C337.312 273 336.844 273.188 336.281 273.188C335.734 273.188 335.273 273 334.898 272.625C334.523 272.234 334.336 271.766 334.336 271.219V267.867C334.336 267.32 334.523 266.859 334.898 266.484C335.273 266.094 335.734 265.898 336.281 265.898C336.844 265.898 337.312 266.094 337.688 266.484C338.062 266.859 338.25 267.32 338.25 267.867V271.219ZM338.25 294.984C338.25 295.531 338.062 296 337.688 296.391C337.312 296.766 336.844 296.953 336.281 296.953C335.734 296.953 335.273 296.766 334.898 296.391C334.523 296 334.336 295.531 334.336 294.984V291.633C334.336 291.086 334.523 290.625 334.898 290.25C335.273 289.859 335.734 289.664 336.281 289.664C336.844 289.664 337.312 289.859 337.688 290.25C338.062 290.625 338.25 291.086 338.25 291.633V294.984Z" fill="white"/>
<path d="M611.178 220.627H600.736V227.816H605.236C605.635 227.816 605.98 227.963 606.273 228.256C606.566 228.549 606.713 228.895 606.713 229.293C606.713 229.715 606.566 230.072 606.273 230.365C605.992 230.658 605.646 230.805 605.236 230.805H600.736V238.047H611.213C611.611 238.047 611.957 238.193 612.25 238.486C612.543 238.768 612.689 239.113 612.689 239.523C612.689 239.934 612.537 240.285 612.232 240.578C611.939 240.859 611.588 241 611.178 241H597.783V217.639H611.178C611.588 217.639 611.939 217.791 612.232 218.096C612.537 218.389 612.689 218.74 612.689 219.15C612.689 219.549 612.537 219.895 612.232 220.188C611.939 220.48 611.588 220.627 611.178 220.627ZM612.672 221.664C612.672 222.074 612.531 222.426 612.25 222.719C611.969 223 611.617 223.141 611.195 223.141C610.785 223.141 610.439 223 610.158 222.719C609.877 222.426 609.736 222.074 609.736 221.664V219.15C609.736 218.74 609.877 218.395 610.158 218.113C610.439 217.82 610.785 217.674 611.195 217.674C611.617 217.674 611.969 217.82 612.25 218.113C612.531 218.395 612.672 218.74 612.672 219.15V221.664ZM612.672 239.488C612.672 239.898 612.531 240.25 612.25 240.543C611.969 240.824 611.617 240.965 611.195 240.965C610.785 240.965 610.439 240.824 610.158 240.543C609.877 240.25 609.736 239.898 609.736 239.488V236.975C609.736 236.564 609.877 236.219 610.158 235.938C610.439 235.645 610.785 235.498 611.195 235.498C611.617 235.498 611.969 235.645 612.25 235.938C612.531 236.219 612.672 236.564 612.672 236.975V239.488ZM615.449 238.943L621.426 218.746C621.66 218.008 622.152 217.639 622.902 217.639C623.629 217.639 624.086 217.949 624.273 218.57L630.162 239.084C630.209 239.236 630.232 239.383 630.232 239.523C630.232 239.934 630.092 240.285 629.811 240.578C629.529 240.859 629.207 241 628.844 241C628.07 241 627.578 240.643 627.367 239.928L626.172 235.92H619.439L618.139 240.209C618.104 240.396 617.957 240.578 617.699 240.754C617.441 240.918 617.16 241 616.855 241C616.422 241 616.064 240.854 615.783 240.561C615.502 240.268 615.361 239.91 615.361 239.488C615.361 239.312 615.391 239.131 615.449 238.943ZM622.867 224.477L620.336 232.932H625.311L622.867 224.477ZM636.402 217.639H644.084C645.021 217.639 645.906 218.037 646.738 218.834C647.582 219.619 648.004 220.574 648.004 221.699C648.004 222.121 647.852 222.479 647.547 222.771C647.254 223.064 646.926 223.211 646.562 223.211C646.059 223.211 645.713 223.1 645.525 222.877C645.338 222.643 645.156 222.215 644.98 221.594C644.816 220.973 644.441 220.662 643.855 220.662H636.561C636.209 220.662 636.033 220.773 636.033 220.996V224.283L647.318 232.791C647.846 233.131 648.08 233.605 648.021 234.215L648.004 237.678C648.004 238.557 647.682 239.33 647.037 239.998C646.404 240.666 645.695 241 644.91 241H636.947C635.893 241 634.973 240.602 634.188 239.805C633.414 238.996 633.027 238.111 633.027 237.15C633.027 236.049 633.543 235.498 634.574 235.498C634.973 235.498 635.312 235.645 635.594 235.938C635.875 236.219 636.016 236.553 636.016 236.939C636.016 237.256 636.121 237.52 636.332 237.73C636.555 237.941 636.83 238.047 637.158 238.047H644.506C644.822 238.047 644.992 237.836 645.016 237.414V234.689L633.713 226.287C633.197 225.619 632.98 225.051 633.062 224.582L633.045 221.031C633.045 220.117 633.373 219.326 634.029 218.658C634.686 217.979 635.477 217.639 636.402 217.639ZM651.994 217.639H663.947C664.334 217.639 664.674 217.785 664.967 218.078C665.271 218.371 665.424 218.717 665.424 219.115C665.424 219.525 665.277 219.883 664.984 220.188C664.691 220.48 664.346 220.627 663.947 220.627H659.482V238.047H663.947C664.357 238.047 664.703 238.193 664.984 238.486C665.277 238.768 665.424 239.113 665.424 239.523C665.424 239.934 665.277 240.285 664.984 240.578C664.691 240.859 664.346 241 663.947 241H651.994C651.584 241 651.232 240.859 650.939 240.578C650.658 240.285 650.518 239.934 650.518 239.523C650.518 239.113 650.658 238.768 650.939 238.486C651.232 238.193 651.584 238.047 651.994 238.047H656.529V220.627H651.994C651.584 220.627 651.232 220.48 650.939 220.188C650.658 219.895 650.518 219.549 650.518 219.15C650.518 218.729 650.658 218.371 650.939 218.078C651.232 217.785 651.584 217.639 651.994 217.639ZM668.096 241V219.115C668.096 218.717 668.242 218.371 668.535 218.078C668.828 217.785 669.174 217.639 669.572 217.639C669.971 217.639 670.316 217.785 670.609 218.078C670.902 218.371 671.049 218.717 671.049 219.115V238.047H681.49C681.9 238.047 682.252 238.193 682.545 238.486C682.85 238.768 683.002 239.113 683.002 239.523C683.002 239.934 682.85 240.285 682.545 240.578C682.252 240.859 681.9 241 681.49 241H668.096ZM683.125 239.488C683.125 239.898 682.984 240.25 682.703 240.543C682.422 240.824 682.07 240.965 681.648 240.965C681.238 240.965 680.893 240.824 680.611 240.543C680.33 240.25 680.189 239.898 680.189 239.488V236.975C680.189 236.564 680.33 236.219 680.611 235.938C680.893 235.645 681.238 235.498 681.648 235.498C682.07 235.498 682.422 235.645 682.703 235.938C682.984 236.219 683.125 236.564 683.125 236.975V239.488ZM694.604 229.803V239.523C694.604 239.934 694.457 240.285 694.164 240.578C693.871 240.859 693.525 241 693.127 241C692.705 241 692.348 240.859 692.055 240.578C691.762 240.285 691.615 239.934 691.615 239.523V229.803L685.674 222.279V219.15C685.674 218.729 685.814 218.371 686.096 218.078C686.389 217.785 686.74 217.639 687.15 217.639C687.561 217.639 687.912 217.791 688.205 218.096C688.51 218.389 688.662 218.74 688.662 219.15V221.172L693.092 226.885L697.592 221.207V219.15C697.592 218.74 697.738 218.389 698.031 218.096C698.324 217.791 698.67 217.639 699.068 217.639C699.455 217.639 699.795 217.779 700.088 218.061C700.393 218.33 700.545 218.693 700.545 219.15V222.244L694.604 229.803ZM724.557 235.955C726.08 226.346 726.982 221.395 727.264 221.102C727.557 220.809 727.908 220.662 728.318 220.662C728.717 220.662 729.062 220.809 729.355 221.102C729.648 221.395 730.475 226.393 731.834 236.096L732.783 219.115C732.783 218.717 732.93 218.371 733.223 218.078C733.516 217.785 733.861 217.639 734.26 217.639C734.67 217.639 735.021 217.785 735.314 218.078C735.619 218.359 735.771 218.705 735.771 219.115L733.943 239.787C733.943 240.596 733.574 241 732.836 241H731.465C730.926 241 730.557 240.707 730.357 240.121L728.283 228.695L726.033 240.121C725.799 240.707 725.43 241 724.926 241H723.291C722.588 241 722.236 240.607 722.236 239.822L720.83 219.115C720.83 218.717 720.971 218.371 721.252 218.078C721.545 217.785 721.896 217.639 722.307 217.639C722.717 217.639 723.062 217.785 723.344 218.078C723.637 218.359 723.783 218.705 723.783 219.115L724.557 235.955ZM749.377 219.801L752.629 226.428C753.086 227.33 753.314 228.309 753.314 229.363C753.314 230.395 753.086 231.367 752.629 232.281L749.377 238.838C748.686 240.279 747.514 241 745.861 241C745.076 241 744.367 240.795 743.734 240.385C743.113 239.975 742.645 239.459 742.328 238.838L739.059 232.281C738.625 231.426 738.408 230.453 738.408 229.363C738.408 228.273 738.625 227.295 739.059 226.428L742.328 219.801C743.066 218.359 744.244 217.639 745.861 217.639C747.502 217.639 748.674 218.359 749.377 219.801ZM744.877 221.277L741.818 227.5C741.537 228.121 741.396 228.73 741.396 229.328C741.396 229.973 741.537 230.588 741.818 231.174L744.965 237.467C745.129 237.854 745.428 238.047 745.861 238.047C746.236 238.047 746.523 237.854 746.723 237.467L749.887 231.174C750.18 230.553 750.326 229.938 750.326 229.328C750.326 228.684 750.18 228.074 749.887 227.5L746.793 221.277C746.594 220.82 746.283 220.592 745.861 220.592C745.439 220.592 745.111 220.82 744.877 221.277ZM755.986 239.523V217.639H766.428C767.635 217.639 768.672 218.078 769.539 218.957C770.418 219.836 770.857 220.885 770.857 222.104V223.791C770.857 225.021 770.424 226.076 769.557 226.955C768.689 227.822 767.646 228.256 766.428 228.256H764.547L770.594 238.627C770.781 238.932 770.875 239.236 770.875 239.541C770.875 239.939 770.723 240.285 770.418 240.578C770.113 240.859 769.768 241 769.381 241C768.795 241 768.35 240.736 768.045 240.209L761.102 228.256H758.975V239.523C758.975 239.934 758.822 240.285 758.518 240.578C758.225 240.859 757.873 241 757.463 241C757.053 241 756.701 240.859 756.408 240.578C756.127 240.285 755.986 239.934 755.986 239.523ZM758.939 225.303H766.428C766.838 225.303 767.184 225.162 767.465 224.881C767.758 224.588 767.904 224.236 767.904 223.826V222.104C767.904 221.693 767.758 221.348 767.465 221.066C767.184 220.773 766.838 220.627 766.428 220.627H758.939V225.303ZM773.564 221.664V217.674H788.471V221.699C788.471 222.109 788.324 222.461 788.031 222.754C787.738 223.035 787.393 223.176 786.994 223.176C786.584 223.176 786.227 223.029 785.922 222.736C785.629 222.443 785.482 222.098 785.482 221.699V220.627H782.494V239.523C782.494 239.934 782.348 240.285 782.055 240.578C781.762 240.859 781.416 241 781.018 241C780.596 241 780.238 240.859 779.945 240.578C779.652 240.285 779.506 239.934 779.506 239.523V220.627H776.518V221.664C776.518 222.074 776.371 222.426 776.078 222.719C775.797 223 775.451 223.141 775.041 223.141C774.631 223.141 774.279 223 773.986 222.719C773.705 222.426 773.564 222.074 773.564 221.664ZM791.143 239.523V219.115C791.143 218.717 791.283 218.371 791.564 218.078C791.857 217.785 792.209 217.639 792.619 217.639C793.018 217.639 793.363 217.785 793.656 218.078C793.949 218.371 794.096 218.717 794.096 219.115V227.816H803.096V219.115C803.096 218.717 803.236 218.371 803.518 218.078C803.811 217.785 804.162 217.639 804.572 217.639C804.982 217.639 805.328 217.785 805.609 218.078C805.902 218.371 806.049 218.729 806.049 219.15V239.523C806.049 239.922 805.896 240.268 805.592 240.561C805.299 240.854 804.959 241 804.572 241C804.15 241 803.799 240.859 803.518 240.578C803.236 240.285 803.096 239.934 803.096 239.523V230.77H794.131V239.523C794.131 239.922 793.979 240.268 793.674 240.561C793.381 240.854 793.029 241 792.619 241C792.221 241 791.875 240.859 791.582 240.578C791.289 240.285 791.143 239.934 791.143 239.523ZM826.299 241V219.115C826.299 218.717 826.445 218.371 826.738 218.078C827.031 217.785 827.377 217.639 827.775 217.639C828.174 217.639 828.52 217.785 828.812 218.078C829.105 218.371 829.252 218.717 829.252 219.115V238.047H839.693C840.104 238.047 840.455 238.193 840.748 238.486C841.053 238.768 841.205 239.113 841.205 239.523C841.205 239.934 841.053 240.285 840.748 240.578C840.455 240.859 840.104 241 839.693 241H826.299ZM841.328 239.488C841.328 239.898 841.188 240.25 840.906 240.543C840.625 240.824 840.273 240.965 839.852 240.965C839.441 240.965 839.096 240.824 838.814 240.543C838.533 240.25 838.393 239.898 838.393 239.488V236.975C838.393 236.564 838.533 236.219 838.814 235.938C839.096 235.645 839.441 235.498 839.852 235.498C840.273 235.498 840.625 235.645 840.906 235.938C841.188 236.219 841.328 236.564 841.328 236.975V239.488ZM845.354 217.639H857.307C857.693 217.639 858.033 217.785 858.326 218.078C858.631 218.371 858.783 218.717 858.783 219.115C858.783 219.525 858.637 219.883 858.344 220.188C858.051 220.48 857.705 220.627 857.307 220.627H852.842V238.047H857.307C857.717 238.047 858.062 238.193 858.344 238.486C858.637 238.768 858.783 239.113 858.783 239.523C858.783 239.934 858.637 240.285 858.344 240.578C858.051 240.859 857.705 241 857.307 241H845.354C844.943 241 844.592 240.859 844.299 240.578C844.018 240.285 843.877 239.934 843.877 239.523C843.877 239.113 844.018 238.768 844.299 238.486C844.592 238.193 844.943 238.047 845.354 238.047H849.889V220.627H845.354C844.943 220.627 844.592 220.48 844.299 220.188C844.018 219.895 843.877 219.549 843.877 219.15C843.877 218.729 844.018 218.371 844.299 218.078C844.592 217.785 844.943 217.639 845.354 217.639ZM861.455 239.523V219.15C861.455 218.729 861.596 218.371 861.877 218.078C862.17 217.785 862.521 217.639 862.932 217.639C863.342 217.639 863.688 217.785 863.969 218.078C864.262 218.359 864.408 218.705 864.408 219.115V226.094L873.865 218.025C874.193 217.756 874.562 217.621 874.973 217.621C875.383 217.621 875.729 217.773 876.01 218.078C876.291 218.383 876.432 218.734 876.432 219.133C876.432 219.543 876.273 219.883 875.957 220.152L865.234 229.258L875.957 238.521C876.25 238.768 876.396 239.084 876.396 239.471C876.396 239.857 876.25 240.209 875.957 240.525C875.676 240.842 875.324 241 874.902 241C874.504 241 874.146 240.865 873.83 240.596L864.408 232.475V239.523C864.408 239.934 864.262 240.285 863.969 240.578C863.688 240.859 863.342 241 862.932 241C862.533 241 862.188 240.859 861.895 240.578C861.602 240.285 861.455 239.934 861.455 239.523ZM892.428 220.627H881.986V227.816H886.486C886.885 227.816 887.23 227.963 887.523 228.256C887.816 228.549 887.963 228.895 887.963 229.293C887.963 229.715 887.816 230.072 887.523 230.365C887.242 230.658 886.896 230.805 886.486 230.805H881.986V238.047H892.463C892.861 238.047 893.207 238.193 893.5 238.486C893.793 238.768 893.939 239.113 893.939 239.523C893.939 239.934 893.787 240.285 893.482 240.578C893.189 240.859 892.838 241 892.428 241H879.033V217.639H892.428C892.838 217.639 893.189 217.791 893.482 218.096C893.787 218.389 893.939 218.74 893.939 219.15C893.939 219.549 893.787 219.895 893.482 220.188C893.189 220.48 892.838 220.627 892.428 220.627ZM893.922 221.664C893.922 222.074 893.781 222.426 893.5 222.719C893.219 223 892.867 223.141 892.445 223.141C892.035 223.141 891.689 223 891.408 222.719C891.127 222.426 890.986 222.074 890.986 221.664V219.15C890.986 218.74 891.127 218.395 891.408 218.113C891.689 217.82 892.035 217.674 892.445 217.674C892.867 217.674 893.219 217.82 893.5 218.113C893.781 218.395 893.922 218.74 893.922 219.15V221.664ZM893.922 239.488C893.922 239.898 893.781 240.25 893.5 240.543C893.219 240.824 892.867 240.965 892.445 240.965C892.035 240.965 891.689 240.824 891.408 240.543C891.127 240.25 890.986 239.898 890.986 239.488V236.975C890.986 236.564 891.127 236.219 891.408 235.938C891.689 235.645 892.035 235.498 892.445 235.498C892.867 235.498 893.219 235.645 893.5 235.938C893.781 236.219 893.922 236.564 893.922 236.975V239.488ZM597.295 266.842V265.295C597.295 264.794 597.467 264.371 597.811 264.027C598.169 263.669 598.598 263.49 599.1 263.49H615.471V274.576C615.471 275.163 615.249 275.65 614.805 276.037L608.166 281.709V290.109C608.166 290.611 607.987 291.048 607.629 291.42C607.285 291.778 606.863 291.957 606.361 291.957C605.86 291.957 605.423 291.778 605.051 291.42C604.693 291.062 604.514 290.639 604.514 290.152V281.043C604.514 280.355 604.729 279.826 605.158 279.453L611.818 273.824V267.1H600.904C600.646 268.131 600.045 268.646 599.1 268.646C598.598 268.646 598.169 268.475 597.811 268.131C597.467 267.773 597.295 267.343 597.295 266.842ZM618.779 288.477V266.885C618.779 265.939 619.123 265.123 619.811 264.436C620.498 263.748 621.314 263.404 622.26 263.404H633.518C634.449 263.404 635.251 263.748 635.924 264.436C636.611 265.123 636.955 265.939 636.955 266.885V288.477C636.955 289.436 636.611 290.26 635.924 290.947C635.251 291.62 634.434 291.957 633.475 291.957H622.26C621.286 291.957 620.462 291.62 619.789 290.947C619.116 290.26 618.779 289.436 618.779 288.477ZM633.389 288.348V267.057H622.389V288.348H633.389ZM680.01 283.148V284.738C680.01 286.729 679.301 288.441 677.883 289.873C676.479 291.291 674.782 292 672.791 292H661.748V263.447H672.791C674.782 263.447 676.479 264.156 677.883 265.574C679.301 266.992 680.01 268.704 680.01 270.709V272.234C680.01 274.368 679.186 276.188 677.539 277.691C679.186 279.224 680.01 281.043 680.01 283.148ZM676.314 272.191V270.709C676.314 269.706 675.956 268.847 675.24 268.131C674.538 267.415 673.693 267.057 672.705 267.057H665.357V275.801H672.705C673.679 275.801 674.524 275.45 675.24 274.748C675.956 274.032 676.314 273.18 676.314 272.191ZM676.314 284.738V283.234C676.314 282.232 675.956 281.372 675.24 280.656C674.538 279.94 673.693 279.582 672.705 279.582H665.4V288.348H672.705C673.679 288.348 674.524 287.997 675.24 287.295C675.956 286.579 676.314 285.727 676.314 284.738ZM696.639 266.09L700.613 274.189C701.172 275.292 701.451 276.488 701.451 277.777C701.451 279.038 701.172 280.227 700.613 281.344L696.639 289.357C695.794 291.119 694.361 292 692.342 292C691.382 292 690.516 291.749 689.742 291.248C688.983 290.747 688.41 290.117 688.023 289.357L684.027 281.344C683.497 280.298 683.232 279.109 683.232 277.777C683.232 276.445 683.497 275.249 684.027 274.189L688.023 266.09C688.926 264.328 690.365 263.447 692.342 263.447C694.347 263.447 695.779 264.328 696.639 266.09ZM691.139 267.895L687.4 275.5C687.057 276.259 686.885 277.004 686.885 277.734C686.885 278.522 687.057 279.274 687.4 279.99L691.246 287.682C691.447 288.154 691.812 288.391 692.342 288.391C692.8 288.391 693.151 288.154 693.395 287.682L697.262 279.99C697.62 279.231 697.799 278.479 697.799 277.734C697.799 276.947 697.62 276.202 697.262 275.5L693.48 267.895C693.237 267.336 692.857 267.057 692.342 267.057C691.826 267.057 691.425 267.336 691.139 267.895ZM704.717 268.367V263.49H722.936V268.41C722.936 268.911 722.757 269.341 722.398 269.699C722.04 270.043 721.618 270.215 721.131 270.215C720.63 270.215 720.193 270.036 719.82 269.678C719.462 269.32 719.283 268.897 719.283 268.41V267.1H715.631V290.195C715.631 290.697 715.452 291.126 715.094 291.484C714.736 291.828 714.313 292 713.826 292C713.311 292 712.874 291.828 712.516 291.484C712.158 291.126 711.979 290.697 711.979 290.195V267.1H708.326V268.367C708.326 268.868 708.147 269.298 707.789 269.656C707.445 270 707.023 270.172 706.521 270.172C706.02 270.172 705.59 270 705.232 269.656C704.889 269.298 704.717 268.868 704.717 268.367ZM726.201 268.367V263.49H744.42V268.41C744.42 268.911 744.241 269.341 743.883 269.699C743.525 270.043 743.102 270.215 742.615 270.215C742.114 270.215 741.677 270.036 741.305 269.678C740.947 269.32 740.768 268.897 740.768 268.41V267.1H737.115V290.195C737.115 290.697 736.936 291.126 736.578 291.484C736.22 291.828 735.798 292 735.311 292C734.795 292 734.358 291.828 734 291.484C733.642 291.126 733.463 290.697 733.463 290.195V267.1H729.811V268.367C729.811 268.868 729.632 269.298 729.273 269.656C728.93 270 728.507 270.172 728.006 270.172C727.505 270.172 727.075 270 726.717 269.656C726.373 269.298 726.201 268.868 726.201 268.367ZM747.686 292V265.252C747.686 264.765 747.865 264.342 748.223 263.984C748.581 263.626 749.003 263.447 749.49 263.447C749.977 263.447 750.4 263.626 750.758 263.984C751.116 264.342 751.295 264.765 751.295 265.252V288.391H764.057C764.558 288.391 764.988 288.57 765.346 288.928C765.718 289.271 765.904 289.694 765.904 290.195C765.904 290.697 765.718 291.126 765.346 291.484C764.988 291.828 764.558 292 764.057 292H747.686ZM766.055 290.152C766.055 290.654 765.883 291.083 765.539 291.441C765.195 291.785 764.766 291.957 764.25 291.957C763.749 291.957 763.326 291.785 762.982 291.441C762.639 291.083 762.467 290.654 762.467 290.152V287.08C762.467 286.579 762.639 286.156 762.982 285.812C763.326 285.454 763.749 285.275 764.25 285.275C764.766 285.275 765.195 285.454 765.539 285.812C765.883 286.156 766.055 286.579 766.055 287.08V290.152ZM785.541 267.1H772.779V275.887H778.279C778.766 275.887 779.189 276.066 779.547 276.424C779.905 276.782 780.084 277.204 780.084 277.691C780.084 278.207 779.905 278.644 779.547 279.002C779.203 279.36 778.781 279.539 778.279 279.539H772.779V288.391H785.584C786.071 288.391 786.493 288.57 786.852 288.928C787.21 289.271 787.389 289.694 787.389 290.195C787.389 290.697 787.202 291.126 786.83 291.484C786.472 291.828 786.042 292 785.541 292H769.17V263.447H785.541C786.042 263.447 786.472 263.633 786.83 264.006C787.202 264.364 787.389 264.794 787.389 265.295C787.389 265.782 787.202 266.204 786.83 266.562C786.472 266.921 786.042 267.1 785.541 267.1ZM787.367 268.367C787.367 268.868 787.195 269.298 786.852 269.656C786.508 270 786.078 270.172 785.562 270.172C785.061 270.172 784.639 270 784.295 269.656C783.951 269.298 783.779 268.868 783.779 268.367V265.295C783.779 264.794 783.951 264.371 784.295 264.027C784.639 263.669 785.061 263.49 785.562 263.49C786.078 263.49 786.508 263.669 786.852 264.027C787.195 264.371 787.367 264.794 787.367 265.295V268.367ZM787.367 290.152C787.367 290.654 787.195 291.083 786.852 291.441C786.508 291.785 786.078 291.957 785.562 291.957C785.061 291.957 784.639 291.785 784.295 291.441C783.951 291.083 783.779 290.654 783.779 290.152V287.08C783.779 286.579 783.951 286.156 784.295 285.812C784.639 285.454 785.061 285.275 785.562 285.275C786.078 285.275 786.508 285.454 786.852 285.812C787.195 286.156 787.367 286.579 787.367 287.08V290.152ZM821.957 288.391H828.467C828.968 288.391 829.398 288.57 829.756 288.928C830.128 289.271 830.314 289.694 830.314 290.195C830.314 290.697 830.128 291.126 829.756 291.484C829.398 291.828 828.968 292 828.467 292H821.721C820.861 292 819.973 291.728 819.057 291.184C818.14 290.639 817.503 290.031 817.145 289.357L812.977 281.301C812.418 280.141 812.139 278.952 812.139 277.734C812.139 276.388 812.404 275.221 812.934 274.232L817.145 266.262C817.546 265.517 818.169 264.865 819.014 264.307C819.859 263.734 820.675 263.447 821.463 263.447H828.596C829.097 263.447 829.52 263.626 829.863 263.984C830.221 264.342 830.4 264.765 830.4 265.252C830.4 265.753 830.221 266.19 829.863 266.562C829.52 266.921 829.097 267.1 828.596 267.1H821.721C821.148 267.1 820.682 267.436 820.324 268.109L816.328 275.586C816.013 276.173 815.855 276.868 815.855 277.67C815.855 278.515 816.027 279.26 816.371 279.904L820.195 287.252C820.553 288.011 821.141 288.391 821.957 288.391ZM830.379 268.367C830.379 268.868 830.207 269.298 829.863 269.656C829.52 270 829.09 270.172 828.574 270.172C828.073 270.172 827.65 270 827.307 269.656C826.963 269.298 826.791 268.868 826.791 268.367V265.295C826.791 264.794 826.963 264.371 827.307 264.027C827.65 263.669 828.073 263.49 828.574 263.49C829.09 263.49 829.52 263.669 829.863 264.027C830.207 264.371 830.379 264.794 830.379 265.295V268.367ZM830.293 290.152C830.293 290.654 830.121 291.083 829.777 291.441C829.434 291.785 829.004 291.957 828.488 291.957C827.987 291.957 827.564 291.785 827.221 291.441C826.877 291.083 826.705 290.654 826.705 290.152V287.08C826.705 286.579 826.877 286.156 827.221 285.812C827.564 285.454 827.987 285.275 828.488 285.275C829.004 285.275 829.434 285.454 829.777 285.812C830.121 286.156 830.293 286.579 830.293 287.08V290.152ZM833.73 289.486L841.035 264.801C841.322 263.898 841.923 263.447 842.84 263.447C843.728 263.447 844.286 263.827 844.516 264.586L851.713 289.658C851.77 289.844 851.799 290.023 851.799 290.195C851.799 290.697 851.627 291.126 851.283 291.484C850.939 291.828 850.546 292 850.102 292C849.156 292 848.555 291.563 848.297 290.689L846.836 285.791H838.607L837.018 291.033C836.975 291.262 836.796 291.484 836.48 291.699C836.165 291.9 835.822 292 835.449 292C834.919 292 834.482 291.821 834.139 291.463C833.795 291.105 833.623 290.668 833.623 290.152C833.623 289.938 833.659 289.715 833.73 289.486ZM842.797 271.805L839.703 282.139H845.783L842.797 271.805ZM855.107 290.195V263.447H867.912C869.387 263.447 870.655 263.984 871.715 265.059C872.789 266.133 873.326 267.415 873.326 268.904V275.672C873.326 277.161 872.796 278.436 871.736 279.496C870.676 280.556 869.402 281.086 867.912 281.086H858.76V290.195C858.76 290.697 858.581 291.126 858.223 291.484C857.879 291.828 857.456 292 856.955 292C856.439 292 856.003 291.828 855.645 291.484C855.286 291.126 855.107 290.697 855.107 290.195ZM858.76 277.477H867.912C868.399 277.477 868.822 277.305 869.18 276.961C869.538 276.603 869.717 276.173 869.717 275.672V268.904C869.717 268.403 869.538 267.98 869.18 267.637C868.822 267.279 868.399 267.1 867.912 267.1H858.76V277.477ZM880.824 263.447H890.213C891.359 263.447 892.44 263.934 893.457 264.908C894.488 265.868 895.004 267.035 895.004 268.41C895.004 268.926 894.818 269.363 894.445 269.721C894.087 270.079 893.686 270.258 893.242 270.258C892.626 270.258 892.204 270.122 891.975 269.85C891.745 269.563 891.523 269.04 891.309 268.281C891.108 267.522 890.65 267.143 889.934 267.143H881.018C880.588 267.143 880.373 267.279 880.373 267.551V271.568L894.166 281.967C894.811 282.382 895.097 282.962 895.025 283.707L895.004 287.939C895.004 289.014 894.61 289.959 893.822 290.775C893.049 291.592 892.182 292 891.223 292H881.49C880.201 292 879.077 291.513 878.117 290.539C877.172 289.551 876.699 288.469 876.699 287.295C876.699 285.949 877.329 285.275 878.59 285.275C879.077 285.275 879.492 285.454 879.836 285.812C880.18 286.156 880.352 286.564 880.352 287.037C880.352 287.424 880.48 287.746 880.738 288.004C881.01 288.262 881.347 288.391 881.748 288.391H890.729C891.115 288.391 891.323 288.133 891.352 287.617V284.287L877.537 274.018C876.907 273.201 876.642 272.507 876.742 271.934L876.721 267.594C876.721 266.477 877.122 265.51 877.924 264.693C878.726 263.863 879.693 263.447 880.824 263.447Z" fill="white"/>
</svg>
