<svg width="960" height="453" viewBox="0 0 960 453" fill="none" xmlns="http://www.w3.org/2000/svg">
<path d="M346.72 285.569L439.211 258.188L519.413 265.303C538.745 275.579 587.541 320.926 587.541 320.926L529.546 232.316L663.647 309.5L576.115 208.385H703.316L569.215 163.11L719.27 109.642L550.027 126.674L592.069 63.0734L500.009 104.037L488.582 4L451.284 117.619L403.422 63.0734L410.321 117.619L337.665 92.6101L429.509 163.11H337.665L410.321 199.33L240 208.385L403.422 232.316L346.72 285.569Z" stroke="white" stroke-width="3"/>
<path d="M481.683 314.89L484.486 318.555C484.486 318.555 483.609 324.016 481.683 319.202C479.758 314.388 471.982 315.968 481.683 314.89Z" fill="white"/>
<path d="M467.454 317.261L457.537 325.454L460.339 332.353H463.789L460.986 326.101L467.454 317.261Z" fill="white"/>
<path d="M454.949 306.266L463.789 303.894V300.66L454.949 306.266Z" fill="white"/>
<path d="M482.761 308.422L486.211 306.266L491.385 314.89L489.445 315.968L482.761 308.422Z" fill="white"/>
<path d="M456.027 350.679L465.298 352.835L460.339 354.559L456.027 350.679Z" fill="white"/>
<path fill-rule="evenodd" clip-rule="evenodd" d="M452.794 330.628L446.11 333.431C446.11 333.431 445.966 339.683 446.541 342.055L447.188 338.821C450.422 344.211 456.027 347.373 462.927 348.523C469.394 349.601 477.285 346.596 482.33 343.995L481.683 348.092L485.349 341.193L481.252 335.371L479.312 336.018L481.037 338.664C476.825 339.44 471.81 339.942 464.867 339.468C456.243 338.879 453.098 335.463 451.069 333.431L452.794 330.628ZM447.835 336.018L448.158 334.509L449.128 334.078C452.794 338.664 460.114 341.21 464.867 341.624C469.826 342.055 476.94 341.193 482.115 340.33L482.761 342.055C478.593 343.78 470.516 347.445 462.927 346.582C455.338 345.72 449.344 339.899 447.835 336.018Z" fill="white"/>
<path d="M457.537 309.069C464.867 315.968 460.124 311.009 455.596 312.949C451.069 314.89 453.656 311.44 453.656 311.44L457.537 309.069Z" fill="white"/>
<path d="M457.537 359.518C450.021 357.821 442.876 348.092 441.798 332.138C440.72 316.183 447.662 301.264 460.771 290.743C473.879 280.222 494.332 294.48 504.537 302.385C504.177 314.818 522.216 318.124 501.303 341.839C499.362 345.073 502.596 342.702 502.596 346.582C502.596 350.463 501.087 355.206 489.66 353.482C489.805 353.626 491.17 353.913 492.032 354.775C488.151 357.793 470.904 362.537 457.537 359.518Z" stroke="white" stroke-width="2"/>
<path d="M509.495 332.569C507.771 336.785 503.459 344.211 499.793 343.348C499.4 343.053 501.102 341.39 501.734 340.33C502.494 339.515 503.2 338.536 503.83 337.527C504.568 336.346 505.203 335.125 505.701 334.078C506.466 332.47 506.908 331.275 506.908 331.275C505.399 326.748 503.89 324.807 499.793 321.142C505.83 318.339 507.771 314.459 507.771 311.871C507.771 306.657 506.693 309.5 500.656 307.559C498.097 306.737 496.991 301.738 496.991 301.738C496.991 301.738 485.133 299.151 486.211 302.385C482.546 301.092 481.037 293.546 470.472 296.78C462.021 299.367 456.674 296.78 455.165 294.624C451.984 294.624 446.326 304.541 446.326 304.541C446.326 304.541 446.326 293.115 453.277 291.174C453.178 271.873 470.472 276.945 470.472 276.945C470.472 276.945 462.28 281.472 466.376 285.569C473.275 282.55 483.624 280.826 485.133 284.706C486.642 288.587 491.601 282.399 498.716 286.431C505.83 290.463 508.849 293.33 500.656 293.33C519.413 293.977 513.376 323.082 509.495 332.569Z" fill="black"/>
<path d="M501.734 340.33C501.102 341.39 499.4 343.053 499.793 343.348C503.459 344.211 507.771 336.785 509.495 332.569C513.376 323.082 519.413 293.977 500.656 293.33C508.849 293.33 505.83 290.463 498.716 286.431C491.601 282.399 486.642 288.587 485.133 284.706C483.624 280.826 473.275 282.55 466.376 285.569C462.28 281.472 470.472 276.945 470.472 276.945C470.472 276.945 453.178 271.873 453.277 291.174C446.326 293.115 446.326 304.541 446.326 304.541C446.326 304.541 451.984 294.624 455.165 294.624C456.674 296.78 462.021 299.367 470.472 296.78C481.037 293.546 482.546 301.092 486.211 302.385C485.133 299.151 496.991 301.738 496.991 301.738C496.991 301.738 498.097 306.737 500.656 307.559C506.693 309.5 507.771 306.657 507.771 311.871C507.771 314.459 505.83 318.339 499.793 321.142C503.89 324.807 505.399 326.748 506.908 331.275C506.908 331.275 506.466 332.47 505.701 334.078M501.734 340.33C502.494 339.515 503.2 338.536 503.83 337.527M501.734 340.33C500.512 338.749 498.284 336.449 495.697 334.509M505.701 334.078C503.947 331.563 499.88 326.403 497.638 325.885M505.701 334.078C505.203 335.125 504.568 336.346 503.83 337.527M503.83 337.527C501.982 335.084 497.896 330.197 496.344 330.197" stroke="white" stroke-width="3"/>
<path d="M485.995 450.5L414.417 441.014V421.394V381.078C414.417 381.078 405.147 364.908 405.147 331.275C405.147 297.642 425.628 243.743 425.628 243.743C425.628 243.743 429.294 269.183 429.294 302.816C429.294 336.449 433.605 347.876 433.605 347.876L440.505 353.697H446.11C446.11 355.997 448.139 364.484 460.124 366.417C473.491 368.573 478.593 364.477 480.821 360.596L489.337 362.86L495.697 360.165C507.124 334.94 525.881 296.78 516.826 254.954C527.605 273.711 546.793 300.014 528.899 347.876C514.412 386.625 495.414 403.237 493.043 402.206C491.221 411.737 488.875 419.541 485.995 428.725C484.889 436.05 485.995 450.5 485.995 450.5Z" fill="black"/>
<path d="M440.505 353.697H446.11C446.11 355.997 448.139 364.484 460.124 366.417C473.491 368.573 478.593 364.477 480.821 360.596L489.337 362.86M440.505 353.697L433.605 347.876C433.605 347.876 429.294 336.449 429.294 302.816C429.294 269.183 425.628 243.743 425.628 243.743C425.628 243.743 405.147 297.642 405.147 331.275C405.147 364.908 414.417 381.078 414.417 381.078V421.394M440.505 353.697C440.073 356.5 435.761 359.518 443.954 369.867C434.037 395.738 433.605 409.752 433.605 428.725C423.688 427.431 414.417 421.394 414.417 421.394M414.417 421.394V441.014L485.995 450.5C485.995 450.5 484.889 436.05 485.995 428.725M489.337 362.86L495.697 360.165C507.124 334.94 525.881 296.78 516.826 254.954C527.605 273.711 546.793 300.014 528.899 347.876C514.412 386.625 495.414 403.237 493.043 402.206C491.221 411.737 488.875 419.541 485.995 428.725M489.337 362.86C485.995 370.298 472.197 376.766 464.436 375.904C460.124 389.702 451.284 417.514 454.303 432.174C477.803 432.174 463.082 433.941 485.995 428.725" stroke="white" stroke-width="3"/>
<path d="M425.05 271.175L425.892 107.285L573.531 119.414L525.74 289.103L425.05 271.175Z" fill="black" stroke="white" stroke-width="4"/>
<path d="M503.612 140.973C503.596 141.078 503.581 141.183 503.565 141.293C503.3 143.1 501.898 144.728 500.433 145.819C498.968 146.91 496.699 147.375 494.891 147.11C492.222 147.708 489.3 146.306 488.209 144.841C487.118 143.376 486.654 141.106 486.918 139.299C486.934 139.189 486.95 139.515 486.965 139.41L455.909 137.254L455.047 202.269L515.767 212.688L533.427 143.032L503.612 140.973ZM485.201 199.626L484.833 185.315L484.352 185.308L479.126 198.737L475.14 197.723L473.701 178.61L477.638 178.755L478.238 192.174L478.287 192.181L483.629 179.632L488.175 179.739L488.107 193.799L488.157 194.237L493.353 180.623L497.65 181.189L489.121 200.63L485.201 199.626ZM506.88 204.091L506.654 198.781L499.138 197.313L497.421 202.276L493.483 201.269L502.084 181.406L508.727 181.884L510.977 205.122L506.88 204.091Z" fill="white"/>
<path d="M503.718 186.769L500.44 194.237L506.217 195.45L505.806 187.011L503.718 186.769Z" fill="white"/>
</svg>
