<svg width="1113" height="1040" viewBox="0 0 1113 1040" preserveAspectRatio="xMidYMid meet" fill="none" xmlns="http://www.w3.org/2000/svg">
<path d="M248 654L462.5 590.5L648.5 607C693.333 630.833 806.5 736 806.5 736L672 530.5L983 709.5L780 475H1075L764 370L1112 246L719.5 285.5L817 138L603.5 233L577 1L490.5 264.5L379.5 138L395.5 264.5L227 206.5L440 370H227L395.5 454L0.5 475L379.5 530.5L248 654Z" stroke="white" stroke-width="3"/>
<path d="M561 722L567.5 730.5C567.5 730.5 565.466 743.165 561 732C556.534 720.835 538.5 724.5 561 722Z" fill="white"/>
<path d="M528 727.5L505 746.5L511.5 762.5H519.5L513 748L528 727.5Z" fill="white"/>
<path d="M499 702L519.5 696.5V689L499 702Z" fill="white"/>
<path d="M563.5 707L571.5 702L583.5 722L579 724.5L563.5 707Z" fill="white"/>
<path d="M501.5 805L523 810L511.5 814L501.5 805Z" fill="white"/>
<path fill-rule="evenodd" clip-rule="evenodd" d="M494 758.5L478.5 765C478.5 765 478.167 779.5 479.5 785L481 777.5C488.5 790 501.5 797.333 517.5 800C532.5 802.5 550.799 795.532 562.5 789.5L561 799L569.5 783L560 769.5L555.5 771L559.5 777.135C549.732 778.935 538.102 780.099 522 779C502 777.635 494.706 769.713 490 765L494 758.5ZM482.5 771L483.25 767.5L485.5 766.5C494 777.135 510.978 783.042 522 784C533.5 785 550 783 562 781L563.5 785C553.833 789 535.1 797.5 517.5 795.5C499.9 793.5 486 780 482.5 771Z" fill="white"/>
<path d="M505 708.5C522 724.5 511 713 500.5 717.5C490 722 496 714 496 714L505 708.5Z" fill="white"/>
<path d="M505 825.5C487.571 821.564 471 799 468.5 762C466 725 482.1 690.4 512.5 666C542.9 641.6 590.333 674.667 614 693C613.167 721.833 655 729.5 606.5 784.5C602 792 609.5 786.5 609.5 795.5C609.5 804.5 606 815.5 579.5 811.5C579.836 811.836 583 812.5 585 814.5C576 821.5 536 832.5 505 825.5Z" stroke="white" stroke-width="5"/>
<path d="M625.5 763C621.5 772.778 611.5 790 603 788C602.087 787.315 606.033 783.458 607.5 781C609.264 779.11 610.901 776.84 612.362 774.5C614.074 771.761 615.545 768.928 616.7 766.5C618.474 762.771 619.5 760 619.5 760C616 749.5 612.5 745 603 736.5C617 730 621.5 721 621.5 715C621.5 702.907 619 709.5 605 705C599.066 703.093 596.5 691.5 596.5 691.5C596.5 691.5 569 685.5 571.5 693C563 690 559.5 672.5 535 680C515.4 686 503 680 499.5 675C492.122 675 479 698 479 698C479 698 479 671.5 495.122 667C494.891 622.237 535 634 535 634C535 634 516 644.5 525.5 654C541.5 647 565.5 643 569 652C572.5 661 584 646.65 600.5 656C617 665.35 624 672 605 672C648.5 673.5 634.5 741 625.5 763Z" fill="black"/>
<path d="M607.5 781C606.033 783.458 602.087 787.315 603 788C611.5 790 621.5 772.778 625.5 763C634.5 741 648.5 673.5 605 672C624 672 617 665.35 600.5 656C584 646.65 572.5 661 569 652C565.5 643 541.5 647 525.5 654C516 644.5 535 634 535 634C535 634 494.891 622.237 495.122 667C479 671.5 479 698 479 698C479 698 492.122 675 499.5 675C503 680 515.4 686 535 680C559.5 672.5 563 690 571.5 693C569 685.5 596.5 691.5 596.5 691.5C596.5 691.5 599.066 703.093 605 705C619 709.5 621.5 702.907 621.5 715C621.5 721 617 730 603 736.5C612.5 745 616 749.5 619.5 760C619.5 760 618.474 762.771 616.7 766.5M607.5 781C609.264 779.11 610.901 776.84 612.362 774.5M607.5 781C604.667 777.333 599.5 772 593.5 767.5M616.7 766.5C612.633 760.667 603.2 748.7 598 747.5M616.7 766.5C615.545 768.928 614.074 771.761 612.362 774.5M612.362 774.5C608.075 768.833 598.6 757.5 595 757.5" stroke="white" stroke-width="5"/>
<path d="M571 1036.5L405 1014.5V969V875.5C405 875.5 383.5 838 383.5 760C383.5 682 431 557 431 557C431 557 439.5 616 439.5 694C439.5 772 449.5 798.5 449.5 798.5L465.5 812H478.5C478.5 817.333 483.205 837.017 511 841.5C542 846.5 553.833 837 559 828L578.75 833.25L593.5 827C620 768.5 663.5 680 642.5 583C667.5 626.5 712 687.5 670.5 798.5C636.902 888.365 592.843 926.892 587.344 924.5C583.118 946.603 577.678 964.702 571 986C568.433 1002.99 571 1036.5 571 1036.5Z" fill="black"/>
<path d="M465.5 812H478.5C478.5 817.333 483.205 837.017 511 841.5C542 846.5 553.833 837 559 828L578.75 833.25M465.5 812L449.5 798.5C449.5 798.5 439.5 772 439.5 694C439.5 616 431 557 431 557C431 557 383.5 682 383.5 760C383.5 838 405 875.5 405 875.5V969M465.5 812C464.5 818.5 454.5 825.5 473.5 849.5C450.5 909.5 449.5 942 449.5 986C426.5 983 405 969 405 969M405 969V1014.5L571 1036.5C571 1036.5 568.433 1002.99 571 986M578.75 833.25L593.5 827C620 768.5 663.5 680 642.5 583C667.5 626.5 712 687.5 670.5 798.5C636.902 888.365 592.843 926.892 587.344 924.5C583.118 946.603 577.678 964.702 571 986M578.75 833.25C571 850.5 539 865.5 521 863.5C511 895.5 490.5 960 497.5 994C552 994 517.86 998.099 571 986" stroke="white" stroke-width="5"/>
<path d="M429.519 620.734L431.475 240.383L774.188 268.538L663.274 662.355L429.519 620.734Z" fill="black" stroke="white" stroke-width="9"/>
<path d="M611.854 318.661C611.819 318.904 611.783 319.147 611.746 319.403C611.133 323.594 607.88 327.37 604.482 329.9C601.085 332.43 595.822 333.507 591.631 332.894C585.44 334.281 578.664 331.028 576.134 327.631C573.604 324.233 572.527 318.97 573.14 314.779C573.178 314.523 573.213 315.28 573.249 315.036L501.226 310.036L499.226 460.815L640.045 484.979L681 323.436L611.854 318.661ZM569.157 454.685L568.304 421.497L567.189 421.48L555.07 452.624L545.824 450.272L542.487 405.948L551.618 406.284L553.009 437.404L553.124 437.421L565.512 408.316L576.054 408.566L575.897 441.171L576.013 442.188L588.064 410.616L598.028 411.927L578.249 457.016L569.157 454.685ZM619.433 465.041L618.91 452.726L601.48 449.322L597.497 460.832L588.366 458.496L608.312 412.432L623.718 413.54L628.936 467.431L619.433 465.041Z" fill="white"/>
<path d="M612.102 424.868L604.5 442.188L617.896 445.002L616.944 425.43L612.102 424.868Z" fill="white"/>
</svg>
