<svg width="960" height="440" viewBox="0 0 960 440" fill="none" xmlns="http://www.w3.org/2000/svg">
<path d="M476.682 333.078C463.015 330.262 449.743 312.888 447.245 284.035C444.747 255.182 456.807 227.929 480.184 208.428C503.56 188.928 541.084 214.046 559.834 228.012C559.609 250.537 592.386 255.906 555.329 299.566C551.926 305.489 557.701 301.084 557.834 308.111C557.966 315.138 555.396 323.779 534.645 321.047C534.913 321.304 537.393 321.776 538.984 323.308C532.06 328.906 500.99 338.086 476.682 333.078Z" fill="black" stroke="white" stroke-width="5"/>
<path d="M474.955 241.723C482.026 243.933 477.681 261.98 470.609 259.77C463.538 257.561 467.883 239.513 474.955 241.723Z" fill="white"/>
<path d="M493.194 256.219L475.516 271.394L480.827 283.791L487.074 283.673L481.784 272.447L493.194 256.219Z" fill="white"/>
<path d="M475.111 310.253L491.972 313.84L483.052 317.133L475.111 310.253Z" fill="white"/>
<path fill-rule="evenodd" clip-rule="evenodd" d="M504.215 309.217L503.423 312.931L512.805 303.566C512.805 303.566 502.499 298.951 495.535 297.135C481.248 293.411 462.274 301.187 462.274 301.187C477.171 305.732 487.885 301.555 504.215 309.217Z" fill="white"/>
<path d="M468.759 230.455L484.684 225.858L486.274 232.077L489.538 229.69L484.574 220.002L469.819 225.485L468.759 230.455Z" fill="white"/>
<path d="M508.544 250.532L510.871 246.985L513.685 250.152L528.003 240.41L529.071 245.042L511.963 254.984L508.544 250.532Z" fill="white"/>
<path fill-rule="evenodd" clip-rule="evenodd" d="M522.503 268.424C525.551 263.637 526.043 254.751 521.216 253.243C516.668 251.822 513.248 258.779 513.267 264.513L522.503 268.424Z" fill="white"/>
<path d="M569.847 282.498C566.868 290.192 559.314 303.787 552.648 302.351C551.925 301.83 554.949 298.76 556.058 296.819C557.407 295.317 558.652 293.52 559.758 291.672C561.054 289.508 562.161 287.274 563.027 285.361C564.357 282.424 565.118 280.245 565.118 280.245C562.23 272.098 559.43 268.636 551.887 262.139C562.723 256.857 566.103 249.764 566.015 245.079C565.836 235.636 563.982 240.821 552.984 237.514C548.322 236.112 546.148 227.099 546.148 227.099C546.148 227.099 524.587 222.82 526.65 228.639C519.969 226.422 516.977 212.81 497.958 219.027C482.743 224.001 472.973 219.5 470.166 215.647C464.405 215.756 454.499 233.908 454.499 233.908C454.499 233.908 454.108 213.217 466.629 209.465C465.788 174.517 497.279 183.11 497.279 183.11C497.279 183.11 482.599 191.589 490.157 198.867C502.547 193.165 521.227 189.687 524.093 196.663C526.958 203.638 535.726 192.264 548.747 199.321C561.768 206.378 567.332 211.467 552.497 211.748C586.484 212.277 576.549 265.188 569.847 282.498Z" fill="black"/>
<path d="M556.058 296.819C554.949 298.76 551.925 301.83 552.648 302.351C559.314 303.787 566.868 290.192 569.847 282.498C576.549 265.188 586.484 212.277 552.497 211.748C567.332 211.467 561.768 206.378 548.747 199.321C535.726 192.264 526.958 203.638 524.093 196.663C521.227 189.687 502.547 193.165 490.157 198.867C482.599 191.589 497.279 183.11 497.279 183.11C497.279 183.11 465.788 174.517 466.629 209.465C454.108 213.217 454.499 233.908 454.499 233.908C454.499 233.908 464.405 215.756 470.166 215.647C472.973 219.5 482.743 224.001 497.958 219.027C516.977 212.81 519.969 226.422 526.65 228.639C524.587 222.82 546.148 227.099 546.148 227.099C546.148 227.099 548.322 236.112 552.984 237.514C563.982 240.821 565.836 235.636 566.015 245.079C566.103 249.764 562.723 256.857 551.887 262.139C559.43 268.636 562.23 272.098 565.118 280.245C565.118 280.245 564.357 282.424 563.027 285.361M556.058 296.819C557.407 295.317 558.652 293.52 559.758 291.672M556.058 296.819C553.791 293.998 549.679 289.91 544.927 286.484M563.027 285.361C559.766 280.867 552.224 271.662 548.146 270.802M563.027 285.361C562.161 287.274 561.054 289.508 559.758 291.672M559.758 291.672C556.327 287.31 548.762 278.601 545.951 278.654" stroke="white" stroke-width="5"/>
<path d="M275.18 410.673L233.51 214.687L248.834 221.651L260.931 214.687L270.341 209.042L282.439 202.321C282.439 202.321 286.917 204.835 294.518 209.042L303.409 196.675L477.349 295.878L670.915 201.245L681.4 213.936C690.023 209.866 695.111 207.429 695.111 207.429L700.219 217.275L706.268 228.935L712.317 240.595L725.49 235.926L695.111 431.105L504.502 445.623L454.229 443.472L275.18 410.673Z" fill="black"/>
<path d="M513.105 311.202C488.641 323.299 477.349 324.375 445.895 311.202L248.834 221.651L260.931 214.687L270.341 209.042L282.439 202.321C282.439 202.321 286.917 204.835 294.518 209.042L303.409 196.675L477.349 295.878L670.915 201.245L681.4 213.936C690.023 209.866 695.111 207.429 695.111 207.429L700.219 217.275L706.268 228.935L712.317 240.595L513.105 311.202Z" fill="black"/>
<path d="M651.021 416.588L665.27 313.89L626.019 328.627C614.728 356.098 603.139 355.748 592.145 336.911L555.045 346.958L560.421 433.256L651.021 416.588Z" fill="black"/>
<path d="M275.18 410.673L233.51 214.687L248.834 221.651M445.895 311.202C477.349 324.375 488.641 323.299 513.105 311.202M445.895 311.202L454.229 443.472M445.895 311.202L248.834 221.651M695.111 431.105L725.49 235.926L712.317 240.595M513.105 311.202L504.502 445.623M513.105 311.202L712.317 240.595M248.834 221.651L260.931 214.687M477.349 295.878L303.408 196.675L294.518 209.042M477.349 295.878C468.047 304.046 335.623 231.792 294.518 209.042M477.349 295.878L670.915 201.245L681.4 213.936M477.349 295.878C487.319 304.488 635.167 235.756 681.4 213.936M712.317 240.595L706.268 228.935M270.341 209.042L282.439 202.321C282.439 202.321 286.917 204.835 294.518 209.042M270.341 209.042L452.885 295.878M270.341 209.042L260.931 214.687M260.931 214.687L452.885 302.867M681.4 213.936C690.023 209.866 695.111 207.429 695.111 207.429L700.219 217.275M700.219 217.275L494.824 302.867L706.268 228.935M700.219 217.275L706.268 228.935M555.045 346.958L560.421 433.256L651.021 416.588L665.27 313.89L626.019 328.627C614.728 356.098 603.139 355.748 592.145 336.911L555.045 346.958Z" stroke="white" stroke-width="4"/>
<path d="M602.361 377.337L614.19 413.63L617.147 396.156L622.793 413.63L627.094 374.111M627.901 412.555L630.457 396.156M644.3 409.598L642.809 393.198M630.457 396.156L634.353 371.153H640.805L642.809 393.198M630.457 396.156L642.809 393.198" stroke="white" stroke-width="4"/>
<path d="M530.633 44.6446L482.297 35.6434C468.642 33.1006 462.924 43.7602 461.809 49.7499L452.777 98.2493C451.442 105.42 453.724 110.39 457.05 113.673L455.812 120.321C455.455 122.236 456.713 124.073 458.619 124.428C460.525 124.783 462.36 123.522 462.717 121.606L463.429 117.782C464.633 118.257 465.792 118.595 466.814 118.785L515.15 127.786C516.393 128.018 517.544 128.107 518.658 128.131L517.957 131.894C517.6 133.809 518.855 135.645 520.765 136.001C522.674 136.356 524.505 135.095 524.862 133.179L526.074 126.67C532.031 123.862 534.886 117.719 535.638 113.68L544.67 65.1805C547.221 51.4795 536.602 45.7563 530.633 44.6446ZM528.737 112.373C528.392 114.108 526.186 122.673 516.44 120.858L468.122 111.86C466.392 111.516 457.861 109.315 459.682 99.5351L460.327 96.0709L463.78 96.7138C465.686 97.0687 467.521 95.8083 467.878 93.8925C468.234 91.9768 466.976 90.1403 465.07 89.7854L461.618 89.1424L466.779 61.4285L470.231 62.0715C472.137 62.4264 473.973 61.1624 474.329 59.2502C474.685 57.3379 473.427 55.4979 471.521 55.143L468.069 54.5L468.711 51.0531C469.055 49.3179 471.26 40.7569 481.007 42.5719L529.322 51.5692C531.051 51.9128 539.586 54.1151 537.765 63.8946L528.737 112.373ZM515.114 70.4297C507.498 69.0114 500.147 74.0728 498.723 81.7149C497.524 88.1549 500.939 94.3537 506.592 97.0087L505.855 100.965C505.499 102.881 506.754 104.717 508.663 105.072C510.572 105.428 512.404 104.167 512.761 102.251L513.497 98.2946C519.727 97.8526 525.144 93.2984 526.344 86.8584C527.767 79.2163 522.73 71.848 515.114 70.4297ZM511.243 91.2151C507.435 90.506 504.917 86.8218 505.629 83.0008C506.34 79.1797 510.016 76.649 513.824 77.3582C517.632 78.0673 520.15 81.7515 519.439 85.5725C518.727 89.3936 515.051 91.9243 511.243 91.2151Z" fill="white"/>
<path d="M715.274 356.905C717.604 351.438 723.985 339.538 714.737 334.591C709.241 331.651 709.898 341.581 708.016 350.721L706.94 356.905C706.94 356.905 686.508 337.817 677.637 343.194C664.233 351.317 709.091 372.229 709.091 372.229C709.091 372.229 683.77 361.15 682.476 370.616C681.271 379.429 706.94 384.864 706.94 384.864C706.94 384.864 682.187 381.209 682.476 389.703C682.764 398.198 702.101 397.769 702.101 397.769C702.101 397.769 690.81 399.919 688.659 401.801C686.508 403.683 691.885 409.867 709.091 403.146C726.297 396.425 720.83 373.573 715.274 356.905Z" fill="black" stroke="white" stroke-width="3"/>
<path d="M262.545 284.242C251.476 284.168 245.118 296.097 241.306 308.707C237.811 320.267 235.66 325.375 235.66 342.312C235.66 352.543 242.919 365.432 254.748 356.023C266.577 346.613 268.728 353.334 275.718 351.453C282.708 349.571 274.911 342.85 269.534 342.312C263.328 341.691 257.437 342.312 257.437 342.312C257.437 342.312 257.731 338.943 262.545 336.935C273.029 332.562 283.783 344.463 287.278 339.623C290.773 334.784 276.255 326.45 269.534 326.45C257.881 326.45 254.748 329.676 254.748 329.676C254.748 329.676 259.671 319.349 266.577 317.041C275.092 314.195 286.471 325.644 287.278 320.267C288.085 314.89 275.906 305.363 266.577 305.481C259.727 305.567 250.984 317.041 250.984 317.041C250.984 317.041 255.288 299.855 262.545 296.609C272.034 292.363 280.826 304.136 283.783 300.91C286.74 297.684 276.108 284.333 262.545 284.242Z" fill="black" stroke="white" stroke-width="3"/>
<path d="M453.741 25.2011C438.728 5.13771 399.383 26.4295 403.007 48.5402C387.994 43.2172 380.746 56.3199 385.405 64.509C362.109 63.6901 363.144 103.407 403.007 109.549C397.83 128.384 413.361 131.66 435.104 131.66C428.374 141.077 453.713 170.149 506 144.353C539.133 184.889 571.776 144.353 565.046 127.565C597.495 136.279 628.98 95.1282 594.554 87.8481C626.134 64.509 599.731 50.5874 576.953 55.0915C597.143 26.4295 564.528 -1.82306 553.139 16.6025C537.041 -0.88714 500.851 8.41337 500.851 21.516C485.586 1.78462 456.049 7.06133 453.741 25.2011Z" stroke="white" stroke-width="6"/>
<path d="M392.135 144.353C395.863 136.819 410.597 138.172 413.361 144.353C415.471 149.072 412.153 154.322 406.113 155.818C398.609 157.677 387.476 153.771 392.135 144.353Z" stroke="white" stroke-width="6"/>
<path d="M397.83 180.385C395.414 179.293 393.224 171.523 397.83 168.921C401.12 167.062 404.804 167.165 408.184 168.921C412.943 171.392 415.432 176.291 409.737 180.385C405.181 183.661 399.901 181.75 397.83 180.385Z" stroke="white" stroke-width="6"/>
<path d="M420.609 197.173C416.006 197.387 411.966 193.278 413.361 189.803C415.041 185.618 427.665 187.467 427.339 191.85C427.12 194.785 424.319 197 420.609 197.173Z" stroke="white" stroke-width="6"/>
<path d="M444.423 208.638C443.056 211.423 434.458 209.534 435.104 206.591C435.614 204.264 439.098 202.781 441.834 203.724C444.243 204.555 445.373 206.7 444.423 208.638Z" stroke="white" stroke-width="6"/>
</svg>
