<svg width="960" height="440" viewBox="0 0 960 440" fill="none" xmlns="http://www.w3.org/2000/svg">
<path d="M733.87 254.676L727.966 227.511H727.865L721.476 254.676H713.341L704.124 214.762H712.158L717.656 241.927H717.758L724.383 214.762H731.899L737.848 242.262H737.949L744.225 214.762H752.113L741.87 254.676H733.87Z" fill="white"/>
<path fill-rule="evenodd" clip-rule="evenodd" d="M778.107 254.676L775.369 245.792H760.913L758.806 254.676H750.772L761.161 214.762H773.837L786.468 254.676H778.107ZM762.49 239.245L765.994 224.599H769.375L773.397 239.245H762.49Z" fill="white"/>
<path d="M750.501 154.608V154H797.262V266.745H676V154H722.693V154.608C722.693 158.036 724.158 161.324 726.765 163.749C729.373 166.173 732.91 167.535 736.597 167.535C740.285 167.535 743.821 166.173 746.429 163.749C749.036 161.324 750.501 158.036 750.501 154.608Z" stroke="white" stroke-width="5"/>
<path d="M430.356 207.032C431.956 206.264 433.38 205.736 434.628 205.448C435.876 205.16 437.316 205.016 438.948 205.016C441.348 205.016 443.316 205.624 444.852 206.84C446.42 208.056 447.204 209.88 447.204 212.312V222.008C447.204 223.288 447.732 223.928 448.788 223.928C449.076 223.928 449.444 223.864 449.892 223.736L449.94 226.568C448.884 227.176 447.732 227.48 446.484 227.48C443.764 227.48 442.292 226.056 442.068 223.208V223.112C441.428 224.232 440.516 225.24 439.332 226.136C438.18 227.032 436.74 227.48 435.012 227.48C433.508 227.48 432.02 227.032 430.548 226.136C429.108 225.208 428.388 223.608 428.388 221.336C428.388 218.68 429.444 216.936 431.556 216.104C433.668 215.24 435.956 214.808 438.42 214.808C439.028 214.808 439.652 214.824 440.292 214.856C440.932 214.888 441.524 214.936 442.068 215V213.8C442.068 212.52 441.844 211.368 441.396 210.344C440.948 209.32 439.828 208.808 438.036 208.808C437.364 208.808 436.724 208.856 436.116 208.952C435.54 209.048 434.98 209.24 434.436 209.528L433.572 212.84L429.444 212.408L430.356 207.032ZM442.068 218.456V217.688C441.524 217.624 440.964 217.56 440.388 217.496C439.812 217.432 439.22 217.4 438.612 217.4C437.332 217.4 436.18 217.624 435.156 218.072C434.164 218.52 433.668 219.416 433.668 220.76C433.668 222.712 434.708 223.688 436.788 223.688C438.004 223.688 439.156 223.256 440.244 222.392C441.332 221.496 441.94 220.184 442.068 218.456ZM470.919 220.568C470.919 222.808 469.991 224.52 468.135 225.704C466.311 226.888 463.975 227.48 461.127 227.48C459.591 227.48 458.039 227.304 456.471 226.952C454.935 226.6 453.543 226.072 452.295 225.368L453.063 219.8L457.095 220.184L457.047 222.968C457.655 223.224 458.295 223.4 458.967 223.496C459.671 223.592 460.295 223.64 460.839 223.64C462.151 223.64 463.287 223.416 464.247 222.968C465.239 222.488 465.735 221.784 465.735 220.856C465.735 219.96 465.287 219.32 464.391 218.936C463.527 218.552 462.439 218.264 461.127 218.072C459.815 217.848 458.503 217.56 457.191 217.208C455.879 216.824 454.775 216.216 453.879 215.384C453.015 214.52 452.583 213.24 452.583 211.544C452.583 209.048 453.527 207.336 455.415 206.408C457.335 205.48 459.351 205.016 461.463 205.016C464.247 205.016 466.871 205.672 469.335 206.984L469.863 212.312L465.831 212.792L465.399 209.576C464.151 209.096 462.887 208.856 461.607 208.856C460.615 208.856 459.767 209.064 459.063 209.48C458.391 209.864 458.055 210.488 458.055 211.352C458.055 212.248 458.487 212.872 459.351 213.224C460.215 213.576 461.287 213.864 462.567 214.088C463.847 214.28 465.127 214.568 466.407 214.952C467.687 215.304 468.759 215.912 469.623 216.776C470.487 217.608 470.919 218.872 470.919 220.568ZM513.647 227H504.143V223.064H505.343V214.616C505.343 212.568 504.975 211.128 504.239 210.296C503.535 209.432 502.527 209 501.215 209C499.519 209 498.271 209.576 497.471 210.728C496.703 211.88 496.303 213.192 496.271 214.664V223.064H499.487V227H489.983V223.064H491.135V214.616C491.135 212.568 490.767 211.128 490.031 210.296C489.327 209.432 488.335 209 487.055 209C485.391 209 484.159 209.576 483.359 210.728C482.559 211.848 482.143 213.144 482.111 214.616V223.064H486.143V227H473.759V223.064H476.975V209.432H473.807V205.448H482.111V209C482.783 207.816 483.679 206.856 484.799 206.12C485.919 205.384 487.279 205.016 488.879 205.016C490.479 205.016 491.919 205.416 493.199 206.216C494.479 206.984 495.375 208.2 495.887 209.864C496.527 208.392 497.455 207.224 498.671 206.36C499.887 205.464 501.375 205.016 503.135 205.016C505.087 205.016 506.799 205.64 508.271 206.888C509.743 208.136 510.479 210.088 510.479 212.744V223.064H513.647V227ZM516.292 227V220.184H522.628V227H516.292ZM528.295 200.984V195.32H533.527V200.984H528.295ZM533.527 226.76C533.527 230.824 532.727 233.752 531.127 235.544C529.527 237.336 526.935 238.056 523.351 237.704L523.207 234.2C524.519 234.2 525.703 233.816 526.759 233.048C527.847 232.312 528.391 230.216 528.391 226.76V209.432H524.503V205.448H533.527V226.76ZM556.7 220.568C556.7 222.808 555.772 224.52 553.916 225.704C552.092 226.888 549.756 227.48 546.908 227.48C545.372 227.48 543.82 227.304 542.252 226.952C540.716 226.6 539.324 226.072 538.076 225.368L538.844 219.8L542.876 220.184L542.828 222.968C543.436 223.224 544.076 223.4 544.748 223.496C545.452 223.592 546.076 223.64 546.62 223.64C547.932 223.64 549.068 223.416 550.028 222.968C551.02 222.488 551.516 221.784 551.516 220.856C551.516 219.96 551.068 219.32 550.172 218.936C549.308 218.552 548.22 218.264 546.908 218.072C545.596 217.848 544.284 217.56 542.972 217.208C541.66 216.824 540.556 216.216 539.66 215.384C538.796 214.52 538.364 213.24 538.364 211.544C538.364 209.048 539.308 207.336 541.196 206.408C543.116 205.48 545.132 205.016 547.244 205.016C550.028 205.016 552.652 205.672 555.116 206.984L555.644 212.312L551.612 212.792L551.18 209.576C549.932 209.096 548.668 208.856 547.388 208.856C546.396 208.856 545.548 209.064 544.844 209.48C544.172 209.864 543.836 210.488 543.836 211.352C543.836 212.248 544.268 212.872 545.132 213.224C545.996 213.576 547.068 213.864 548.348 214.088C549.628 214.28 550.908 214.568 552.188 214.952C553.468 215.304 554.54 215.912 555.404 216.776C556.268 217.608 556.7 218.872 556.7 220.568Z" fill="white"/>
<path d="M219.617 217.073H96.6145L89 260.86L212.589 281.295M219.617 217.073C255.347 217.073 253.004 266.115 244.218 281.295C237.189 293.439 220.203 286.355 212.589 281.295M219.617 217.073C211.222 221.743 194.431 233.537 194.431 243.345C194.431 253.154 206.536 272.732 212.589 281.295M299.862 133L285.804 217.073L226.06 211.818L241.289 138.838M299.862 133L255.932 155.77C247.927 151.877 221.96 139.422 219.617 148.764C216.689 160.44 186.231 127.745 187.402 143.509C188.574 159.273 169.245 131.248 168.659 143.509C168.19 153.318 148.744 143.509 145.23 133L241.289 138.838M299.862 133L241.289 138.838M205.56 239.842L222.546 229.917L244.218 234.588L324.462 222.327L253.004 248.016V266.115L222.546 271.953L228.989 260.86L244.218 243.345L205.56 239.842ZM327.977 203.061C336.372 205.007 340.394 216.138 340.863 226.414C341.449 239.258 340.863 243.345 324.462 239.842C308.062 236.339 286.39 219.408 306.305 207.731L327.977 203.061ZM246.561 231.085L241.289 198.39L131.172 203.061L129.415 231.085H246.561ZM194.431 189.632C212.589 181.459 202.631 171.533 219.617 183.21C233.206 192.551 231.527 194.108 228.989 193.719C224.498 205.396 211.3 220.926 194.431 189.632Z" stroke="white" stroke-width="5"/>
<path d="M157.649 350.036V346.58H174.569V350.036H157.649ZM180.157 359C180.157 357.32 180.361 355.808 180.769 354.464C181.177 353.12 181.777 351.956 182.569 350.972C183.385 349.964 184.201 349.124 185.017 348.452C185.833 347.78 186.829 347.084 188.005 346.364C188.989 345.692 189.733 345.152 190.237 344.744C190.765 344.336 191.269 343.76 191.749 343.016C192.229 342.272 192.469 341.492 192.469 340.676C192.469 339.524 192.109 338.588 191.389 337.868C190.693 337.148 189.745 336.788 188.545 336.788C186.025 336.788 184.393 337.94 183.649 340.244L180.337 338.768C180.889 337.16 181.897 335.864 183.361 334.88C184.849 333.872 186.565 333.368 188.509 333.368C190.885 333.368 192.757 334.04 194.125 335.384C195.517 336.728 196.213 338.48 196.213 340.64C196.213 341.744 196.045 342.74 195.709 343.628C195.397 344.492 194.881 345.296 194.161 346.04C193.465 346.76 192.805 347.348 192.181 347.804C191.581 348.236 190.729 348.8 189.625 349.496C188.113 350.456 186.901 351.404 185.989 352.34C185.101 353.276 184.561 354.308 184.369 355.436H196.429V359H180.157ZM210.477 359.432C208.821 359.432 207.381 359.06 206.157 358.316C204.957 357.548 204.033 356.516 203.385 355.22C202.737 353.924 202.257 352.556 201.945 351.116C201.657 349.652 201.513 348.08 201.513 346.4C201.513 345.152 201.585 343.964 201.729 342.836C201.897 341.684 202.185 340.52 202.593 339.344C203.025 338.168 203.565 337.148 204.213 336.284C204.885 335.42 205.749 334.724 206.805 334.196C207.885 333.644 209.109 333.368 210.477 333.368C212.133 333.368 213.561 333.752 214.761 334.52C215.985 335.264 216.921 336.284 217.569 337.58C218.217 338.876 218.685 340.256 218.973 341.72C219.285 343.16 219.441 344.72 219.441 346.4C219.441 347.648 219.357 348.848 219.189 350C219.045 351.128 218.757 352.28 218.325 353.456C217.893 354.632 217.353 355.652 216.705 356.516C216.057 357.38 215.193 358.088 214.113 358.64C213.057 359.168 211.845 359.432 210.477 359.432ZM210.477 355.976C211.485 355.976 212.349 355.7 213.069 355.148C213.789 354.572 214.317 353.792 214.653 352.808C215.013 351.824 215.265 350.816 215.409 349.784C215.577 348.752 215.661 347.624 215.661 346.4C215.661 345.128 215.577 343.964 215.409 342.908C215.241 341.828 214.977 340.808 214.617 339.848C214.257 338.888 213.717 338.144 212.997 337.616C212.301 337.064 211.461 336.788 210.477 336.788C209.469 336.788 208.605 337.076 207.885 337.652C207.165 338.228 206.625 339.008 206.265 339.992C205.905 340.952 205.641 341.96 205.473 343.016C205.329 344.072 205.257 345.2 205.257 346.4C205.257 348.152 205.389 349.7 205.653 351.044C205.941 352.388 206.493 353.552 207.309 354.536C208.125 355.496 209.181 355.976 210.477 355.976ZM212.205 348.128C211.749 348.608 211.173 348.848 210.477 348.848C209.781 348.848 209.193 348.608 208.713 348.128C208.257 347.648 208.029 347.072 208.029 346.4C208.029 345.728 208.257 345.152 208.713 344.672C209.193 344.192 209.781 343.952 210.477 343.952C211.173 343.952 211.749 344.192 212.205 344.672C212.685 345.152 212.925 345.728 212.925 346.4C212.925 347.072 212.685 347.648 212.205 348.128ZM234.568 355.436H240.724V359H224.596V355.436H230.86V338.552L225.352 340.244V336.716L234.568 333.728V355.436ZM246.708 359C246.708 357.32 246.912 355.808 247.32 354.464C247.728 353.12 248.328 351.956 249.12 350.972C249.936 349.964 250.752 349.124 251.568 348.452C252.384 347.78 253.38 347.084 254.556 346.364C255.54 345.692 256.284 345.152 256.788 344.744C257.316 344.336 257.82 343.76 258.3 343.016C258.78 342.272 259.02 341.492 259.02 340.676C259.02 339.524 258.66 338.588 257.94 337.868C257.244 337.148 256.296 336.788 255.096 336.788C252.576 336.788 250.944 337.94 250.2 340.244L246.888 338.768C247.44 337.16 248.448 335.864 249.912 334.88C251.4 333.872 253.116 333.368 255.06 333.368C257.436 333.368 259.308 334.04 260.676 335.384C262.068 336.728 262.764 338.48 262.764 340.64C262.764 341.744 262.596 342.74 262.26 343.628C261.948 344.492 261.432 345.296 260.712 346.04C260.016 346.76 259.356 347.348 258.732 347.804C258.132 348.236 257.28 348.8 256.176 349.496C254.664 350.456 253.452 351.404 252.54 352.34C251.652 353.276 251.112 354.308 250.92 355.436H262.98V359H246.708ZM446.36 359C446.36 357.32 446.564 355.808 446.972 354.464C447.38 353.12 447.98 351.956 448.772 350.972C449.588 349.964 450.404 349.124 451.22 348.452C452.036 347.78 453.032 347.084 454.208 346.364C455.192 345.692 455.936 345.152 456.44 344.744C456.968 344.336 457.472 343.76 457.952 343.016C458.432 342.272 458.672 341.492 458.672 340.676C458.672 339.524 458.312 338.588 457.592 337.868C456.896 337.148 455.948 336.788 454.748 336.788C452.228 336.788 450.596 337.94 449.852 340.244L446.54 338.768C447.092 337.16 448.1 335.864 449.564 334.88C451.052 333.872 452.768 333.368 454.712 333.368C457.088 333.368 458.96 334.04 460.328 335.384C461.72 336.728 462.416 338.48 462.416 340.64C462.416 341.744 462.248 342.74 461.912 343.628C461.6 344.492 461.084 345.296 460.364 346.04C459.668 346.76 459.008 347.348 458.384 347.804C457.784 348.236 456.932 348.8 455.828 349.496C454.316 350.456 453.104 351.404 452.192 352.34C451.304 353.276 450.764 354.308 450.572 355.436H462.632V359H446.36ZM476.68 359.432C475.024 359.432 473.584 359.06 472.36 358.316C471.16 357.548 470.236 356.516 469.588 355.22C468.94 353.924 468.46 352.556 468.148 351.116C467.86 349.652 467.716 348.08 467.716 346.4C467.716 345.152 467.788 343.964 467.932 342.836C468.1 341.684 468.388 340.52 468.796 339.344C469.228 338.168 469.768 337.148 470.416 336.284C471.088 335.42 471.952 334.724 473.008 334.196C474.088 333.644 475.312 333.368 476.68 333.368C478.336 333.368 479.764 333.752 480.964 334.52C482.188 335.264 483.124 336.284 483.772 337.58C484.42 338.876 484.888 340.256 485.176 341.72C485.488 343.16 485.644 344.72 485.644 346.4C485.644 347.648 485.56 348.848 485.392 350C485.248 351.128 484.96 352.28 484.528 353.456C484.096 354.632 483.556 355.652 482.908 356.516C482.26 357.38 481.396 358.088 480.316 358.64C479.26 359.168 478.048 359.432 476.68 359.432ZM476.68 355.976C477.688 355.976 478.552 355.7 479.272 355.148C479.992 354.572 480.52 353.792 480.856 352.808C481.216 351.824 481.468 350.816 481.612 349.784C481.78 348.752 481.864 347.624 481.864 346.4C481.864 345.128 481.78 343.964 481.612 342.908C481.444 341.828 481.18 340.808 480.82 339.848C480.46 338.888 479.92 338.144 479.2 337.616C478.504 337.064 477.664 336.788 476.68 336.788C475.672 336.788 474.808 337.076 474.088 337.652C473.368 338.228 472.828 339.008 472.468 339.992C472.108 340.952 471.844 341.96 471.676 343.016C471.532 344.072 471.46 345.2 471.46 346.4C471.46 348.152 471.592 349.7 471.856 351.044C472.144 352.388 472.696 353.552 473.512 354.536C474.328 355.496 475.384 355.976 476.68 355.976ZM478.408 348.128C477.952 348.608 477.376 348.848 476.68 348.848C475.984 348.848 475.396 348.608 474.916 348.128C474.46 347.648 474.232 347.072 474.232 346.4C474.232 345.728 474.46 345.152 474.916 344.672C475.396 344.192 475.984 343.952 476.68 343.952C477.376 343.952 477.952 344.192 478.408 344.672C478.888 345.152 479.128 345.728 479.128 346.4C479.128 347.072 478.888 347.648 478.408 348.128ZM500.771 355.436H506.927V359H490.799V355.436H497.063V338.552L491.555 340.244V336.716L500.771 333.728V355.436ZM521.011 359.432C516.907 359.432 514.123 357.464 512.659 353.528L516.043 352.16C517.099 354.68 518.779 355.94 521.083 355.94C522.427 355.94 523.531 355.592 524.395 354.896C525.259 354.176 525.691 353.168 525.691 351.872C525.691 350.576 525.283 349.544 524.467 348.776C523.651 348.008 522.475 347.624 520.939 347.624H518.851V344.168H520.759C521.959 344.168 522.919 343.832 523.639 343.16C524.383 342.488 524.755 341.588 524.755 340.46C524.755 339.38 524.407 338.504 523.711 337.832C523.015 337.16 522.127 336.824 521.047 336.824C519.151 336.824 517.735 337.856 516.799 339.92L513.415 338.624C514.063 337.064 515.035 335.804 516.331 334.844C517.627 333.86 519.199 333.368 521.047 333.368C523.207 333.368 524.983 334.004 526.375 335.276C527.791 336.524 528.499 338.12 528.499 340.064C528.499 341.216 528.211 342.272 527.635 343.232C527.083 344.192 526.327 344.96 525.367 345.536C526.591 346.016 527.575 346.808 528.319 347.912C529.063 349.016 529.435 350.324 529.435 351.836C529.435 354.116 528.631 355.952 527.023 357.344C525.439 358.736 523.435 359.432 521.011 359.432ZM534.771 350.036V346.58H551.691V350.036H534.771ZM690.38 359C690.38 357.32 690.584 355.808 690.992 354.464C691.4 353.12 692 351.956 692.792 350.972C693.608 349.964 694.424 349.124 695.24 348.452C696.056 347.78 697.052 347.084 698.228 346.364C699.212 345.692 699.956 345.152 700.46 344.744C700.988 344.336 701.492 343.76 701.972 343.016C702.452 342.272 702.692 341.492 702.692 340.676C702.692 339.524 702.332 338.588 701.612 337.868C700.916 337.148 699.968 336.788 698.768 336.788C696.248 336.788 694.616 337.94 693.872 340.244L690.56 338.768C691.112 337.16 692.12 335.864 693.584 334.88C695.072 333.872 696.788 333.368 698.732 333.368C701.108 333.368 702.98 334.04 704.348 335.384C705.74 336.728 706.436 338.48 706.436 340.64C706.436 341.744 706.268 342.74 705.932 343.628C705.62 344.492 705.104 345.296 704.384 346.04C703.688 346.76 703.028 347.348 702.404 347.804C701.804 348.236 700.952 348.8 699.848 349.496C698.336 350.456 697.124 351.404 696.212 352.34C695.324 353.276 694.784 354.308 694.592 355.436H706.652V359H690.38ZM720.699 359.432C719.043 359.432 717.603 359.06 716.379 358.316C715.179 357.548 714.255 356.516 713.607 355.22C712.959 353.924 712.479 352.556 712.167 351.116C711.879 349.652 711.735 348.08 711.735 346.4C711.735 345.152 711.807 343.964 711.951 342.836C712.119 341.684 712.407 340.52 712.815 339.344C713.247 338.168 713.787 337.148 714.435 336.284C715.107 335.42 715.971 334.724 717.027 334.196C718.107 333.644 719.331 333.368 720.699 333.368C722.355 333.368 723.783 333.752 724.983 334.52C726.207 335.264 727.143 336.284 727.791 337.58C728.439 338.876 728.907 340.256 729.195 341.72C729.507 343.16 729.663 344.72 729.663 346.4C729.663 347.648 729.579 348.848 729.411 350C729.267 351.128 728.979 352.28 728.547 353.456C728.115 354.632 727.575 355.652 726.927 356.516C726.279 357.38 725.415 358.088 724.335 358.64C723.279 359.168 722.067 359.432 720.699 359.432ZM720.699 355.976C721.707 355.976 722.571 355.7 723.291 355.148C724.011 354.572 724.539 353.792 724.875 352.808C725.235 351.824 725.487 350.816 725.631 349.784C725.799 348.752 725.883 347.624 725.883 346.4C725.883 345.128 725.799 343.964 725.631 342.908C725.463 341.828 725.199 340.808 724.839 339.848C724.479 338.888 723.939 338.144 723.219 337.616C722.523 337.064 721.683 336.788 720.699 336.788C719.691 336.788 718.827 337.076 718.107 337.652C717.387 338.228 716.847 339.008 716.487 339.992C716.127 340.952 715.863 341.96 715.695 343.016C715.551 344.072 715.479 345.2 715.479 346.4C715.479 348.152 715.611 349.7 715.875 351.044C716.163 352.388 716.715 353.552 717.531 354.536C718.347 355.496 719.403 355.976 720.699 355.976ZM722.427 348.128C721.971 348.608 721.395 348.848 720.699 348.848C720.003 348.848 719.415 348.608 718.935 348.128C718.479 347.648 718.251 347.072 718.251 346.4C718.251 345.728 718.479 345.152 718.935 344.672C719.415 344.192 720.003 343.952 720.699 343.952C721.395 343.952 721.971 344.192 722.427 344.672C722.907 345.152 723.147 345.728 723.147 346.4C723.147 347.072 722.907 347.648 722.427 348.128ZM744.791 355.436H750.947V359H734.819V355.436H741.083V338.552L735.575 340.244V336.716L744.791 333.728V355.436ZM764.347 359.432C762.643 359.432 761.131 359.156 759.811 358.604C758.515 358.052 757.495 357.392 756.751 356.624L758.803 353.78C760.507 355.244 762.343 355.976 764.311 355.976C765.871 355.976 767.143 355.496 768.127 354.536C769.135 353.552 769.639 352.304 769.639 350.792C769.639 349.352 769.255 348.188 768.487 347.3C767.743 346.412 766.711 345.968 765.391 345.968C763.639 345.968 762.151 346.664 760.927 348.056L757.615 346.652L758.983 333.8H771.943V337.256H762.223L761.359 343.952C762.559 342.968 764.023 342.476 765.751 342.476C768.079 342.476 769.927 343.256 771.295 344.816C772.687 346.352 773.383 348.308 773.383 350.684C773.383 353.156 772.543 355.232 770.863 356.912C769.183 358.592 767.011 359.432 764.347 359.432ZM778.79 350.036V346.58H795.71V350.036H778.79Z" fill="white"/>
</svg>
