<svg width="960" height="440" viewBox="0 0 960 440" fill="none" xmlns="http://www.w3.org/2000/svg">
<path d="M565.621 364H352V279.517L403.897 227.621H409.097C413.565 225.542 420.157 224 428.034 224C435.912 224 439.933 225.542 440.937 227.621H461.115C465.582 225.542 472.174 224 480.052 224C487.929 224 491.95 225.542 492.954 227.621H512.89C517.358 225.542 523.95 224 531.828 224C539.705 224 543.726 225.542 544.73 227.621H564.908C569.375 225.542 575.967 224 583.845 224C591.722 224 595.743 225.542 596.747 227.621H617.517V312.069L565.621 364Z" fill="black"/>
<path d="M352 279.517H565.621M352 279.517L403.897 227.621H617.517M352 279.517V364H565.621M565.621 364V279.517M565.621 364L617.517 312.069V227.621M565.621 279.517L617.517 227.621M402.858 242.103C403.34 244.479 407.343 246.328 415.966 246.328C430.763 246.328 441.025 240.885 441.19 236.672M402.858 242.103C401.991 237.828 412.519 231.845 428.034 231.845C437.375 231.845 441.294 234.013 441.19 236.672M402.858 242.103V234.259M402.858 234.259C403.34 236.635 407.343 238.483 415.966 238.483C430.763 238.483 441.025 233.04 441.19 228.828M402.858 234.259C401.991 229.984 412.519 224 428.034 224C437.375 224 441.294 226.169 441.19 228.828M441.19 236.672V228.828M454.875 242.103C455.358 244.479 459.36 246.328 467.983 246.328C482.78 246.328 493.042 240.885 493.207 236.672M454.875 242.103C454.008 237.828 464.537 231.845 480.052 231.845C489.392 231.845 493.311 234.013 493.207 236.672M454.875 242.103V234.259M454.875 234.259C455.358 236.635 459.36 238.483 467.983 238.483C482.78 238.483 493.042 233.04 493.207 228.828M454.875 234.259C454.008 229.984 464.537 224 480.052 224C489.392 224 493.311 226.169 493.207 228.828M493.207 236.672V228.828M506.651 242.103C507.134 244.479 511.136 246.328 519.759 246.328C534.556 246.328 544.818 240.885 544.983 236.672M506.651 242.103C505.784 237.828 516.312 231.845 531.828 231.845C541.168 231.845 545.087 234.013 544.983 236.672M506.651 242.103V234.259M506.651 234.259C507.133 236.635 511.136 238.483 519.759 238.483C534.556 238.483 544.818 233.04 544.983 228.828M506.651 234.259C505.784 229.984 516.312 224 531.828 224C541.168 224 545.087 226.169 544.983 228.828M544.983 236.672V228.828M558.669 242.103C559.151 244.479 563.153 246.328 571.776 246.328C586.573 246.328 596.835 240.885 597 236.672M558.669 242.103C557.801 237.828 568.33 231.845 583.845 231.845C593.185 231.845 597.104 234.013 597 236.672M558.669 242.103V234.259M558.669 234.259C559.151 236.635 563.153 238.483 571.776 238.483C586.573 238.483 596.835 233.04 597 228.828M558.669 234.259C557.801 229.984 568.33 224 583.845 224C593.185 224 597.104 226.169 597 228.828M597 236.672V228.828M376.306 268.655C376.789 271.031 380.791 272.879 389.414 272.879C404.211 272.879 414.473 267.436 414.638 263.224M376.306 268.655C375.439 264.38 385.968 258.397 401.483 258.397C410.823 258.397 414.742 260.565 414.638 263.224M376.306 268.655V260.81M376.306 260.81C376.789 263.186 380.791 265.034 389.414 265.034C404.211 265.034 414.473 259.592 414.638 255.379M376.306 260.81C375.439 256.535 385.968 250.552 401.483 250.552C410.823 250.552 414.742 252.72 414.638 255.379M414.638 263.224V255.379M428.324 268.655C428.806 271.031 432.808 272.879 441.431 272.879C456.228 272.879 466.49 267.436 466.655 263.224M428.324 268.655C427.456 264.38 437.985 258.397 453.5 258.397C462.84 258.397 466.759 260.565 466.655 263.224M428.324 268.655V260.81M428.324 260.81C428.806 263.186 432.808 265.034 441.431 265.034C456.228 265.034 466.49 259.592 466.655 255.379M428.324 260.81C427.456 256.535 437.985 250.552 453.5 250.552C462.841 250.552 466.759 252.72 466.655 255.379M466.655 263.224V255.379M480.1 268.655C480.582 271.031 484.584 272.879 493.207 272.879C508.004 272.879 518.266 267.436 518.431 263.224M480.1 268.655C479.232 264.38 489.761 258.397 505.276 258.397C514.616 258.397 518.535 260.565 518.431 263.224M480.1 268.655V260.81M480.1 260.81C480.582 263.186 484.584 265.034 493.207 265.034C508.004 265.034 518.266 259.592 518.431 255.379M480.1 260.81C479.232 256.535 489.761 250.552 505.276 250.552C514.616 250.552 518.535 252.72 518.431 255.379M518.431 263.224V255.379M532.117 268.655C532.599 271.031 536.601 272.879 545.224 272.879C560.022 272.879 570.283 267.436 570.448 263.224M532.117 268.655C531.249 264.38 541.778 258.397 557.293 258.397C566.634 258.397 570.552 260.565 570.448 263.224M532.117 268.655V260.81M532.117 260.81C532.599 263.186 536.601 265.034 545.224 265.034C560.021 265.034 570.283 259.592 570.448 255.379M532.117 260.81C531.249 256.535 541.778 250.552 557.293 250.552C566.634 250.552 570.552 252.72 570.448 255.379M570.448 263.224V255.379" stroke="white" stroke-width="3"/>
<path d="M402.858 234.259C403.34 236.635 407.343 238.483 415.966 238.483C430.763 238.483 441.025 233.04 441.19 228.828C441.294 226.169 437.375 224 428.034 224C412.519 224 401.991 229.984 402.858 234.259Z" fill="black"/>
<path d="M454.875 234.259C455.358 236.635 459.36 238.483 467.983 238.483C482.78 238.483 493.042 233.04 493.207 228.828C493.311 226.169 489.392 224 480.052 224C464.537 224 454.008 229.984 454.875 234.259Z" fill="black"/>
<path d="M506.651 234.259C507.133 236.635 511.136 238.483 519.759 238.483C534.556 238.483 544.818 233.04 544.983 228.828C545.087 226.169 541.168 224 531.828 224C516.312 224 505.784 229.984 506.651 234.259Z" fill="black"/>
<path d="M558.669 234.259C559.151 236.635 563.153 238.483 571.776 238.483C586.573 238.483 596.835 233.04 597 228.828C597.104 226.169 593.185 224 583.845 224C568.33 224 557.801 229.984 558.669 234.259Z" fill="black"/>
<path d="M376.306 260.81C376.789 263.186 380.791 265.034 389.414 265.034C404.211 265.034 414.473 259.592 414.638 255.379C414.742 252.72 410.823 250.552 401.483 250.552C385.968 250.552 375.439 256.535 376.306 260.81Z" fill="black"/>
<path d="M428.324 260.81C428.806 263.186 432.808 265.034 441.431 265.034C456.228 265.034 466.49 259.592 466.655 255.379C466.759 252.72 462.841 250.552 453.5 250.552C437.985 250.552 427.456 256.535 428.324 260.81Z" fill="black"/>
<path d="M480.1 260.81C480.582 263.186 484.584 265.034 493.207 265.034C508.004 265.034 518.266 259.592 518.431 255.379C518.535 252.72 514.616 250.552 505.276 250.552C489.761 250.552 479.232 256.535 480.1 260.81Z" fill="black"/>
<path d="M532.117 260.81C532.599 263.186 536.601 265.034 545.224 265.034C560.021 265.034 570.283 259.592 570.448 255.379C570.552 252.72 566.634 250.552 557.293 250.552C541.778 250.552 531.249 256.535 532.117 260.81Z" fill="black"/>
<path d="M402.858 234.259C403.34 236.635 407.343 238.483 415.966 238.483C430.763 238.483 441.025 233.04 441.19 228.828C441.294 226.169 437.375 224 428.034 224C412.519 224 401.991 229.984 402.858 234.259Z" stroke="white" stroke-width="3"/>
<path d="M454.875 234.259C455.358 236.635 459.36 238.483 467.983 238.483C482.78 238.483 493.042 233.04 493.207 228.828C493.311 226.169 489.392 224 480.052 224C464.537 224 454.008 229.984 454.875 234.259Z" stroke="white" stroke-width="3"/>
<path d="M506.651 234.259C507.133 236.635 511.136 238.483 519.759 238.483C534.556 238.483 544.818 233.04 544.983 228.828C545.087 226.169 541.168 224 531.828 224C516.312 224 505.784 229.984 506.651 234.259Z" stroke="white" stroke-width="3"/>
<path d="M558.669 234.259C559.151 236.635 563.153 238.483 571.776 238.483C586.573 238.483 596.835 233.04 597 228.828C597.104 226.169 593.185 224 583.845 224C568.33 224 557.801 229.984 558.669 234.259Z" stroke="white" stroke-width="3"/>
<path d="M376.306 260.81C376.789 263.186 380.791 265.034 389.414 265.034C404.211 265.034 414.473 259.592 414.638 255.379C414.742 252.72 410.823 250.552 401.483 250.552C385.968 250.552 375.439 256.535 376.306 260.81Z" stroke="white" stroke-width="3"/>
<path d="M428.324 260.81C428.806 263.186 432.808 265.034 441.431 265.034C456.228 265.034 466.49 259.592 466.655 255.379C466.759 252.72 462.841 250.552 453.5 250.552C437.985 250.552 427.456 256.535 428.324 260.81Z" stroke="white" stroke-width="3"/>
<path d="M480.1 260.81C480.582 263.186 484.584 265.034 493.207 265.034C508.004 265.034 518.266 259.592 518.431 255.379C518.535 252.72 514.616 250.552 505.276 250.552C489.761 250.552 479.232 256.535 480.1 260.81Z" stroke="white" stroke-width="3"/>
<path d="M532.117 260.81C532.599 263.186 536.601 265.034 545.224 265.034C560.021 265.034 570.283 259.592 570.448 255.379C570.552 252.72 566.634 250.552 557.293 250.552C541.778 250.552 531.249 256.535 532.117 260.81Z" stroke="white" stroke-width="3"/>
<path d="M565.621 279H352V194.517L403.897 142.621H409.097C413.565 140.542 420.157 139 428.034 139C435.912 139 439.933 140.542 440.937 142.621H461.115C465.582 140.542 472.174 139 480.052 139C487.929 139 491.95 140.542 492.954 142.621H512.89C517.358 140.542 523.95 139 531.828 139C539.705 139 543.726 140.542 544.73 142.621H564.908C569.375 140.542 575.967 139 583.845 139C591.722 139 595.743 140.542 596.747 142.621H617.517V227.069L565.621 279Z" fill="black"/>
<path d="M352 194.517H565.621M352 194.517L403.897 142.621H617.517M352 194.517V279H565.621M565.621 279V194.517M565.621 279L617.517 227.069V142.621M565.621 194.517L617.517 142.621M402.858 157.103C403.34 159.479 407.343 161.328 415.966 161.328C430.763 161.328 441.025 155.885 441.19 151.672M402.858 157.103C401.991 152.828 412.519 146.845 428.034 146.845C437.375 146.845 441.294 149.013 441.19 151.672M402.858 157.103V149.259M402.858 149.259C403.34 151.635 407.343 153.483 415.966 153.483C430.763 153.483 441.025 148.04 441.19 143.828M402.858 149.259C401.991 144.984 412.519 139 428.034 139C437.375 139 441.294 141.169 441.19 143.828M441.19 151.672V143.828M454.875 157.103C455.358 159.479 459.36 161.328 467.983 161.328C482.78 161.328 493.042 155.885 493.207 151.672M454.875 157.103C454.008 152.828 464.537 146.845 480.052 146.845C489.392 146.845 493.311 149.013 493.207 151.672M454.875 157.103V149.259M454.875 149.259C455.358 151.635 459.36 153.483 467.983 153.483C482.78 153.483 493.042 148.04 493.207 143.828M454.875 149.259C454.008 144.984 464.537 139 480.052 139C489.392 139 493.311 141.169 493.207 143.828M493.207 151.672V143.828M506.651 157.103C507.134 159.479 511.136 161.328 519.759 161.328C534.556 161.328 544.818 155.885 544.983 151.672M506.651 157.103C505.784 152.828 516.312 146.845 531.828 146.845C541.168 146.845 545.087 149.013 544.983 151.672M506.651 157.103V149.259M506.651 149.259C507.133 151.635 511.136 153.483 519.759 153.483C534.556 153.483 544.818 148.04 544.983 143.828M506.651 149.259C505.784 144.984 516.312 139 531.828 139C541.168 139 545.087 141.169 544.983 143.828M544.983 151.672V143.828M558.669 157.103C559.151 159.479 563.153 161.328 571.776 161.328C586.573 161.328 596.835 155.885 597 151.672M558.669 157.103C557.801 152.828 568.33 146.845 583.845 146.845C593.185 146.845 597.104 149.013 597 151.672M558.669 157.103V149.259M558.669 149.259C559.151 151.635 563.153 153.483 571.776 153.483C586.573 153.483 596.835 148.04 597 143.828M558.669 149.259C557.801 144.984 568.33 139 583.845 139C593.185 139 597.104 141.169 597 143.828M597 151.672V143.828M376.306 183.655C376.789 186.031 380.791 187.879 389.414 187.879C404.211 187.879 414.473 182.436 414.638 178.224M376.306 183.655C375.439 179.38 385.968 173.397 401.483 173.397C410.823 173.397 414.742 175.565 414.638 178.224M376.306 183.655V175.81M376.306 175.81C376.789 178.186 380.791 180.034 389.414 180.034C404.211 180.034 414.473 174.592 414.638 170.379M376.306 175.81C375.439 171.535 385.968 165.552 401.483 165.552C410.823 165.552 414.742 167.72 414.638 170.379M414.638 178.224V170.379M428.324 183.655C428.806 186.031 432.808 187.879 441.431 187.879C456.228 187.879 466.49 182.436 466.655 178.224M428.324 183.655C427.456 179.38 437.985 173.397 453.5 173.397C462.84 173.397 466.759 175.565 466.655 178.224M428.324 183.655V175.81M428.324 175.81C428.806 178.186 432.808 180.034 441.431 180.034C456.228 180.034 466.49 174.592 466.655 170.379M428.324 175.81C427.456 171.535 437.985 165.552 453.5 165.552C462.841 165.552 466.759 167.72 466.655 170.379M466.655 178.224V170.379M480.1 183.655C480.582 186.031 484.584 187.879 493.207 187.879C508.004 187.879 518.266 182.436 518.431 178.224M480.1 183.655C479.232 179.38 489.761 173.397 505.276 173.397C514.616 173.397 518.535 175.565 518.431 178.224M480.1 183.655V175.81M480.1 175.81C480.582 178.186 484.584 180.034 493.207 180.034C508.004 180.034 518.266 174.592 518.431 170.379M480.1 175.81C479.232 171.535 489.761 165.552 505.276 165.552C514.616 165.552 518.535 167.72 518.431 170.379M518.431 178.224V170.379M532.117 183.655C532.599 186.031 536.601 187.879 545.224 187.879C560.022 187.879 570.283 182.436 570.448 178.224M532.117 183.655C531.249 179.38 541.778 173.397 557.293 173.397C566.634 173.397 570.552 175.565 570.448 178.224M532.117 183.655V175.81M532.117 175.81C532.599 178.186 536.601 180.034 545.224 180.034C560.021 180.034 570.283 174.592 570.448 170.379M532.117 175.81C531.249 171.535 541.778 165.552 557.293 165.552C566.634 165.552 570.552 167.72 570.448 170.379M570.448 178.224V170.379" stroke="white" stroke-width="3"/>
<path d="M402.858 149.259C403.34 151.635 407.343 153.483 415.966 153.483C430.763 153.483 441.025 148.04 441.19 143.828C441.294 141.169 437.375 139 428.034 139C412.519 139 401.991 144.984 402.858 149.259Z" fill="black"/>
<path d="M454.875 149.259C455.358 151.635 459.36 153.483 467.983 153.483C482.78 153.483 493.042 148.04 493.207 143.828C493.311 141.169 489.392 139 480.052 139C464.537 139 454.008 144.984 454.875 149.259Z" fill="black"/>
<path d="M506.651 149.259C507.133 151.635 511.136 153.483 519.759 153.483C534.556 153.483 544.818 148.04 544.983 143.828C545.087 141.169 541.168 139 531.828 139C516.312 139 505.784 144.984 506.651 149.259Z" fill="black"/>
<path d="M558.669 149.259C559.151 151.635 563.153 153.483 571.776 153.483C586.573 153.483 596.835 148.04 597 143.828C597.104 141.169 593.185 139 583.845 139C568.33 139 557.801 144.984 558.669 149.259Z" fill="black"/>
<path d="M376.306 175.81C376.789 178.186 380.791 180.034 389.414 180.034C404.211 180.034 414.473 174.592 414.638 170.379C414.742 167.72 410.823 165.552 401.483 165.552C385.968 165.552 375.439 171.535 376.306 175.81Z" fill="black"/>
<path d="M428.324 175.81C428.806 178.186 432.808 180.034 441.431 180.034C456.228 180.034 466.49 174.592 466.655 170.379C466.759 167.72 462.841 165.552 453.5 165.552C437.985 165.552 427.456 171.535 428.324 175.81Z" fill="black"/>
<path d="M480.1 175.81C480.582 178.186 484.584 180.034 493.207 180.034C508.004 180.034 518.266 174.592 518.431 170.379C518.535 167.72 514.616 165.552 505.276 165.552C489.761 165.552 479.232 171.535 480.1 175.81Z" fill="black"/>
<path d="M532.117 175.81C532.599 178.186 536.601 180.034 545.224 180.034C560.021 180.034 570.283 174.592 570.448 170.379C570.552 167.72 566.634 165.552 557.293 165.552C541.778 165.552 531.249 171.535 532.117 175.81Z" fill="black"/>
<path d="M402.858 149.259C403.34 151.635 407.343 153.483 415.966 153.483C430.763 153.483 441.025 148.04 441.19 143.828C441.294 141.169 437.375 139 428.034 139C412.519 139 401.991 144.984 402.858 149.259Z" stroke="white" stroke-width="3"/>
<path d="M454.875 149.259C455.358 151.635 459.36 153.483 467.983 153.483C482.78 153.483 493.042 148.04 493.207 143.828C493.311 141.169 489.392 139 480.052 139C464.537 139 454.008 144.984 454.875 149.259Z" stroke="white" stroke-width="3"/>
<path d="M506.651 149.259C507.133 151.635 511.136 153.483 519.759 153.483C534.556 153.483 544.818 148.04 544.983 143.828C545.087 141.169 541.168 139 531.828 139C516.312 139 505.784 144.984 506.651 149.259Z" stroke="white" stroke-width="3"/>
<path d="M558.669 149.259C559.151 151.635 563.153 153.483 571.776 153.483C586.573 153.483 596.835 148.04 597 143.828C597.104 141.169 593.185 139 583.845 139C568.33 139 557.801 144.984 558.669 149.259Z" stroke="white" stroke-width="3"/>
<path d="M376.306 175.81C376.789 178.186 380.791 180.034 389.414 180.034C404.211 180.034 414.473 174.592 414.638 170.379C414.742 167.72 410.823 165.552 401.483 165.552C385.968 165.552 375.439 171.535 376.306 175.81Z" stroke="white" stroke-width="3"/>
<path d="M428.324 175.81C428.806 178.186 432.808 180.034 441.431 180.034C456.228 180.034 466.49 174.592 466.655 170.379C466.759 167.72 462.841 165.552 453.5 165.552C437.985 165.552 427.456 171.535 428.324 175.81Z" stroke="white" stroke-width="3"/>
<path d="M480.1 175.81C480.582 178.186 484.584 180.034 493.207 180.034C508.004 180.034 518.266 174.592 518.431 170.379C518.535 167.72 514.616 165.552 505.276 165.552C489.761 165.552 479.232 171.535 480.1 175.81Z" stroke="white" stroke-width="3"/>
<path d="M532.117 175.81C532.599 178.186 536.601 180.034 545.224 180.034C560.021 180.034 570.283 174.592 570.448 170.379C570.552 167.72 566.634 165.552 557.293 165.552C541.778 165.552 531.249 171.535 532.117 175.81Z" stroke="white" stroke-width="3"/>
<path d="M513.621 192H408V107.517L428.64 86.8769C429.173 85.8043 430.272 84.6993 431.858 83.6588L455.192 60.3252C455.724 59.2526 456.824 58.1476 458.41 57.1071L459.897 55.6207H461.115C465.582 53.5425 472.174 52 480.052 52C487.929 52 491.95 53.5425 492.954 55.6207H512.89C517.358 53.5425 523.95 52 531.828 52C539.705 52 543.726 53.5425 544.73 55.6207H565.517V140.069L513.621 192Z" fill="black"/>
<path d="M408 107.517H513.621M408 107.517L459.897 55.6207H565.517M408 107.517V192H513.621M513.621 192V107.517M513.621 192L565.517 140.069V55.6207M513.621 107.517L565.517 55.6207M454.875 70.1034C455.358 72.4794 459.36 74.3276 467.983 74.3276C482.78 74.3276 493.042 68.8848 493.207 64.6724M454.875 70.1034C454.008 65.8284 464.537 59.8448 480.052 59.8448C489.392 59.8448 493.311 62.0135 493.207 64.6724M454.875 70.1034V62.2586M454.875 62.2586C455.358 64.6346 459.36 66.4828 467.983 66.4828C482.78 66.4828 493.042 61.04 493.207 56.8277M454.875 62.2586C454.008 57.9836 464.537 52 480.052 52C489.392 52 493.311 54.1687 493.207 56.8277M493.207 64.6724V56.8277M506.651 70.1034C507.134 72.4794 511.136 74.3276 519.759 74.3276C534.556 74.3276 544.818 68.8848 544.983 64.6724M506.651 70.1034C505.784 65.8284 516.312 59.8448 531.828 59.8448C541.168 59.8448 545.087 62.0135 544.983 64.6724M506.651 70.1034V62.2586M506.651 62.2586C507.134 64.6346 511.136 66.4828 519.759 66.4828C534.556 66.4828 544.818 61.04 544.983 56.8277M506.651 62.2586C505.784 57.9836 516.312 52 531.828 52C541.168 52 545.087 54.1687 544.983 56.8277M544.983 64.6724V56.8277M428.324 96.6552C428.806 99.0311 432.808 100.879 441.431 100.879C456.228 100.879 466.49 95.4365 466.655 91.2241M428.324 96.6552C427.456 92.3801 437.985 86.3966 453.5 86.3966C462.84 86.3966 466.759 88.5652 466.655 91.2241M428.324 96.6552V88.8103M428.324 88.8103C428.806 91.1863 432.808 93.0345 441.431 93.0345C456.228 93.0345 466.49 87.5917 466.655 83.3794M428.324 88.8103C427.456 84.5353 437.985 78.5517 453.5 78.5517C462.841 78.5517 466.759 80.7204 466.655 83.3794M466.655 91.2241V83.3794M480.1 96.6552C480.582 99.0311 484.584 100.879 493.207 100.879C508.004 100.879 518.266 95.4365 518.431 91.2241M480.1 96.6552C479.232 92.3801 489.761 86.3966 505.276 86.3966C514.616 86.3966 518.535 88.5652 518.431 91.2241M480.1 96.6552V88.8103M480.1 88.8103C480.582 91.1863 484.584 93.0345 493.207 93.0345C508.004 93.0345 518.266 87.5917 518.431 83.3794M480.1 88.8103C479.232 84.5353 489.761 78.5517 505.276 78.5517C514.616 78.5517 518.535 80.7204 518.431 83.3794M518.431 91.2241V83.3794" stroke="white" stroke-width="3"/>
<path d="M454.875 62.2586C455.358 64.6346 459.36 66.4828 467.983 66.4828C482.78 66.4828 493.042 61.04 493.207 56.8277C493.311 54.1687 489.392 52 480.052 52C464.537 52 454.008 57.9836 454.875 62.2586Z" fill="black"/>
<path d="M506.651 62.2586C507.133 64.6346 511.136 66.4828 519.759 66.4828C534.556 66.4828 544.818 61.04 544.983 56.8277C545.087 54.1687 541.168 52 531.828 52C516.312 52 505.784 57.9836 506.651 62.2586Z" fill="black"/>
<path d="M428.324 88.8103C428.806 91.1863 432.808 93.0345 441.431 93.0345C456.228 93.0345 466.49 87.5917 466.655 83.3794C466.759 80.7204 462.841 78.5517 453.5 78.5517C437.985 78.5517 427.456 84.5353 428.324 88.8103Z" fill="black"/>
<path d="M480.1 88.8103C480.582 91.1863 484.584 93.0345 493.207 93.0345C508.004 93.0345 518.266 87.5917 518.431 83.3794C518.535 80.7204 514.616 78.5517 505.276 78.5517C489.761 78.5517 479.232 84.5353 480.1 88.8103Z" fill="black"/>
<path d="M454.875 62.2586C455.358 64.6346 459.36 66.4828 467.983 66.4828C482.78 66.4828 493.042 61.04 493.207 56.8277C493.311 54.1687 489.392 52 480.052 52C464.537 52 454.008 57.9836 454.875 62.2586Z" stroke="white" stroke-width="3"/>
<path d="M506.651 62.2586C507.133 64.6346 511.136 66.4828 519.759 66.4828C534.556 66.4828 544.818 61.04 544.983 56.8277C545.087 54.1687 541.168 52 531.828 52C516.312 52 505.784 57.9836 506.651 62.2586Z" stroke="white" stroke-width="3"/>
<path d="M428.324 88.8103C428.806 91.1863 432.808 93.0345 441.431 93.0345C456.228 93.0345 466.49 87.5917 466.655 83.3794C466.759 80.7204 462.841 78.5517 453.5 78.5517C437.985 78.5517 427.456 84.5353 428.324 88.8103Z" stroke="white" stroke-width="3"/>
<path d="M480.1 88.8103C480.582 91.1863 484.584 93.0345 493.207 93.0345C508.004 93.0345 518.266 87.5917 518.431 83.3794C518.535 80.7204 514.616 78.5517 505.276 78.5517C489.761 78.5517 479.232 84.5353 480.1 88.8103Z" stroke="white" stroke-width="3"/>
<path d="M485 213H437V261H485V213Z" fill="white"/>
<path d="M469.244 250.5C470.211 252.079 471.469 253.239 473.693 253.239C475.562 253.239 476.756 252.305 476.756 251.014C476.756 249.468 475.53 248.92 473.472 248.02L472.345 247.536C469.09 246.15 466.928 244.413 466.928 240.74C466.928 237.357 469.505 234.782 473.533 234.782C476.401 234.782 478.463 235.78 479.949 238.394L476.436 240.649C475.663 239.262 474.829 238.716 473.533 238.716C472.212 238.716 471.375 239.554 471.375 240.649C471.375 242.002 472.213 242.55 474.148 243.388L475.276 243.871C479.108 245.514 481.272 247.19 481.272 250.957C481.272 255.018 478.082 257.242 473.798 257.242C469.609 257.242 466.902 255.246 465.578 252.63L469.244 250.5ZM453.31 250.891C454.019 252.148 454.663 253.211 456.213 253.211C457.695 253.211 458.63 252.631 458.63 250.377V235.04H463.14V250.438C463.14 255.108 460.402 257.234 456.405 257.234C452.794 257.234 450.702 255.365 449.638 253.114L453.31 250.891Z" fill="black"/>
<path d="M467.126 128.243V128H486.093V173H436.907V128H455.846V128.243C455.846 129.611 456.441 130.923 457.498 131.891C458.556 132.859 459.991 133.402 461.486 133.402C462.982 133.402 464.417 132.859 465.474 131.891C466.532 130.923 467.126 129.611 467.126 128.243Z" fill="white"/>
<path d="M460.38 168.183L457.985 157.341H457.944L455.353 168.183H452.053L448.315 152.252H451.573L453.804 163.094H453.845L456.532 152.252H459.58L461.994 163.228H462.035L464.58 152.252H467.78L463.625 168.183H460.38Z" fill="black"/>
<path fill-rule="evenodd" clip-rule="evenodd" d="M478.323 168.183L477.213 164.637H471.349L470.494 168.183H467.236L471.45 152.252H476.591L481.715 168.183H478.323ZM471.989 162.024L473.41 156.178H474.781L476.413 162.024H471.989Z" fill="black"/>
<path d="M398.953 301.812V298.266H412.203V301.844C412.203 302.208 412.073 302.521 411.812 302.781C411.552 303.031 411.245 303.156 410.891 303.156C410.526 303.156 410.208 303.026 409.938 302.766C409.677 302.505 409.547 302.198 409.547 301.844V300.891H406.891V317.688C406.891 318.052 406.76 318.365 406.5 318.625C406.24 318.875 405.932 319 405.578 319C405.203 319 404.885 318.875 404.625 318.625C404.365 318.365 404.234 318.052 404.234 317.688V300.891H401.578V301.812C401.578 302.177 401.448 302.49 401.188 302.75C400.938 303 400.63 303.125 400.266 303.125C399.901 303.125 399.589 303 399.328 302.75C399.078 302.49 398.953 302.177 398.953 301.812ZM414.578 317.688V299.547C414.578 299.193 414.703 298.885 414.953 298.625C415.214 298.365 415.526 298.234 415.891 298.234C416.245 298.234 416.552 298.365 416.812 298.625C417.073 298.885 417.203 299.193 417.203 299.547V307.281H425.203V299.547C425.203 299.193 425.328 298.885 425.578 298.625C425.839 298.365 426.151 298.234 426.516 298.234C426.88 298.234 427.188 298.365 427.438 298.625C427.698 298.885 427.828 299.203 427.828 299.578V317.688C427.828 318.042 427.693 318.349 427.422 318.609C427.161 318.87 426.859 319 426.516 319C426.141 319 425.828 318.875 425.578 318.625C425.328 318.365 425.203 318.052 425.203 317.688V309.906H417.234V317.688C417.234 318.042 417.099 318.349 416.828 318.609C416.568 318.87 416.255 319 415.891 319C415.536 319 415.229 318.875 414.969 318.625C414.708 318.365 414.578 318.052 414.578 317.688ZM442.109 300.891H432.828V307.281H436.828C437.182 307.281 437.49 307.411 437.75 307.672C438.01 307.932 438.141 308.24 438.141 308.594C438.141 308.969 438.01 309.286 437.75 309.547C437.5 309.807 437.193 309.938 436.828 309.938H432.828V316.375H442.141C442.495 316.375 442.802 316.505 443.062 316.766C443.323 317.016 443.453 317.323 443.453 317.688C443.453 318.052 443.318 318.365 443.047 318.625C442.786 318.875 442.474 319 442.109 319H430.203V298.234H442.109C442.474 298.234 442.786 298.37 443.047 298.641C443.318 298.901 443.453 299.214 443.453 299.578C443.453 299.932 443.318 300.24 443.047 300.5C442.786 300.76 442.474 300.891 442.109 300.891ZM443.438 301.812C443.438 302.177 443.312 302.49 443.062 302.75C442.812 303 442.5 303.125 442.125 303.125C441.76 303.125 441.453 303 441.203 302.75C440.953 302.49 440.828 302.177 440.828 301.812V299.578C440.828 299.214 440.953 298.906 441.203 298.656C441.453 298.396 441.76 298.266 442.125 298.266C442.5 298.266 442.812 298.396 443.062 298.656C443.312 298.906 443.438 299.214 443.438 299.578V301.812ZM443.438 317.656C443.438 318.021 443.312 318.333 443.062 318.594C442.812 318.844 442.5 318.969 442.125 318.969C441.76 318.969 441.453 318.844 441.203 318.594C440.953 318.333 440.828 318.021 440.828 317.656V315.422C440.828 315.057 440.953 314.75 441.203 314.5C441.453 314.24 441.76 314.109 442.125 314.109C442.5 314.109 442.812 314.24 443.062 314.5C443.312 314.75 443.438 315.057 443.438 315.422V317.656ZM480.391 314.516C481.745 305.974 482.547 301.573 482.797 301.312C483.057 301.052 483.37 300.922 483.734 300.922C484.089 300.922 484.396 301.052 484.656 301.312C484.917 301.573 485.651 306.016 486.859 314.641L487.703 299.547C487.703 299.193 487.833 298.885 488.094 298.625C488.354 298.365 488.661 298.234 489.016 298.234C489.38 298.234 489.693 298.365 489.953 298.625C490.224 298.875 490.359 299.182 490.359 299.547L488.734 317.922C488.734 318.641 488.406 319 487.75 319H486.531C486.052 319 485.724 318.74 485.547 318.219L483.703 308.062L481.703 318.219C481.495 318.74 481.167 319 480.719 319H479.266C478.641 319 478.328 318.651 478.328 317.953L477.078 299.547C477.078 299.193 477.203 298.885 477.453 298.625C477.714 298.365 478.026 298.234 478.391 298.234C478.755 298.234 479.062 298.365 479.312 298.625C479.573 298.875 479.703 299.182 479.703 299.547L480.391 314.516ZM504.609 300.891H495.328V307.281H499.328C499.682 307.281 499.99 307.411 500.25 307.672C500.51 307.932 500.641 308.24 500.641 308.594C500.641 308.969 500.51 309.286 500.25 309.547C500 309.807 499.693 309.938 499.328 309.938H495.328V316.375H504.641C504.995 316.375 505.302 316.505 505.562 316.766C505.823 317.016 505.953 317.323 505.953 317.688C505.953 318.052 505.818 318.365 505.547 318.625C505.286 318.875 504.974 319 504.609 319H492.703V298.234H504.609C504.974 298.234 505.286 298.37 505.547 298.641C505.818 298.901 505.953 299.214 505.953 299.578C505.953 299.932 505.818 300.24 505.547 300.5C505.286 300.76 504.974 300.891 504.609 300.891ZM505.938 301.812C505.938 302.177 505.812 302.49 505.562 302.75C505.312 303 505 303.125 504.625 303.125C504.26 303.125 503.953 303 503.703 302.75C503.453 302.49 503.328 302.177 503.328 301.812V299.578C503.328 299.214 503.453 298.906 503.703 298.656C503.953 298.396 504.26 298.266 504.625 298.266C505 298.266 505.312 298.396 505.562 298.656C505.812 298.906 505.938 299.214 505.938 299.578V301.812ZM505.938 317.656C505.938 318.021 505.812 318.333 505.562 318.594C505.312 318.844 505 318.969 504.625 318.969C504.26 318.969 503.953 318.844 503.703 318.594C503.453 318.333 503.328 318.021 503.328 317.656V315.422C503.328 315.057 503.453 314.75 503.703 314.5C503.953 314.24 504.26 314.109 504.625 314.109C505 314.109 505.312 314.24 505.562 314.5C505.812 314.75 505.938 315.057 505.938 315.422V317.656ZM521.609 312.562V313.719C521.609 315.167 521.094 316.411 520.062 317.453C519.042 318.484 517.807 319 516.359 319H508.328V298.234H516.359C517.807 298.234 519.042 298.75 520.062 299.781C521.094 300.812 521.609 302.057 521.609 303.516V304.625C521.609 306.177 521.01 307.5 519.812 308.594C521.01 309.708 521.609 311.031 521.609 312.562ZM518.922 304.594V303.516C518.922 302.786 518.661 302.161 518.141 301.641C517.63 301.12 517.016 300.859 516.297 300.859H510.953V307.219H516.297C517.005 307.219 517.62 306.964 518.141 306.453C518.661 305.932 518.922 305.312 518.922 304.594ZM518.922 313.719V312.625C518.922 311.896 518.661 311.271 518.141 310.75C517.63 310.229 517.016 309.969 516.297 309.969H510.984V316.344H516.297C517.005 316.344 517.62 316.089 518.141 315.578C518.661 315.057 518.922 314.438 518.922 313.719ZM398.953 345.688V326.234H408.266C409.339 326.234 410.26 326.625 411.031 327.406C411.812 328.188 412.203 329.12 412.203 330.203V335.125C412.203 336.208 411.818 337.135 411.047 337.906C410.276 338.677 409.349 339.062 408.266 339.062H401.609V345.688C401.609 346.052 401.479 346.365 401.219 346.625C400.969 346.875 400.661 347 400.297 347C399.922 347 399.604 346.875 399.344 346.625C399.083 346.365 398.953 346.052 398.953 345.688ZM401.609 336.438H408.266C408.62 336.438 408.927 336.312 409.188 336.062C409.448 335.802 409.578 335.49 409.578 335.125V330.203C409.578 329.839 409.448 329.531 409.188 329.281C408.927 329.021 408.62 328.891 408.266 328.891H401.609V336.438ZM414.578 347V327.547C414.578 327.193 414.708 326.885 414.969 326.625C415.229 326.365 415.536 326.234 415.891 326.234C416.245 326.234 416.552 326.365 416.812 326.625C417.073 326.885 417.203 327.193 417.203 327.547V344.375H426.484C426.849 344.375 427.161 344.505 427.422 344.766C427.693 345.016 427.828 345.323 427.828 345.688C427.828 346.052 427.693 346.365 427.422 346.625C427.161 346.875 426.849 347 426.484 347H414.578ZM427.938 345.656C427.938 346.021 427.812 346.333 427.562 346.594C427.312 346.844 427 346.969 426.625 346.969C426.26 346.969 425.953 346.844 425.703 346.594C425.453 346.333 425.328 346.021 425.328 345.656V343.422C425.328 343.057 425.453 342.75 425.703 342.5C425.953 342.24 426.26 342.109 426.625 342.109C427 342.109 427.312 342.24 427.562 342.5C427.812 342.75 427.938 343.057 427.938 343.422V345.656ZM430.281 345.172L435.594 327.219C435.802 326.562 436.24 326.234 436.906 326.234C437.552 326.234 437.958 326.51 438.125 327.062L443.359 345.297C443.401 345.432 443.422 345.562 443.422 345.688C443.422 346.052 443.297 346.365 443.047 346.625C442.797 346.875 442.51 347 442.188 347C441.5 347 441.062 346.682 440.875 346.047L439.812 342.484H433.828L432.672 346.297C432.641 346.464 432.51 346.625 432.281 346.781C432.052 346.927 431.802 347 431.531 347C431.146 347 430.828 346.87 430.578 346.609C430.328 346.349 430.203 346.031 430.203 345.656C430.203 345.5 430.229 345.339 430.281 345.172ZM436.875 332.312L434.625 339.828H439.047L436.875 332.312ZM445.828 329.812V326.266H459.078V329.844C459.078 330.208 458.948 330.521 458.688 330.781C458.427 331.031 458.12 331.156 457.766 331.156C457.401 331.156 457.083 331.026 456.812 330.766C456.552 330.505 456.422 330.198 456.422 329.844V328.891H453.766V345.688C453.766 346.052 453.635 346.365 453.375 346.625C453.115 346.875 452.807 347 452.453 347C452.078 347 451.76 346.875 451.5 346.625C451.24 346.365 451.109 346.052 451.109 345.688V328.891H448.453V329.812C448.453 330.177 448.323 330.49 448.062 330.75C447.812 331 447.505 331.125 447.141 331.125C446.776 331.125 446.464 331 446.203 330.75C445.953 330.49 445.828 330.177 445.828 329.812ZM473.375 328.891H464.094V335.281H468.094C468.448 335.281 468.755 335.411 469.016 335.672C469.276 335.932 469.406 336.24 469.406 336.594C469.406 336.969 469.276 337.286 469.016 337.547C468.766 337.807 468.458 337.938 468.094 337.938H464.094V344.375L461.469 344.531V326.234H473.375C473.74 326.234 474.052 326.37 474.312 326.641C474.583 326.901 474.719 327.214 474.719 327.578C474.719 327.932 474.583 328.24 474.312 328.5C474.052 328.76 473.74 328.891 473.375 328.891ZM474.703 329.812C474.703 330.177 474.578 330.49 474.328 330.75C474.078 331 473.766 331.125 473.391 331.125C473.026 331.125 472.719 331 472.469 330.75C472.219 330.49 472.094 330.177 472.094 329.812V327.578C472.094 327.214 472.219 326.906 472.469 326.656C472.719 326.396 473.026 326.266 473.391 326.266C473.766 326.266 474.078 326.396 474.328 326.656C474.578 326.906 474.703 327.214 474.703 327.578V329.812ZM464.062 345.688C464.062 346.052 463.938 346.365 463.688 346.625C463.438 346.875 463.125 347 462.75 347C462.385 347 462.078 346.875 461.828 346.625C461.578 346.365 461.453 346.052 461.453 345.688V343.453C461.453 343.089 461.578 342.781 461.828 342.531C462.078 342.271 462.385 342.141 462.75 342.141C463.125 342.141 463.438 342.271 463.688 342.531C463.938 342.781 464.062 343.089 464.062 343.453V345.688ZM486.828 328.156L489.719 334.047C490.125 334.849 490.328 335.719 490.328 336.656C490.328 337.573 490.125 338.438 489.719 339.25L486.828 345.078C486.214 346.359 485.172 347 483.703 347C483.005 347 482.375 346.818 481.812 346.453C481.26 346.089 480.844 345.63 480.562 345.078L477.656 339.25C477.271 338.49 477.078 337.625 477.078 336.656C477.078 335.688 477.271 334.818 477.656 334.047L480.562 328.156C481.219 326.875 482.266 326.234 483.703 326.234C485.161 326.234 486.203 326.875 486.828 328.156ZM482.828 329.469L480.109 335C479.859 335.552 479.734 336.094 479.734 336.625C479.734 337.198 479.859 337.745 480.109 338.266L482.906 343.859C483.052 344.203 483.318 344.375 483.703 344.375C484.036 344.375 484.292 344.203 484.469 343.859L487.281 338.266C487.542 337.714 487.672 337.167 487.672 336.625C487.672 336.052 487.542 335.51 487.281 335L484.531 329.469C484.354 329.062 484.078 328.859 483.703 328.859C483.328 328.859 483.036 329.062 482.828 329.469ZM492.703 345.688V326.234H501.984C503.057 326.234 503.979 326.625 504.75 327.406C505.531 328.188 505.922 329.12 505.922 330.203V331.703C505.922 332.797 505.536 333.734 504.766 334.516C503.995 335.286 503.068 335.672 501.984 335.672H500.312L505.688 344.891C505.854 345.161 505.938 345.432 505.938 345.703C505.938 346.057 505.802 346.365 505.531 346.625C505.26 346.875 504.953 347 504.609 347C504.089 347 503.693 346.766 503.422 346.297L497.25 335.672H495.359V345.688C495.359 346.052 495.224 346.365 494.953 346.625C494.693 346.875 494.38 347 494.016 347C493.651 347 493.339 346.875 493.078 346.625C492.828 346.365 492.703 346.052 492.703 345.688ZM495.328 333.047H501.984C502.349 333.047 502.656 332.922 502.906 332.672C503.167 332.411 503.297 332.099 503.297 331.734V330.203C503.297 329.839 503.167 329.531 502.906 329.281C502.656 329.021 502.349 328.891 501.984 328.891H495.328V333.047ZM510.953 331.172V345.688C510.953 346.052 510.823 346.365 510.562 346.625C510.312 346.875 510.005 347 509.641 347C509.276 347 508.964 346.87 508.703 346.609C508.453 346.349 508.328 346.042 508.328 345.688V326.234H511.719L514.922 333.578L518.281 326.234H521.609V345.688C521.609 346.052 521.474 346.365 521.203 346.625C520.943 346.875 520.63 347 520.266 347C519.911 347 519.604 346.87 519.344 346.609C519.083 346.349 518.953 346.042 518.953 345.688V331.234C517.161 334.578 516.135 336.38 515.875 336.641C515.615 336.901 515.307 337.031 514.953 337.031C514.589 337.031 514.276 336.901 514.016 336.641C513.766 336.38 512.745 334.557 510.953 331.172Z" fill="white"/>
<path d="M797.621 322.052H746V259.569L767.244 238.325C767.776 237.253 768.876 236.148 770.462 235.107L771.948 233.621H773.166C777.634 231.542 784.226 230 792.103 230C799.981 230 804.002 231.542 805.006 233.621H823.569V296.069L797.621 322.052Z" fill="black"/>
<path d="M746 259.569H797.621M746 259.569L771.948 233.621H823.569M746 259.569V322.052H797.621M797.621 322.052V259.569M797.621 322.052L823.569 296.069V233.621M797.621 259.569L823.569 233.621M766.927 248.103C767.409 250.479 771.412 252.328 780.034 252.328C794.832 252.328 805.094 246.885 805.259 242.672M766.927 248.103C766.059 243.828 776.588 237.845 792.103 237.845C801.444 237.845 805.363 240.013 805.259 242.672M766.927 248.103V240.259M766.927 240.259C767.409 242.635 771.412 244.483 780.034 244.483C794.832 244.483 805.093 239.04 805.259 234.828M766.927 240.259C766.059 235.984 776.588 230 792.103 230C801.444 230 805.363 232.169 805.259 234.828M805.259 242.672V234.828" stroke="white" stroke-width="3"/>
<path d="M766.927 240.259C767.409 242.635 771.412 244.483 780.034 244.483C794.832 244.483 805.093 239.04 805.259 234.828C805.363 232.169 801.444 230 792.103 230C776.588 230 766.059 235.984 766.927 240.259Z" fill="black" stroke="white" stroke-width="3"/>
<path d="M840.031 266.234H846.859C847.693 266.234 848.479 266.589 849.219 267.297C849.969 267.995 850.344 268.844 850.344 269.844C850.344 270.219 850.208 270.536 849.938 270.797C849.677 271.057 849.385 271.188 849.062 271.188C848.615 271.188 848.307 271.089 848.141 270.891C847.974 270.682 847.812 270.302 847.656 269.75C847.51 269.198 847.177 268.922 846.656 268.922H840.172C839.859 268.922 839.703 269.021 839.703 269.219V272.141L849.734 279.703C850.203 280.005 850.411 280.427 850.359 280.969L850.344 284.047C850.344 284.828 850.057 285.516 849.484 286.109C848.922 286.703 848.292 287 847.594 287H840.516C839.578 287 838.76 286.646 838.062 285.938C837.375 285.219 837.031 284.432 837.031 283.578C837.031 282.599 837.49 282.109 838.406 282.109C838.76 282.109 839.062 282.24 839.312 282.5C839.562 282.75 839.688 283.047 839.688 283.391C839.688 283.672 839.781 283.906 839.969 284.094C840.167 284.281 840.411 284.375 840.703 284.375H847.234C847.516 284.375 847.667 284.188 847.688 283.812V281.391L837.641 273.922C837.182 273.328 836.99 272.823 837.062 272.406L837.047 269.25C837.047 268.438 837.339 267.734 837.922 267.141C838.505 266.536 839.208 266.234 840.031 266.234ZM852.578 269.812V266.266H865.828V269.844C865.828 270.208 865.698 270.521 865.438 270.781C865.177 271.031 864.87 271.156 864.516 271.156C864.151 271.156 863.833 271.026 863.562 270.766C863.302 270.505 863.172 270.198 863.172 269.844V268.891H860.516V285.688C860.516 286.052 860.385 286.365 860.125 286.625C859.865 286.875 859.557 287 859.203 287C858.828 287 858.51 286.875 858.25 286.625C857.99 286.365 857.859 286.052 857.859 285.688V268.891H855.203V269.812C855.203 270.177 855.073 270.49 854.812 270.75C854.562 271 854.255 271.125 853.891 271.125C853.526 271.125 853.214 271 852.953 270.75C852.703 270.49 852.578 270.177 852.578 269.812ZM877.953 268.156L880.844 274.047C881.25 274.849 881.453 275.719 881.453 276.656C881.453 277.573 881.25 278.438 880.844 279.25L877.953 285.078C877.339 286.359 876.297 287 874.828 287C874.13 287 873.5 286.818 872.938 286.453C872.385 286.089 871.969 285.63 871.688 285.078L868.781 279.25C868.396 278.49 868.203 277.625 868.203 276.656C868.203 275.688 868.396 274.818 868.781 274.047L871.688 268.156C872.344 266.875 873.391 266.234 874.828 266.234C876.286 266.234 877.328 266.875 877.953 268.156ZM873.953 269.469L871.234 275C870.984 275.552 870.859 276.094 870.859 276.625C870.859 277.198 870.984 277.745 871.234 278.266L874.031 283.859C874.177 284.203 874.443 284.375 874.828 284.375C875.161 284.375 875.417 284.203 875.594 283.859L878.406 278.266C878.667 277.714 878.797 277.167 878.797 276.625C878.797 276.052 878.667 275.51 878.406 275L875.656 269.469C875.479 269.062 875.203 268.859 874.828 268.859C874.453 268.859 874.161 269.062 873.953 269.469ZM883.828 285.688V266.234H893.109C894.182 266.234 895.104 266.625 895.875 267.406C896.656 268.188 897.047 269.12 897.047 270.203V271.703C897.047 272.797 896.661 273.734 895.891 274.516C895.12 275.286 894.193 275.672 893.109 275.672H891.438L896.812 284.891C896.979 285.161 897.062 285.432 897.062 285.703C897.062 286.057 896.927 286.365 896.656 286.625C896.385 286.875 896.078 287 895.734 287C895.214 287 894.818 286.766 894.547 286.297L888.375 275.672H886.484V285.688C886.484 286.052 886.349 286.365 886.078 286.625C885.818 286.875 885.505 287 885.141 287C884.776 287 884.464 286.875 884.203 286.625C883.953 286.365 883.828 286.052 883.828 285.688ZM886.453 273.047H893.109C893.474 273.047 893.781 272.922 894.031 272.672C894.292 272.411 894.422 272.099 894.422 271.734V270.203C894.422 269.839 894.292 269.531 894.031 269.281C893.781 269.021 893.474 268.891 893.109 268.891H886.453V273.047ZM899.531 285.172L904.844 267.219C905.052 266.562 905.49 266.234 906.156 266.234C906.802 266.234 907.208 266.51 907.375 267.062L912.609 285.297C912.651 285.432 912.672 285.562 912.672 285.688C912.672 286.052 912.547 286.365 912.297 286.625C912.047 286.875 911.76 287 911.438 287C910.75 287 910.312 286.682 910.125 286.047L909.062 282.484H903.078L901.922 286.297C901.891 286.464 901.76 286.625 901.531 286.781C901.302 286.927 901.052 287 900.781 287C900.396 287 900.078 286.87 899.828 286.609C899.578 286.349 899.453 286.031 899.453 285.656C899.453 285.5 899.479 285.339 899.531 285.172ZM906.125 272.312L903.875 279.828H908.297L906.125 272.312ZM922.75 266.234H927.109C927.474 266.234 927.781 266.365 928.031 266.625C928.292 266.875 928.422 267.182 928.422 267.547C928.422 267.932 928.281 268.255 928 268.516C927.729 268.766 927.432 268.891 927.109 268.891H922.953C922.547 268.891 922.193 269.083 921.891 269.469L918.203 274.203C917.891 274.578 917.734 275.099 917.734 275.766V283.031C917.734 283.406 917.859 283.724 918.109 283.984C918.37 284.245 918.682 284.375 919.047 284.375H924.391C924.745 284.375 925.052 284.245 925.312 283.984C925.573 283.724 925.703 283.417 925.703 283.062V278.5H922.984C922.609 278.5 922.297 278.375 922.047 278.125C921.797 277.865 921.672 277.552 921.672 277.188C921.672 276.823 921.797 276.516 922.047 276.266C922.297 276.005 922.609 275.875 922.984 275.875H928.328V283.062C928.328 284.146 927.943 285.073 927.172 285.844C926.401 286.615 925.474 287 924.391 287H919.047C917.953 287 917.016 286.615 916.234 285.844C915.464 285.073 915.078 284.146 915.078 283.062V275.797C915.078 274.495 915.427 273.396 916.125 272.5L920 267.578C920.281 267.203 920.672 266.885 921.172 266.625C921.682 266.365 922.208 266.234 922.75 266.234ZM928.469 269.812C928.469 270.177 928.344 270.49 928.094 270.75C927.844 271 927.531 271.125 927.156 271.125C926.792 271.125 926.484 271 926.234 270.75C925.984 270.49 925.859 270.177 925.859 269.812V267.578C925.859 267.214 925.984 266.906 926.234 266.656C926.484 266.396 926.792 266.266 927.156 266.266C927.531 266.266 927.844 266.396 928.094 266.656C928.344 266.906 928.469 267.214 928.469 267.578V269.812ZM942.609 268.891H933.328V275.281H937.328C937.682 275.281 937.99 275.411 938.25 275.672C938.51 275.932 938.641 276.24 938.641 276.594C938.641 276.969 938.51 277.286 938.25 277.547C938 277.807 937.693 277.938 937.328 277.938H933.328V284.375H942.641C942.995 284.375 943.302 284.505 943.562 284.766C943.823 285.016 943.953 285.323 943.953 285.688C943.953 286.052 943.818 286.365 943.547 286.625C943.286 286.875 942.974 287 942.609 287H930.703V266.234H942.609C942.974 266.234 943.286 266.37 943.547 266.641C943.818 266.901 943.953 267.214 943.953 267.578C943.953 267.932 943.818 268.24 943.547 268.5C943.286 268.76 942.974 268.891 942.609 268.891ZM943.938 269.812C943.938 270.177 943.812 270.49 943.562 270.75C943.312 271 943 271.125 942.625 271.125C942.26 271.125 941.953 271 941.703 270.75C941.453 270.49 941.328 270.177 941.328 269.812V267.578C941.328 267.214 941.453 266.906 941.703 266.656C941.953 266.396 942.26 266.266 942.625 266.266C943 266.266 943.312 266.396 943.562 266.656C943.812 266.906 943.938 267.214 943.938 267.578V269.812ZM943.938 285.656C943.938 286.021 943.812 286.333 943.562 286.594C943.312 286.844 943 286.969 942.625 286.969C942.26 286.969 941.953 286.844 941.703 286.594C941.453 286.333 941.328 286.021 941.328 285.656V283.422C941.328 283.057 941.453 282.75 941.703 282.5C941.953 282.24 942.26 282.109 942.625 282.109C943 282.109 943.312 282.24 943.562 282.5C943.812 282.75 943.938 283.057 943.938 283.422V285.656Z" fill="white"/>
<path d="M698.621 414.052H647V351.569L668.244 330.325C668.776 329.253 669.876 328.148 671.462 327.107L672.948 325.621H674.166C678.634 323.542 685.226 322 693.103 322C700.981 322 705.002 323.542 706.006 325.621H724.569V388.069L698.621 414.052Z" fill="black"/>
<path d="M647 351.569H698.621M647 351.569L672.948 325.621H724.569M647 351.569V414.052H698.621M698.621 414.052V351.569M698.621 414.052L724.569 388.069V325.621M698.621 351.569L724.569 325.621M667.927 340.103C668.409 342.479 672.412 344.328 681.034 344.328C695.832 344.328 706.094 338.885 706.259 334.672M667.927 340.103C667.059 335.828 677.588 329.845 693.103 329.845C702.444 329.845 706.363 332.013 706.259 334.672M667.927 340.103V332.259M667.927 332.259C668.409 334.635 672.412 336.483 681.034 336.483C695.832 336.483 706.093 331.04 706.259 326.828M667.927 332.259C667.059 327.984 677.588 322 693.103 322C702.444 322 706.363 324.169 706.259 326.828M706.259 334.672V326.828" stroke="white" stroke-width="3"/>
<path d="M667.927 332.259C668.409 334.635 672.412 336.483 681.034 336.483C695.832 336.483 706.093 331.04 706.259 326.828C706.363 324.169 702.444 322 693.103 322C677.588 322 667.059 327.984 667.927 332.259Z" fill="black" stroke="white" stroke-width="3"/>
<path d="M741.266 374.516C742.62 365.974 743.422 361.573 743.672 361.312C743.932 361.052 744.245 360.922 744.609 360.922C744.964 360.922 745.271 361.052 745.531 361.312C745.792 361.573 746.526 366.016 747.734 374.641L748.578 359.547C748.578 359.193 748.708 358.885 748.969 358.625C749.229 358.365 749.536 358.234 749.891 358.234C750.255 358.234 750.568 358.365 750.828 358.625C751.099 358.875 751.234 359.182 751.234 359.547L749.609 377.922C749.609 378.641 749.281 379 748.625 379H747.406C746.927 379 746.599 378.74 746.422 378.219L744.578 368.062L742.578 378.219C742.37 378.74 742.042 379 741.594 379H740.141C739.516 379 739.203 378.651 739.203 377.953L737.953 359.547C737.953 359.193 738.078 358.885 738.328 358.625C738.589 358.365 738.901 358.234 739.266 358.234C739.63 358.234 739.938 358.365 740.188 358.625C740.448 358.875 740.578 359.182 740.578 359.547L741.266 374.516ZM765.484 360.891H756.203V367.281H760.203C760.557 367.281 760.865 367.411 761.125 367.672C761.385 367.932 761.516 368.24 761.516 368.594C761.516 368.969 761.385 369.286 761.125 369.547C760.875 369.807 760.568 369.938 760.203 369.938H756.203V376.375H765.516C765.87 376.375 766.177 376.505 766.438 376.766C766.698 377.016 766.828 377.323 766.828 377.688C766.828 378.052 766.693 378.365 766.422 378.625C766.161 378.875 765.849 379 765.484 379H753.578V358.234H765.484C765.849 358.234 766.161 358.37 766.422 358.641C766.693 358.901 766.828 359.214 766.828 359.578C766.828 359.932 766.693 360.24 766.422 360.5C766.161 360.76 765.849 360.891 765.484 360.891ZM766.812 361.812C766.812 362.177 766.688 362.49 766.438 362.75C766.188 363 765.875 363.125 765.5 363.125C765.135 363.125 764.828 363 764.578 362.75C764.328 362.49 764.203 362.177 764.203 361.812V359.578C764.203 359.214 764.328 358.906 764.578 358.656C764.828 358.396 765.135 358.266 765.5 358.266C765.875 358.266 766.188 358.396 766.438 358.656C766.688 358.906 766.812 359.214 766.812 359.578V361.812ZM766.812 377.656C766.812 378.021 766.688 378.333 766.438 378.594C766.188 378.844 765.875 378.969 765.5 378.969C765.135 378.969 764.828 378.844 764.578 378.594C764.328 378.333 764.203 378.021 764.203 377.656V375.422C764.203 375.057 764.328 374.75 764.578 374.5C764.828 374.24 765.135 374.109 765.5 374.109C765.875 374.109 766.188 374.24 766.438 374.5C766.688 374.75 766.812 375.057 766.812 375.422V377.656ZM782.484 372.562V373.719C782.484 375.167 781.969 376.411 780.938 377.453C779.917 378.484 778.682 379 777.234 379H769.203V358.234H777.234C778.682 358.234 779.917 358.75 780.938 359.781C781.969 360.812 782.484 362.057 782.484 363.516V364.625C782.484 366.177 781.885 367.5 780.688 368.594C781.885 369.708 782.484 371.031 782.484 372.562ZM779.797 364.594V363.516C779.797 362.786 779.536 362.161 779.016 361.641C778.505 361.12 777.891 360.859 777.172 360.859H771.828V367.219H777.172C777.88 367.219 778.495 366.964 779.016 366.453C779.536 365.932 779.797 365.312 779.797 364.594ZM779.797 373.719V372.625C779.797 371.896 779.536 371.271 779.016 370.75C778.505 370.229 777.891 369.969 777.172 369.969H771.859V376.344H777.172C777.88 376.344 778.495 376.089 779.016 375.578C779.536 375.057 779.797 374.438 779.797 373.719ZM792.5 358.234H796.859C797.224 358.234 797.531 358.365 797.781 358.625C798.042 358.875 798.172 359.182 798.172 359.547C798.172 359.932 798.031 360.255 797.75 360.516C797.479 360.766 797.182 360.891 796.859 360.891H792.703C792.297 360.891 791.943 361.083 791.641 361.469L787.953 366.203C787.641 366.578 787.484 367.099 787.484 367.766V375.031C787.484 375.406 787.609 375.724 787.859 375.984C788.12 376.245 788.432 376.375 788.797 376.375H794.141C794.495 376.375 794.802 376.245 795.062 375.984C795.323 375.724 795.453 375.417 795.453 375.062V370.5H792.734C792.359 370.5 792.047 370.375 791.797 370.125C791.547 369.865 791.422 369.552 791.422 369.188C791.422 368.823 791.547 368.516 791.797 368.266C792.047 368.005 792.359 367.875 792.734 367.875H798.078V375.062C798.078 376.146 797.693 377.073 796.922 377.844C796.151 378.615 795.224 379 794.141 379H788.797C787.703 379 786.766 378.615 785.984 377.844C785.214 377.073 784.828 376.146 784.828 375.062V367.797C784.828 366.495 785.177 365.396 785.875 364.5L789.75 359.578C790.031 359.203 790.422 358.885 790.922 358.625C791.432 358.365 791.958 358.234 792.5 358.234ZM798.219 361.812C798.219 362.177 798.094 362.49 797.844 362.75C797.594 363 797.281 363.125 796.906 363.125C796.542 363.125 796.234 363 795.984 362.75C795.734 362.49 795.609 362.177 795.609 361.812V359.578C795.609 359.214 795.734 358.906 795.984 358.656C796.234 358.396 796.542 358.266 796.906 358.266C797.281 358.266 797.594 358.396 797.844 358.656C798.094 358.906 798.219 359.214 798.219 359.578V361.812ZM800.453 379V359.547C800.453 359.193 800.583 358.885 800.844 358.625C801.104 358.365 801.411 358.234 801.766 358.234C802.12 358.234 802.427 358.365 802.688 358.625C802.948 358.885 803.078 359.193 803.078 359.547V376.375H812.359C812.724 376.375 813.036 376.505 813.297 376.766C813.568 377.016 813.703 377.323 813.703 377.688C813.703 378.052 813.568 378.365 813.297 378.625C813.036 378.875 812.724 379 812.359 379H800.453ZM813.812 377.656C813.812 378.021 813.688 378.333 813.438 378.594C813.188 378.844 812.875 378.969 812.5 378.969C812.135 378.969 811.828 378.844 811.578 378.594C811.328 378.333 811.203 378.021 811.203 377.656V375.422C811.203 375.057 811.328 374.75 811.578 374.5C811.828 374.24 812.135 374.109 812.5 374.109C812.875 374.109 813.188 374.24 813.438 374.5C813.688 374.75 813.812 375.057 813.812 375.422V377.656Z" fill="white"/>
<path d="M280.621 338.052H229V275.569L250.244 254.325C250.776 253.253 251.876 252.148 253.462 251.107L254.948 249.621H256.166C260.634 247.542 267.226 246 275.103 246C282.981 246 287.002 247.542 288.006 249.621H306.569V312.069L280.621 338.052Z" fill="black"/>
<path d="M229 275.569H280.621M229 275.569L254.948 249.621H306.569M229 275.569V338.052H280.621M280.621 338.052V275.569M280.621 338.052L306.569 312.069V249.621M280.621 275.569L306.569 249.621M249.927 264.103C250.409 266.479 254.412 268.328 263.034 268.328C277.832 268.328 288.094 262.885 288.259 258.672M249.927 264.103C249.059 259.828 259.588 253.845 275.103 253.845C284.444 253.845 288.363 256.013 288.259 258.672M249.927 264.103V256.259M249.927 256.259C250.409 258.635 254.412 260.483 263.034 260.483C277.832 260.483 288.093 255.04 288.259 250.828M249.927 256.259C249.059 251.984 259.588 246 275.103 246C284.444 246 288.363 248.169 288.259 250.828M288.259 258.672V250.828" stroke="white" stroke-width="3"/>
<path d="M249.927 256.259C250.409 258.635 254.412 260.483 263.034 260.483C277.832 260.483 288.093 255.04 288.259 250.828C288.363 248.169 284.444 246 275.103 246C259.588 246 249.059 251.984 249.927 256.259Z" fill="black" stroke="white" stroke-width="3"/>
<path d="M114.172 283.578V303H110.641L103.578 286.875V301.688C103.578 302.052 103.448 302.365 103.188 302.625C102.938 302.875 102.63 303 102.266 303C101.901 303 101.589 302.875 101.328 302.625C101.078 302.365 100.953 302.052 100.953 301.688V282.234H104.438L111.516 298.328V283.578C111.516 283.214 111.646 282.901 111.906 282.641C112.177 282.37 112.495 282.234 112.859 282.234C113.224 282.234 113.531 282.365 113.781 282.625C114.042 282.885 114.172 283.203 114.172 283.578ZM128.484 284.891H119.203V291.281H123.203C123.557 291.281 123.865 291.411 124.125 291.672C124.385 291.932 124.516 292.24 124.516 292.594C124.516 292.969 124.385 293.286 124.125 293.547C123.875 293.807 123.568 293.938 123.203 293.938H119.203V300.375H128.516C128.87 300.375 129.177 300.505 129.438 300.766C129.698 301.016 129.828 301.323 129.828 301.688C129.828 302.052 129.693 302.365 129.422 302.625C129.161 302.875 128.849 303 128.484 303H116.578V282.234H128.484C128.849 282.234 129.161 282.37 129.422 282.641C129.693 282.901 129.828 283.214 129.828 283.578C129.828 283.932 129.693 284.24 129.422 284.5C129.161 284.76 128.849 284.891 128.484 284.891ZM129.812 285.812C129.812 286.177 129.688 286.49 129.438 286.75C129.188 287 128.875 287.125 128.5 287.125C128.135 287.125 127.828 287 127.578 286.75C127.328 286.49 127.203 286.177 127.203 285.812V283.578C127.203 283.214 127.328 282.906 127.578 282.656C127.828 282.396 128.135 282.266 128.5 282.266C128.875 282.266 129.188 282.396 129.438 282.656C129.688 282.906 129.812 283.214 129.812 283.578V285.812ZM129.812 301.656C129.812 302.021 129.688 302.333 129.438 302.594C129.188 302.844 128.875 302.969 128.5 302.969C128.135 302.969 127.828 302.844 127.578 302.594C127.328 302.333 127.203 302.021 127.203 301.656V299.422C127.203 299.057 127.328 298.75 127.578 298.5C127.828 298.24 128.135 298.109 128.5 298.109C128.875 298.109 129.188 298.24 129.438 298.5C129.688 298.75 129.812 299.057 129.812 299.422V301.656ZM132.203 285.812V282.266H145.453V285.844C145.453 286.208 145.323 286.521 145.062 286.781C144.802 287.031 144.495 287.156 144.141 287.156C143.776 287.156 143.458 287.026 143.188 286.766C142.927 286.505 142.797 286.198 142.797 285.844V284.891H140.141V301.688C140.141 302.052 140.01 302.365 139.75 302.625C139.49 302.875 139.182 303 138.828 303C138.453 303 138.135 302.875 137.875 302.625C137.615 302.365 137.484 302.052 137.484 301.688V284.891H134.828V285.812C134.828 286.177 134.698 286.49 134.438 286.75C134.188 287 133.88 287.125 133.516 287.125C133.151 287.125 132.839 287 132.578 286.75C132.328 286.49 132.203 286.177 132.203 285.812ZM151.141 298.516C152.495 289.974 153.297 285.573 153.547 285.312C153.807 285.052 154.12 284.922 154.484 284.922C154.839 284.922 155.146 285.052 155.406 285.312C155.667 285.573 156.401 290.016 157.609 298.641L158.453 283.547C158.453 283.193 158.583 282.885 158.844 282.625C159.104 282.365 159.411 282.234 159.766 282.234C160.13 282.234 160.443 282.365 160.703 282.625C160.974 282.875 161.109 283.182 161.109 283.547L159.484 301.922C159.484 302.641 159.156 303 158.5 303H157.281C156.802 303 156.474 302.74 156.297 302.219L154.453 292.062L152.453 302.219C152.245 302.74 151.917 303 151.469 303H150.016C149.391 303 149.078 302.651 149.078 301.953L147.828 283.547C147.828 283.193 147.953 282.885 148.203 282.625C148.464 282.365 148.776 282.234 149.141 282.234C149.505 282.234 149.812 282.365 150.062 282.625C150.323 282.875 150.453 283.182 150.453 283.547L151.141 298.516ZM173.203 284.156L176.094 290.047C176.5 290.849 176.703 291.719 176.703 292.656C176.703 293.573 176.5 294.438 176.094 295.25L173.203 301.078C172.589 302.359 171.547 303 170.078 303C169.38 303 168.75 302.818 168.188 302.453C167.635 302.089 167.219 301.63 166.938 301.078L164.031 295.25C163.646 294.49 163.453 293.625 163.453 292.656C163.453 291.688 163.646 290.818 164.031 290.047L166.938 284.156C167.594 282.875 168.641 282.234 170.078 282.234C171.536 282.234 172.578 282.875 173.203 284.156ZM169.203 285.469L166.484 291C166.234 291.552 166.109 292.094 166.109 292.625C166.109 293.198 166.234 293.745 166.484 294.266L169.281 299.859C169.427 300.203 169.693 300.375 170.078 300.375C170.411 300.375 170.667 300.203 170.844 299.859L173.656 294.266C173.917 293.714 174.047 293.167 174.047 292.625C174.047 292.052 173.917 291.51 173.656 291L170.906 285.469C170.729 285.062 170.453 284.859 170.078 284.859C169.703 284.859 169.411 285.062 169.203 285.469ZM179.078 301.688V282.234H188.359C189.432 282.234 190.354 282.625 191.125 283.406C191.906 284.188 192.297 285.12 192.297 286.203V287.703C192.297 288.797 191.911 289.734 191.141 290.516C190.37 291.286 189.443 291.672 188.359 291.672H186.688L192.062 300.891C192.229 301.161 192.312 301.432 192.312 301.703C192.312 302.057 192.177 302.365 191.906 302.625C191.635 302.875 191.328 303 190.984 303C190.464 303 190.068 302.766 189.797 302.297L183.625 291.672H181.734V301.688C181.734 302.052 181.599 302.365 181.328 302.625C181.068 302.875 180.755 303 180.391 303C180.026 303 179.714 302.875 179.453 302.625C179.203 302.365 179.078 302.052 179.078 301.688ZM181.703 289.047H188.359C188.724 289.047 189.031 288.922 189.281 288.672C189.542 288.411 189.672 288.099 189.672 287.734V286.203C189.672 285.839 189.542 285.531 189.281 285.281C189.031 285.021 188.724 284.891 188.359 284.891H181.703V289.047ZM194.703 301.688V283.578C194.703 283.203 194.828 282.885 195.078 282.625C195.339 282.365 195.651 282.234 196.016 282.234C196.38 282.234 196.688 282.365 196.938 282.625C197.198 282.875 197.328 283.182 197.328 283.547V289.75L205.734 282.578C206.026 282.339 206.354 282.219 206.719 282.219C207.083 282.219 207.391 282.354 207.641 282.625C207.891 282.896 208.016 283.208 208.016 283.562C208.016 283.927 207.875 284.229 207.594 284.469L198.062 292.562L207.594 300.797C207.854 301.016 207.984 301.297 207.984 301.641C207.984 301.984 207.854 302.297 207.594 302.578C207.344 302.859 207.031 303 206.656 303C206.302 303 205.984 302.88 205.703 302.641L197.328 295.422V301.688C197.328 302.052 197.198 302.365 196.938 302.625C196.688 302.875 196.38 303 196.016 303C195.661 303 195.354 302.875 195.094 302.625C194.833 302.365 194.703 302.052 194.703 301.688Z" fill="white"/>
<path d="M181.621 430.052H130V367.569L151.244 346.325C151.776 345.253 152.876 344.148 154.462 343.107L155.948 341.621H157.166C161.634 339.542 168.226 338 176.103 338C183.981 338 188.002 339.542 189.006 341.621H207.569V404.069L181.621 430.052Z" fill="black"/>
<path d="M130 367.569H181.621M130 367.569L155.948 341.621H207.569M130 367.569V430.052H181.621M181.621 430.052V367.569M181.621 430.052L207.569 404.069V341.621M181.621 367.569L207.569 341.621M150.927 356.103C151.409 358.479 155.412 360.328 164.034 360.328C178.832 360.328 189.094 354.885 189.259 350.672M150.927 356.103C150.059 351.828 160.588 345.845 176.103 345.845C185.444 345.845 189.363 348.013 189.259 350.672M150.927 356.103V348.259M150.927 348.259C151.409 350.635 155.412 352.483 164.034 352.483C178.832 352.483 189.093 347.04 189.259 342.828M150.927 348.259C150.059 343.984 160.588 338 176.103 338C185.444 338 189.363 340.169 189.259 342.828M189.259 350.672V342.828" stroke="white" stroke-width="3"/>
<path d="M150.927 348.259C151.409 350.635 155.412 352.483 164.034 352.483C178.832 352.483 189.093 347.04 189.259 342.828C189.363 340.169 185.444 338 176.103 338C160.588 338 150.059 343.984 150.927 348.259Z" fill="black" stroke="white" stroke-width="3"/>
<path d="M29.8594 376.891H20.5781V383.281H24.5781C24.9323 383.281 25.2396 383.411 25.5 383.672C25.7604 383.932 25.8906 384.24 25.8906 384.594C25.8906 384.969 25.7604 385.286 25.5 385.547C25.25 385.807 24.9427 385.938 24.5781 385.938H20.5781V392.375H29.8906C30.2448 392.375 30.5521 392.505 30.8125 392.766C31.0729 393.016 31.2031 393.323 31.2031 393.688C31.2031 394.052 31.0677 394.365 30.7969 394.625C30.5365 394.875 30.224 395 29.8594 395H17.9531V374.234H29.8594C30.224 374.234 30.5365 374.37 30.7969 374.641C31.0677 374.901 31.2031 375.214 31.2031 375.578C31.2031 375.932 31.0677 376.24 30.7969 376.5C30.5365 376.76 30.224 376.891 29.8594 376.891ZM31.1875 377.812C31.1875 378.177 31.0625 378.49 30.8125 378.75C30.5625 379 30.25 379.125 29.875 379.125C29.5104 379.125 29.2031 379 28.9531 378.75C28.7031 378.49 28.5781 378.177 28.5781 377.812V375.578C28.5781 375.214 28.7031 374.906 28.9531 374.656C29.2031 374.396 29.5104 374.266 29.875 374.266C30.25 374.266 30.5625 374.396 30.8125 374.656C31.0625 374.906 31.1875 375.214 31.1875 375.578V377.812ZM31.1875 393.656C31.1875 394.021 31.0625 394.333 30.8125 394.594C30.5625 394.844 30.25 394.969 29.875 394.969C29.5104 394.969 29.2031 394.844 28.9531 394.594C28.7031 394.333 28.5781 394.021 28.5781 393.656V391.422C28.5781 391.057 28.7031 390.75 28.9531 390.5C29.2031 390.24 29.5104 390.109 29.875 390.109C30.25 390.109 30.5625 390.24 30.8125 390.5C31.0625 390.75 31.1875 391.057 31.1875 391.422V393.656ZM46.8281 375.578V380.406L41.4844 394.016C41.2135 394.672 40.7865 395 40.2031 395C39.5885 395 39.151 394.672 38.8906 394.016L33.5781 380.406V375.578C33.5781 375.203 33.7031 374.885 33.9531 374.625C34.2135 374.365 34.526 374.234 34.8906 374.234C35.2552 374.234 35.5625 374.365 35.8125 374.625C36.0729 374.885 36.2031 375.203 36.2031 375.578V379.859L40.2031 390.047L44.2031 379.891V375.578C44.2031 375.203 44.3281 374.885 44.5781 374.625C44.8385 374.365 45.151 374.234 45.5156 374.234C45.8802 374.234 46.1875 374.365 46.4375 374.625C46.6979 374.885 46.8281 375.203 46.8281 375.578ZM61.1094 376.891H51.8281V383.281H55.8281C56.1823 383.281 56.4896 383.411 56.75 383.672C57.0104 383.932 57.1406 384.24 57.1406 384.594C57.1406 384.969 57.0104 385.286 56.75 385.547C56.5 385.807 56.1927 385.938 55.8281 385.938H51.8281V392.375H61.1406C61.4948 392.375 61.8021 392.505 62.0625 392.766C62.3229 393.016 62.4531 393.323 62.4531 393.688C62.4531 394.052 62.3177 394.365 62.0469 394.625C61.7865 394.875 61.474 395 61.1094 395H49.2031V374.234H61.1094C61.474 374.234 61.7865 374.37 62.0469 374.641C62.3177 374.901 62.4531 375.214 62.4531 375.578C62.4531 375.932 62.3177 376.24 62.0469 376.5C61.7865 376.76 61.474 376.891 61.1094 376.891ZM62.4375 377.812C62.4375 378.177 62.3125 378.49 62.0625 378.75C61.8125 379 61.5 379.125 61.125 379.125C60.7604 379.125 60.4531 379 60.2031 378.75C59.9531 378.49 59.8281 378.177 59.8281 377.812V375.578C59.8281 375.214 59.9531 374.906 60.2031 374.656C60.4531 374.396 60.7604 374.266 61.125 374.266C61.5 374.266 61.8125 374.396 62.0625 374.656C62.3125 374.906 62.4375 375.214 62.4375 375.578V377.812ZM62.4375 393.656C62.4375 394.021 62.3125 394.333 62.0625 394.594C61.8125 394.844 61.5 394.969 61.125 394.969C60.7604 394.969 60.4531 394.844 60.2031 394.594C59.9531 394.333 59.8281 394.021 59.8281 393.656V391.422C59.8281 391.057 59.9531 390.75 60.2031 390.5C60.4531 390.24 60.7604 390.109 61.125 390.109C61.5 390.109 61.8125 390.24 62.0625 390.5C62.3125 390.75 62.4375 391.057 62.4375 391.422V393.656ZM78.0469 375.578V395H74.5156L67.4531 378.875V393.688C67.4531 394.052 67.3229 394.365 67.0625 394.625C66.8125 394.875 66.5052 395 66.1406 395C65.776 395 65.4635 394.875 65.2031 394.625C64.9531 394.365 64.8281 394.052 64.8281 393.688V374.234H68.3125L75.3906 390.328V375.578C75.3906 375.214 75.5208 374.901 75.7812 374.641C76.0521 374.37 76.3698 374.234 76.7344 374.234C77.099 374.234 77.4062 374.365 77.6562 374.625C77.9167 374.885 78.0469 375.203 78.0469 375.578ZM80.4531 377.812V374.266H93.7031V377.844C93.7031 378.208 93.5729 378.521 93.3125 378.781C93.0521 379.031 92.7448 379.156 92.3906 379.156C92.026 379.156 91.7083 379.026 91.4375 378.766C91.1771 378.505 91.0469 378.198 91.0469 377.844V376.891H88.3906V393.688C88.3906 394.052 88.2604 394.365 88 394.625C87.7396 394.875 87.4323 395 87.0781 395C86.7031 395 86.3854 394.875 86.125 394.625C85.8646 394.365 85.7344 394.052 85.7344 393.688V376.891H83.0781V377.812C83.0781 378.177 82.9479 378.49 82.6875 378.75C82.4375 379 82.1302 379.125 81.7656 379.125C81.401 379.125 81.0885 379 80.8281 378.75C80.5781 378.49 80.4531 378.177 80.4531 377.812ZM99.1562 374.234H105.984C106.818 374.234 107.604 374.589 108.344 375.297C109.094 375.995 109.469 376.844 109.469 377.844C109.469 378.219 109.333 378.536 109.062 378.797C108.802 379.057 108.51 379.188 108.188 379.188C107.74 379.188 107.432 379.089 107.266 378.891C107.099 378.682 106.938 378.302 106.781 377.75C106.635 377.198 106.302 376.922 105.781 376.922H99.2969C98.9844 376.922 98.8281 377.021 98.8281 377.219V380.141L108.859 387.703C109.328 388.005 109.536 388.427 109.484 388.969L109.469 392.047C109.469 392.828 109.182 393.516 108.609 394.109C108.047 394.703 107.417 395 106.719 395H99.6406C98.7031 395 97.8854 394.646 97.1875 393.938C96.5 393.219 96.1562 392.432 96.1562 391.578C96.1562 390.599 96.6146 390.109 97.5312 390.109C97.8854 390.109 98.1875 390.24 98.4375 390.5C98.6875 390.75 98.8125 391.047 98.8125 391.391C98.8125 391.672 98.9062 391.906 99.0938 392.094C99.2917 392.281 99.5365 392.375 99.8281 392.375H106.359C106.641 392.375 106.792 392.188 106.812 391.812V389.391L96.7656 381.922C96.3073 381.328 96.1146 380.823 96.1875 380.406L96.1719 377.25C96.1719 376.438 96.4635 375.734 97.0469 375.141C97.6302 374.536 98.3333 374.234 99.1562 374.234Z" fill="white"/>
<path d="M297 286H328V395H438V365H451M451 365V415H262V379H195M451 365H466M466 365V415H589L623 379H647M466 365H483V395H571L680 286H745" stroke="white" stroke-width="3" stroke-linecap="round" stroke-linejoin="round"/>
</svg>
