<svg width="960" height="440" viewBox="0 0 960 440" fill="none" xmlns="http://www.w3.org/2000/svg">
<path d="M418.184 332.843V379.639C463.056 409.945 495.874 409.945 540.746 379.639V332.843" stroke="white" stroke-width="4" stroke-linejoin="round"/>
<path d="M471.805 342.648L469.251 414.401C467.549 419.601 471.805 430 481.167 430C489.679 430 493.083 419.601 493.083 414.401L489.679 342.648H471.805Z" fill="black"/>
<path d="M456.485 70.7849C451.378 65.8825 450.952 58.7517 455.633 56.0776C460.315 53.4036 452.689 48.7162 453.796 44.0443C454.451 41.2795 456.485 37.6778 456.485 37.6778H502.445C502.445 37.6778 505.787 41.1638 506.696 44.0443C508.12 48.5546 499.467 53.4036 504.999 56.0776C510.531 58.7517 507.978 66.3282 504.999 70.7849M456.485 70.7849C462.868 74.796 498.615 74.3503 504.999 70.7849M456.485 70.7849C456.485 70.7849 429.248 180.867 424.993 200.031C420.737 219.195 416.481 263.317 416.481 263.317V322.146M504.999 70.7849C504.999 70.7849 533.512 183.095 537.342 200.031C541.172 216.967 545.853 263.317 545.853 263.317L544.576 322.146M403.715 338.191C390.948 354.235 400.31 394.346 400.31 394.346H416.481C416.481 394.346 437.76 414.401 469.251 414.401M403.715 338.191C416.481 322.146 416.481 322.146 416.481 322.146M403.715 338.191L416.481 322.146M469.251 414.401L471.805 342.648H489.679L493.083 414.401M469.251 414.401C467.549 419.601 471.805 430 481.167 430C489.679 430 493.083 419.601 493.083 414.401M493.083 414.401C522.447 414.401 541.597 394.346 541.597 394.346H558.62C558.62 394.346 568.328 354.127 556.492 338.191M556.492 338.191C544.576 322.146 544.576 322.146 544.576 322.146M556.492 338.191L544.576 322.146M481.167 181.313C450.968 181.455 429.756 211.203 428.823 249.055C427.899 286.536 449.622 319.315 481.167 319.472C512.808 319.63 534.061 286.635 533.086 249.055C532.147 212.881 514.02 181.157 481.167 181.313Z" stroke="white" stroke-width="6" stroke-linejoin="round"/>
<path d="M527.878 250.392C527.878 268.046 522.597 283.988 514.107 295.494C505.616 307 493.967 314.016 481.191 314.016C468.415 314.016 456.767 307 448.276 295.494C439.786 283.988 434.504 268.046 434.504 250.392C434.504 232.739 439.786 216.796 448.276 205.291C456.767 193.785 468.415 186.769 481.191 186.769C493.967 186.769 505.616 193.785 514.107 205.291C522.597 216.796 527.878 232.739 527.878 250.392Z" stroke="white" stroke-width="2"/>
<path d="M474.038 248.306C454.035 244.716 440.932 257.313 437.035 262.249C433.137 267.184 433.513 275.377 437.035 275.377C441.437 275.377 442.766 271.357 441.849 270.136C440.932 268.914 438.823 272.934 439.098 269.525C439.373 266.116 447.844 259.239 458.356 257.007C468.903 254.769 486.006 261.18 498.57 262.859C511.133 264.538 522.135 260.417 526.494 254.819C530.853 249.222 531.105 243.077 529.933 244.744C524.568 252.377 521.368 255.989 505.952 254.819C495.222 254.005 492.759 251.667 474.038 248.306Z" fill="white"/>
<path d="M457.164 295.823C455.147 296.443 453.496 296.424 451.433 295.823C449.369 295.222 450.211 293.24 451.433 291.863C454.28 288.654 452.579 293.268 455.147 290.595C457.714 287.921 459.961 269.474 458.866 266.95C458.586 269.22 455.972 269.474 455.055 267.693C454.138 265.912 458.42 261.011 461.451 262.376C464.03 263.537 462.779 269.03 461.862 274.78C465.115 275.952 465.624 268.027 467.298 265.454C469.086 262.706 473.268 260.926 476.973 264.233C480.677 267.54 489.17 262.096 487.244 264.233C485.318 266.37 480.045 269.59 476.468 267.235C472.892 264.881 470.797 265.76 469.453 268.304C468.109 270.848 469.361 278.277 461.434 277.807C461.434 277.807 465.42 278.025 466.381 279.753C468.729 283.976 464.356 292.51 466.931 293.446C467.62 293.697 468.142 293.823 468.99 294.058C468.868 293.867 468.755 293.663 468.651 293.446C466.158 288.267 468.948 282.602 470.737 280.72C472.525 278.837 474.397 278.647 474.909 280.516C475.143 281.368 475.967 282.626 474.497 282.626C471.16 282.626 469.761 293.862 472.696 293.862C475.46 293.862 476.312 288.446 476.01 286.614C475.707 284.783 474.13 283.889 476.193 282.093C478.257 280.297 478.073 283.162 478.532 283.213C480.112 283.213 481.321 281.176 482.194 280.315C482.677 279.543 483.246 279.038 483.851 279.333C485.547 280.16 484.872 281.683 485.141 282.931C485.41 284.18 486.599 279.333 489.269 279.333C491.94 279.333 491.233 281.992 490.637 283.518C490.041 285.045 488.574 286.266 487.611 286.266C486.648 286.266 486.94 284.8 487.244 284.281C487.802 283.33 486.235 284.281 485.456 285.045C484.676 285.808 482.704 287.742 483.759 295.018C484.135 297.613 481.026 297.308 480.595 295.018C479.648 289.985 480.23 286.191 480.556 284.686C479.417 285.477 478.303 285.808 478.303 285.808C478.303 285.808 479.174 286.068 478.853 289.525C478.532 292.983 477.752 294.865 476.01 295.969C475.106 296.542 473.606 296.769 472.139 296.373C471.926 296.471 471.583 296.492 471.104 296.392C469.144 295.985 461.138 298.225 462.059 293.922C463.825 285.673 463.398 282.382 461.069 281.354C460.48 286.425 459.177 295.204 457.164 295.823Z" fill="white"/>
<path d="M493.021 289.523C490.855 288.131 497.469 290.798 497.469 283.518C497.469 278.74 492.304 287.115 492.304 289.729C492.304 292.458 493.273 293.967 495.222 294.407C497.074 294.825 499.592 293.003 500.32 292.741C499.985 290.763 500.172 288.418 500.816 286.419C502.158 282.254 505.159 277.664 507.236 280.312C508.752 282.246 505.448 284.129 504.622 286.113C503.612 288.543 503.149 291.829 504.989 292.728C508.671 294.528 506.163 278.932 510.17 280.109C517.145 282.157 508.111 291.308 512.09 291.308C516.069 291.308 511.638 296.951 510.533 296.951C507.68 296.951 509.315 289.94 508.111 292.199C506.337 295.526 506.118 297.649 503.266 296.951C501.726 296.575 500.789 295.045 500.386 293.097C500.292 293.255 500.147 293.468 499.945 293.746C497.836 296.646 496.584 297.776 493.325 296.85C490.872 296.153 489.056 294.544 488.994 290.798C488.908 285.566 492.7 280.592 494.718 279.638C496.735 278.684 499.769 279.702 500.266 282.093C500.763 284.485 499.945 288.098 498.249 289.115C496.552 290.133 494.397 290.406 493.021 289.523Z" fill="white"/>
<path d="M456.263 207.935C454.582 209.747 452.304 212.84 454.367 214.875C456.431 216.911 458.035 213.654 458.311 211.415C458.907 213.298 456.609 225.616 453.89 231.283C450.491 238.367 444.226 245.085 443.495 243.802C441.684 240.627 446.14 229.082 447.367 233.054C448.744 237.512 452.1 228.78 451.239 227.375C450.379 225.97 448.099 224.688 444.829 228.78C439.393 235.582 438.332 253.268 443.323 251.13C448.314 248.993 452.599 243.68 455.998 234.337C459.397 224.993 463.39 208.922 462.025 207.395C460.659 205.869 457.944 206.123 456.263 207.935Z" fill="white"/>
<path d="M470.299 218.296C470.944 215.426 467.578 213.48 465.695 214.632C464.196 215.549 462.512 218.602 464.491 221.044C466.47 223.487 468.578 225.909 470.729 230.917C472.88 235.924 470.385 240.382 464.577 241.115C458.768 241.848 455.37 240.138 456.66 236.047C457.966 231.908 462.813 227.314 462.813 232.871C462.813 238.428 461.379 235.114 461.565 236.902C461.899 240.118 464.888 237.337 466.255 235.375C468.98 229.632 460.489 223.487 462.468 216.709C464.749 208.9 470.703 210.534 472.536 212.983C473.784 214.65 475.376 218.48 472.45 222.083C470.03 225.063 467.76 222.999 468.75 221.167C469.74 219.334 469.836 220.354 470.299 218.296Z" fill="white"/>
<path d="M482.389 212.312C480.668 212.312 477.493 213.561 473.999 222.693C472.088 227.687 469.935 239.811 476.968 240.993C481.692 241.787 483.786 239.365 484.299 236.8C485.145 232.567 486.519 228.665 486.519 228.665C483.249 233.489 481.655 234.764 480.409 235.497C479.164 236.23 477.761 236.047 476.795 234.947C475.829 233.848 476.191 228.384 476.795 225.075C477.694 220.153 481.512 213.908 482.796 215.13C484.08 216.351 479.77 222.083 483.484 222.083C484.974 222.083 486.003 221.163 486.519 218.844C487.151 216.004 485.669 212.312 482.389 212.312Z" fill="white"/>
<path d="M484.061 236.544C484.061 233.479 485.003 226.696 490.82 225.154C491.692 224.923 492.738 225.408 492.738 227.189C492.738 228.97 492.093 228.998 491.141 229.336C487.748 230.541 487.294 238.484 489.018 238.731C491.875 239.139 493.113 235.89 492.738 231.358C493.898 233.197 495.446 233.133 496.048 232.888C496.95 237.677 494.626 242.612 489.018 242.346C485.763 242.191 484.061 239.608 484.061 236.544Z" fill="white"/>
<path d="M501.204 230.132C501.204 230.132 503.037 225.291 505.51 225.291C509.548 225.291 508.646 231.908 507.615 237.546C507.144 240.121 507.701 241.284 508.603 242.081C507.873 242.878 505.51 244.287 504.092 242.081C502.504 239.26 506.87 229.458 504.221 229.458C503.19 229.458 501.276 230.5 501.019 234.239C500.812 237.243 501.847 242.305 499.312 242.612C496.777 242.918 497.021 241.876 497.107 240.037C497.156 238.969 496.598 224.34 499.899 225.51C503.201 226.68 501.907 228.449 501.204 230.132Z" fill="white"/>
<path d="M492.738 231.358C492.7 232.532 494.586 234.548 496.122 233.346C495.681 231.82 498.478 227.953 499.028 226.68C500.52 223.23 496.048 228.868 496.048 228.868C496.048 228.868 495.818 227.545 494.626 227.545C493.434 227.545 492.841 228.512 492.738 231.358Z" fill="white"/>
<path d="M506.548 242.612C506.548 240.475 515.856 233.702 515.856 222.711C515.856 211.72 513.929 220.422 513.853 223.984C513.701 231.158 512.89 250.827 514.165 254.209C515.441 257.591 516.069 259.609 517.874 260.957C519.678 262.306 514.007 265.248 511.515 261.815C509.023 258.383 510.63 248.588 510.497 239.444C510.368 230.557 508.311 222.21 512.753 215.181C514.939 211.72 517.962 212.884 518.699 215.689C523.284 233.143 506.548 244.749 506.548 242.612Z" fill="white"/>
<path d="M513.415 239.147C515.616 239.147 517.828 236.654 518.424 235.84C519.02 235.025 520.671 236.529 520.212 238.18C519.754 239.832 518.557 242.367 514.624 243.225C510.69 244.083 508.953 241.754 508.351 240.957C507.522 239.858 508.14 235.332 509.299 237.01C510.354 238.536 510.985 239.147 513.415 239.147Z" fill="white"/>
<path d="M504.293 28H456.199L449.245 41.6798C449.245 41.6798 457.902 35.0154 464.923 42.2863C471.945 35.0154 479.891 42.2863 479.891 42.2863C479.891 42.2863 487.836 35.0154 494.858 42.2863C501.454 35.0154 511.387 41.6798 511.387 41.6798L504.293 28Z" fill="white" stroke="white" stroke-width="5" stroke-linejoin="round"/>
</svg>
