<svg width="960" height="440" viewBox="0 0 960 440" fill="none" xmlns="http://www.w3.org/2000/svg">
<path d="M158 118.696C357.907 150.526 603.202 142.734 706.552 167.56C706.552 167.56 795.195 184.898 834.946 167.56C874.696 150.221 894.01 131.287 898.546 142.734C902.918 153.767 871.118 172.42 856.013 178.593C874.298 178.593 938.296 146.753 938.296 167.56C938.296 188.366 851.243 205.784 851.243 205.784C851.243 205.784 936.706 198.691 951.811 215.241C966.719 231.576 838.523 231.792 838.523 231.792C838.523 231.792 921.203 253.465 927.563 271.986C933.935 290.541 827.791 253.465 827.791 253.465C827.791 253.465 810.18 247.554 797.58 253.465C776.523 263.344 832.561 268.44 832.561 290.983C832.561 309.855 739.336 256.561 724.043 245.19L685.087 247.554L158 290.113" stroke="white" stroke-width="3.18001"/>
<path d="M288.745 79.163C287.657 79.0224 286.658 79.7907 286.516 80.8791C286.373 81.9674 287.14 82.9637 288.228 83.1044L307.207 85.5563L305.758 97.8189L286.881 95.3206C285.793 95.1766 284.793 95.9418 284.646 97.0297C284.5 98.1177 285.264 99.1163 286.352 99.2604L305.291 101.767L303.837 114.067L278.49 111.123L285.692 50.2031L311.038 53.1478L309.591 65.3916L291.153 63.0091C290.065 62.8685 289.066 63.6367 288.924 64.7251C288.781 65.8134 289.547 66.8098 290.636 66.9504L309.124 69.3394L307.674 81.6084L288.745 79.163Z" fill="white" stroke="black" stroke-width="3.97502" stroke-linecap="round" stroke-linejoin="round"/>
<path d="M638.182 349.223H270.493L273.445 144.31L307.935 125.395L317.602 48.1586L698.205 125.395V166.87V177.239V187.608V197.976V208.345V218.714V229.083V239.452V249.82V291.296H653.716L638.182 349.223Z" fill="black"/>
<path d="M698.205 125.395L317.602 48.1586L307.935 125.395L273.445 144.31L270.493 349.223H638.182L653.716 291.296M698.205 125.395L653.716 291.296M698.205 125.395V166.87M653.716 291.296H698.205V249.82M698.205 208.345H682.702M698.205 208.345V197.976M698.205 208.345V218.714M698.205 166.87H693.435M698.205 166.87V177.239M698.205 187.608H687.87M698.205 187.608V177.239M698.205 187.608V197.976M698.205 177.239H690.652M698.205 197.976H685.087M698.205 249.82H671.175M698.205 249.82V239.452M698.205 229.083H678.33M698.205 229.083V218.714M698.205 229.083V239.452M698.205 218.714L680.317 219.182M698.205 239.452H674.355" stroke="white" stroke-width="4.77002"/>
<path d="M604.792 108.533V271.013C604.792 281.77 596.072 290.49 585.314 290.49H354.763C344.006 290.49 335.286 281.77 335.286 271.013V108.533C335.286 97.7754 344.001 89.0557 354.758 89.0557H354.845H354.932H355.019H355.106H355.193H355.28H355.367H355.454H355.541H355.628H355.716H355.803H355.89H355.978H356.065H356.153H356.24H356.327H356.415H356.502H356.59H356.678H356.765H356.853H356.941H357.028H357.116H357.204H357.292H357.379H357.467H357.555H357.643H357.731H357.819H357.907H357.995H358.083H358.171H358.259H358.347H358.435H358.523H358.611H358.7H358.788H358.876H358.964H359.053H359.141H359.229H359.318H359.406H359.494H359.583H359.671H359.759H359.848H359.936H360.025H360.113H360.202H360.29H360.379H360.467H360.556H360.645H360.733H360.822H360.91H360.999H361.088H361.176H361.265H361.354H361.443H361.531H361.62H361.709H361.798H361.886H361.975H362.064H362.153H362.242H362.33H362.419H362.508H362.597H362.686H362.775H362.864H362.953H363.042H363.13H363.219H363.308H363.397H363.486H363.575H363.664H363.753H363.842H363.931H364.02H364.109H364.198H364.287H364.376H364.465H364.554H364.643H364.732H364.821H364.91H364.999H365.088H365.177H365.266H365.355H365.444H365.533H365.622H365.711H365.8H365.889H365.978H366.067H366.156H366.245H366.334H366.423H366.512H366.601H366.69H366.779H366.868H366.957H367.046H367.135H367.224H367.313H367.402H367.49H367.579H367.668H367.757H367.846H367.935H368.024H368.113H368.202H368.29H368.379H368.468H368.557H368.646H368.735H368.823H368.912H369.001H369.09H369.178H369.267H369.356H369.445H369.533H369.622H369.711H369.799H369.888H369.977H370.065H370.154H370.242H370.331H370.419H370.508H370.597H370.685H370.773H370.862H370.95H371.039H371.127H371.216H371.304H371.392H371.481H371.569H371.657H371.745H371.834H371.922H372.01H372.098H372.186H372.275H372.363H372.451H372.539H372.627H372.715H372.803H372.891H372.979H373.067H373.155H373.243H373.33H373.418H373.506H373.594H373.682H373.769H373.857H373.945H374.032H374.12H374.207H374.295H374.382H374.47H374.557H374.645H374.732H374.819H374.907H374.994H375.081H375.169H375.256H375.343H375.43H375.517H375.604H375.691H375.778H375.865H375.952H376.039H376.126H376.213H376.3H376.386H376.473H376.56H376.646H376.733H376.82H376.906H376.993H377.079H377.165H377.252H377.338H377.424H377.511H377.597H377.683H377.769H377.855H377.941H378.027H378.113H378.199H378.285H378.371H378.457H378.543H378.628H378.714H378.8H378.885H378.971H379.056H379.142H379.227H379.312H379.398H379.483H379.568H379.653H379.738H379.823H379.908H379.993H380.078H380.163H380.248H380.333H380.418H380.502H380.587H380.671H380.756H380.84H380.925H381.009H381.094H381.178H381.262H381.346H381.43H381.514H381.598H381.682H381.766H381.85H381.934H382.018H382.101H382.185H382.268H382.352H382.435H382.519H382.602H382.685H382.769H382.852H382.935H383.018H383.101H383.184H383.267H383.349H383.432H383.515H383.597H383.68H383.763H383.845H383.927H384.01H384.092H384.174H384.256H384.338H384.42H384.502H384.584H384.666H384.748H384.829H384.911H384.992H385.074H385.155H385.237H385.318H385.399H385.48H385.561H385.642H385.723H385.804H385.885H385.966H386.046H386.127H386.207H386.288H386.368H386.448H386.529H386.609H386.689H386.769H386.849H386.929H387.009H387.088H387.168H387.248H387.327H387.407H387.486H387.565H387.644H387.723H387.803H387.882H387.96H388.039H388.118H388.197H388.275H388.354H388.432H388.511H388.589H388.667H388.745H388.823H388.901H388.979H389.057H389.135H389.212H389.29H389.367H389.445H389.522H389.599H389.676H389.753H389.83H389.907H389.984H390.061H390.137H390.214H390.29H390.367H390.443H390.519H390.595H390.671H390.747H390.823H390.899H390.975H391.05H391.126H391.201H391.277H391.352H391.427H391.502H391.577H391.652H391.727H391.801H391.876H391.95H392.025H392.099H392.173H392.248H392.322H392.396H392.469H392.543H392.617H392.69H392.764H392.837H392.911H392.984H393.057H393.13H393.203H393.276H393.348H393.421H393.494H393.566H393.638H393.711H393.783H393.855H393.927H393.998H394.07H394.142H394.213H394.285H394.356H394.427H394.498H394.569H394.64H394.711H394.782H394.853H394.923H394.993H395.064H395.134H395.204H395.274H395.344H395.414H395.483H395.553H395.622H395.692H395.761H395.83H395.899H395.968H396.037H396.105H396.174H396.243H396.311H396.379H396.447H396.515H396.583H396.651H396.719H396.786H396.854H396.921H396.988H397.056H397.123H397.19H397.256H397.323C406.402 89.0557 413.738 81.6952 413.738 72.623C413.738 65.5565 419.609 59.9049 426.67 60.1743L518.238 63.6673C523.99 63.8868 528.54 68.6137 528.54 74.3701C528.54 82.4808 535.115 89.0557 543.225 89.0557H585.314C596.072 89.0557 604.792 97.7761 604.792 108.533Z" fill="black" stroke="white" stroke-width="3.97502"/>
<path d="M582.134 109.632C571.004 95.4462 368.278 97.0224 354.763 109.632C341.248 122.242 345.223 259.376 354.763 271.986C364.303 284.596 567.029 281.444 582.134 271.986C597.239 262.529 593.264 123.819 582.134 109.632Z" stroke="white" stroke-width="4.77002"/>
<rect x="407.631" y="308.651" width="123.226" height="81.1426" rx="9.14254" fill="black" stroke="white" stroke-width="3.97502"/>
<g filter="url(#filter0_d)">
<path d="M632.22 188.445C632.22 190.021 631.425 190.809 629.835 190.809C628.245 190.809 627.45 190.021 627.45 188.445C627.45 186.869 628.245 186.081 629.835 186.081M632.22 188.445C632.22 186.869 631.425 186.081 629.835 186.081M632.22 188.445L637.785 179.776C637.785 179.776 634.802 182.08 629.835 186.081M604.792 164.407V212.877C629.835 212.877 652.572 209.567 652.89 188.445C653.208 167.323 629.835 164.013 604.792 164.407ZM623.475 204.996C623.475 204.996 647.722 204.996 648.12 187.854C648.517 170.712 623.475 170.712 623.475 170.712V188.642V204.996Z" stroke="white" stroke-width="1.59001"/>
</g>
<path d="M605.587 319.668C605.587 330.099 597.054 338.573 586.507 338.573C575.96 338.573 567.427 330.099 567.427 319.668C567.427 309.237 575.96 300.763 586.507 300.763C597.054 300.763 605.587 309.237 605.587 319.668Z" stroke="white" stroke-width="2.38501"/>
<ellipse cx="586.507" cy="319.668" rx="12.3226" ry="12.216" fill="white"/>
<path d="M671.572 312.969L670.38 307.058L671.572 303.511L657.66 300.753L656.865 303.511L654.48 302.723L644.542 339.371L646.132 340.159L645.337 343.706L658.852 346.858L660.442 342.524L664.815 339.371M671.572 312.969L656.865 309.816M671.572 312.969L668.194 326.17M664.815 339.371L650.505 335.825M664.815 339.371L668.194 326.17M668.194 326.17L653.685 322.821" stroke="white" stroke-width="3.18001" stroke-linejoin="round"/>
<path d="M446.984 316.91H425.519V364.197H446.984M446.984 316.91V364.197M446.984 316.91H458.412M446.984 364.197H492.697M492.697 316.91H513.764V364.197H492.697M492.697 316.91V364.197M492.697 316.91H481.268M469.84 316.91V340.947M469.84 316.91H481.268M469.84 316.91H458.412M481.268 316.91V340.947M458.412 316.91V340.947M312.628 266.075H301.896M312.628 266.075V250.806M312.628 266.075V281.345M312.628 235.536V204.996H279.636V245.19M312.628 235.536H301.896M312.628 235.536V250.806M312.628 250.806H301.896M312.628 296.615V327.155H279.636V255.14M312.628 296.615H301.896M312.628 296.615V281.345M312.628 281.345H301.896M279.636 255.14H292.753L297.126 250.806L292.753 245.19H279.636M279.636 255.14V245.19" stroke="white" stroke-width="3.18001" stroke-linejoin="round"/>
<path d="M468.668 262C466.91 261.987 465.229 261.276 463.995 260.024C462.76 258.772 462.073 257.082 462.084 255.323V155.342C462.084 151.661 465.037 148.665 468.668 148.665C470.427 148.676 472.109 149.385 473.345 150.635C474.581 151.885 475.27 153.575 475.261 155.333V255.323C475.261 259.005 472.308 261.992 468.668 261.992V262ZM491.066 234.666C489.308 234.653 487.627 233.942 486.392 232.69C485.158 231.438 484.47 229.748 484.481 227.99V135.337C484.481 131.656 487.427 128.661 491.066 128.661C491.937 128.666 492.799 128.843 493.602 129.182C494.405 129.52 495.133 130.013 495.745 130.633C496.358 131.253 496.842 131.988 497.17 132.795C497.498 133.602 497.664 134.466 497.659 135.337V227.99C497.659 231.671 494.706 234.666 491.066 234.666Z" fill="white"/>
<path d="M513.221 210.671C512.35 210.665 511.488 210.488 510.685 210.15C509.882 209.811 509.154 209.318 508.542 208.698C507.929 208.078 507.445 207.343 507.117 206.536C506.789 205.729 506.622 204.865 506.628 203.994V132.668C506.628 128.987 509.581 126 513.221 126C514.978 126.013 516.657 126.723 517.892 127.973C519.126 129.223 519.814 130.911 519.805 132.668V203.994C519.805 207.675 516.86 210.671 513.221 210.671ZM535.811 188.666C534.053 188.655 532.371 187.947 531.135 186.696C529.898 185.446 529.209 183.756 529.218 181.998V142.666C529.218 138.985 532.171 136.007 535.811 136.007C536.681 136.011 537.541 136.187 538.343 136.524C539.145 136.861 539.872 137.353 540.484 137.971C541.095 138.59 541.579 139.323 541.907 140.129C542.235 140.934 542.401 141.797 542.395 142.666V181.998C542.395 185.679 539.45 188.666 535.811 188.666Z" fill="white"/>
<path d="M446.33 234.666C445.458 234.661 444.597 234.484 443.794 234.145C442.991 233.807 442.262 233.313 441.65 232.693C441.038 232.073 440.554 231.339 440.226 230.532C439.897 229.725 439.731 228.861 439.737 227.99V135.337C439.737 131.656 442.69 128.661 446.33 128.661C448.088 128.674 449.769 129.384 451.003 130.636C452.238 131.888 452.925 133.579 452.914 135.337V227.99C452.914 231.671 449.969 234.666 446.33 234.666Z" fill="white"/>
<path d="M424.175 210.671C422.416 210.657 420.735 209.947 419.501 208.695C418.266 207.443 417.579 205.752 417.59 203.994V132.668C417.59 128.987 420.543 126 424.175 126C425.933 126.011 427.615 126.72 428.851 127.97C430.087 129.22 430.776 130.91 430.768 132.668V203.994C430.768 207.675 427.814 210.671 424.175 210.671ZM401.585 188.666C399.828 188.653 398.148 187.944 396.914 186.693C395.679 185.443 394.991 183.755 395 181.998V142.666C395 138.985 397.954 136.007 401.585 136.007C402.455 136.011 403.316 136.187 404.118 136.524C404.92 136.861 405.648 137.353 406.26 137.971C406.873 138.589 407.357 139.322 407.686 140.128C408.015 140.934 408.182 141.796 408.178 142.666V181.998C408.178 185.679 405.224 188.666 401.585 188.666" fill="white"/>
<defs>
<filter id="filter0_d" x="600.817" y="163.583" width="56.0509" height="56.4494" filterUnits="userSpaceOnUse" color-interpolation-filters="sRGB">
<feFlood flood-opacity="0" result="BackgroundImageFix"/>
<feColorMatrix in="SourceAlpha" type="matrix" values="0 0 0 0 0 0 0 0 0 0 0 0 0 0 0 0 0 0 127 0"/>
<feOffset dy="3.18001"/>
<feGaussianBlur stdDeviation="1.59001"/>
<feColorMatrix type="matrix" values="0 0 0 0 0 0 0 0 0 0 0 0 0 0 0 0 0 0 0.25 0"/>
<feBlend mode="normal" in2="BackgroundImageFix" result="effect1_dropShadow"/>
<feBlend mode="normal" in="SourceGraphic" in2="effect1_dropShadow" result="shape"/>
</filter>
</defs>
</svg>
