<svg width="960" height="440" viewBox="0 0 960 440" fill="none" xmlns="http://www.w3.org/2000/svg">
<path d="M158 118.696C357.907 150.526 603.202 142.734 706.552 167.56C706.552 167.56 795.195 184.898 834.946 167.56C874.696 150.221 894.01 131.287 898.546 142.734C902.918 153.767 871.118 172.42 856.013 178.593C874.298 178.593 938.296 146.753 938.296 167.56C938.296 188.366 851.243 205.784 851.243 205.784C851.243 205.784 936.706 198.691 951.811 215.241C966.719 231.576 838.523 231.792 838.523 231.792C838.523 231.792 921.203 253.465 927.563 271.986C933.935 290.541 827.791 253.465 827.791 253.465C827.791 253.465 810.18 247.554 797.58 253.465C776.523 263.344 832.561 268.44 832.561 290.983C832.561 309.855 739.336 256.561 724.043 245.19L685.087 247.554L158 290.113" stroke="white" stroke-width="3.18001"/>
<path d="M285.703 50.217L311.025 53.1588L309.342 67.3894L307.425 83.6062L305.508 99.823L303.826 114.054L278.504 111.112L285.703 50.217Z" fill="white" stroke="black" stroke-width="4" stroke-linecap="round" stroke-linejoin="round"/>
<path d="M638.182 349.223H270.493L273.445 144.31L307.935 125.395L317.602 48.1586L698.205 125.395V166.87V177.239V187.608V197.976V208.345V218.714V229.083V239.452V249.82V291.296H653.716L638.182 349.223Z" fill="black"/>
<path d="M698.205 125.395L317.602 48.1586L307.935 125.395L273.445 144.31L270.493 349.223H638.182L653.716 291.296M698.205 125.395L653.716 291.296M698.205 125.395V166.87M653.716 291.296H698.205V249.82M698.205 208.345H682.702M698.205 208.345V197.976M698.205 208.345V218.714M698.205 166.87H693.435M698.205 166.87V177.239M698.205 187.608H687.87M698.205 187.608V177.239M698.205 187.608V197.976M698.205 177.239H690.652M698.205 197.976H685.087M698.205 249.82H671.175M698.205 249.82V239.452M698.205 229.083H678.33M698.205 229.083V218.714M698.205 229.083V239.452M698.205 218.714L680.317 219.182M698.205 239.452H674.355" stroke="white" stroke-width="4.77002"/>
<path d="M335.286 108.533C335.286 97.7754 344.001 89.0557 354.758 89.0557H354.845H354.932H355.019H355.106H355.193H355.28H355.367H355.454H355.541H355.628H355.716H355.803H355.89H355.978H356.065H356.153H356.24H356.327H356.415H356.502H356.59H356.678H356.765H356.853H356.941H357.028H357.116H357.204H357.292H357.379H357.467H357.555H357.643H357.731H357.819H357.907H357.995H358.083H358.171H358.259H358.347H358.435H358.523H358.611H358.7H358.788H358.876H358.964H359.053H359.141H359.229H359.318H359.406H359.494H359.583H359.671H359.759H359.848H359.936H360.025H360.113H360.202H360.29H360.379H360.467H360.556H360.645H360.733H360.822H360.91H360.999H361.088H361.176H361.265H361.354H361.443H361.531H361.62H361.709H361.798H361.886H361.975H362.064H362.153H362.242H362.33H362.419H362.508H362.597H362.686H362.775H362.864H362.953H363.042H363.13H363.219H363.308H363.397H363.486H363.575H363.664H363.753H363.842H363.931H364.02H364.109H364.198H364.287H364.376H364.465H364.554H364.643H364.732H364.821H364.91H364.999H365.088H365.177H365.266H365.355H365.444H365.533H365.622H365.711H365.8H365.889H365.978H366.067H366.156H366.245H366.334H366.423H366.512H366.601H366.69H366.779H366.868H366.957H367.046H367.135H367.224H367.313H367.402H367.49H367.579H367.668H367.757H367.846H367.935H368.024H368.113H368.202H368.29H368.379H368.468H368.557H368.646H368.735H368.823H368.912H369.001H369.09H369.178H369.267H369.356H369.445H369.533H369.622H369.711H369.799H369.888H369.977H370.065H370.154H370.242H370.331H370.419H370.508H370.597H370.685H370.773H370.862H370.95H371.039H371.127H371.216H371.304H371.392H371.481H371.569H371.657H371.745H371.834H371.922H372.01H372.098H372.186H372.275H372.363H372.451H372.539H372.627H372.715H372.803H372.891H372.979H373.067H373.155H373.243H373.33H373.418H373.506H373.594H373.681H373.769H373.857H373.945H374.032H374.12H374.207H374.295H374.382H374.47H374.557H374.645H374.732H374.819H374.907H374.994H375.081H375.169H375.256H375.343H375.43H375.517H375.604H375.691H375.778H375.865H375.952H376.039H376.126H376.213H376.3H376.386H376.473H376.56H376.646H376.733H376.82H376.906H376.993H377.079H377.165H377.252H377.338H377.424H377.511H377.597H377.683H377.769H377.855H377.941H378.027H378.113H378.199H378.285H378.371H378.457H378.543H378.628H378.714H378.8H378.885H378.971H379.056H379.142H379.227H379.312H379.398H379.483H379.568H379.653H379.738H379.823H379.908H379.993H380.078H380.163H380.248H380.333H380.418H380.502H380.587H380.671H380.756H380.84H380.925H381.009H381.094H381.178H381.262H381.346H381.43H381.514H381.598H381.682H381.766H381.85H381.934H382.018H382.101H382.185H382.268H382.352H382.435H382.519H382.602H382.685H382.769H382.852H382.935H383.018H383.101H383.184H383.267H383.349H383.432H383.515H383.597H383.68H383.762H383.845H383.927H384.01H384.092H384.174H384.256H384.338H384.42H384.502H384.584H384.666H384.748H384.829H384.911H384.992H385.074H385.155H385.237H385.318H385.399H385.48H385.561H385.642H385.723H385.804H385.885H385.966H386.046H386.127H386.207H386.288H386.368H386.448H386.529H386.609H386.689H386.769H386.849H386.929H387.009H387.088H387.168H387.248H387.327H387.407H387.486H387.565H387.644H387.723H387.803H387.882H387.96H388.039H388.118H388.197H388.275H388.354H388.432H388.511H388.589H388.667H388.745H388.823H388.901H388.979H389.057H389.135H389.212H389.29H389.367H389.445H389.522H389.599H389.676H389.753H389.83H389.907H389.984H390.061H390.137H390.214H390.29H390.367H390.443H390.519H390.595H390.671H390.747H390.823H390.899H390.975H391.05H391.126H391.201H391.277H391.352H391.427H391.502H391.577H391.652H391.727H391.801H391.876H391.95H392.025H392.099H392.173H392.248H392.322H392.396H392.469H392.543H392.617H392.69H392.764H392.837H392.911H392.984H393.057H393.13H393.203H393.276H393.348H393.421H393.494H393.566H393.638H393.711H393.783H393.855H393.927H393.998H394.07H394.142H394.213H394.285H394.356H394.427H394.498H394.569H394.64H394.711H394.782H394.853H394.923H394.993H395.064H395.134H395.204H395.274H395.344H395.414H395.483H395.553H395.622H395.692H395.761H395.83H395.899H395.968H396.037H396.105H396.174H396.243H396.311H396.379H396.447H396.515H396.583H396.651H396.719H396.786H396.854H396.921H396.988H397.056H397.123H397.19H397.256H397.323C406.402 89.0557 413.738 81.6952 413.738 72.623C413.738 65.5565 419.609 59.9049 426.67 60.1743L518.238 63.6673C523.99 63.8868 528.54 68.6137 528.54 74.3701C528.54 82.4808 535.115 89.0557 543.225 89.0557H585.314C596.072 89.0557 604.792 97.7761 604.792 108.533V271.013C604.792 281.77 596.072 290.49 585.314 290.49H354.763C344.006 290.49 335.286 281.77 335.286 271.013V108.533Z" fill="black" stroke="white" stroke-width="3.97502"/>
<path d="M582.134 109.632C571.004 95.4462 368.278 97.0224 354.763 109.632C341.248 122.242 345.223 259.376 354.763 271.986C364.303 284.596 567.029 281.444 582.134 271.986C597.239 262.529 593.264 123.819 582.134 109.632Z" stroke="white" stroke-width="4.77002"/>
<rect x="407.631" y="308.651" width="123.226" height="81.1426" rx="9.14254" fill="black" stroke="white" stroke-width="3.97502"/>
<g filter="url(#filter0_d)">
<path d="M632.22 188.445C632.22 190.021 631.425 190.809 629.835 190.809C628.245 190.809 627.45 190.021 627.45 188.445C627.45 186.869 628.245 186.081 629.835 186.081M632.22 188.445C632.22 186.869 631.425 186.081 629.835 186.081M632.22 188.445L637.785 179.776C637.785 179.776 634.802 182.08 629.835 186.081M604.792 164.407V212.877C629.835 212.877 652.572 209.567 652.89 188.445C653.208 167.323 629.835 164.013 604.792 164.407ZM623.475 204.996C623.475 204.996 647.722 204.996 648.12 187.854C648.517 170.712 623.475 170.712 623.475 170.712V188.642V204.996Z" stroke="white" stroke-width="1.59001"/>
</g>
<path d="M605.587 319.668C605.587 330.099 597.054 338.573 586.507 338.573C575.96 338.573 567.427 330.099 567.427 319.668C567.427 309.237 575.96 300.763 586.507 300.763C597.054 300.763 605.587 309.237 605.587 319.668Z" stroke="white" stroke-width="2.38501"/>
<ellipse cx="586.507" cy="319.668" rx="12.3226" ry="12.216" fill="white"/>
<path d="M671.572 312.969L670.38 307.058L671.572 303.511L657.66 300.753L656.865 303.511L654.48 302.723L644.542 339.371L646.132 340.159L645.337 343.706L658.852 346.858L660.442 342.524L664.815 339.371M671.572 312.969L656.865 309.816M671.572 312.969L668.194 326.17M664.815 339.371L650.505 335.825M664.815 339.371L668.194 326.17M668.194 326.17L653.685 322.821" stroke="white" stroke-width="3.18001" stroke-linejoin="round"/>
<path d="M446.984 316.91H425.519V364.197H446.984M446.984 316.91V364.197M446.984 316.91H458.412M446.984 364.197H492.697M492.697 316.91H513.764V364.197H492.697M492.697 316.91V364.197M492.697 316.91H481.268M469.84 316.91V340.947M469.84 316.91H481.268M469.84 316.91H458.412M481.268 316.91V340.947M458.412 316.91V340.947M312.628 266.075H301.896M312.628 266.075V250.806M312.628 266.075V281.345M312.628 235.536V204.996H279.636V245.19M312.628 235.536H301.896M312.628 235.536V250.806M312.628 250.806H301.896M312.628 296.615V327.155H279.636V255.14M312.628 296.615H301.896M312.628 296.615V281.345M312.628 281.345H301.896M279.636 255.14H292.753L297.126 250.806L292.753 245.19H279.636M279.636 255.14V245.19" stroke="white" stroke-width="3.18001" stroke-linejoin="round"/>
<path d="M486.95 127C486.95 127.218 486.95 127.436 486.95 127.666C486.95 131.426 485.457 135.031 482.798 137.689C480.14 140.347 476.535 141.841 472.776 141.841C469.016 141.841 465.411 140.347 462.753 137.689C460.094 135.031 458.601 131.426 458.601 127.666C458.601 127.436 458.601 127.218 458.601 127H411V250.62H534.62V127H486.95ZM469.996 237.387L463.977 207.602H463.873L457.36 237.387H449.067L439.671 193.623H447.861L453.466 223.408H453.57L460.324 193.623H467.986L474.051 223.776H474.154L480.552 193.623H488.593L478.151 237.387H469.996ZM515.093 237.387L512.301 227.647H497.564L495.416 237.387H487.226L497.817 193.623H510.739L523.616 237.387H515.093Z" fill="white"/>
<path d="M502.744 204.409L499.172 220.467H510.291L506.19 204.409H502.744Z" fill="white"/>
<defs>
<filter id="filter0_d" x="600.817" y="163.583" width="56.0509" height="56.4494" filterUnits="userSpaceOnUse" color-interpolation-filters="sRGB">
<feFlood flood-opacity="0" result="BackgroundImageFix"/>
<feColorMatrix in="SourceAlpha" type="matrix" values="0 0 0 0 0 0 0 0 0 0 0 0 0 0 0 0 0 0 127 0"/>
<feOffset dy="3.18001"/>
<feGaussianBlur stdDeviation="1.59001"/>
<feColorMatrix type="matrix" values="0 0 0 0 0 0 0 0 0 0 0 0 0 0 0 0 0 0 0.25 0"/>
<feBlend mode="normal" in2="BackgroundImageFix" result="effect1_dropShadow"/>
<feBlend mode="normal" in="SourceGraphic" in2="effect1_dropShadow" result="shape"/>
</filter>
</defs>
</svg>
