<svg width="960" height="440" viewBox="0 0 960 440" fill="none" xmlns="http://www.w3.org/2000/svg">
<g clip-path="url(#clip0)">
<path d="M785.724 277.677L777.237 238.629H777.092L767.908 277.677H756.214L742.966 220.302H754.514L762.418 259.35H762.563L772.087 220.302H782.89L791.442 259.832H791.587L800.609 220.302H811.946L797.224 277.677H785.724Z" fill="white"/>
<path fill-rule="evenodd" clip-rule="evenodd" d="M849.312 277.677L845.376 264.907H824.596L821.567 277.677H810.019L824.952 220.302H843.173L861.33 277.677H849.312ZM826.863 255.495L831.901 234.443H836.76L842.542 255.495H826.863Z" fill="white"/>
<path d="M789.644 181.115C801.283 181.115 808.191 175.365 808.191 164.585C808.191 153.804 798.847 160.991 798.847 132.961H876.846V206.27C904.876 206.27 897.689 196.927 908.469 196.927C919.25 196.927 925 203.835 925 215.474C925 227.113 919.969 235.019 908.469 235.019C896.97 235.019 904.157 224.957 876.846 224.957V295.025H702.539V132.961H780.161C780.161 160.272 770.099 153.085 770.099 164.585C770.099 176.084 778.005 181.115 789.644 181.115Z" stroke="white" stroke-width="5"/>
<path d="M102.611 282.957V127.814H196.128L222.642 152.536V282.957H102.611Z" fill="black"/>
<path d="M222.642 152.536V282.957H102.611V127.814H196.128M222.642 152.536L196.128 127.814M222.642 152.536H196.128V127.814M123.393 176.901H201.86M123.393 190.695H201.86M123.393 204.49H201.86M123.393 216.851H201.86M123.393 230.646H201.86M123.393 244.44H201.86" stroke="white" stroke-width="7"/>
<path d="M88.2794 304.455V149.312H181.796L208.31 174.034V304.455H88.2794Z" fill="black"/>
<path d="M208.31 174.034V304.455H88.2794V149.312H181.796M208.31 174.034L181.796 149.312M208.31 174.034H181.796V149.312M109.061 198.399H187.528M109.061 212.193H187.528M109.061 225.988H187.528M109.061 238.349H187.528M109.061 252.144H187.528M109.061 265.938H187.528" stroke="white" stroke-width="7"/>
<path d="M371.816 215.688L334.095 245.195L334.094 230.442L307.689 230.442L307.689 200.937L334.094 200.937L334.093 186.184L371.816 215.688Z" fill="white"/>
<path d="M380.48 384.929C339.424 406.573 428.932 418.451 477.6 417.987C523.728 417.547 611.894 406.241 573.611 384.929C566.067 380.73 577.192 377.933 567.73 376.153C503.065 398.16 462.37 398.561 389.816 376.153C378.832 377.832 389.618 380.112 380.48 384.929Z" fill="white"/>
<path d="M480.373 95.6778C489.993 95.6095 503.583 94.7229 516.499 93.0797C510.302 85.6259 503.81 76.5985 497.615 65.8323C486.262 65.4063 474.348 65.5192 462.987 66.0999C456.866 76.552 450.398 85.3593 444.171 92.6731C457.048 94.6097 470.586 95.7472 480.373 95.6778Z" fill="white"/>
<path d="M410.504 74.5578C394.936 81.6165 418.21 88.7688 444.171 92.6731C450.398 85.3593 456.866 76.552 462.987 66.0999C440.393 67.2547 419.983 70.2598 410.504 74.5578Z" fill="white"/>
<path d="M548.578 74.5578C538.673 69.3876 519.153 66.6404 497.615 65.8323C503.81 76.5985 510.302 85.6259 516.499 93.0797C542.408 89.7835 565.6 83.4431 548.578 74.5578Z" fill="white"/>
<path d="M477.2 36.5042C472.931 47.5663 468.079 57.4025 462.987 66.0999C474.348 65.5192 486.262 65.4063 497.615 65.8323C492.628 57.1633 487.833 47.367 483.542 36.3571C482.569 36.6884 481.506 36.8826 480.373 36.9092C479.252 36.9355 478.188 36.7903 477.2 36.5042Z" fill="white"/>
<path fill-rule="evenodd" clip-rule="evenodd" d="M410.504 318.679V373.451L412.147 373.721C446.109 379.301 463.026 382.081 479.94 382.06C496.726 382.039 513.509 379.259 546.948 373.721L548.578 373.451V318.679C479.731 333.961 478.724 333.739 413.453 319.33L410.504 318.679ZM473.715 215.511C473.715 215.511 472.394 219.786 473.715 221.207C475.431 223.055 479.818 220.102 479.818 220.102L494.806 201.006L473.715 215.511Z" fill="white"/>
<path d="M410.504 122.307L413.33 122.976C480.385 138.845 481.305 139.063 548.578 122.307C548.578 122.307 537.155 115.739 522.787 100.243C489.408 108.28 470.712 108.259 437.333 100.243C422.485 115.73 410.504 122.307 410.504 122.307Z" fill="white"/>
<path d="M380.48 384.929L379.548 383.16L379.548 383.16L380.48 384.929ZM477.6 417.987L477.581 415.987L477.6 417.987ZM573.611 384.929L574.584 383.182L573.611 384.929ZM548.578 122.307H550.578V121.15L549.575 120.574L548.578 122.307ZM410.504 122.307L409.541 120.554L408.504 121.124V122.307H410.504ZM410.504 74.5578L411.33 76.3793L411.33 76.3793L410.504 74.5578ZM548.578 74.5578L547.653 76.3308L547.653 76.3308L548.578 74.5578ZM480.373 95.6778L480.358 93.6778L480.373 95.6778ZM470.391 27.7266L472.39 27.7883L472.39 27.7883L470.391 27.7266ZM480.373 36.9092L480.326 34.9097L480.373 36.9092ZM489.799 27.7266L487.8 27.7879L489.799 27.7266ZM480.373 19.0031L480.326 21.0026L480.373 19.0031ZM478.155 182.998L478.168 180.998L478.155 182.998ZM511.984 215.511L509.985 215.435L511.984 215.511ZM478.155 246.187L478.142 244.187L478.155 246.187ZM443.771 215.511L445.769 215.435L443.771 215.511ZM473.715 221.207L475.18 219.846L475.18 219.846L473.715 221.207ZM473.715 215.511L472.581 213.863L472.009 214.257L471.804 214.921L473.715 215.511ZM494.806 201.006L496.379 202.24C496.989 201.463 496.94 200.357 496.264 199.637C495.588 198.916 494.487 198.798 493.673 199.358L494.806 201.006ZM479.818 220.102L480.935 221.761L481.197 221.585L481.391 221.337L479.818 220.102ZM479.94 382.06L479.942 384.06L479.942 384.06L479.94 382.06ZM546.948 373.721L546.621 371.748L546.621 371.748L546.948 373.721ZM412.147 373.721L412.471 371.748L412.471 371.748L412.147 373.721ZM437.333 100.243L435.889 98.8593L437.333 100.243ZM522.787 100.243L524.254 98.8835L522.787 100.243ZM379.548 383.16C374.334 385.909 370.818 388.68 369.139 391.581C368.27 393.082 367.869 394.66 368.038 396.266C368.205 397.859 368.913 399.292 369.94 400.554C371.943 403.015 375.373 405.083 379.551 406.863C383.786 408.667 389.034 410.275 394.925 411.693C418.458 417.359 453.175 420.22 477.619 419.987L477.581 415.987C453.357 416.218 418.985 413.372 395.862 407.804C390.089 406.414 385.075 404.868 381.119 403.183C377.106 401.474 374.416 399.717 373.042 398.028C372.38 397.215 372.083 396.492 372.016 395.848C371.95 395.218 372.083 394.48 372.601 393.585C373.694 391.696 376.363 389.361 381.413 386.699L379.548 383.16ZM477.619 419.987C500.775 419.766 534.51 416.822 557.728 411.229C563.541 409.829 568.747 408.251 572.988 406.485C577.178 404.739 580.637 402.726 582.743 400.35C583.817 399.139 584.604 397.761 584.886 396.217C585.174 394.648 584.911 393.077 584.161 391.563C582.719 388.649 579.455 385.894 574.584 383.182L572.638 386.677C577.337 389.293 579.693 391.553 580.576 393.338C580.99 394.173 581.066 394.873 580.952 395.496C580.833 396.143 580.477 396.877 579.75 397.697C578.253 399.385 575.475 401.116 571.45 402.792C567.475 404.447 562.49 405.968 556.791 407.34C533.965 412.839 500.554 415.768 477.581 415.987L477.619 419.987ZM550.578 373.451V318.679H546.578V373.451H550.578ZM408.504 318.679V373.451H412.504V318.679H408.504ZM550.578 318.679V122.307H546.578V318.679H550.578ZM408.504 122.307V318.679H412.504V122.307H408.504ZM491.799 27.6652C491.624 21.9835 486.95 17.1577 480.42 17.0037L480.326 21.0026C484.833 21.1089 487.694 24.33 487.8 27.7879L491.799 27.6652ZM480.42 17.0037C473.73 16.8459 468.573 21.8029 468.392 27.6648L472.39 27.7883C472.499 24.2677 475.685 20.8931 480.326 21.0026L480.42 17.0037ZM478.142 184.998C496.855 185.119 510.557 200.294 509.985 215.435L513.983 215.586C514.646 198.023 498.97 181.133 478.168 180.998L478.142 184.998ZM509.985 215.435C509.429 230.164 496.255 244.069 478.142 244.187L478.168 248.187C498.336 248.056 513.343 232.539 513.983 215.586L509.985 215.435ZM478.142 244.187C459.876 244.306 446.33 230.275 445.769 215.435L441.772 215.586C442.418 232.684 457.842 248.32 478.168 248.187L478.142 244.187ZM445.769 215.435C445.194 200.188 459.28 184.875 478.142 184.998L478.168 180.998C457.213 180.861 441.104 197.881 441.772 215.586L445.769 215.435ZM475.18 219.846C475.284 219.958 475.191 219.941 475.147 219.513C475.107 219.129 475.13 218.633 475.202 218.089C475.272 217.558 475.38 217.052 475.472 216.675C475.517 216.488 475.558 216.337 475.586 216.237C475.6 216.186 475.611 216.149 475.618 216.125C475.622 216.114 475.624 216.106 475.625 216.102C475.626 216.099 475.626 216.098 475.626 216.098C475.626 216.098 475.626 216.098 475.626 216.099C475.626 216.099 475.626 216.099 475.626 216.1C475.626 216.1 475.626 216.1 475.626 216.1C475.626 216.1 475.625 216.101 473.715 215.511C471.804 214.921 471.803 214.921 471.803 214.921C471.803 214.921 471.803 214.922 471.803 214.922C471.803 214.923 471.803 214.923 471.802 214.924C471.802 214.926 471.801 214.927 471.801 214.929C471.8 214.933 471.798 214.938 471.796 214.944C471.793 214.956 471.788 214.973 471.782 214.993C471.77 215.033 471.754 215.088 471.735 215.158C471.696 215.296 471.643 215.491 471.586 215.727C471.472 216.195 471.331 216.848 471.237 217.563C471.144 218.266 471.084 219.105 471.168 219.923C471.248 220.695 471.485 221.746 472.249 222.568L475.18 219.846ZM474.848 217.159L495.939 202.653L493.673 199.358L472.581 213.863L474.848 217.159ZM493.233 199.771L478.245 218.867L481.391 221.337L496.379 202.24L493.233 199.771ZM479.818 220.102C478.701 218.443 478.702 218.443 478.702 218.442C478.702 218.442 478.703 218.442 478.703 218.442C478.703 218.442 478.703 218.441 478.704 218.441C478.704 218.441 478.704 218.441 478.704 218.441C478.704 218.441 478.703 218.441 478.701 218.443C478.697 218.445 478.69 218.451 478.678 218.458C478.655 218.473 478.617 218.498 478.566 218.53C478.464 218.594 478.311 218.686 478.121 218.794C477.734 219.013 477.224 219.275 476.688 219.482C476.132 219.697 475.667 219.806 475.34 219.815C475.034 219.823 475.086 219.745 475.18 219.846L472.249 222.568C473.201 223.593 474.445 223.839 475.444 223.813C476.424 223.788 477.377 223.505 478.132 223.213C478.908 222.913 479.601 222.552 480.091 222.275C480.339 222.135 480.542 222.011 480.687 221.921C480.759 221.876 480.817 221.838 480.859 221.811C480.88 221.798 480.897 221.786 480.91 221.778C480.916 221.774 480.921 221.77 480.926 221.767C480.928 221.766 480.929 221.765 480.931 221.764C480.932 221.763 480.933 221.763 480.933 221.762C480.933 221.762 480.934 221.762 480.934 221.762C480.934 221.761 480.935 221.761 479.818 220.102ZM444.468 90.6953C431.508 88.7462 419.429 86.0117 412.575 82.9703C410.873 82.215 409.584 81.4792 408.705 80.7892C407.792 80.0718 407.543 79.5779 407.495 79.3669C407.481 79.3075 407.408 79.0817 407.893 78.5516C408.43 77.9634 409.486 77.2151 411.33 76.3793L409.678 72.7363C407.629 73.6652 406.008 74.6844 404.939 75.8537C403.818 77.0811 403.213 78.6027 403.597 80.2674C403.947 81.7806 405.028 82.9877 406.235 83.935C407.476 84.9098 409.096 85.8024 410.953 86.6264C418.334 89.9019 430.873 92.6957 443.873 94.6509L444.468 90.6953ZM411.33 76.3793C415.814 74.3462 423.066 72.5525 432.138 71.1259C441.165 69.7063 451.844 68.672 463.089 68.0973L462.884 64.1025C451.536 64.6826 440.713 65.7283 431.517 67.1744C422.366 68.6135 414.673 70.4714 409.678 72.7363L411.33 76.3793ZM464.712 67.1105C469.858 58.3233 474.757 48.3901 479.066 37.2244L475.335 35.784C471.105 46.7424 466.301 56.4817 461.261 65.0893L464.712 67.1105ZM477.757 34.5832C474.4 33.6106 472.301 30.6804 472.39 27.7883L468.392 27.6648C468.241 32.5628 471.712 36.9964 476.644 38.4252L477.757 34.5832ZM487.8 27.7879C487.887 30.6224 486.021 33.4003 482.897 34.4638L484.186 38.2504C488.871 36.6556 491.943 32.3631 491.799 27.6652L487.8 27.7879ZM481.678 37.0834C486.007 48.1893 490.845 58.0761 495.882 66.8297L499.349 64.8349C494.41 56.2506 489.659 46.5447 485.405 35.6308L481.678 37.0834ZM497.54 67.8309C508.254 68.2329 518.432 69.1162 527.138 70.5333C535.885 71.957 542.987 73.8956 547.653 76.3308L549.504 72.7848C544.264 70.0498 536.655 68.0297 527.78 66.5852C518.865 65.1341 508.514 64.2398 497.69 63.8337L497.54 67.8309ZM547.653 76.3308C549.683 77.3906 550.954 78.3338 551.675 79.121C552.381 79.8912 552.419 80.3435 552.4 80.5421C552.376 80.7865 552.203 81.2632 551.42 81.9509C550.646 82.6304 549.454 83.3545 547.817 84.0907C541.21 87.0628 529.206 89.4469 516.247 91.0957L516.752 95.0637C529.701 93.4162 542.248 90.982 549.458 87.7386C551.276 86.9209 552.867 86.0038 554.059 84.9567C555.243 83.9178 556.219 82.5825 556.381 80.9315C556.547 79.2347 555.806 77.7082 554.624 76.4181C553.457 75.1449 551.729 73.9463 549.504 72.7848L547.653 76.3308ZM548.145 316.727C513.646 324.385 496.421 328.086 479.668 328.139C462.923 328.191 446.6 324.599 413.884 317.377L413.022 321.283C445.577 328.47 462.393 332.193 479.681 332.139C496.961 332.084 514.664 328.256 549.011 320.632L548.145 316.727ZM413.884 317.377C412.915 317.163 411.932 316.946 410.935 316.726L410.073 320.632C411.07 320.852 412.053 321.069 413.022 321.283L413.884 317.377ZM410.043 124.254C410.998 124.48 411.94 124.702 412.869 124.922L413.791 121.03C412.861 120.81 411.919 120.587 410.964 120.361L410.043 124.254ZM412.869 124.922C446.307 132.836 463.567 136.933 480.879 136.876C498.195 136.819 515.508 132.605 549.061 124.248L548.095 120.367C514.375 128.765 497.592 132.821 480.866 132.876C464.136 132.931 447.409 128.986 413.791 121.03L412.869 124.922ZM516.247 91.0957C503.401 92.7299 489.891 93.6102 480.358 93.6778L480.387 97.6777C490.095 97.6089 503.765 96.7158 516.752 95.0637L516.247 91.0957ZM480.42 38.9086C481.753 38.8774 483.017 38.6483 484.186 38.2504L482.897 34.4638C482.12 34.7284 481.259 34.8878 480.326 34.9097L480.42 38.9086ZM495.882 66.8297C502.137 77.701 508.696 86.822 514.961 94.3583L518.037 91.8011C511.909 84.4299 505.483 75.4961 499.349 64.8349L495.882 66.8297ZM463.089 68.0973C474.395 67.5194 486.25 67.4073 497.54 67.8309L497.69 63.8337C486.275 63.4054 474.302 63.5189 462.884 64.1025L463.089 68.0973ZM480.358 93.6778C470.706 93.7463 457.276 92.6216 444.468 90.6953L443.873 94.6509C456.819 96.5979 470.466 97.7481 480.387 97.6777L480.358 93.6778ZM476.644 38.4252C477.827 38.7681 479.095 38.9397 480.42 38.9086L480.326 34.9097C479.409 34.9312 478.548 34.8124 477.757 34.5832L476.644 38.4252ZM445.694 93.9696C451.991 86.5728 458.529 77.6704 464.712 67.1105L461.261 65.0893C455.204 75.4335 448.804 84.1458 442.648 91.3766L445.694 93.9696ZM410.073 320.632L413.022 321.283L413.884 317.377L410.935 316.726L410.073 320.632ZM413.791 121.03L410.964 120.361L410.043 124.254L412.869 124.922L413.791 121.03ZM410.504 373.451C410.289 371.463 410.289 371.463 410.288 371.463C410.288 371.463 410.288 371.463 410.288 371.463C410.288 371.463 410.287 371.463 410.286 371.463C410.285 371.463 410.283 371.463 410.28 371.464C410.275 371.464 410.267 371.465 410.257 371.466C410.237 371.468 410.207 371.472 410.167 371.476C410.088 371.485 409.971 371.498 409.819 371.515C409.515 371.548 409.069 371.598 408.502 371.663C407.368 371.793 405.749 371.983 403.805 372.222C399.919 372.701 394.726 373.379 389.513 374.176L390.118 378.13C395.278 377.341 400.429 376.668 404.294 376.192C406.225 375.955 407.833 375.766 408.958 375.637C409.52 375.573 409.961 375.523 410.261 375.49C410.411 375.473 410.526 375.461 410.603 375.452C410.642 375.448 410.671 375.445 410.69 375.443C410.7 375.442 410.707 375.441 410.712 375.44C410.714 375.44 410.716 375.44 410.717 375.44C410.718 375.44 410.718 375.44 410.719 375.44C410.719 375.44 410.719 375.44 410.719 375.44C410.719 375.44 410.719 375.44 410.504 373.451ZM389.513 374.176C388.094 374.393 386.96 374.629 386.061 374.899C385.181 375.163 384.399 375.496 383.782 375.975C383.099 376.505 382.661 377.183 382.49 377.975C382.343 378.653 382.429 379.292 382.473 379.624C382.576 380.413 382.593 380.594 382.45 380.888C382.279 381.241 381.685 382.033 379.548 383.16L381.413 386.699C383.844 385.417 385.329 384.118 386.049 382.635C386.797 381.095 386.517 379.697 386.439 379.104C386.392 378.745 386.416 378.742 386.4 378.82C386.385 378.886 386.355 378.969 386.304 379.047C386.256 379.121 386.219 379.147 386.235 379.134C386.295 379.089 386.543 378.93 387.211 378.73C387.86 378.535 388.792 378.332 390.118 378.13L389.513 374.176ZM574.584 383.182C572.897 382.243 572.808 381.68 572.806 381.667C572.778 381.523 572.814 381.337 573.212 380.459C573.36 380.133 573.621 379.565 573.729 378.952C573.855 378.241 573.796 377.362 573.217 376.536C572.701 375.801 571.93 375.342 571.155 375.021C570.358 374.691 569.346 374.422 568.1 374.187L567.36 378.118C568.48 378.329 569.19 378.537 569.625 378.717C570.082 378.906 570.053 378.991 569.942 378.833C569.769 378.586 569.779 378.319 569.79 378.258C569.791 378.253 569.784 378.293 569.744 378.398C569.704 378.504 569.65 378.629 569.568 378.808C569.31 379.378 568.57 380.789 568.874 382.407C569.203 384.154 570.553 385.516 572.638 386.677L574.584 383.182ZM568.1 374.187C562.793 373.189 557.962 372.507 554.458 372.075C552.705 371.859 551.282 371.705 550.294 371.605C549.801 371.555 549.416 371.519 549.153 371.495C549.022 371.483 548.921 371.474 548.853 371.467C548.818 371.464 548.792 371.462 548.774 371.461C548.765 371.46 548.758 371.459 548.753 371.459C548.751 371.459 548.749 371.459 548.748 371.458C548.747 371.458 548.746 371.458 548.746 371.458C548.746 371.458 548.746 371.458 548.745 371.458C548.745 371.458 548.745 371.458 548.578 373.451C548.411 375.444 548.411 375.444 548.411 375.444C548.411 375.444 548.411 375.444 548.411 375.444C548.411 375.444 548.411 375.444 548.412 375.444C548.412 375.444 548.414 375.444 548.415 375.445C548.419 375.445 548.425 375.445 548.432 375.446C548.448 375.447 548.471 375.449 548.503 375.452C548.566 375.458 548.661 375.466 548.787 375.478C549.038 375.501 549.41 375.536 549.891 375.585C550.853 375.683 552.247 375.833 553.968 376.045C557.413 376.47 562.157 377.139 567.36 378.118L568.1 374.187ZM389.225 378.064C425.599 389.298 454.127 394.859 481.735 394.809C509.354 394.758 535.922 389.091 568.374 378.046L567.086 374.259C534.874 385.222 508.761 390.759 481.728 390.809C454.683 390.858 426.586 385.416 390.406 374.242L389.225 378.064ZM410.973 320.623C436.719 314.404 457.027 311.327 477.852 311.331C498.685 311.336 520.128 314.424 548.145 320.632L549.011 316.727C520.856 310.489 499.096 307.336 477.853 307.331C456.602 307.327 435.959 310.472 410.034 316.735L410.973 320.623ZM548.251 371.478L546.621 371.748L547.274 375.694L548.905 375.424L548.251 371.478ZM546.621 371.748C513.12 377.296 496.523 380.039 479.937 380.06L479.942 384.06C496.929 384.039 513.897 381.222 547.274 375.694L546.621 371.748ZM479.937 380.06C463.226 380.081 446.497 377.338 412.471 371.748L411.823 375.695C445.722 381.265 462.827 384.081 479.942 384.06L479.937 380.06ZM412.471 371.748L410.828 371.478L410.179 375.425L411.823 375.695L412.471 371.748ZM410.179 375.425C410.732 375.515 411.279 375.605 411.823 375.695L412.471 371.748C411.928 371.658 411.38 371.568 410.828 371.478L410.179 375.425ZM547.274 375.694C547.813 375.605 548.357 375.515 548.905 375.424L548.251 371.478C547.703 371.569 547.16 371.659 546.621 371.748L547.274 375.694ZM410.504 122.307C411.466 124.06 411.467 124.06 411.467 124.06C411.467 124.06 411.468 124.06 411.468 124.059C411.469 124.059 411.47 124.058 411.472 124.058C411.474 124.056 411.477 124.054 411.481 124.052C411.489 124.048 411.5 124.042 411.514 124.034C411.541 124.019 411.58 123.997 411.63 123.968C411.731 123.911 411.875 123.828 412.063 123.718C412.437 123.497 412.982 123.168 413.678 122.727C415.071 121.845 417.072 120.512 419.538 118.692C424.47 115.052 431.265 109.462 438.777 101.628L435.889 98.8593C428.553 106.511 421.934 111.953 417.163 115.473C414.778 117.234 412.855 118.513 411.537 119.348C410.879 119.766 410.371 120.072 410.032 120.271C409.863 120.371 409.736 120.444 409.653 120.491C409.612 120.515 409.582 120.531 409.563 120.542C409.554 120.547 409.547 120.551 409.544 120.553C409.542 120.554 409.541 120.554 409.54 120.555C409.54 120.555 409.54 120.555 409.54 120.555C409.54 120.555 409.541 120.555 409.541 120.555C409.541 120.554 409.541 120.554 410.504 122.307ZM438.777 101.628C441.028 99.2793 443.344 96.7293 445.694 93.9696L442.648 91.3766C440.351 94.0744 438.088 96.566 435.889 98.8593L438.777 101.628ZM514.961 94.3583C517.124 96.9599 519.252 99.3726 521.321 101.603L524.254 98.8835C522.233 96.7044 520.153 94.3458 518.037 91.8011L514.961 94.3583ZM521.321 101.603C528.588 109.441 535.121 115.032 539.851 118.671C542.217 120.491 544.132 121.824 545.464 122.706C546.131 123.148 546.651 123.476 547.01 123.697C547.189 123.808 547.327 123.891 547.423 123.948C547.471 123.977 547.509 123.999 547.535 124.014C547.548 124.022 547.559 124.028 547.566 124.033C547.57 124.035 547.573 124.037 547.576 124.038C547.577 124.039 547.578 124.039 547.579 124.04C547.579 124.04 547.58 124.04 547.58 124.041C547.581 124.041 547.581 124.041 548.578 122.307C549.575 120.574 549.575 120.574 549.576 120.574C549.576 120.574 549.576 120.574 549.576 120.574C549.576 120.574 549.576 120.574 549.576 120.574C549.576 120.574 549.575 120.573 549.573 120.572C549.57 120.57 549.564 120.567 549.555 120.562C549.537 120.551 549.509 120.535 549.469 120.511C549.391 120.465 549.27 120.392 549.109 120.292C548.786 120.094 548.302 119.788 547.673 119.371C546.415 118.538 544.577 117.26 542.29 115.501C537.717 111.983 531.354 106.541 524.254 98.8835L521.321 101.603ZM436.866 102.188C453.636 106.215 466.824 108.26 480.06 108.263C493.296 108.266 506.484 106.226 523.255 102.188L522.319 98.299C505.711 102.298 492.862 104.266 480.061 104.263C467.259 104.26 454.409 102.287 437.8 98.2987L436.866 102.188Z" fill="white"/>
<path d="M659.075 215.4L621.354 244.907L621.354 230.155L594.948 230.155L594.948 200.649L621.353 200.649L621.353 185.896L659.075 215.4Z" fill="white"/>
</g>
<defs>
<clipPath id="clip0">
<rect width="960" height="440" fill="white"/>
</clipPath>
</defs>
</svg>
