<svg width="960" height="440" viewBox="0 0 960 440" fill="none" xmlns="http://www.w3.org/2000/svg">
<path d="M185.935 180.088C189.455 181.965 191.948 184.547 193.415 187.832C194.94 191.117 195.527 195.048 195.175 199.624C194.823 205.491 193.151 209.861 190.159 212.736C187.226 215.611 182.708 217.048 176.607 217.048C175.023 217.048 173.556 217.077 172.207 217.136C170.916 217.136 169.684 217.048 168.511 216.872C167.338 216.696 166.135 216.403 164.903 215.992C163.671 215.523 162.351 214.819 160.943 213.88C158.186 212.061 156.279 209.685 155.223 206.752C154.226 203.819 153.727 200.797 153.727 197.688C153.727 194.579 154.284 191.675 155.399 188.976C156.514 186.219 158.332 183.872 160.855 181.936C162.908 180.293 165.196 179.091 167.719 178.328C170.3 177.565 172.882 177.301 175.463 177.536C176.636 177.653 177.634 177.771 178.455 177.888C179.335 177.947 180.156 178.064 180.919 178.24C181.682 178.416 182.444 178.651 183.207 178.944C183.97 179.237 184.879 179.619 185.935 180.088ZM160.063 235.44C160.063 232.8 160.826 230.6 162.351 228.84C163.935 227.08 166.047 225.701 168.687 224.704C171.327 223.648 174.436 222.915 178.015 222.504C181.594 222.093 185.407 221.888 189.455 221.888C193.503 221.888 197.316 222.035 200.895 222.328C204.474 222.621 207.583 223.267 210.223 224.264C212.863 225.203 214.946 226.552 216.471 228.312C218.055 230.072 218.847 232.448 218.847 235.44C218.847 238.373 218.055 240.72 216.471 242.48C214.946 244.24 212.863 245.589 210.223 246.528C207.583 247.525 204.474 248.171 200.895 248.464C197.316 248.816 193.503 248.992 189.455 248.992C185.407 248.992 181.594 248.816 178.015 248.464C174.436 248.171 171.327 247.525 168.687 246.528C166.047 245.589 163.935 244.24 162.351 242.48C160.826 240.72 160.063 238.373 160.063 235.44ZM205.559 211.152C205.148 211.152 204.62 211.123 203.975 211.064C203.388 211.005 202.772 210.888 202.127 210.712C201.54 210.536 200.983 210.301 200.455 210.008C199.927 209.715 199.516 209.304 199.223 208.776C199.047 208.541 198.9 208.219 198.783 207.808C198.724 207.397 198.666 206.987 198.607 206.576C198.607 206.107 198.607 205.667 198.607 205.256C198.666 204.845 198.724 204.523 198.783 204.288C198.9 203.643 199.223 203.085 199.751 202.616C200.279 202.088 200.895 201.677 201.599 201.384C201.834 201.325 202.274 201.267 202.919 201.208C203.623 201.149 204.327 201.12 205.031 201.12H207.671C207.612 200.475 207.583 199.859 207.583 199.272V196.544H205.559C205.148 196.544 204.62 196.515 203.975 196.456C203.388 196.397 202.772 196.28 202.127 196.104C201.54 195.928 200.983 195.693 200.455 195.4C199.927 195.107 199.516 194.696 199.223 194.168C198.754 193.405 198.519 192.613 198.519 191.792C198.519 190.912 198.695 190.12 199.047 189.416C199.458 188.653 199.986 188.037 200.631 187.568C201.335 187.04 202.156 186.747 203.095 186.688C203.154 186.688 203.418 186.688 203.887 186.688C204.415 186.688 204.972 186.688 205.559 186.688C206.146 186.688 206.674 186.688 207.143 186.688C207.612 186.629 207.847 186.541 207.847 186.424C207.964 185.837 207.994 185.192 207.935 184.488C207.935 183.784 207.964 183.08 208.023 182.376C208.082 181.672 208.199 181.027 208.375 180.44C208.61 179.795 209.02 179.237 209.607 178.768C210.076 178.416 210.634 178.181 211.279 178.064C211.924 177.947 212.54 177.859 213.127 177.8C214.594 177.624 215.855 178.123 216.911 179.296C217.322 179.824 217.615 180.323 217.791 180.792C218.026 181.496 218.114 182.229 218.055 182.992C218.055 183.755 218.055 184.517 218.055 185.28V210.536C218.055 210.536 218.055 210.917 218.055 211.68C218.055 212.443 217.996 213.293 217.879 214.232C217.762 215.171 217.556 216.109 217.263 217.048C217.028 217.928 216.618 218.544 216.031 218.896C215.62 219.131 215.122 219.307 214.535 219.424C213.948 219.541 213.42 219.6 212.951 219.6C211.954 219.6 210.986 219.277 210.047 218.632C209.343 218.163 208.844 217.605 208.551 216.96C208.375 216.608 208.228 216.168 208.111 215.64C207.994 215.112 207.906 214.584 207.847 214.056C207.788 213.469 207.73 212.912 207.671 212.384C207.612 211.856 207.583 211.445 207.583 211.152H205.559ZM184.703 200.592C184.703 199.301 184.644 198.099 184.527 196.984C184.41 195.811 184.146 194.755 183.735 193.816C183.383 192.819 182.826 191.939 182.063 191.176C181.3 190.413 180.303 189.797 179.071 189.328C177.722 188.859 176.255 188.624 174.671 188.624C173.087 188.624 171.591 188.917 170.183 189.504C168.775 190.032 167.543 190.883 166.487 192.056C165.431 193.171 164.756 194.637 164.463 196.456C164.287 197.688 164.287 198.949 164.463 200.24C164.698 201.472 165.138 202.616 165.783 203.672C166.487 204.669 167.426 205.52 168.599 206.224C169.831 206.928 171.356 207.368 173.175 207.544C174.407 207.661 175.639 207.661 176.871 207.544C178.103 207.368 179.247 207.016 180.303 206.488C181.359 205.96 182.268 205.227 183.031 204.288C183.794 203.291 184.351 202.059 184.703 200.592ZM206.967 235.44C206.967 234.443 206.439 233.651 205.383 233.064C204.327 232.477 202.948 232.037 201.247 231.744C199.604 231.451 197.727 231.275 195.615 231.216C193.562 231.099 191.508 231.04 189.455 231.04C187.402 231.04 185.348 231.099 183.295 231.216C181.3 231.275 179.482 231.451 177.839 231.744C176.255 232.037 174.964 232.477 173.967 233.064C172.97 233.651 172.471 234.443 172.471 235.44C172.471 236.32 172.97 237.053 173.967 237.64C174.964 238.227 176.255 238.667 177.839 238.96C179.482 239.253 181.3 239.459 183.295 239.576C185.348 239.693 187.402 239.752 189.455 239.752C191.508 239.752 193.562 239.752 195.615 239.752C197.727 239.752 199.604 239.635 201.247 239.4C202.948 239.165 204.327 238.755 205.383 238.168C206.439 237.523 206.967 236.613 206.967 235.44ZM244.918 178.064C245.681 178.064 246.414 178.093 247.118 178.152C247.822 178.211 248.526 178.299 249.23 178.416C251.46 178.768 253.425 179.795 255.126 181.496C256.534 183.021 257.678 184.781 258.558 186.776C259.497 188.712 260.23 190.765 260.758 192.936C261.286 195.107 261.668 197.336 261.902 199.624C262.137 201.853 262.313 204.024 262.43 206.136C262.548 208.835 262.577 211.533 262.518 214.232C262.46 216.931 262.284 219.6 261.99 222.24C261.697 224.997 261.257 227.784 260.67 230.6C260.142 233.357 259.145 235.851 257.678 238.08C256.446 239.957 254.921 241.512 253.102 242.744C251.284 243.917 249.377 244.709 247.382 245.12C245.564 245.472 243.716 245.531 241.838 245.296C239.961 245.061 238.172 244.445 236.47 243.448C234.886 242.509 233.537 241.336 232.422 239.928C231.366 238.52 230.428 236.877 229.606 235C228.433 232.184 227.758 229.28 227.582 226.288C227.348 223.824 227.172 221.36 227.054 218.896C226.996 216.432 226.966 213.968 226.966 211.504C226.966 209.803 226.966 208.16 226.966 206.576C227.025 204.933 227.142 203.291 227.318 201.648C227.436 200.299 227.582 198.979 227.758 197.688C227.934 196.339 228.14 195.019 228.374 193.728C228.609 192.672 228.814 191.675 228.99 190.736C229.166 189.797 229.489 188.829 229.958 187.832C230.428 186.835 230.926 185.896 231.454 185.016C232.041 184.136 232.716 183.344 233.478 182.64C234.769 181.349 236.206 180.352 237.79 179.648C239.374 178.944 241.017 178.475 242.718 178.24C243.07 178.181 243.422 178.152 243.774 178.152C244.185 178.152 244.566 178.123 244.918 178.064ZM276.51 216.52C275.689 216.403 274.604 216.344 273.254 216.344C271.905 216.285 270.82 216.197 269.998 216.08C267.945 215.963 266.478 215.2 265.598 213.792C264.718 212.384 264.601 210.565 265.246 208.336C265.364 207.867 265.598 207.368 265.95 206.84C266.361 206.312 266.742 205.901 267.094 205.608C267.916 205.021 268.737 204.64 269.558 204.464C270.497 204.347 271.612 204.317 272.902 204.376C274.252 204.435 275.425 204.405 276.422 204.288H276.686V203.936C276.686 203.232 276.686 202.704 276.686 202.352C276.745 202 276.774 201.677 276.774 201.384C276.774 201.091 276.745 200.768 276.686 200.416C276.686 200.064 276.686 199.507 276.686 198.744C276.686 197.219 276.657 195.723 276.598 194.256C276.598 192.731 276.628 191.235 276.686 189.768V188.536C276.686 187.773 276.686 186.952 276.686 186.072C276.745 185.133 276.833 184.224 276.95 183.344C277.068 182.405 277.273 181.555 277.566 180.792C277.86 179.971 278.27 179.296 278.798 178.768C279.678 178.005 280.617 177.624 281.614 177.624H281.79C283.198 177.683 284.313 178.123 285.134 178.944C286.014 179.707 286.66 180.645 287.07 181.76C287.54 182.875 287.833 184.048 287.95 185.28C288.068 186.453 288.126 187.509 288.126 188.448V241.248C288.126 241.307 288.126 241.6 288.126 242.128C288.126 242.597 288.068 243.184 287.95 243.888C287.833 244.592 287.657 245.296 287.422 246C287.188 246.704 286.806 247.291 286.278 247.76C285.868 248.171 285.281 248.493 284.518 248.728C283.756 248.963 283.052 249.08 282.406 249.08C280.998 249.08 279.884 248.611 279.062 247.672C278.3 246.851 277.83 246 277.654 245.12C277.478 244.24 277.332 243.301 277.214 242.304C277.214 242.128 277.185 241.952 277.126 241.776C277.126 241.6 277.126 241.395 277.126 241.16C277.009 240.221 276.95 239.224 276.95 238.168C276.95 237.112 276.921 236.056 276.862 235C276.804 234.355 276.774 233.739 276.774 233.152C276.774 232.507 276.774 231.861 276.774 231.216V229.192C276.774 228.605 276.774 227.843 276.774 226.904C276.774 225.907 276.745 224.88 276.686 223.824C276.686 222.768 276.686 221.771 276.686 220.832C276.686 219.893 276.686 219.101 276.686 218.456C276.686 218.163 276.686 217.84 276.686 217.488C276.686 217.136 276.628 216.813 276.51 216.52ZM244.654 233.416C245.769 233.416 246.854 233.064 247.91 232.36C248.908 231.656 249.612 230.717 250.022 229.544C250.433 228.371 250.785 227.08 251.078 225.672C251.548 222.973 251.812 220.099 251.87 217.048C251.929 213.997 251.9 211.064 251.782 208.248C251.782 207.133 251.753 205.96 251.694 204.728C251.636 203.437 251.518 202.176 251.342 200.944C251.225 199.712 251.02 198.539 250.726 197.424C250.433 196.251 250.022 195.224 249.494 194.344C248.908 193.347 248.204 192.584 247.382 192.056C246.561 191.528 245.681 191.323 244.742 191.44C243.745 191.557 242.836 191.909 242.014 192.496C241.193 193.083 240.518 193.963 239.99 195.136L239.198 196.984C238.846 198.099 238.582 199.272 238.406 200.504C238.23 201.677 238.084 202.851 237.966 204.024C237.849 205.197 237.761 206.4 237.702 207.632C237.644 208.864 237.614 210.067 237.614 211.24C237.673 212.413 237.644 213.557 237.526 214.672C237.468 215.787 237.497 216.931 237.614 218.104C237.732 219.629 237.878 221.272 238.054 223.032C238.289 224.792 238.641 226.464 239.11 228.048C239.58 229.573 240.254 230.864 241.134 231.92C242.014 232.917 243.188 233.416 244.654 233.416ZM391.951 242.92C392.831 242.979 393.623 243.213 394.327 243.624C395.09 243.976 395.618 244.621 395.911 245.56C396.557 247.672 395.794 249.139 393.623 249.96C392.919 250.253 392.186 250.429 391.423 250.488C390.719 250.547 390.045 250.576 389.399 250.576H349.535C348.362 250.576 347.13 250.576 345.839 250.576C344.607 250.576 343.346 250.547 342.055 250.488C340.823 250.429 339.797 249.989 338.975 249.168C338.154 248.347 337.685 247.261 337.567 245.912C337.45 244.915 337.362 243.829 337.303 242.656C337.303 241.424 337.303 240.397 337.303 239.576V238.784C337.245 238.139 337.245 237.376 337.303 236.496C337.421 235.616 337.743 234.853 338.271 234.208C339.034 233.387 340.09 232.859 341.439 232.624C342.847 232.389 344.197 232.272 345.487 232.272H347.335C347.57 232.272 347.775 232.301 347.951 232.36C348.186 232.36 348.391 232.36 348.567 232.36H384.823V228.576H347.687C347.394 228.576 347.071 228.576 346.719 228.576C346.367 228.517 346.045 228.517 345.751 228.576H343.551C342.965 228.576 342.437 228.576 341.967 228.576C341.498 228.576 341.029 228.517 340.559 228.4C340.09 228.283 339.621 228.165 339.151 228.048C338.741 227.931 338.389 227.637 338.095 227.168C337.333 225.995 337.127 224.733 337.479 223.384C337.655 222.915 337.919 222.563 338.271 222.328C338.623 222.035 339.034 221.8 339.503 221.624C339.973 221.448 340.413 221.331 340.823 221.272C341.293 221.155 341.703 221.067 342.055 221.008C342.525 220.949 342.965 220.92 343.375 220.92C343.845 220.861 344.343 220.832 344.871 220.832H346.367C346.661 220.832 346.925 220.861 347.159 220.92C347.394 220.92 347.658 220.92 347.951 220.92H385.703C388.695 220.92 390.983 221.389 392.567 222.328C394.151 223.208 394.943 224.675 394.943 226.728V233.592C394.943 234.413 394.767 235.205 394.415 235.968C394.063 236.731 393.418 237.405 392.479 237.992C391.658 238.461 390.866 238.725 390.103 238.784C389.341 238.784 388.607 238.784 387.903 238.784H348.127V242.92H391.951ZM392.831 203.76V210.888C392.831 212.413 392.391 213.763 391.511 214.936C390.631 216.051 389.282 216.608 387.463 216.608C386.466 216.608 385.645 216.403 384.999 215.992C383.826 215.288 383.063 214.437 382.711 213.44C382.418 212.384 382.271 211.621 382.271 211.152V184.84C382.213 184.605 382.242 183.96 382.359 182.904C382.477 181.848 382.711 180.968 383.063 180.264C383.65 179.032 384.823 178.328 386.583 178.152C388.754 177.859 390.367 178.299 391.423 179.472C391.775 179.941 392.01 180.411 392.127 180.88C392.303 181.291 392.45 181.731 392.567 182.2C392.743 182.728 392.831 183.491 392.831 184.488C392.89 185.485 392.89 186.277 392.831 186.864V193.992C393.066 193.992 393.506 194.021 394.151 194.08C394.797 194.08 395.471 194.109 396.175 194.168C396.879 194.168 397.554 194.197 398.199 194.256C398.845 194.315 399.314 194.373 399.607 194.432C400.781 194.667 401.602 195.019 402.071 195.488C402.541 195.899 402.834 196.427 402.951 197.072C403.127 197.717 403.215 198.48 403.215 199.36C403.215 200.181 403.039 200.885 402.687 201.472C401.983 202.645 400.927 203.32 399.519 203.496C398.111 203.613 396.557 203.701 394.855 203.76H392.831ZM369.951 200.856C369.951 203.437 369.335 205.901 368.103 208.248C367.165 210.125 365.962 211.621 364.495 212.736C363.029 213.792 361.386 214.613 359.567 215.2C357.807 215.728 355.93 216.021 353.935 216.08C351.999 216.139 350.122 216.08 348.303 215.904C345.487 215.728 342.877 214.907 340.471 213.44C338.125 211.915 336.335 209.92 335.103 207.456C334.165 205.579 333.695 203.379 333.695 200.856C333.695 198.627 333.989 196.72 334.575 195.136C334.927 194.256 335.338 193.435 335.807 192.672C336.277 191.851 336.775 191.117 337.303 190.472H335.807C335.103 190.472 334.487 190.384 333.959 190.208C333.431 189.973 332.903 189.651 332.375 189.24C331.495 188.419 331.055 187.421 331.055 186.248C331.055 184.957 331.495 183.872 332.375 182.992C333.373 182.229 334.517 181.848 335.807 181.848H345.223V179.208C345.458 177.565 346.25 176.333 347.599 175.512C348.949 174.691 350.357 174.339 351.823 174.456C353.29 174.573 354.581 175.248 355.695 176.48C356.81 177.653 357.279 179.443 357.103 181.848H367.135C368.543 181.848 369.658 182.229 370.479 182.992C371.418 183.931 371.887 185.016 371.887 186.248C371.887 187.363 371.418 188.36 370.479 189.24C369.541 190.061 368.426 190.472 367.135 190.472H366.255C366.783 191.117 367.253 191.851 367.663 192.672C368.074 193.435 368.485 194.256 368.895 195.136C369.599 196.837 369.951 198.744 369.951 200.856ZM353.231 206.664C354.405 206.547 355.549 206.224 356.663 205.696C357.837 205.168 358.658 204.317 359.127 203.144C359.949 201.443 359.978 199.859 359.215 198.392C358.453 196.867 357.221 195.664 355.519 194.784C354.405 194.315 353.143 194.08 351.735 194.08C350.269 194.08 349.037 194.285 348.039 194.696C347.394 194.989 346.837 195.371 346.367 195.84C345.957 196.251 345.575 196.691 345.223 197.16C344.695 197.923 344.343 198.744 344.167 199.624C343.991 200.445 343.991 201.267 344.167 202.088C344.402 202.909 344.783 203.672 345.311 204.376C345.839 205.08 346.514 205.608 347.335 205.96C348.274 206.371 349.242 206.635 350.239 206.752C351.237 206.811 352.234 206.781 353.231 206.664ZM474.958 198.92L470.206 203.672C468.915 204.904 467.625 206.107 466.334 207.28C465.043 208.453 463.723 209.627 462.374 210.8C462.257 210.917 462.139 211.035 462.022 211.152C461.905 211.211 461.787 211.299 461.67 211.416C460.555 212.413 459.441 213.469 458.326 214.584C457.27 215.699 455.979 216.491 454.454 216.96C453.398 217.253 452.254 217.224 451.022 216.872C449.79 216.52 448.851 215.904 448.206 215.024C447.737 214.32 447.502 213.616 447.502 212.912C447.502 212.208 447.619 211.533 447.854 210.888C448.147 210.184 448.499 209.509 448.91 208.864C449.321 208.219 449.761 207.632 450.23 207.104C451.99 205.051 453.809 203.115 455.686 201.296C457.622 199.419 459.587 197.6 461.582 195.84C462.227 195.312 462.961 194.608 463.782 193.728C464.603 192.789 465.395 191.88 466.158 191C467.038 189.944 467.947 188.888 468.886 187.832C468.769 186.483 468.739 185.192 468.798 183.96C468.857 182.904 469.003 181.848 469.238 180.792C469.473 179.736 469.913 178.885 470.558 178.24C471.321 177.536 472.406 177.096 473.814 176.92C475.222 176.685 476.395 176.715 477.334 177.008C478.683 177.419 479.622 178.123 480.15 179.12C480.737 180.117 481.118 181.291 481.294 182.64C481.353 183.755 481.353 184.723 481.294 185.544C481.294 186.307 481.617 187.157 482.262 188.096C482.731 188.8 483.259 189.475 483.846 190.12C484.491 190.765 485.107 191.411 485.694 192.056C487.747 194.344 489.742 196.544 491.678 198.656C493.673 200.768 495.726 202.939 497.838 205.168C498.542 205.872 499.217 206.752 499.862 207.808C500.507 208.864 500.947 209.949 501.182 211.064C501.475 212.12 501.446 213.147 501.094 214.144C500.801 215.083 500.038 215.845 498.806 216.432C497.926 216.843 497.075 217.019 496.254 216.96C495.433 216.843 494.641 216.608 493.878 216.256C493.115 215.845 492.382 215.347 491.678 214.76C491.033 214.173 490.446 213.587 489.918 213L474.958 198.92ZM449.526 233.064C448.177 233.005 446.886 232.829 445.654 232.536C444.481 232.184 443.513 231.421 442.75 230.248C442.105 229.251 441.782 228.195 441.782 227.08C441.841 225.907 442.281 224.909 443.102 224.088C443.571 223.619 444.158 223.267 444.862 223.032C445.566 222.797 446.241 222.621 446.886 222.504C447.531 222.387 448.089 222.328 448.558 222.328C449.086 222.328 449.379 222.328 449.438 222.328H498.278C499.217 222.269 500.214 222.269 501.27 222.328C502.385 222.387 503.411 222.592 504.35 222.944C505.289 223.237 506.081 223.765 506.726 224.528C507.371 225.232 507.694 226.229 507.694 227.52C507.694 228.987 507.195 230.101 506.198 230.864C505.201 231.568 503.998 232.096 502.59 232.448C501.241 232.741 499.833 232.917 498.366 232.976C496.899 232.976 495.697 232.976 494.758 232.976H491.326C490.153 233.035 489.009 233.064 487.894 233.064C486.779 233.005 485.635 232.976 484.462 232.976H481.118C481.177 234.619 481.235 236.349 481.294 238.168C481.353 239.987 481.265 241.6 481.03 243.008C480.913 244.123 480.619 245.179 480.15 246.176C479.739 247.232 479.035 248.083 478.038 248.728C477.158 249.315 476.131 249.608 474.958 249.608C473.785 249.667 472.729 249.432 471.79 248.904C471.027 248.435 470.441 247.76 470.03 246.88C469.678 246 469.443 245.149 469.326 244.328C469.209 243.683 469.15 242.979 469.15 242.216C469.209 241.453 469.238 240.749 469.238 240.104C469.179 239.048 469.15 237.904 469.15 236.672C469.15 235.381 469.15 234.12 469.15 232.888H466.95C465.307 232.888 463.782 232.917 462.374 232.976C460.966 232.976 459.587 233.005 458.238 233.064C456.889 233.064 455.51 233.064 454.102 233.064C452.694 233.064 451.169 233.064 449.526 233.064ZM579.683 180.088C583.203 181.965 585.697 184.547 587.163 187.832C588.689 191.117 589.275 195.048 588.923 199.624C588.571 205.491 586.899 209.861 583.907 212.736C580.974 215.611 576.457 217.048 570.355 217.048C568.771 217.048 567.305 217.077 565.955 217.136C564.665 217.136 563.433 217.048 562.259 216.872C561.086 216.696 559.883 216.403 558.651 215.992C557.419 215.523 556.099 214.819 554.691 213.88C551.934 212.061 550.027 209.685 548.971 206.752C547.974 203.819 547.475 200.797 547.475 197.688C547.475 194.579 548.033 191.675 549.147 188.976C550.262 186.219 552.081 183.872 554.603 181.936C556.657 180.293 558.945 179.091 561.467 178.328C564.049 177.565 566.63 177.301 569.211 177.536C570.385 177.653 571.382 177.771 572.203 177.888C573.083 177.947 573.905 178.064 574.667 178.24C575.43 178.416 576.193 178.651 576.955 178.944C577.718 179.237 578.627 179.619 579.683 180.088ZM566.131 244.24C565.486 245.12 564.811 245.941 564.107 246.704C563.462 247.525 562.729 248.2 561.907 248.728C561.145 249.256 560.323 249.579 559.443 249.696C558.563 249.872 557.625 249.784 556.627 249.432C555.395 249.021 554.662 248.405 554.427 247.584C554.251 246.763 554.339 245.883 554.691 244.944C555.043 244.005 555.542 243.096 556.187 242.216C556.833 241.336 557.361 240.573 557.771 239.928C558.827 238.227 559.854 236.525 560.851 234.824C561.849 233.064 562.934 231.363 564.107 229.72C564.577 229.075 565.075 228.371 565.603 227.608C566.19 226.845 566.806 226.171 567.451 225.584C568.097 224.939 568.801 224.411 569.563 224C570.326 223.531 571.147 223.267 572.027 223.208C572.907 223.149 573.699 223.325 574.403 223.736C575.107 224.147 575.723 224.675 576.251 225.32C576.838 225.907 577.366 226.581 577.835 227.344C578.363 228.048 578.833 228.693 579.243 229.28C581.355 232.565 583.379 235.821 585.315 239.048C586.313 237.523 587.251 235.968 588.131 234.384C589.07 232.8 590.067 231.245 591.123 229.72C592.062 228.371 593.147 226.992 594.379 225.584C595.67 224.117 597.225 223.325 599.043 223.208C599.923 223.149 600.745 223.325 601.507 223.736C602.329 224.147 603.062 224.675 603.707 225.32C604.411 225.907 605.057 226.581 605.643 227.344C606.23 228.048 606.729 228.693 607.139 229.28C608.547 231.333 609.867 233.445 611.099 235.616C612.39 237.728 613.71 239.84 615.059 241.952C615.705 243.008 616.174 243.976 616.467 244.856C616.761 245.736 616.497 246.763 615.675 247.936C615.03 248.933 614.209 249.52 613.211 249.696C612.214 249.931 611.217 249.725 610.219 249.08C608.225 247.907 606.494 246.381 605.027 244.504C603.561 242.627 602.153 240.808 600.803 239.048C599.923 237.933 599.19 237.405 598.603 237.464C598.075 237.523 597.43 238.109 596.667 239.224C596.139 239.928 595.582 240.632 594.995 241.336C594.409 242.04 593.793 242.891 593.147 243.888C592.502 244.768 591.827 245.619 591.123 246.44C590.478 247.32 589.745 248.024 588.923 248.552C588.161 249.139 587.339 249.52 586.459 249.696C585.579 249.872 584.641 249.784 583.643 249.432C582.705 249.08 582.059 248.64 581.707 248.112C580.123 246.939 578.715 245.531 577.483 243.888C576.251 242.187 575.019 240.573 573.787 239.048C572.907 237.933 572.203 237.405 571.675 237.464C571.147 237.523 570.473 238.109 569.651 239.224C569.123 239.928 568.566 240.691 567.979 241.512C567.393 242.333 566.777 243.243 566.131 244.24ZM611.715 213.44C611.715 213.44 611.686 213.645 611.627 214.056C611.569 214.467 611.451 214.936 611.275 215.464C611.099 215.992 610.835 216.549 610.483 217.136C610.131 217.664 609.662 218.104 609.075 218.456C608.254 218.925 607.433 219.16 606.611 219.16C605.614 219.16 604.646 218.837 603.707 218.192C603.062 217.723 602.563 217.107 602.211 216.344C601.742 215.464 601.419 214.467 601.243 213.352C601.126 212.179 601.038 210.976 600.979 209.744C600.979 208.512 601.009 207.309 601.067 206.136C601.126 204.963 601.155 203.877 601.155 202.88C601.214 200.357 601.243 197.864 601.243 195.4C601.243 192.877 601.243 190.384 601.243 187.92V186.776C601.185 186.131 601.155 185.456 601.155 184.752C601.214 183.989 601.331 183.285 601.507 182.64C601.742 181.76 602.27 180.821 603.091 179.824C603.561 179.237 604.206 178.827 605.027 178.592C605.907 178.299 606.846 178.211 607.843 178.328C609.603 178.621 610.777 179.384 611.363 180.616C611.715 181.379 611.862 182.317 611.803 183.432C611.803 184.547 611.774 185.221 611.715 185.456V213.44ZM578.451 200.592C578.451 199.301 578.393 198.099 578.275 196.984C578.158 195.811 577.894 194.755 577.483 193.816C577.131 192.819 576.574 191.939 575.811 191.176C575.049 190.413 574.051 189.797 572.819 189.328C571.47 188.859 570.003 188.624 568.419 188.624C566.835 188.624 565.339 188.917 563.931 189.504C562.523 190.032 561.291 190.883 560.235 192.056C559.179 193.171 558.505 194.637 558.211 196.456C558.035 197.688 558.035 198.949 558.211 200.24C558.446 201.472 558.886 202.616 559.531 203.672C560.235 204.669 561.174 205.52 562.347 206.224C563.579 206.928 565.105 207.368 566.923 207.544C568.155 207.661 569.387 207.661 570.619 207.544C571.851 207.368 572.995 207.016 574.051 206.488C575.107 205.96 576.017 205.227 576.779 204.288C577.542 203.291 578.099 202.059 578.451 200.592ZM639.354 178.064C640.117 178.064 640.85 178.093 641.554 178.152C642.258 178.211 642.962 178.299 643.666 178.416C645.896 178.768 647.861 179.795 649.562 181.496C650.97 183.021 652.114 184.781 652.994 186.776C653.933 188.712 654.666 190.765 655.194 192.936C655.722 195.107 656.104 197.336 656.338 199.624C656.573 201.853 656.749 204.024 656.866 206.136C656.984 208.835 657.013 211.533 656.954 214.232C656.896 216.931 656.72 219.6 656.426 222.24C656.133 224.997 655.693 227.784 655.106 230.6C654.578 233.357 653.581 235.851 652.114 238.08C650.882 239.957 649.357 241.512 647.538 242.744C645.72 243.917 643.813 244.709 641.818 245.12C640 245.472 638.152 245.531 636.274 245.296C634.397 245.061 632.608 244.445 630.906 243.448C629.322 242.509 627.973 241.336 626.858 239.928C625.802 238.52 624.864 236.877 624.042 235C622.869 232.184 622.194 229.28 622.018 226.288C621.784 223.824 621.608 221.36 621.49 218.896C621.432 216.432 621.402 213.968 621.402 211.504C621.402 209.803 621.402 208.16 621.402 206.576C621.461 204.933 621.578 203.291 621.754 201.648C621.872 200.299 622.018 198.979 622.194 197.688C622.37 196.339 622.576 195.019 622.81 193.728C623.045 192.672 623.25 191.675 623.426 190.736C623.602 189.797 623.925 188.829 624.394 187.832C624.864 186.835 625.362 185.896 625.89 185.016C626.477 184.136 627.152 183.344 627.914 182.64C629.205 181.349 630.642 180.352 632.226 179.648C633.81 178.944 635.453 178.475 637.154 178.24C637.506 178.181 637.858 178.152 638.21 178.152C638.621 178.152 639.002 178.123 639.354 178.064ZM670.946 216.52C670.125 216.403 669.04 216.344 667.69 216.344C666.341 216.285 665.256 216.197 664.434 216.08C662.381 215.963 660.914 215.2 660.034 213.792C659.154 212.384 659.037 210.565 659.682 208.336C659.8 207.867 660.034 207.368 660.386 206.84C660.797 206.312 661.178 205.901 661.53 205.608C662.352 205.021 663.173 204.64 663.994 204.464C664.933 204.347 666.048 204.317 667.338 204.376C668.688 204.435 669.861 204.405 670.858 204.288H671.122V203.936C671.122 203.232 671.122 202.704 671.122 202.352C671.181 202 671.21 201.677 671.21 201.384C671.21 201.091 671.181 200.768 671.122 200.416C671.122 200.064 671.122 199.507 671.122 198.744C671.122 197.219 671.093 195.723 671.034 194.256C671.034 192.731 671.064 191.235 671.122 189.768V188.536C671.122 187.773 671.122 186.952 671.122 186.072C671.181 185.133 671.269 184.224 671.386 183.344C671.504 182.405 671.709 181.555 672.002 180.792C672.296 179.971 672.706 179.296 673.234 178.768C674.114 178.005 675.053 177.624 676.05 177.624H676.226C677.634 177.683 678.749 178.123 679.57 178.944C680.45 179.707 681.096 180.645 681.506 181.76C681.976 182.875 682.269 184.048 682.386 185.28C682.504 186.453 682.562 187.509 682.562 188.448V241.248C682.562 241.307 682.562 241.6 682.562 242.128C682.562 242.597 682.504 243.184 682.386 243.888C682.269 244.592 682.093 245.296 681.858 246C681.624 246.704 681.242 247.291 680.714 247.76C680.304 248.171 679.717 248.493 678.954 248.728C678.192 248.963 677.488 249.08 676.842 249.08C675.434 249.08 674.32 248.611 673.498 247.672C672.736 246.851 672.266 246 672.09 245.12C671.914 244.24 671.768 243.301 671.65 242.304C671.65 242.128 671.621 241.952 671.562 241.776C671.562 241.6 671.562 241.395 671.562 241.16C671.445 240.221 671.386 239.224 671.386 238.168C671.386 237.112 671.357 236.056 671.298 235C671.24 234.355 671.21 233.739 671.21 233.152C671.21 232.507 671.21 231.861 671.21 231.216V229.192C671.21 228.605 671.21 227.843 671.21 226.904C671.21 225.907 671.181 224.88 671.122 223.824C671.122 222.768 671.122 221.771 671.122 220.832C671.122 219.893 671.122 219.101 671.122 218.456C671.122 218.163 671.122 217.84 671.122 217.488C671.122 217.136 671.064 216.813 670.946 216.52ZM639.09 233.416C640.205 233.416 641.29 233.064 642.346 232.36C643.344 231.656 644.048 230.717 644.458 229.544C644.869 228.371 645.221 227.08 645.514 225.672C645.984 222.973 646.248 220.099 646.306 217.048C646.365 213.997 646.336 211.064 646.218 208.248C646.218 207.133 646.189 205.96 646.13 204.728C646.072 203.437 645.954 202.176 645.778 200.944C645.661 199.712 645.456 198.539 645.162 197.424C644.869 196.251 644.458 195.224 643.93 194.344C643.344 193.347 642.64 192.584 641.818 192.056C640.997 191.528 640.117 191.323 639.178 191.44C638.181 191.557 637.272 191.909 636.45 192.496C635.629 193.083 634.954 193.963 634.426 195.136L633.634 196.984C633.282 198.099 633.018 199.272 632.842 200.504C632.666 201.677 632.52 202.851 632.402 204.024C632.285 205.197 632.197 206.4 632.138 207.632C632.08 208.864 632.05 210.067 632.05 211.24C632.109 212.413 632.08 213.557 631.962 214.672C631.904 215.787 631.933 216.931 632.05 218.104C632.168 219.629 632.314 221.272 632.49 223.032C632.725 224.792 633.077 226.464 633.546 228.048C634.016 229.573 634.69 230.864 635.57 231.92C636.45 232.917 637.624 233.416 639.09 233.416ZM750.131 233.064C750.307 233.123 750.483 233.152 750.659 233.152C750.835 233.093 751.011 233.064 751.187 233.064C752.184 233.181 753.094 233.387 753.915 233.68C754.795 233.915 755.646 234.413 756.467 235.176C757.288 235.88 757.699 236.877 757.699 238.168C757.699 238.813 757.582 239.517 757.347 240.28C757.171 240.984 756.907 241.541 756.555 241.952C756.086 242.421 755.499 242.773 754.795 243.008C754.15 243.243 753.475 243.419 752.771 243.536C752.126 243.595 751.539 243.624 751.011 243.624C750.542 243.624 750.278 243.624 750.219 243.624H701.907C701.614 243.624 701.174 243.653 700.587 243.712C700 243.712 699.56 243.712 699.267 243.712C697.976 243.771 696.627 243.771 695.219 243.712C693.811 243.595 692.608 243.125 691.611 242.304C690.379 241.189 689.763 239.928 689.763 238.52C689.763 237.64 690.027 236.731 690.555 235.792C691.083 234.853 691.787 234.208 692.667 233.856C693.84 233.387 695.043 233.152 696.275 233.152C697.566 233.152 698.856 233.123 700.147 233.064H700.587C701.467 233.064 702.494 233.064 703.667 233.064C704.899 233.005 705.984 232.976 706.923 232.976C706.864 232.741 706.835 232.448 706.835 232.096V231.744V223.56C706.835 223.032 706.923 222.504 707.099 221.976C707.216 221.507 707.422 221.037 707.715 220.568C708.008 220.04 708.419 219.541 708.947 219.072C706.776 218.544 704.723 217.723 702.787 216.608C700.91 215.493 699.267 213.909 697.859 211.856C696.51 210.037 695.6 208.101 695.131 206.048C694.72 203.995 694.515 201.853 694.515 199.624C694.515 195.048 695.718 191.235 698.123 188.184C700.587 185.075 703.931 182.845 708.155 181.496C710.971 180.557 713.816 179.971 716.691 179.736C719.624 179.443 722.558 179.413 725.491 179.648C727.896 179.824 730.302 180.059 732.707 180.352C735.112 180.645 737.43 181.291 739.659 182.288C740.656 182.757 741.624 183.315 742.563 183.96C743.502 184.605 744.382 185.368 745.203 186.248C747.256 188.477 748.664 190.883 749.427 193.464C750.19 196.045 750.454 198.803 750.219 201.736C749.867 206.312 748.518 209.979 746.171 212.736C743.824 215.435 740.891 217.4 737.371 218.632C738.016 218.984 738.544 219.453 738.955 220.04C739.366 220.627 739.6 221.331 739.659 222.152C739.718 223.091 739.747 224.557 739.747 226.552C739.806 228.488 739.835 230.659 739.835 233.064H743.355C744.411 233.123 745.555 233.123 746.787 233.064C748.078 232.947 749.192 232.947 750.131 233.064ZM738.691 203.056C738.867 202.293 738.926 201.56 738.867 200.856C738.75 197.805 737.782 195.547 735.963 194.08C734.203 192.555 731.915 191.616 729.099 191.264C727.456 191.088 725.432 190.912 723.027 190.736C720.622 190.501 718.246 190.56 715.899 190.912C713.611 191.264 711.587 191.997 709.827 193.112C708.067 194.168 707.011 195.869 706.659 198.216C706.483 199.624 706.483 200.973 706.659 202.264C706.894 203.555 707.392 204.699 708.155 205.696C708.918 206.693 709.974 207.544 711.323 208.248C712.672 208.952 714.403 209.392 716.515 209.568C718.568 209.803 720.651 210.008 722.763 210.184C724.934 210.36 727.046 210.243 729.099 209.832C730.096 209.656 731.094 209.421 732.091 209.128C733.147 208.776 734.115 208.336 734.995 207.808C735.875 207.28 736.638 206.635 737.283 205.872C737.928 205.051 738.398 204.112 738.691 203.056ZM726.811 220.216C725.286 220.216 723.672 220.245 721.971 220.304C720.328 220.304 718.656 220.245 716.955 220.128C717.366 220.832 717.6 221.507 717.659 222.152C717.718 223.091 717.747 224.557 717.747 226.552C717.806 228.488 717.835 230.659 717.835 233.064H727.163H728.923C728.864 232.829 728.835 232.507 728.835 232.096V231.744V223.56C728.835 223.208 728.894 222.827 729.011 222.416C729.128 222.123 729.246 221.771 729.363 221.36C729.48 220.949 729.686 220.539 729.979 220.128C729.451 220.187 728.923 220.216 728.395 220.216C727.867 220.216 727.339 220.216 726.811 220.216ZM765.049 199.8C764.815 198.275 764.697 196.72 764.697 195.136C764.756 193.552 765.049 191.997 765.577 190.472C766.223 188.477 767.279 186.717 768.745 185.192C770.212 183.667 771.884 182.464 773.761 181.584C775.756 180.645 777.78 180 779.833 179.648C781.945 179.237 783.999 179.149 785.993 179.384C788.047 179.619 790.012 180.147 791.889 180.968C793.825 181.731 795.644 182.845 797.345 184.312C799.164 185.896 800.513 187.744 801.393 189.856C802.332 191.909 802.831 194.051 802.889 196.28C803.007 198.509 802.743 200.739 802.097 202.968C801.511 205.139 800.601 207.163 799.369 209.04C799.369 209.04 799.34 209.099 799.281 209.216C798.284 210.565 797.14 211.797 795.849 212.912C794.559 213.968 793.356 215.112 792.241 216.344C790.951 217.693 790.188 219.072 789.953 220.48C789.719 221.829 789.484 223.355 789.249 225.056C789.073 226.699 788.633 228.136 787.929 229.368C787.284 230.541 786.052 231.099 784.233 231.04C783.001 230.981 782.063 230.6 781.417 229.896C780.831 229.133 780.391 228.253 780.097 227.256C779.863 226.2 779.775 225.115 779.833 224C779.892 222.827 779.98 221.8 780.097 220.92C780.449 218.867 781.095 216.931 782.033 215.112C782.972 213.235 784.116 211.475 785.465 209.832C786.228 208.952 786.991 208.16 787.753 207.456C788.516 206.693 789.22 205.901 789.865 205.08C790.511 204.259 791.068 203.379 791.537 202.44C792.007 201.501 792.329 200.416 792.505 199.184C792.681 198.069 792.593 196.955 792.241 195.84C791.889 194.667 791.361 193.64 790.657 192.76C789.953 191.821 789.103 191.059 788.105 190.472C787.108 189.827 786.023 189.475 784.849 189.416C783.793 189.357 782.679 189.504 781.505 189.856C780.332 190.149 779.247 190.648 778.249 191.352C777.252 191.997 776.431 192.789 775.785 193.728C775.199 194.667 774.935 195.723 774.993 196.896C775.052 197.6 775.169 198.333 775.345 199.096C775.58 199.8 775.727 200.504 775.785 201.208C775.903 201.853 775.873 202.499 775.697 203.144C775.58 203.789 775.199 204.405 774.553 204.992C773.497 205.989 772.441 206.488 771.385 206.488C770.329 206.429 769.361 206.077 768.481 205.432C767.601 204.787 766.839 203.965 766.193 202.968C765.607 201.912 765.225 200.856 765.049 199.8ZM790.393 243.712C790.393 245.413 789.748 246.939 788.457 248.288C787.225 249.579 785.788 250.224 784.145 250.224C782.561 250.224 781.153 249.579 779.921 248.288C778.689 246.88 778.073 245.355 778.073 243.712C778.073 241.893 778.689 240.368 779.921 239.136C781.153 237.787 782.561 237.112 784.145 237.112C785.788 237.112 787.225 237.787 788.457 239.136C789.748 240.427 790.393 241.952 790.393 243.712Z" fill="#FF5D7D"/>
<path d="M185.935 180.088C189.455 181.965 191.948 184.547 193.415 187.832C194.94 191.117 195.527 195.048 195.175 199.624C194.823 205.491 193.151 209.861 190.159 212.736C187.226 215.611 182.708 217.048 176.607 217.048C175.023 217.048 173.556 217.077 172.207 217.136C170.916 217.136 169.684 217.048 168.511 216.872C167.338 216.696 166.135 216.403 164.903 215.992C163.671 215.523 162.351 214.819 160.943 213.88C158.186 212.061 156.279 209.685 155.223 206.752C154.226 203.819 153.727 200.797 153.727 197.688C153.727 194.579 154.284 191.675 155.399 188.976C156.514 186.219 158.332 183.872 160.855 181.936C162.908 180.293 165.196 179.091 167.719 178.328C170.3 177.565 172.882 177.301 175.463 177.536C176.636 177.653 177.634 177.771 178.455 177.888C179.335 177.947 180.156 178.064 180.919 178.24C181.682 178.416 182.444 178.651 183.207 178.944C183.97 179.237 184.879 179.619 185.935 180.088ZM160.063 235.44C160.063 232.8 160.826 230.6 162.351 228.84C163.935 227.08 166.047 225.701 168.687 224.704C171.327 223.648 174.436 222.915 178.015 222.504C181.594 222.093 185.407 221.888 189.455 221.888C193.503 221.888 197.316 222.035 200.895 222.328C204.474 222.621 207.583 223.267 210.223 224.264C212.863 225.203 214.946 226.552 216.471 228.312C218.055 230.072 218.847 232.448 218.847 235.44C218.847 238.373 218.055 240.72 216.471 242.48C214.946 244.24 212.863 245.589 210.223 246.528C207.583 247.525 204.474 248.171 200.895 248.464C197.316 248.816 193.503 248.992 189.455 248.992C185.407 248.992 181.594 248.816 178.015 248.464C174.436 248.171 171.327 247.525 168.687 246.528C166.047 245.589 163.935 244.24 162.351 242.48C160.826 240.72 160.063 238.373 160.063 235.44ZM205.559 211.152C205.148 211.152 204.62 211.123 203.975 211.064C203.388 211.005 202.772 210.888 202.127 210.712C201.54 210.536 200.983 210.301 200.455 210.008C199.927 209.715 199.516 209.304 199.223 208.776C199.047 208.541 198.9 208.219 198.783 207.808C198.724 207.397 198.666 206.987 198.607 206.576C198.607 206.107 198.607 205.667 198.607 205.256C198.666 204.845 198.724 204.523 198.783 204.288C198.9 203.643 199.223 203.085 199.751 202.616C200.279 202.088 200.895 201.677 201.599 201.384C201.834 201.325 202.274 201.267 202.919 201.208C203.623 201.149 204.327 201.12 205.031 201.12H207.671C207.612 200.475 207.583 199.859 207.583 199.272V196.544H205.559C205.148 196.544 204.62 196.515 203.975 196.456C203.388 196.397 202.772 196.28 202.127 196.104C201.54 195.928 200.983 195.693 200.455 195.4C199.927 195.107 199.516 194.696 199.223 194.168C198.754 193.405 198.519 192.613 198.519 191.792C198.519 190.912 198.695 190.12 199.047 189.416C199.458 188.653 199.986 188.037 200.631 187.568C201.335 187.04 202.156 186.747 203.095 186.688C203.154 186.688 203.418 186.688 203.887 186.688C204.415 186.688 204.972 186.688 205.559 186.688C206.146 186.688 206.674 186.688 207.143 186.688C207.612 186.629 207.847 186.541 207.847 186.424C207.964 185.837 207.994 185.192 207.935 184.488C207.935 183.784 207.964 183.08 208.023 182.376C208.082 181.672 208.199 181.027 208.375 180.44C208.61 179.795 209.02 179.237 209.607 178.768C210.076 178.416 210.634 178.181 211.279 178.064C211.924 177.947 212.54 177.859 213.127 177.8C214.594 177.624 215.855 178.123 216.911 179.296C217.322 179.824 217.615 180.323 217.791 180.792C218.026 181.496 218.114 182.229 218.055 182.992C218.055 183.755 218.055 184.517 218.055 185.28V210.536C218.055 210.536 218.055 210.917 218.055 211.68C218.055 212.443 217.996 213.293 217.879 214.232C217.762 215.171 217.556 216.109 217.263 217.048C217.028 217.928 216.618 218.544 216.031 218.896C215.62 219.131 215.122 219.307 214.535 219.424C213.948 219.541 213.42 219.6 212.951 219.6C211.954 219.6 210.986 219.277 210.047 218.632C209.343 218.163 208.844 217.605 208.551 216.96C208.375 216.608 208.228 216.168 208.111 215.64C207.994 215.112 207.906 214.584 207.847 214.056C207.788 213.469 207.73 212.912 207.671 212.384C207.612 211.856 207.583 211.445 207.583 211.152H205.559ZM184.703 200.592C184.703 199.301 184.644 198.099 184.527 196.984C184.41 195.811 184.146 194.755 183.735 193.816C183.383 192.819 182.826 191.939 182.063 191.176C181.3 190.413 180.303 189.797 179.071 189.328C177.722 188.859 176.255 188.624 174.671 188.624C173.087 188.624 171.591 188.917 170.183 189.504C168.775 190.032 167.543 190.883 166.487 192.056C165.431 193.171 164.756 194.637 164.463 196.456C164.287 197.688 164.287 198.949 164.463 200.24C164.698 201.472 165.138 202.616 165.783 203.672C166.487 204.669 167.426 205.52 168.599 206.224C169.831 206.928 171.356 207.368 173.175 207.544C174.407 207.661 175.639 207.661 176.871 207.544C178.103 207.368 179.247 207.016 180.303 206.488C181.359 205.96 182.268 205.227 183.031 204.288C183.794 203.291 184.351 202.059 184.703 200.592ZM206.967 235.44C206.967 234.443 206.439 233.651 205.383 233.064C204.327 232.477 202.948 232.037 201.247 231.744C199.604 231.451 197.727 231.275 195.615 231.216C193.562 231.099 191.508 231.04 189.455 231.04C187.402 231.04 185.348 231.099 183.295 231.216C181.3 231.275 179.482 231.451 177.839 231.744C176.255 232.037 174.964 232.477 173.967 233.064C172.97 233.651 172.471 234.443 172.471 235.44C172.471 236.32 172.97 237.053 173.967 237.64C174.964 238.227 176.255 238.667 177.839 238.96C179.482 239.253 181.3 239.459 183.295 239.576C185.348 239.693 187.402 239.752 189.455 239.752C191.508 239.752 193.562 239.752 195.615 239.752C197.727 239.752 199.604 239.635 201.247 239.4C202.948 239.165 204.327 238.755 205.383 238.168C206.439 237.523 206.967 236.613 206.967 235.44ZM244.918 178.064C245.681 178.064 246.414 178.093 247.118 178.152C247.822 178.211 248.526 178.299 249.23 178.416C251.46 178.768 253.425 179.795 255.126 181.496C256.534 183.021 257.678 184.781 258.558 186.776C259.497 188.712 260.23 190.765 260.758 192.936C261.286 195.107 261.668 197.336 261.902 199.624C262.137 201.853 262.313 204.024 262.43 206.136C262.548 208.835 262.577 211.533 262.518 214.232C262.46 216.931 262.284 219.6 261.99 222.24C261.697 224.997 261.257 227.784 260.67 230.6C260.142 233.357 259.145 235.851 257.678 238.08C256.446 239.957 254.921 241.512 253.102 242.744C251.284 243.917 249.377 244.709 247.382 245.12C245.564 245.472 243.716 245.531 241.838 245.296C239.961 245.061 238.172 244.445 236.47 243.448C234.886 242.509 233.537 241.336 232.422 239.928C231.366 238.52 230.428 236.877 229.606 235C228.433 232.184 227.758 229.28 227.582 226.288C227.348 223.824 227.172 221.36 227.054 218.896C226.996 216.432 226.966 213.968 226.966 211.504C226.966 209.803 226.966 208.16 226.966 206.576C227.025 204.933 227.142 203.291 227.318 201.648C227.436 200.299 227.582 198.979 227.758 197.688C227.934 196.339 228.14 195.019 228.374 193.728C228.609 192.672 228.814 191.675 228.99 190.736C229.166 189.797 229.489 188.829 229.958 187.832C230.428 186.835 230.926 185.896 231.454 185.016C232.041 184.136 232.716 183.344 233.478 182.64C234.769 181.349 236.206 180.352 237.79 179.648C239.374 178.944 241.017 178.475 242.718 178.24C243.07 178.181 243.422 178.152 243.774 178.152C244.185 178.152 244.566 178.123 244.918 178.064ZM276.51 216.52C275.689 216.403 274.604 216.344 273.254 216.344C271.905 216.285 270.82 216.197 269.998 216.08C267.945 215.963 266.478 215.2 265.598 213.792C264.718 212.384 264.601 210.565 265.246 208.336C265.364 207.867 265.598 207.368 265.95 206.84C266.361 206.312 266.742 205.901 267.094 205.608C267.916 205.021 268.737 204.64 269.558 204.464C270.497 204.347 271.612 204.317 272.902 204.376C274.252 204.435 275.425 204.405 276.422 204.288H276.686V203.936C276.686 203.232 276.686 202.704 276.686 202.352C276.745 202 276.774 201.677 276.774 201.384C276.774 201.091 276.745 200.768 276.686 200.416C276.686 200.064 276.686 199.507 276.686 198.744C276.686 197.219 276.657 195.723 276.598 194.256C276.598 192.731 276.628 191.235 276.686 189.768V188.536C276.686 187.773 276.686 186.952 276.686 186.072C276.745 185.133 276.833 184.224 276.95 183.344C277.068 182.405 277.273 181.555 277.566 180.792C277.86 179.971 278.27 179.296 278.798 178.768C279.678 178.005 280.617 177.624 281.614 177.624H281.79C283.198 177.683 284.313 178.123 285.134 178.944C286.014 179.707 286.66 180.645 287.07 181.76C287.54 182.875 287.833 184.048 287.95 185.28C288.068 186.453 288.126 187.509 288.126 188.448V241.248C288.126 241.307 288.126 241.6 288.126 242.128C288.126 242.597 288.068 243.184 287.95 243.888C287.833 244.592 287.657 245.296 287.422 246C287.188 246.704 286.806 247.291 286.278 247.76C285.868 248.171 285.281 248.493 284.518 248.728C283.756 248.963 283.052 249.08 282.406 249.08C280.998 249.08 279.884 248.611 279.062 247.672C278.3 246.851 277.83 246 277.654 245.12C277.478 244.24 277.332 243.301 277.214 242.304C277.214 242.128 277.185 241.952 277.126 241.776C277.126 241.6 277.126 241.395 277.126 241.16C277.009 240.221 276.95 239.224 276.95 238.168C276.95 237.112 276.921 236.056 276.862 235C276.804 234.355 276.774 233.739 276.774 233.152C276.774 232.507 276.774 231.861 276.774 231.216V229.192C276.774 228.605 276.774 227.843 276.774 226.904C276.774 225.907 276.745 224.88 276.686 223.824C276.686 222.768 276.686 221.771 276.686 220.832C276.686 219.893 276.686 219.101 276.686 218.456C276.686 218.163 276.686 217.84 276.686 217.488C276.686 217.136 276.628 216.813 276.51 216.52ZM244.654 233.416C245.769 233.416 246.854 233.064 247.91 232.36C248.908 231.656 249.612 230.717 250.022 229.544C250.433 228.371 250.785 227.08 251.078 225.672C251.548 222.973 251.812 220.099 251.87 217.048C251.929 213.997 251.9 211.064 251.782 208.248C251.782 207.133 251.753 205.96 251.694 204.728C251.636 203.437 251.518 202.176 251.342 200.944C251.225 199.712 251.02 198.539 250.726 197.424C250.433 196.251 250.022 195.224 249.494 194.344C248.908 193.347 248.204 192.584 247.382 192.056C246.561 191.528 245.681 191.323 244.742 191.44C243.745 191.557 242.836 191.909 242.014 192.496C241.193 193.083 240.518 193.963 239.99 195.136L239.198 196.984C238.846 198.099 238.582 199.272 238.406 200.504C238.23 201.677 238.084 202.851 237.966 204.024C237.849 205.197 237.761 206.4 237.702 207.632C237.644 208.864 237.614 210.067 237.614 211.24C237.673 212.413 237.644 213.557 237.526 214.672C237.468 215.787 237.497 216.931 237.614 218.104C237.732 219.629 237.878 221.272 238.054 223.032C238.289 224.792 238.641 226.464 239.11 228.048C239.58 229.573 240.254 230.864 241.134 231.92C242.014 232.917 243.188 233.416 244.654 233.416ZM391.951 242.92C392.831 242.979 393.623 243.213 394.327 243.624C395.09 243.976 395.618 244.621 395.911 245.56C396.557 247.672 395.794 249.139 393.623 249.96C392.919 250.253 392.186 250.429 391.423 250.488C390.719 250.547 390.045 250.576 389.399 250.576H349.535C348.362 250.576 347.13 250.576 345.839 250.576C344.607 250.576 343.346 250.547 342.055 250.488C340.823 250.429 339.797 249.989 338.975 249.168C338.154 248.347 337.685 247.261 337.567 245.912C337.45 244.915 337.362 243.829 337.303 242.656C337.303 241.424 337.303 240.397 337.303 239.576V238.784C337.245 238.139 337.245 237.376 337.303 236.496C337.421 235.616 337.743 234.853 338.271 234.208C339.034 233.387 340.09 232.859 341.439 232.624C342.847 232.389 344.197 232.272 345.487 232.272H347.335C347.57 232.272 347.775 232.301 347.951 232.36C348.186 232.36 348.391 232.36 348.567 232.36H384.823V228.576H347.687C347.394 228.576 347.071 228.576 346.719 228.576C346.367 228.517 346.045 228.517 345.751 228.576H343.551C342.965 228.576 342.437 228.576 341.967 228.576C341.498 228.576 341.029 228.517 340.559 228.4C340.09 228.283 339.621 228.165 339.151 228.048C338.741 227.931 338.389 227.637 338.095 227.168C337.333 225.995 337.127 224.733 337.479 223.384C337.655 222.915 337.919 222.563 338.271 222.328C338.623 222.035 339.034 221.8 339.503 221.624C339.973 221.448 340.413 221.331 340.823 221.272C341.293 221.155 341.703 221.067 342.055 221.008C342.525 220.949 342.965 220.92 343.375 220.92C343.845 220.861 344.343 220.832 344.871 220.832H346.367C346.661 220.832 346.925 220.861 347.159 220.92C347.394 220.92 347.658 220.92 347.951 220.92H385.703C388.695 220.92 390.983 221.389 392.567 222.328C394.151 223.208 394.943 224.675 394.943 226.728V233.592C394.943 234.413 394.767 235.205 394.415 235.968C394.063 236.731 393.418 237.405 392.479 237.992C391.658 238.461 390.866 238.725 390.103 238.784C389.341 238.784 388.607 238.784 387.903 238.784H348.127V242.92H391.951ZM392.831 203.76V210.888C392.831 212.413 392.391 213.763 391.511 214.936C390.631 216.051 389.282 216.608 387.463 216.608C386.466 216.608 385.645 216.403 384.999 215.992C383.826 215.288 383.063 214.437 382.711 213.44C382.418 212.384 382.271 211.621 382.271 211.152V184.84C382.213 184.605 382.242 183.96 382.359 182.904C382.477 181.848 382.711 180.968 383.063 180.264C383.65 179.032 384.823 178.328 386.583 178.152C388.754 177.859 390.367 178.299 391.423 179.472C391.775 179.941 392.01 180.411 392.127 180.88C392.303 181.291 392.45 181.731 392.567 182.2C392.743 182.728 392.831 183.491 392.831 184.488C392.89 185.485 392.89 186.277 392.831 186.864V193.992C393.066 193.992 393.506 194.021 394.151 194.08C394.797 194.08 395.471 194.109 396.175 194.168C396.879 194.168 397.554 194.197 398.199 194.256C398.845 194.315 399.314 194.373 399.607 194.432C400.781 194.667 401.602 195.019 402.071 195.488C402.541 195.899 402.834 196.427 402.951 197.072C403.127 197.717 403.215 198.48 403.215 199.36C403.215 200.181 403.039 200.885 402.687 201.472C401.983 202.645 400.927 203.32 399.519 203.496C398.111 203.613 396.557 203.701 394.855 203.76H392.831ZM369.951 200.856C369.951 203.437 369.335 205.901 368.103 208.248C367.165 210.125 365.962 211.621 364.495 212.736C363.029 213.792 361.386 214.613 359.567 215.2C357.807 215.728 355.93 216.021 353.935 216.08C351.999 216.139 350.122 216.08 348.303 215.904C345.487 215.728 342.877 214.907 340.471 213.44C338.125 211.915 336.335 209.92 335.103 207.456C334.165 205.579 333.695 203.379 333.695 200.856C333.695 198.627 333.989 196.72 334.575 195.136C334.927 194.256 335.338 193.435 335.807 192.672C336.277 191.851 336.775 191.117 337.303 190.472H335.807C335.103 190.472 334.487 190.384 333.959 190.208C333.431 189.973 332.903 189.651 332.375 189.24C331.495 188.419 331.055 187.421 331.055 186.248C331.055 184.957 331.495 183.872 332.375 182.992C333.373 182.229 334.517 181.848 335.807 181.848H345.223V179.208C345.458 177.565 346.25 176.333 347.599 175.512C348.949 174.691 350.357 174.339 351.823 174.456C353.29 174.573 354.581 175.248 355.695 176.48C356.81 177.653 357.279 179.443 357.103 181.848H367.135C368.543 181.848 369.658 182.229 370.479 182.992C371.418 183.931 371.887 185.016 371.887 186.248C371.887 187.363 371.418 188.36 370.479 189.24C369.541 190.061 368.426 190.472 367.135 190.472H366.255C366.783 191.117 367.253 191.851 367.663 192.672C368.074 193.435 368.485 194.256 368.895 195.136C369.599 196.837 369.951 198.744 369.951 200.856ZM353.231 206.664C354.405 206.547 355.549 206.224 356.663 205.696C357.837 205.168 358.658 204.317 359.127 203.144C359.949 201.443 359.978 199.859 359.215 198.392C358.453 196.867 357.221 195.664 355.519 194.784C354.405 194.315 353.143 194.08 351.735 194.08C350.269 194.08 349.037 194.285 348.039 194.696C347.394 194.989 346.837 195.371 346.367 195.84C345.957 196.251 345.575 196.691 345.223 197.16C344.695 197.923 344.343 198.744 344.167 199.624C343.991 200.445 343.991 201.267 344.167 202.088C344.402 202.909 344.783 203.672 345.311 204.376C345.839 205.08 346.514 205.608 347.335 205.96C348.274 206.371 349.242 206.635 350.239 206.752C351.237 206.811 352.234 206.781 353.231 206.664ZM474.958 198.92L470.206 203.672C468.915 204.904 467.625 206.107 466.334 207.28C465.043 208.453 463.723 209.627 462.374 210.8C462.257 210.917 462.139 211.035 462.022 211.152C461.905 211.211 461.787 211.299 461.67 211.416C460.555 212.413 459.441 213.469 458.326 214.584C457.27 215.699 455.979 216.491 454.454 216.96C453.398 217.253 452.254 217.224 451.022 216.872C449.79 216.52 448.851 215.904 448.206 215.024C447.737 214.32 447.502 213.616 447.502 212.912C447.502 212.208 447.619 211.533 447.854 210.888C448.147 210.184 448.499 209.509 448.91 208.864C449.321 208.219 449.761 207.632 450.23 207.104C451.99 205.051 453.809 203.115 455.686 201.296C457.622 199.419 459.587 197.6 461.582 195.84C462.227 195.312 462.961 194.608 463.782 193.728C464.603 192.789 465.395 191.88 466.158 191C467.038 189.944 467.947 188.888 468.886 187.832C468.769 186.483 468.739 185.192 468.798 183.96C468.857 182.904 469.003 181.848 469.238 180.792C469.473 179.736 469.913 178.885 470.558 178.24C471.321 177.536 472.406 177.096 473.814 176.92C475.222 176.685 476.395 176.715 477.334 177.008C478.683 177.419 479.622 178.123 480.15 179.12C480.737 180.117 481.118 181.291 481.294 182.64C481.353 183.755 481.353 184.723 481.294 185.544C481.294 186.307 481.617 187.157 482.262 188.096C482.731 188.8 483.259 189.475 483.846 190.12C484.491 190.765 485.107 191.411 485.694 192.056C487.747 194.344 489.742 196.544 491.678 198.656C493.673 200.768 495.726 202.939 497.838 205.168C498.542 205.872 499.217 206.752 499.862 207.808C500.507 208.864 500.947 209.949 501.182 211.064C501.475 212.12 501.446 213.147 501.094 214.144C500.801 215.083 500.038 215.845 498.806 216.432C497.926 216.843 497.075 217.019 496.254 216.96C495.433 216.843 494.641 216.608 493.878 216.256C493.115 215.845 492.382 215.347 491.678 214.76C491.033 214.173 490.446 213.587 489.918 213L474.958 198.92ZM449.526 233.064C448.177 233.005 446.886 232.829 445.654 232.536C444.481 232.184 443.513 231.421 442.75 230.248C442.105 229.251 441.782 228.195 441.782 227.08C441.841 225.907 442.281 224.909 443.102 224.088C443.571 223.619 444.158 223.267 444.862 223.032C445.566 222.797 446.241 222.621 446.886 222.504C447.531 222.387 448.089 222.328 448.558 222.328C449.086 222.328 449.379 222.328 449.438 222.328H498.278C499.217 222.269 500.214 222.269 501.27 222.328C502.385 222.387 503.411 222.592 504.35 222.944C505.289 223.237 506.081 223.765 506.726 224.528C507.371 225.232 507.694 226.229 507.694 227.52C507.694 228.987 507.195 230.101 506.198 230.864C505.201 231.568 503.998 232.096 502.59 232.448C501.241 232.741 499.833 232.917 498.366 232.976C496.899 232.976 495.697 232.976 494.758 232.976H491.326C490.153 233.035 489.009 233.064 487.894 233.064C486.779 233.005 485.635 232.976 484.462 232.976H481.118C481.177 234.619 481.235 236.349 481.294 238.168C481.353 239.987 481.265 241.6 481.03 243.008C480.913 244.123 480.619 245.179 480.15 246.176C479.739 247.232 479.035 248.083 478.038 248.728C477.158 249.315 476.131 249.608 474.958 249.608C473.785 249.667 472.729 249.432 471.79 248.904C471.027 248.435 470.441 247.76 470.03 246.88C469.678 246 469.443 245.149 469.326 244.328C469.209 243.683 469.15 242.979 469.15 242.216C469.209 241.453 469.238 240.749 469.238 240.104C469.179 239.048 469.15 237.904 469.15 236.672C469.15 235.381 469.15 234.12 469.15 232.888H466.95C465.307 232.888 463.782 232.917 462.374 232.976C460.966 232.976 459.587 233.005 458.238 233.064C456.889 233.064 455.51 233.064 454.102 233.064C452.694 233.064 451.169 233.064 449.526 233.064ZM579.683 180.088C583.203 181.965 585.697 184.547 587.163 187.832C588.689 191.117 589.275 195.048 588.923 199.624C588.571 205.491 586.899 209.861 583.907 212.736C580.974 215.611 576.457 217.048 570.355 217.048C568.771 217.048 567.305 217.077 565.955 217.136C564.665 217.136 563.433 217.048 562.259 216.872C561.086 216.696 559.883 216.403 558.651 215.992C557.419 215.523 556.099 214.819 554.691 213.88C551.934 212.061 550.027 209.685 548.971 206.752C547.974 203.819 547.475 200.797 547.475 197.688C547.475 194.579 548.033 191.675 549.147 188.976C550.262 186.219 552.081 183.872 554.603 181.936C556.657 180.293 558.945 179.091 561.467 178.328C564.049 177.565 566.63 177.301 569.211 177.536C570.385 177.653 571.382 177.771 572.203 177.888C573.083 177.947 573.905 178.064 574.667 178.24C575.43 178.416 576.193 178.651 576.955 178.944C577.718 179.237 578.627 179.619 579.683 180.088ZM566.131 244.24C565.486 245.12 564.811 245.941 564.107 246.704C563.462 247.525 562.729 248.2 561.907 248.728C561.145 249.256 560.323 249.579 559.443 249.696C558.563 249.872 557.625 249.784 556.627 249.432C555.395 249.021 554.662 248.405 554.427 247.584C554.251 246.763 554.339 245.883 554.691 244.944C555.043 244.005 555.542 243.096 556.187 242.216C556.833 241.336 557.361 240.573 557.771 239.928C558.827 238.227 559.854 236.525 560.851 234.824C561.849 233.064 562.934 231.363 564.107 229.72C564.577 229.075 565.075 228.371 565.603 227.608C566.19 226.845 566.806 226.171 567.451 225.584C568.097 224.939 568.801 224.411 569.563 224C570.326 223.531 571.147 223.267 572.027 223.208C572.907 223.149 573.699 223.325 574.403 223.736C575.107 224.147 575.723 224.675 576.251 225.32C576.838 225.907 577.366 226.581 577.835 227.344C578.363 228.048 578.833 228.693 579.243 229.28C581.355 232.565 583.379 235.821 585.315 239.048C586.313 237.523 587.251 235.968 588.131 234.384C589.07 232.8 590.067 231.245 591.123 229.72C592.062 228.371 593.147 226.992 594.379 225.584C595.67 224.117 597.225 223.325 599.043 223.208C599.923 223.149 600.745 223.325 601.507 223.736C602.329 224.147 603.062 224.675 603.707 225.32C604.411 225.907 605.057 226.581 605.643 227.344C606.23 228.048 606.729 228.693 607.139 229.28C608.547 231.333 609.867 233.445 611.099 235.616C612.39 237.728 613.71 239.84 615.059 241.952C615.705 243.008 616.174 243.976 616.467 244.856C616.761 245.736 616.497 246.763 615.675 247.936C615.03 248.933 614.209 249.52 613.211 249.696C612.214 249.931 611.217 249.725 610.219 249.08C608.225 247.907 606.494 246.381 605.027 244.504C603.561 242.627 602.153 240.808 600.803 239.048C599.923 237.933 599.19 237.405 598.603 237.464C598.075 237.523 597.43 238.109 596.667 239.224C596.139 239.928 595.582 240.632 594.995 241.336C594.409 242.04 593.793 242.891 593.147 243.888C592.502 244.768 591.827 245.619 591.123 246.44C590.478 247.32 589.745 248.024 588.923 248.552C588.161 249.139 587.339 249.52 586.459 249.696C585.579 249.872 584.641 249.784 583.643 249.432C582.705 249.08 582.059 248.64 581.707 248.112C580.123 246.939 578.715 245.531 577.483 243.888C576.251 242.187 575.019 240.573 573.787 239.048C572.907 237.933 572.203 237.405 571.675 237.464C571.147 237.523 570.473 238.109 569.651 239.224C569.123 239.928 568.566 240.691 567.979 241.512C567.393 242.333 566.777 243.243 566.131 244.24ZM611.715 213.44C611.715 213.44 611.686 213.645 611.627 214.056C611.569 214.467 611.451 214.936 611.275 215.464C611.099 215.992 610.835 216.549 610.483 217.136C610.131 217.664 609.662 218.104 609.075 218.456C608.254 218.925 607.433 219.16 606.611 219.16C605.614 219.16 604.646 218.837 603.707 218.192C603.062 217.723 602.563 217.107 602.211 216.344C601.742 215.464 601.419 214.467 601.243 213.352C601.126 212.179 601.038 210.976 600.979 209.744C600.979 208.512 601.009 207.309 601.067 206.136C601.126 204.963 601.155 203.877 601.155 202.88C601.214 200.357 601.243 197.864 601.243 195.4C601.243 192.877 601.243 190.384 601.243 187.92V186.776C601.185 186.131 601.155 185.456 601.155 184.752C601.214 183.989 601.331 183.285 601.507 182.64C601.742 181.76 602.27 180.821 603.091 179.824C603.561 179.237 604.206 178.827 605.027 178.592C605.907 178.299 606.846 178.211 607.843 178.328C609.603 178.621 610.777 179.384 611.363 180.616C611.715 181.379 611.862 182.317 611.803 183.432C611.803 184.547 611.774 185.221 611.715 185.456V213.44ZM578.451 200.592C578.451 199.301 578.393 198.099 578.275 196.984C578.158 195.811 577.894 194.755 577.483 193.816C577.131 192.819 576.574 191.939 575.811 191.176C575.049 190.413 574.051 189.797 572.819 189.328C571.47 188.859 570.003 188.624 568.419 188.624C566.835 188.624 565.339 188.917 563.931 189.504C562.523 190.032 561.291 190.883 560.235 192.056C559.179 193.171 558.505 194.637 558.211 196.456C558.035 197.688 558.035 198.949 558.211 200.24C558.446 201.472 558.886 202.616 559.531 203.672C560.235 204.669 561.174 205.52 562.347 206.224C563.579 206.928 565.105 207.368 566.923 207.544C568.155 207.661 569.387 207.661 570.619 207.544C571.851 207.368 572.995 207.016 574.051 206.488C575.107 205.96 576.017 205.227 576.779 204.288C577.542 203.291 578.099 202.059 578.451 200.592ZM639.354 178.064C640.117 178.064 640.85 178.093 641.554 178.152C642.258 178.211 642.962 178.299 643.666 178.416C645.896 178.768 647.861 179.795 649.562 181.496C650.97 183.021 652.114 184.781 652.994 186.776C653.933 188.712 654.666 190.765 655.194 192.936C655.722 195.107 656.104 197.336 656.338 199.624C656.573 201.853 656.749 204.024 656.866 206.136C656.984 208.835 657.013 211.533 656.954 214.232C656.896 216.931 656.72 219.6 656.426 222.24C656.133 224.997 655.693 227.784 655.106 230.6C654.578 233.357 653.581 235.851 652.114 238.08C650.882 239.957 649.357 241.512 647.538 242.744C645.72 243.917 643.813 244.709 641.818 245.12C640 245.472 638.152 245.531 636.274 245.296C634.397 245.061 632.608 244.445 630.906 243.448C629.322 242.509 627.973 241.336 626.858 239.928C625.802 238.52 624.864 236.877 624.042 235C622.869 232.184 622.194 229.28 622.018 226.288C621.784 223.824 621.608 221.36 621.49 218.896C621.432 216.432 621.402 213.968 621.402 211.504C621.402 209.803 621.402 208.16 621.402 206.576C621.461 204.933 621.578 203.291 621.754 201.648C621.872 200.299 622.018 198.979 622.194 197.688C622.37 196.339 622.576 195.019 622.81 193.728C623.045 192.672 623.25 191.675 623.426 190.736C623.602 189.797 623.925 188.829 624.394 187.832C624.864 186.835 625.362 185.896 625.89 185.016C626.477 184.136 627.152 183.344 627.914 182.64C629.205 181.349 630.642 180.352 632.226 179.648C633.81 178.944 635.453 178.475 637.154 178.24C637.506 178.181 637.858 178.152 638.21 178.152C638.621 178.152 639.002 178.123 639.354 178.064ZM670.946 216.52C670.125 216.403 669.04 216.344 667.69 216.344C666.341 216.285 665.256 216.197 664.434 216.08C662.381 215.963 660.914 215.2 660.034 213.792C659.154 212.384 659.037 210.565 659.682 208.336C659.8 207.867 660.034 207.368 660.386 206.84C660.797 206.312 661.178 205.901 661.53 205.608C662.352 205.021 663.173 204.64 663.994 204.464C664.933 204.347 666.048 204.317 667.338 204.376C668.688 204.435 669.861 204.405 670.858 204.288H671.122V203.936C671.122 203.232 671.122 202.704 671.122 202.352C671.181 202 671.21 201.677 671.21 201.384C671.21 201.091 671.181 200.768 671.122 200.416C671.122 200.064 671.122 199.507 671.122 198.744C671.122 197.219 671.093 195.723 671.034 194.256C671.034 192.731 671.064 191.235 671.122 189.768V188.536C671.122 187.773 671.122 186.952 671.122 186.072C671.181 185.133 671.269 184.224 671.386 183.344C671.504 182.405 671.709 181.555 672.002 180.792C672.296 179.971 672.706 179.296 673.234 178.768C674.114 178.005 675.053 177.624 676.05 177.624H676.226C677.634 177.683 678.749 178.123 679.57 178.944C680.45 179.707 681.096 180.645 681.506 181.76C681.976 182.875 682.269 184.048 682.386 185.28C682.504 186.453 682.562 187.509 682.562 188.448V241.248C682.562 241.307 682.562 241.6 682.562 242.128C682.562 242.597 682.504 243.184 682.386 243.888C682.269 244.592 682.093 245.296 681.858 246C681.624 246.704 681.242 247.291 680.714 247.76C680.304 248.171 679.717 248.493 678.954 248.728C678.192 248.963 677.488 249.08 676.842 249.08C675.434 249.08 674.32 248.611 673.498 247.672C672.736 246.851 672.266 246 672.09 245.12C671.914 244.24 671.768 243.301 671.65 242.304C671.65 242.128 671.621 241.952 671.562 241.776C671.562 241.6 671.562 241.395 671.562 241.16C671.445 240.221 671.386 239.224 671.386 238.168C671.386 237.112 671.357 236.056 671.298 235C671.24 234.355 671.21 233.739 671.21 233.152C671.21 232.507 671.21 231.861 671.21 231.216V229.192C671.21 228.605 671.21 227.843 671.21 226.904C671.21 225.907 671.181 224.88 671.122 223.824C671.122 222.768 671.122 221.771 671.122 220.832C671.122 219.893 671.122 219.101 671.122 218.456C671.122 218.163 671.122 217.84 671.122 217.488C671.122 217.136 671.064 216.813 670.946 216.52ZM639.09 233.416C640.205 233.416 641.29 233.064 642.346 232.36C643.344 231.656 644.048 230.717 644.458 229.544C644.869 228.371 645.221 227.08 645.514 225.672C645.984 222.973 646.248 220.099 646.306 217.048C646.365 213.997 646.336 211.064 646.218 208.248C646.218 207.133 646.189 205.96 646.13 204.728C646.072 203.437 645.954 202.176 645.778 200.944C645.661 199.712 645.456 198.539 645.162 197.424C644.869 196.251 644.458 195.224 643.93 194.344C643.344 193.347 642.64 192.584 641.818 192.056C640.997 191.528 640.117 191.323 639.178 191.44C638.181 191.557 637.272 191.909 636.45 192.496C635.629 193.083 634.954 193.963 634.426 195.136L633.634 196.984C633.282 198.099 633.018 199.272 632.842 200.504C632.666 201.677 632.52 202.851 632.402 204.024C632.285 205.197 632.197 206.4 632.138 207.632C632.08 208.864 632.05 210.067 632.05 211.24C632.109 212.413 632.08 213.557 631.962 214.672C631.904 215.787 631.933 216.931 632.05 218.104C632.168 219.629 632.314 221.272 632.49 223.032C632.725 224.792 633.077 226.464 633.546 228.048C634.016 229.573 634.69 230.864 635.57 231.92C636.45 232.917 637.624 233.416 639.09 233.416ZM750.131 233.064C750.307 233.123 750.483 233.152 750.659 233.152C750.835 233.093 751.011 233.064 751.187 233.064C752.184 233.181 753.094 233.387 753.915 233.68C754.795 233.915 755.646 234.413 756.467 235.176C757.288 235.88 757.699 236.877 757.699 238.168C757.699 238.813 757.582 239.517 757.347 240.28C757.171 240.984 756.907 241.541 756.555 241.952C756.086 242.421 755.499 242.773 754.795 243.008C754.15 243.243 753.475 243.419 752.771 243.536C752.126 243.595 751.539 243.624 751.011 243.624C750.542 243.624 750.278 243.624 750.219 243.624H701.907C701.614 243.624 701.174 243.653 700.587 243.712C700 243.712 699.56 243.712 699.267 243.712C697.976 243.771 696.627 243.771 695.219 243.712C693.811 243.595 692.608 243.125 691.611 242.304C690.379 241.189 689.763 239.928 689.763 238.52C689.763 237.64 690.027 236.731 690.555 235.792C691.083 234.853 691.787 234.208 692.667 233.856C693.84 233.387 695.043 233.152 696.275 233.152C697.566 233.152 698.856 233.123 700.147 233.064H700.587C701.467 233.064 702.494 233.064 703.667 233.064C704.899 233.005 705.984 232.976 706.923 232.976C706.864 232.741 706.835 232.448 706.835 232.096V231.744V223.56C706.835 223.032 706.923 222.504 707.099 221.976C707.216 221.507 707.422 221.037 707.715 220.568C708.008 220.04 708.419 219.541 708.947 219.072C706.776 218.544 704.723 217.723 702.787 216.608C700.91 215.493 699.267 213.909 697.859 211.856C696.51 210.037 695.6 208.101 695.131 206.048C694.72 203.995 694.515 201.853 694.515 199.624C694.515 195.048 695.718 191.235 698.123 188.184C700.587 185.075 703.931 182.845 708.155 181.496C710.971 180.557 713.816 179.971 716.691 179.736C719.624 179.443 722.558 179.413 725.491 179.648C727.896 179.824 730.302 180.059 732.707 180.352C735.112 180.645 737.43 181.291 739.659 182.288C740.656 182.757 741.624 183.315 742.563 183.96C743.502 184.605 744.382 185.368 745.203 186.248C747.256 188.477 748.664 190.883 749.427 193.464C750.19 196.045 750.454 198.803 750.219 201.736C749.867 206.312 748.518 209.979 746.171 212.736C743.824 215.435 740.891 217.4 737.371 218.632C738.016 218.984 738.544 219.453 738.955 220.04C739.366 220.627 739.6 221.331 739.659 222.152C739.718 223.091 739.747 224.557 739.747 226.552C739.806 228.488 739.835 230.659 739.835 233.064H743.355C744.411 233.123 745.555 233.123 746.787 233.064C748.078 232.947 749.192 232.947 750.131 233.064ZM738.691 203.056C738.867 202.293 738.926 201.56 738.867 200.856C738.75 197.805 737.782 195.547 735.963 194.08C734.203 192.555 731.915 191.616 729.099 191.264C727.456 191.088 725.432 190.912 723.027 190.736C720.622 190.501 718.246 190.56 715.899 190.912C713.611 191.264 711.587 191.997 709.827 193.112C708.067 194.168 707.011 195.869 706.659 198.216C706.483 199.624 706.483 200.973 706.659 202.264C706.894 203.555 707.392 204.699 708.155 205.696C708.918 206.693 709.974 207.544 711.323 208.248C712.672 208.952 714.403 209.392 716.515 209.568C718.568 209.803 720.651 210.008 722.763 210.184C724.934 210.36 727.046 210.243 729.099 209.832C730.096 209.656 731.094 209.421 732.091 209.128C733.147 208.776 734.115 208.336 734.995 207.808C735.875 207.28 736.638 206.635 737.283 205.872C737.928 205.051 738.398 204.112 738.691 203.056ZM726.811 220.216C725.286 220.216 723.672 220.245 721.971 220.304C720.328 220.304 718.656 220.245 716.955 220.128C717.366 220.832 717.6 221.507 717.659 222.152C717.718 223.091 717.747 224.557 717.747 226.552C717.806 228.488 717.835 230.659 717.835 233.064H727.163H728.923C728.864 232.829 728.835 232.507 728.835 232.096V231.744V223.56C728.835 223.208 728.894 222.827 729.011 222.416C729.128 222.123 729.246 221.771 729.363 221.36C729.48 220.949 729.686 220.539 729.979 220.128C729.451 220.187 728.923 220.216 728.395 220.216C727.867 220.216 727.339 220.216 726.811 220.216ZM765.049 199.8C764.815 198.275 764.697 196.72 764.697 195.136C764.756 193.552 765.049 191.997 765.577 190.472C766.223 188.477 767.279 186.717 768.745 185.192C770.212 183.667 771.884 182.464 773.761 181.584C775.756 180.645 777.78 180 779.833 179.648C781.945 179.237 783.999 179.149 785.993 179.384C788.047 179.619 790.012 180.147 791.889 180.968C793.825 181.731 795.644 182.845 797.345 184.312C799.164 185.896 800.513 187.744 801.393 189.856C802.332 191.909 802.831 194.051 802.889 196.28C803.007 198.509 802.743 200.739 802.097 202.968C801.511 205.139 800.601 207.163 799.369 209.04C799.369 209.04 799.34 209.099 799.281 209.216C798.284 210.565 797.14 211.797 795.849 212.912C794.559 213.968 793.356 215.112 792.241 216.344C790.951 217.693 790.188 219.072 789.953 220.48C789.719 221.829 789.484 223.355 789.249 225.056C789.073 226.699 788.633 228.136 787.929 229.368C787.284 230.541 786.052 231.099 784.233 231.04C783.001 230.981 782.063 230.6 781.417 229.896C780.831 229.133 780.391 228.253 780.097 227.256C779.863 226.2 779.775 225.115 779.833 224C779.892 222.827 779.98 221.8 780.097 220.92C780.449 218.867 781.095 216.931 782.033 215.112C782.972 213.235 784.116 211.475 785.465 209.832C786.228 208.952 786.991 208.16 787.753 207.456C788.516 206.693 789.22 205.901 789.865 205.08C790.511 204.259 791.068 203.379 791.537 202.44C792.007 201.501 792.329 200.416 792.505 199.184C792.681 198.069 792.593 196.955 792.241 195.84C791.889 194.667 791.361 193.64 790.657 192.76C789.953 191.821 789.103 191.059 788.105 190.472C787.108 189.827 786.023 189.475 784.849 189.416C783.793 189.357 782.679 189.504 781.505 189.856C780.332 190.149 779.247 190.648 778.249 191.352C777.252 191.997 776.431 192.789 775.785 193.728C775.199 194.667 774.935 195.723 774.993 196.896C775.052 197.6 775.169 198.333 775.345 199.096C775.58 199.8 775.727 200.504 775.785 201.208C775.903 201.853 775.873 202.499 775.697 203.144C775.58 203.789 775.199 204.405 774.553 204.992C773.497 205.989 772.441 206.488 771.385 206.488C770.329 206.429 769.361 206.077 768.481 205.432C767.601 204.787 766.839 203.965 766.193 202.968C765.607 201.912 765.225 200.856 765.049 199.8ZM790.393 243.712C790.393 245.413 789.748 246.939 788.457 248.288C787.225 249.579 785.788 250.224 784.145 250.224C782.561 250.224 781.153 249.579 779.921 248.288C778.689 246.88 778.073 245.355 778.073 243.712C778.073 241.893 778.689 240.368 779.921 239.136C781.153 237.787 782.561 237.112 784.145 237.112C785.788 237.112 787.225 237.787 788.457 239.136C789.748 240.427 790.393 241.952 790.393 243.712Z" fill="url(#paint0_linear)"/>
<defs>
<linearGradient id="paint0_linear" x1="480" y1="173" x2="480" y2="252.5" gradientUnits="userSpaceOnUse">
<stop offset="0.208203" stop-color="#FF5D7D"/>
<stop offset="0.209087" stop-color="#FF764E"/>
<stop offset="0.357606" stop-color="#FF764E"/>
<stop offset="0.359833" stop-color="#FFC144"/>
<stop offset="0.495578" stop-color="#FFC144"/>
<stop offset="0.495678" stop-color="#88DF8E"/>
<stop offset="0.658805" stop-color="#88DF8E"/>
<stop offset="0.658905" stop-color="#00CCF2"/>
<stop offset="0.828125" stop-color="#00CCF2"/>
<stop offset="0.828225" stop-color="#B278D3"/>
</linearGradient>
</defs>
</svg>
