<svg width="960" height="440" viewBox="0 0 960 440" fill="none" xmlns="http://www.w3.org/2000/svg">
<path d="M79.7162 180.088C83.2362 181.965 85.7295 184.547 87.1962 187.832C88.7215 191.117 89.3082 195.048 88.9562 199.624C88.6042 205.491 86.9322 209.861 83.9402 212.736C81.0069 215.611 76.4895 217.048 70.3882 217.048C68.8042 217.048 67.3375 217.077 65.9882 217.136C64.6975 217.136 63.4655 217.048 62.2922 216.872C61.1189 216.696 59.9162 216.403 58.6842 215.992C57.4522 215.523 56.1322 214.819 54.7242 213.88C51.9669 212.061 50.0602 209.685 49.0042 206.752C48.0069 203.819 47.5082 200.797 47.5082 197.688C47.5082 194.579 48.0655 191.675 49.1802 188.976C50.2949 186.219 52.1135 183.872 54.6362 181.936C56.6895 180.293 58.9775 179.091 61.5002 178.328C64.0815 177.565 66.6629 177.301 69.2442 177.536C70.4175 177.653 71.4149 177.771 72.2362 177.888C73.1162 177.947 73.9375 178.064 74.7002 178.24C75.4629 178.416 76.2255 178.651 76.9882 178.944C77.7509 179.237 78.6602 179.619 79.7162 180.088ZM53.8442 235.44C53.8442 232.8 54.6069 230.6 56.1322 228.84C57.7162 227.08 59.8282 225.701 62.4682 224.704C65.1082 223.648 68.2175 222.915 71.7962 222.504C75.3749 222.093 79.1882 221.888 83.2362 221.888C87.2842 221.888 91.0975 222.035 94.6762 222.328C98.2549 222.621 101.364 223.267 104.004 224.264C106.644 225.203 108.727 226.552 110.252 228.312C111.836 230.072 112.628 232.448 112.628 235.44C112.628 238.373 111.836 240.72 110.252 242.48C108.727 244.24 106.644 245.589 104.004 246.528C101.364 247.525 98.2549 248.171 94.6762 248.464C91.0975 248.816 87.2842 248.992 83.2362 248.992C79.1882 248.992 75.3749 248.816 71.7962 248.464C68.2175 248.171 65.1082 247.525 62.4682 246.528C59.8282 245.589 57.7162 244.24 56.1322 242.48C54.6069 240.72 53.8442 238.373 53.8442 235.44ZM99.3402 211.152C98.9295 211.152 98.4015 211.123 97.7562 211.064C97.1695 211.005 96.5535 210.888 95.9082 210.712C95.3215 210.536 94.7642 210.301 94.2362 210.008C93.7082 209.715 93.2975 209.304 93.0042 208.776C92.8282 208.541 92.6815 208.219 92.5642 207.808C92.5055 207.397 92.4469 206.987 92.3882 206.576C92.3882 206.107 92.3882 205.667 92.3882 205.256C92.4469 204.845 92.5055 204.523 92.5642 204.288C92.6815 203.643 93.0042 203.085 93.5322 202.616C94.0602 202.088 94.6762 201.677 95.3802 201.384C95.6149 201.325 96.0549 201.267 96.7002 201.208C97.4042 201.149 98.1082 201.12 98.8122 201.12H101.452C101.394 200.475 101.364 199.859 101.364 199.272V196.544H99.3402C98.9295 196.544 98.4015 196.515 97.7562 196.456C97.1695 196.397 96.5535 196.28 95.9082 196.104C95.3215 195.928 94.7642 195.693 94.2362 195.4C93.7082 195.107 93.2975 194.696 93.0042 194.168C92.5349 193.405 92.3002 192.613 92.3002 191.792C92.3002 190.912 92.4762 190.12 92.8282 189.416C93.2389 188.653 93.7669 188.037 94.4122 187.568C95.1162 187.04 95.9375 186.747 96.8762 186.688C96.9349 186.688 97.1989 186.688 97.6682 186.688C98.1962 186.688 98.7535 186.688 99.3402 186.688C99.9269 186.688 100.455 186.688 100.924 186.688C101.394 186.629 101.628 186.541 101.628 186.424C101.746 185.837 101.775 185.192 101.716 184.488C101.716 183.784 101.746 183.08 101.804 182.376C101.863 181.672 101.98 181.027 102.156 180.44C102.391 179.795 102.802 179.237 103.388 178.768C103.858 178.416 104.415 178.181 105.06 178.064C105.706 177.947 106.322 177.859 106.908 177.8C108.375 177.624 109.636 178.123 110.692 179.296C111.103 179.824 111.396 180.323 111.572 180.792C111.807 181.496 111.895 182.229 111.836 182.992C111.836 183.755 111.836 184.517 111.836 185.28V210.536C111.836 210.536 111.836 210.917 111.836 211.68C111.836 212.443 111.778 213.293 111.66 214.232C111.543 215.171 111.338 216.109 111.044 217.048C110.81 217.928 110.399 218.544 109.812 218.896C109.402 219.131 108.903 219.307 108.316 219.424C107.73 219.541 107.202 219.6 106.732 219.6C105.735 219.6 104.767 219.277 103.828 218.632C103.124 218.163 102.626 217.605 102.332 216.96C102.156 216.608 102.01 216.168 101.892 215.64C101.775 215.112 101.687 214.584 101.628 214.056C101.57 213.469 101.511 212.912 101.452 212.384C101.394 211.856 101.364 211.445 101.364 211.152H99.3402ZM78.4842 200.592C78.4842 199.301 78.4255 198.099 78.3082 196.984C78.1909 195.811 77.9269 194.755 77.5162 193.816C77.1642 192.819 76.6069 191.939 75.8442 191.176C75.0815 190.413 74.0842 189.797 72.8522 189.328C71.5029 188.859 70.0362 188.624 68.4522 188.624C66.8682 188.624 65.3722 188.917 63.9642 189.504C62.5562 190.032 61.3242 190.883 60.2682 192.056C59.2122 193.171 58.5375 194.637 58.2442 196.456C58.0682 197.688 58.0682 198.949 58.2442 200.24C58.4789 201.472 58.9189 202.616 59.5642 203.672C60.2682 204.669 61.2069 205.52 62.3802 206.224C63.6122 206.928 65.1375 207.368 66.9562 207.544C68.1882 207.661 69.4202 207.661 70.6522 207.544C71.8842 207.368 73.0282 207.016 74.0842 206.488C75.1402 205.96 76.0495 205.227 76.8122 204.288C77.5749 203.291 78.1322 202.059 78.4842 200.592ZM100.748 235.44C100.748 234.443 100.22 233.651 99.1642 233.064C98.1082 232.477 96.7295 232.037 95.0282 231.744C93.3855 231.451 91.5082 231.275 89.3962 231.216C87.3429 231.099 85.2895 231.04 83.2362 231.04C81.1829 231.04 79.1295 231.099 77.0762 231.216C75.0815 231.275 73.2629 231.451 71.6202 231.744C70.0362 232.037 68.7455 232.477 67.7482 233.064C66.7509 233.651 66.2522 234.443 66.2522 235.44C66.2522 236.32 66.7509 237.053 67.7482 237.64C68.7455 238.227 70.0362 238.667 71.6202 238.96C73.2629 239.253 75.0815 239.459 77.0762 239.576C79.1295 239.693 81.1829 239.752 83.2362 239.752C85.2895 239.752 87.3429 239.752 89.3962 239.752C91.5082 239.752 93.3855 239.635 95.0282 239.4C96.7295 239.165 98.1082 238.755 99.1642 238.168C100.22 237.523 100.748 236.613 100.748 235.44ZM138.7 178.064C139.462 178.064 140.196 178.093 140.9 178.152C141.604 178.211 142.308 178.299 143.012 178.416C145.241 178.768 147.206 179.795 148.908 181.496C150.316 183.021 151.46 184.781 152.34 186.776C153.278 188.712 154.012 190.765 154.54 192.936C155.068 195.107 155.449 197.336 155.684 199.624C155.918 201.853 156.094 204.024 156.212 206.136C156.329 208.835 156.358 211.533 156.3 214.232C156.241 216.931 156.065 219.6 155.772 222.24C155.478 224.997 155.038 227.784 154.452 230.6C153.924 233.357 152.926 235.851 151.46 238.08C150.228 239.957 148.702 241.512 146.884 242.744C145.065 243.917 143.158 244.709 141.164 245.12C139.345 245.472 137.497 245.531 135.62 245.296C133.742 245.061 131.953 244.445 130.252 243.448C128.668 242.509 127.318 241.336 126.204 239.928C125.148 238.52 124.209 236.877 123.388 235C122.214 232.184 121.54 229.28 121.364 226.288C121.129 223.824 120.953 221.36 120.836 218.896C120.777 216.432 120.748 213.968 120.748 211.504C120.748 209.803 120.748 208.16 120.748 206.576C120.806 204.933 120.924 203.291 121.1 201.648C121.217 200.299 121.364 198.979 121.54 197.688C121.716 196.339 121.921 195.019 122.156 193.728C122.39 192.672 122.596 191.675 122.772 190.736C122.948 189.797 123.27 188.829 123.74 187.832C124.209 186.835 124.708 185.896 125.236 185.016C125.822 184.136 126.497 183.344 127.26 182.64C128.55 181.349 129.988 180.352 131.572 179.648C133.156 178.944 134.798 178.475 136.5 178.24C136.852 178.181 137.204 178.152 137.556 178.152C137.966 178.152 138.348 178.123 138.7 178.064ZM170.292 216.52C169.47 216.403 168.385 216.344 167.036 216.344C165.686 216.285 164.601 216.197 163.78 216.08C161.726 215.963 160.26 215.2 159.38 213.792C158.5 212.384 158.382 210.565 159.028 208.336C159.145 207.867 159.38 207.368 159.732 206.84C160.142 206.312 160.524 205.901 160.876 205.608C161.697 205.021 162.518 204.64 163.34 204.464C164.278 204.347 165.393 204.317 166.684 204.376C168.033 204.435 169.206 204.405 170.204 204.288H170.468V203.936C170.468 203.232 170.468 202.704 170.468 202.352C170.526 202 170.556 201.677 170.556 201.384C170.556 201.091 170.526 200.768 170.468 200.416C170.468 200.064 170.468 199.507 170.468 198.744C170.468 197.219 170.438 195.723 170.38 194.256C170.38 192.731 170.409 191.235 170.468 189.768V188.536C170.468 187.773 170.468 186.952 170.468 186.072C170.526 185.133 170.614 184.224 170.732 183.344C170.849 182.405 171.054 181.555 171.348 180.792C171.641 179.971 172.052 179.296 172.58 178.768C173.46 178.005 174.398 177.624 175.396 177.624H175.572C176.98 177.683 178.094 178.123 178.916 178.944C179.796 179.707 180.441 180.645 180.852 181.76C181.321 182.875 181.614 184.048 181.732 185.28C181.849 186.453 181.908 187.509 181.908 188.448V241.248C181.908 241.307 181.908 241.6 181.908 242.128C181.908 242.597 181.849 243.184 181.732 243.888C181.614 244.592 181.438 245.296 181.204 246C180.969 246.704 180.588 247.291 180.06 247.76C179.649 248.171 179.062 248.493 178.3 248.728C177.537 248.963 176.833 249.08 176.188 249.08C174.78 249.08 173.665 248.611 172.844 247.672C172.081 246.851 171.612 246 171.436 245.12C171.26 244.24 171.113 243.301 170.996 242.304C170.996 242.128 170.966 241.952 170.908 241.776C170.908 241.6 170.908 241.395 170.908 241.16C170.79 240.221 170.732 239.224 170.732 238.168C170.732 237.112 170.702 236.056 170.644 235C170.585 234.355 170.556 233.739 170.556 233.152C170.556 232.507 170.556 231.861 170.556 231.216V229.192C170.556 228.605 170.556 227.843 170.556 226.904C170.556 225.907 170.526 224.88 170.468 223.824C170.468 222.768 170.468 221.771 170.468 220.832C170.468 219.893 170.468 219.101 170.468 218.456C170.468 218.163 170.468 217.84 170.468 217.488C170.468 217.136 170.409 216.813 170.292 216.52ZM138.436 233.416C139.55 233.416 140.636 233.064 141.692 232.36C142.689 231.656 143.393 230.717 143.804 229.544C144.214 228.371 144.566 227.08 144.86 225.672C145.329 222.973 145.593 220.099 145.652 217.048C145.71 213.997 145.681 211.064 145.564 208.248C145.564 207.133 145.534 205.96 145.476 204.728C145.417 203.437 145.3 202.176 145.124 200.944C145.006 199.712 144.801 198.539 144.508 197.424C144.214 196.251 143.804 195.224 143.276 194.344C142.689 193.347 141.985 192.584 141.164 192.056C140.342 191.528 139.462 191.323 138.524 191.44C137.526 191.557 136.617 191.909 135.796 192.496C134.974 193.083 134.3 193.963 133.772 195.136L132.98 196.984C132.628 198.099 132.364 199.272 132.188 200.504C132.012 201.677 131.865 202.851 131.748 204.024C131.63 205.197 131.542 206.4 131.484 207.632C131.425 208.864 131.396 210.067 131.396 211.24C131.454 212.413 131.425 213.557 131.308 214.672C131.249 215.787 131.278 216.931 131.396 218.104C131.513 219.629 131.66 221.272 131.836 223.032C132.07 224.792 132.422 226.464 132.892 228.048C133.361 229.573 134.036 230.864 134.916 231.92C135.796 232.917 136.969 233.416 138.436 233.416ZM249.476 232.976C249.652 233.035 249.828 233.064 250.004 233.064C250.18 233.005 250.356 232.976 250.532 232.976C251.53 233.093 252.439 233.299 253.26 233.592C254.14 233.827 254.991 234.296 255.812 235C256.634 235.821 257.044 236.848 257.044 238.08C257.044 238.725 256.927 239.429 256.692 240.192C256.516 240.896 256.252 241.453 255.9 241.864C255.431 242.333 254.844 242.685 254.14 242.92C253.436 243.155 252.762 243.331 252.116 243.448C251.471 243.507 250.884 243.536 250.356 243.536C249.887 243.536 249.623 243.536 249.564 243.536H200.284C199.991 243.536 199.698 243.565 199.404 243.624C199.111 243.624 198.818 243.624 198.524 243.624C197.292 243.683 195.972 243.683 194.564 243.624C193.156 243.507 191.954 243.037 190.956 242.216C189.724 241.101 189.108 239.84 189.108 238.432C189.108 237.552 189.372 236.643 189.9 235.704C190.428 234.765 191.132 234.12 192.012 233.768C193.186 233.299 194.388 233.064 195.62 233.064C196.911 233.064 198.202 233.035 199.492 232.976H199.932C205.564 232.859 211.314 232.859 217.18 232.976L217.092 224.704H207.94C206.767 224.704 205.535 224.704 204.244 224.704C203.012 224.704 201.751 224.675 200.46 224.616C199.228 224.499 198.202 223.883 197.38 222.768C196.559 221.653 196.09 220.333 195.972 218.808C195.914 218.28 195.855 217.429 195.796 216.256C195.796 215.083 195.767 213.851 195.708 212.56C195.708 211.269 195.708 210.067 195.708 208.952C195.708 207.837 195.708 207.045 195.708 206.576V204.464C195.65 203.76 195.65 203.027 195.708 202.264C195.826 201.443 196.148 200.709 196.676 200.064C197.439 199.067 198.495 198.451 199.844 198.216C201.252 197.923 202.602 197.776 203.892 197.776C204.186 197.776 204.655 197.805 205.3 197.864C206.004 197.923 206.562 197.923 206.972 197.864H238.212V190.472H206.092C205.799 190.472 205.476 190.501 205.124 190.56C204.772 190.56 204.45 190.56 204.156 190.56C203.804 190.56 203.423 190.589 203.012 190.648C202.66 190.648 202.308 190.648 201.956 190.648C200.724 190.648 199.727 190.531 198.964 190.296C197.967 190.061 197.146 189.387 196.5 188.272C195.738 186.923 195.532 185.485 195.884 183.96C196.178 182.904 196.852 182.112 197.908 181.584C198.964 181.056 199.815 180.733 200.46 180.616C200.93 180.499 201.37 180.44 201.78 180.44C202.25 180.44 202.748 180.44 203.276 180.44H206.356C207.295 180.44 208.439 180.469 209.788 180.528C211.196 180.528 212.663 180.528 214.188 180.528C215.714 180.528 217.239 180.528 218.764 180.528C220.348 180.469 221.786 180.44 223.076 180.44H240.852C241.85 180.44 242.847 180.469 243.844 180.528C244.842 180.587 245.81 180.763 246.748 181.056C248.156 181.467 249.066 182.376 249.476 183.784C249.887 185.133 250.092 186.453 250.092 187.744V199.36C250.092 199.829 250.034 200.445 249.916 201.208C249.858 201.971 249.74 202.763 249.564 203.584C249.388 204.405 249.124 205.197 248.772 205.96C248.479 206.664 248.098 207.163 247.628 207.456C246.807 207.925 246.015 208.219 245.252 208.336C244.49 208.395 243.756 208.395 243.052 208.336H208.292V215.376H243.14C243.668 215.376 244.167 215.376 244.636 215.376C245.164 215.376 245.663 215.405 246.132 215.464C247.012 215.523 247.804 215.787 248.508 216.256C249.271 216.667 249.799 217.371 250.092 218.368C250.386 219.541 250.327 220.656 249.916 221.712C249.564 222.768 248.86 223.531 247.804 224C247.1 224.293 246.367 224.499 245.604 224.616C244.9 224.675 244.226 224.704 243.58 224.704H228.444L228.532 232.976C229.94 232.976 231.231 232.976 232.404 232.976C233.636 232.917 234.839 232.888 236.012 232.888C237.244 232.888 238.447 232.917 239.62 232.976C240.852 232.976 242.143 232.976 243.492 232.976C244.548 233.035 245.575 233.035 246.572 232.976C247.57 232.859 248.538 232.859 249.476 232.976ZM346.235 214.408C345.824 214.467 344.885 214.496 343.419 214.496C342.011 214.496 340.485 214.496 338.843 214.496C337.2 214.437 335.645 214.408 334.179 214.408C332.712 214.408 331.744 214.408 331.275 214.408H331.187C330.131 214.408 329.075 214.408 328.019 214.408C327.021 214.349 326.053 214.261 325.115 214.144C324.176 213.968 323.325 213.704 322.563 213.352C321.8 213 321.184 212.472 320.715 211.768C320.187 211.005 319.805 210.037 319.571 208.864C319.395 207.691 319.248 206.576 319.131 205.52C319.072 204.405 319.043 203.437 319.043 202.616C319.101 201.795 319.131 201.355 319.131 201.296V199.36C319.131 198.715 319.131 197.981 319.131 197.16C319.131 196.339 319.16 195.429 319.219 194.432C319.219 193.376 319.219 192.437 319.219 191.616C319.277 190.795 319.307 190.061 319.307 189.416V187.48C319.307 187.304 319.307 186.981 319.307 186.512C319.307 186.043 319.336 185.544 319.395 185.016C319.453 184.429 319.541 183.872 319.659 183.344C319.776 182.757 319.952 182.288 320.187 181.936C320.715 181.115 321.243 180.528 321.771 180.176C322.357 179.765 323.091 179.472 323.971 179.296C324.264 179.237 324.704 179.208 325.291 179.208C325.877 179.149 326.435 179.091 326.963 179.032C327.608 178.973 328.283 178.944 328.987 178.944H348.875C350.165 178.944 351.515 179.061 352.923 179.296C354.389 179.472 355.68 179.912 356.795 180.616C357.675 181.144 358.291 181.819 358.643 182.64C358.995 183.461 359.229 184.341 359.347 185.28C359.464 186.219 359.493 187.187 359.435 188.184C359.376 189.123 359.347 190.003 359.347 190.824C359.347 191.763 359.317 192.408 359.259 192.76C359.259 193.053 359.288 193.669 359.347 194.608V199.448C359.288 199.741 359.259 200.064 359.259 200.416C359.317 200.768 359.347 201.12 359.347 201.472C359.229 202.235 359.2 202.997 359.259 203.76C359.317 204.464 359.347 205.227 359.347 206.048C359.347 206.693 359.288 207.397 359.171 208.16C359.112 208.864 358.936 209.597 358.643 210.36C358.408 211.064 358.056 211.709 357.587 212.296C357.176 212.883 356.619 213.293 355.915 213.528C354.389 214.173 352.776 214.496 351.075 214.496C349.432 214.437 347.819 214.408 346.235 214.408ZM377.387 241.952C378.267 242.011 379.059 242.245 379.763 242.656C380.525 243.008 381.053 243.653 381.347 244.592C381.992 246.704 381.229 248.171 379.059 248.992C378.355 249.285 377.621 249.461 376.859 249.52C376.155 249.579 375.48 249.608 374.835 249.608H334.795C333.621 249.608 332.389 249.608 331.099 249.608C329.867 249.608 328.605 249.579 327.315 249.52C326.083 249.461 325.056 249.021 324.235 248.2C323.413 247.379 322.944 246.293 322.827 244.944C322.709 243.947 322.621 242.861 322.563 241.688C322.563 240.456 322.563 239.429 322.563 238.608V237.816C322.504 237.171 322.504 236.408 322.563 235.528C322.68 234.648 323.003 233.885 323.531 233.24C324.293 232.419 325.349 231.891 326.699 231.656C328.107 231.421 329.456 231.304 330.747 231.304H332.595C332.829 231.304 333.035 231.333 333.211 231.392C333.445 231.392 333.651 231.392 333.827 231.392H371.227V227.608H332.947C332.653 227.608 332.331 227.608 331.979 227.608C331.627 227.549 331.304 227.549 331.011 227.608H328.811C328.224 227.608 327.696 227.608 327.227 227.608C326.757 227.608 326.288 227.549 325.819 227.432C325.349 227.315 324.88 227.197 324.411 227.08C324 226.963 323.648 226.669 323.355 226.2C322.592 225.027 322.387 223.765 322.739 222.416C322.915 221.947 323.179 221.595 323.531 221.36C323.883 221.067 324.293 220.832 324.763 220.656C325.232 220.48 325.672 220.363 326.083 220.304C326.552 220.187 326.963 220.099 327.315 220.04C327.784 219.981 328.224 219.952 328.635 219.952C329.104 219.893 329.603 219.864 330.131 219.864H331.627C331.92 219.864 332.184 219.893 332.419 219.952C332.653 219.952 332.917 219.952 333.211 219.952H372.107C375.099 219.952 377.387 220.421 378.971 221.36C380.555 222.24 381.347 223.707 381.347 225.76V232.624C381.347 233.445 381.171 234.237 380.819 235C380.467 235.763 379.821 236.437 378.883 237.024C378.061 237.493 377.269 237.757 376.507 237.816C375.744 237.816 375.011 237.816 374.307 237.816H333.387V241.952H377.387ZM380.907 202.88V210.888C380.907 212.413 380.467 213.763 379.587 214.936C378.707 216.051 377.357 216.608 375.539 216.608C374.541 216.608 373.72 216.403 373.075 215.992C371.901 215.288 371.139 214.437 370.787 213.44C370.493 212.384 370.347 211.621 370.347 211.152V184.84C370.288 184.605 370.317 183.96 370.435 182.904C370.552 181.848 370.787 180.968 371.139 180.264C371.725 179.032 372.899 178.328 374.659 178.152C376.829 177.859 378.443 178.299 379.499 179.472C379.851 179.941 380.085 180.411 380.203 180.88C380.379 181.291 380.525 181.731 380.643 182.2C380.819 182.728 380.907 183.491 380.907 184.488C380.965 185.485 380.965 186.277 380.907 186.864V193.112C381.141 193.112 381.581 193.141 382.227 193.2C382.872 193.2 383.547 193.229 384.251 193.288C384.955 193.288 385.629 193.317 386.275 193.376C386.92 193.435 387.389 193.493 387.683 193.552C388.856 193.787 389.677 194.139 390.147 194.608C390.616 195.019 390.909 195.547 391.027 196.192C391.203 196.837 391.291 197.6 391.291 198.48C391.291 199.301 391.115 200.005 390.763 200.592C390.059 201.765 389.003 202.44 387.595 202.616C386.187 202.733 384.632 202.821 382.931 202.88H380.907ZM334.971 189.944C334.443 189.944 333.944 189.944 333.475 189.944C333.064 189.944 332.683 190.003 332.331 190.12C331.509 190.179 330.835 190.531 330.307 191.176C330.072 191.469 329.925 191.909 329.867 192.496C329.867 193.083 329.867 193.435 329.867 193.552V195.488C329.808 195.957 329.779 196.397 329.779 196.808C329.779 197.16 329.779 197.483 329.779 197.776V198.832C329.779 198.832 329.779 199.008 329.779 199.36C329.779 199.712 329.779 200.123 329.779 200.592C329.837 201.061 329.925 201.531 330.043 202C330.16 202.469 330.365 202.88 330.659 203.232C331.128 203.819 331.891 204.171 332.947 204.288C334.003 204.347 335.059 204.376 336.115 204.376H336.203C337.728 204.317 338.989 204.317 339.987 204.376C340.984 204.376 342.275 204.376 343.859 204.376C344.328 204.376 344.797 204.405 345.267 204.464C345.795 204.464 346.293 204.405 346.763 204.288C347.232 204.229 347.555 204.083 347.731 203.848C347.907 203.613 348.053 203.32 348.171 202.968C348.288 202.499 348.347 202.117 348.347 201.824C348.581 200.709 348.699 199.448 348.699 198.04C348.699 197.101 348.699 196.456 348.699 196.104C348.757 195.752 348.757 195.107 348.699 194.168C348.64 193.699 348.611 193.229 348.611 192.76C348.669 192.291 348.64 191.821 348.523 191.352C348.288 190.707 347.907 190.355 347.379 190.296C346.851 190.179 346.323 190.12 345.795 190.12L334.971 189.944ZM454.17 242.92C455.05 242.979 455.842 243.213 456.546 243.624C457.309 243.976 457.837 244.621 458.13 245.56C458.775 247.672 458.013 249.139 455.842 249.96C455.138 250.253 454.405 250.429 453.642 250.488C452.938 250.547 452.263 250.576 451.618 250.576H411.754C410.581 250.576 409.349 250.576 408.058 250.576C406.826 250.576 405.565 250.547 404.274 250.488C403.042 250.429 402.015 249.989 401.194 249.168C400.373 248.347 399.903 247.261 399.786 245.912C399.669 244.915 399.581 243.829 399.522 242.656C399.522 241.424 399.522 240.397 399.522 239.576V238.784C399.463 238.139 399.463 237.376 399.522 236.496C399.639 235.616 399.962 234.853 400.49 234.208C401.253 233.387 402.309 232.859 403.658 232.624C405.066 232.389 406.415 232.272 407.706 232.272H409.554C409.789 232.272 409.994 232.301 410.17 232.36C410.405 232.36 410.61 232.36 410.786 232.36H447.042V228.576H409.906C409.613 228.576 409.29 228.576 408.938 228.576C408.586 228.517 408.263 228.517 407.97 228.576H405.77C405.183 228.576 404.655 228.576 404.186 228.576C403.717 228.576 403.247 228.517 402.778 228.4C402.309 228.283 401.839 228.165 401.37 228.048C400.959 227.931 400.607 227.637 400.314 227.168C399.551 225.995 399.346 224.733 399.698 223.384C399.874 222.915 400.138 222.563 400.49 222.328C400.842 222.035 401.253 221.8 401.722 221.624C402.191 221.448 402.631 221.331 403.042 221.272C403.511 221.155 403.922 221.067 404.274 221.008C404.743 220.949 405.183 220.92 405.594 220.92C406.063 220.861 406.562 220.832 407.09 220.832H408.586C408.879 220.832 409.143 220.861 409.378 220.92C409.613 220.92 409.877 220.92 410.17 220.92H447.922C450.914 220.92 453.202 221.389 454.786 222.328C456.37 223.208 457.162 224.675 457.162 226.728V233.592C457.162 234.413 456.986 235.205 456.634 235.968C456.282 236.731 455.637 237.405 454.698 237.992C453.877 238.461 453.085 238.725 452.322 238.784C451.559 238.784 450.826 238.784 450.122 238.784H410.346V242.92H454.17ZM455.05 203.76V210.888C455.05 212.413 454.61 213.763 453.73 214.936C452.85 216.051 451.501 216.608 449.682 216.608C448.685 216.608 447.863 216.403 447.218 215.992C446.045 215.288 445.282 214.437 444.93 213.44C444.637 212.384 444.49 211.621 444.49 211.152V184.84C444.431 184.605 444.461 183.96 444.578 182.904C444.695 181.848 444.93 180.968 445.282 180.264C445.869 179.032 447.042 178.328 448.802 178.152C450.973 177.859 452.586 178.299 453.642 179.472C453.994 179.941 454.229 180.411 454.346 180.88C454.522 181.291 454.669 181.731 454.786 182.2C454.962 182.728 455.05 183.491 455.05 184.488C455.109 185.485 455.109 186.277 455.05 186.864V193.992C455.285 193.992 455.725 194.021 456.37 194.08C457.015 194.08 457.69 194.109 458.394 194.168C459.098 194.168 459.773 194.197 460.418 194.256C461.063 194.315 461.533 194.373 461.826 194.432C462.999 194.667 463.821 195.019 464.29 195.488C464.759 195.899 465.053 196.427 465.17 197.072C465.346 197.717 465.434 198.48 465.434 199.36C465.434 200.181 465.258 200.885 464.906 201.472C464.202 202.645 463.146 203.32 461.738 203.496C460.33 203.613 458.775 203.701 457.074 203.76H455.05ZM432.17 200.856C432.17 203.437 431.554 205.901 430.322 208.248C429.383 210.125 428.181 211.621 426.714 212.736C425.247 213.792 423.605 214.613 421.786 215.2C420.026 215.728 418.149 216.021 416.154 216.08C414.218 216.139 412.341 216.08 410.522 215.904C407.706 215.728 405.095 214.907 402.69 213.44C400.343 211.915 398.554 209.92 397.322 207.456C396.383 205.579 395.914 203.379 395.914 200.856C395.914 198.627 396.207 196.72 396.794 195.136C397.146 194.256 397.557 193.435 398.026 192.672C398.495 191.851 398.994 191.117 399.522 190.472H398.026C397.322 190.472 396.706 190.384 396.178 190.208C395.65 189.973 395.122 189.651 394.594 189.24C393.714 188.419 393.274 187.421 393.274 186.248C393.274 184.957 393.714 183.872 394.594 182.992C395.591 182.229 396.735 181.848 398.026 181.848H407.442V179.208C407.677 177.565 408.469 176.333 409.818 175.512C411.167 174.691 412.575 174.339 414.042 174.456C415.509 174.573 416.799 175.248 417.914 176.48C419.029 177.653 419.498 179.443 419.322 181.848H429.354C430.762 181.848 431.877 182.229 432.698 182.992C433.637 183.931 434.106 185.016 434.106 186.248C434.106 187.363 433.637 188.36 432.698 189.24C431.759 190.061 430.645 190.472 429.354 190.472H428.474C429.002 191.117 429.471 191.851 429.882 192.672C430.293 193.435 430.703 194.256 431.114 195.136C431.818 196.837 432.17 198.744 432.17 200.856ZM415.45 206.664C416.623 206.547 417.767 206.224 418.882 205.696C420.055 205.168 420.877 204.317 421.346 203.144C422.167 201.443 422.197 199.859 421.434 198.392C420.671 196.867 419.439 195.664 417.738 194.784C416.623 194.315 415.362 194.08 413.954 194.08C412.487 194.08 411.255 194.285 410.258 194.696C409.613 194.989 409.055 195.371 408.586 195.84C408.175 196.251 407.794 196.691 407.442 197.16C406.914 197.923 406.562 198.744 406.386 199.624C406.21 200.445 406.21 201.267 406.386 202.088C406.621 202.909 407.002 203.672 407.53 204.376C408.058 205.08 408.733 205.608 409.554 205.96C410.493 206.371 411.461 206.635 412.458 206.752C413.455 206.811 414.453 206.781 415.45 206.664ZM559.177 198.92L554.425 203.672C553.134 204.904 551.843 206.107 550.553 207.28C549.262 208.453 547.942 209.627 546.593 210.8C546.475 210.917 546.358 211.035 546.241 211.152C546.123 211.211 546.006 211.299 545.889 211.416C544.774 212.413 543.659 213.469 542.545 214.584C541.489 215.699 540.198 216.491 538.673 216.96C537.617 217.253 536.473 217.224 535.241 216.872C534.009 216.52 533.07 215.904 532.425 215.024C531.955 214.32 531.721 213.616 531.721 212.912C531.721 212.208 531.838 211.533 532.073 210.888C532.366 210.184 532.718 209.509 533.129 208.864C533.539 208.219 533.979 207.632 534.449 207.104C536.209 205.051 538.027 203.115 539.905 201.296C541.841 199.419 543.806 197.6 545.801 195.84C546.446 195.312 547.179 194.608 548.001 193.728C548.822 192.789 549.614 191.88 550.377 191C551.257 189.944 552.166 188.888 553.105 187.832C552.987 186.483 552.958 185.192 553.017 183.96C553.075 182.904 553.222 181.848 553.457 180.792C553.691 179.736 554.131 178.885 554.777 178.24C555.539 177.536 556.625 177.096 558.033 176.92C559.441 176.685 560.614 176.715 561.553 177.008C562.902 177.419 563.841 178.123 564.369 179.12C564.955 180.117 565.337 181.291 565.513 182.64C565.571 183.755 565.571 184.723 565.513 185.544C565.513 186.307 565.835 187.157 566.481 188.096C566.95 188.8 567.478 189.475 568.065 190.12C568.71 190.765 569.326 191.411 569.913 192.056C571.966 194.344 573.961 196.544 575.897 198.656C577.891 200.768 579.945 202.939 582.057 205.168C582.761 205.872 583.435 206.752 584.081 207.808C584.726 208.864 585.166 209.949 585.401 211.064C585.694 212.12 585.665 213.147 585.313 214.144C585.019 215.083 584.257 215.845 583.025 216.432C582.145 216.843 581.294 217.019 580.473 216.96C579.651 216.843 578.859 216.608 578.097 216.256C577.334 215.845 576.601 215.347 575.897 214.76C575.251 214.173 574.665 213.587 574.137 213L559.177 198.92ZM533.745 233.064C532.395 233.005 531.105 232.829 529.873 232.536C528.699 232.184 527.731 231.421 526.969 230.248C526.323 229.251 526.001 228.195 526.001 227.08C526.059 225.907 526.499 224.909 527.321 224.088C527.79 223.619 528.377 223.267 529.081 223.032C529.785 222.797 530.459 222.621 531.105 222.504C531.75 222.387 532.307 222.328 532.777 222.328C533.305 222.328 533.598 222.328 533.657 222.328H582.497C583.435 222.269 584.433 222.269 585.489 222.328C586.603 222.387 587.63 222.592 588.569 222.944C589.507 223.237 590.299 223.765 590.945 224.528C591.59 225.232 591.913 226.229 591.913 227.52C591.913 228.987 591.414 230.101 590.417 230.864C589.419 231.568 588.217 232.096 586.809 232.448C585.459 232.741 584.051 232.917 582.585 232.976C581.118 232.976 579.915 232.976 578.977 232.976H575.545C574.371 233.035 573.227 233.064 572.113 233.064C570.998 233.005 569.854 232.976 568.681 232.976H565.337C565.395 234.619 565.454 236.349 565.513 238.168C565.571 239.987 565.483 241.6 565.249 243.008C565.131 244.123 564.838 245.179 564.369 246.176C563.958 247.232 563.254 248.083 562.257 248.728C561.377 249.315 560.35 249.608 559.177 249.608C558.003 249.667 556.947 249.432 556.009 248.904C555.246 248.435 554.659 247.76 554.249 246.88C553.897 246 553.662 245.149 553.545 244.328C553.427 243.683 553.369 242.979 553.369 242.216C553.427 241.453 553.457 240.749 553.457 240.104C553.398 239.048 553.369 237.904 553.369 236.672C553.369 235.381 553.369 234.12 553.369 232.888H551.169C549.526 232.888 548.001 232.917 546.593 232.976C545.185 232.976 543.806 233.005 542.457 233.064C541.107 233.064 539.729 233.064 538.321 233.064C536.913 233.064 535.387 233.064 533.745 233.064ZM685.902 180.088C689.422 181.965 691.915 184.547 693.382 187.832C694.907 191.117 695.494 195.048 695.142 199.624C694.79 205.491 693.118 209.861 690.126 212.736C687.193 215.611 682.675 217.048 676.574 217.048C674.99 217.048 673.523 217.077 672.174 217.136C670.883 217.136 669.651 217.048 668.478 216.872C667.305 216.696 666.102 216.403 664.87 215.992C663.638 215.523 662.318 214.819 660.91 213.88C658.153 212.061 656.246 209.685 655.19 206.752C654.193 203.819 653.694 200.797 653.694 197.688C653.694 194.579 654.251 191.675 655.366 188.976C656.481 186.219 658.299 183.872 660.822 181.936C662.875 180.293 665.163 179.091 667.686 178.328C670.267 177.565 672.849 177.301 675.43 177.536C676.603 177.653 677.601 177.771 678.422 177.888C679.302 177.947 680.123 178.064 680.886 178.24C681.649 178.416 682.411 178.651 683.174 178.944C683.937 179.237 684.846 179.619 685.902 180.088ZM672.35 244.24C671.705 245.12 671.03 245.941 670.326 246.704C669.681 247.525 668.947 248.2 668.126 248.728C667.363 249.256 666.542 249.579 665.662 249.696C664.782 249.872 663.843 249.784 662.846 249.432C661.614 249.021 660.881 248.405 660.646 247.584C660.47 246.763 660.558 245.883 660.91 244.944C661.262 244.005 661.761 243.096 662.406 242.216C663.051 241.336 663.579 240.573 663.99 239.928C665.046 238.227 666.073 236.525 667.07 234.824C668.067 233.064 669.153 231.363 670.326 229.72C670.795 229.075 671.294 228.371 671.822 227.608C672.409 226.845 673.025 226.171 673.67 225.584C674.315 224.939 675.019 224.411 675.782 224C676.545 223.531 677.366 223.267 678.246 223.208C679.126 223.149 679.918 223.325 680.622 223.736C681.326 224.147 681.942 224.675 682.47 225.32C683.057 225.907 683.585 226.581 684.054 227.344C684.582 228.048 685.051 228.693 685.462 229.28C687.574 232.565 689.598 235.821 691.534 239.048C692.531 237.523 693.47 235.968 694.35 234.384C695.289 232.8 696.286 231.245 697.342 229.72C698.281 228.371 699.366 226.992 700.598 225.584C701.889 224.117 703.443 223.325 705.262 223.208C706.142 223.149 706.963 223.325 707.726 223.736C708.547 224.147 709.281 224.675 709.926 225.32C710.63 225.907 711.275 226.581 711.862 227.344C712.449 228.048 712.947 228.693 713.358 229.28C714.766 231.333 716.086 233.445 717.318 235.616C718.609 237.728 719.929 239.84 721.278 241.952C721.923 243.008 722.393 243.976 722.686 244.856C722.979 245.736 722.715 246.763 721.894 247.936C721.249 248.933 720.427 249.52 719.43 249.696C718.433 249.931 717.435 249.725 716.438 249.08C714.443 247.907 712.713 246.381 711.246 244.504C709.779 242.627 708.371 240.808 707.022 239.048C706.142 237.933 705.409 237.405 704.822 237.464C704.294 237.523 703.649 238.109 702.886 239.224C702.358 239.928 701.801 240.632 701.214 241.336C700.627 242.04 700.011 242.891 699.366 243.888C698.721 244.768 698.046 245.619 697.342 246.44C696.697 247.32 695.963 248.024 695.142 248.552C694.379 249.139 693.558 249.52 692.678 249.696C691.798 249.872 690.859 249.784 689.862 249.432C688.923 249.08 688.278 248.64 687.926 248.112C686.342 246.939 684.934 245.531 683.702 243.888C682.47 242.187 681.238 240.573 680.006 239.048C679.126 237.933 678.422 237.405 677.894 237.464C677.366 237.523 676.691 238.109 675.87 239.224C675.342 239.928 674.785 240.691 674.198 241.512C673.611 242.333 672.995 243.243 672.35 244.24ZM717.934 213.44C717.934 213.44 717.905 213.645 717.846 214.056C717.787 214.467 717.67 214.936 717.494 215.464C717.318 215.992 717.054 216.549 716.702 217.136C716.35 217.664 715.881 218.104 715.294 218.456C714.473 218.925 713.651 219.16 712.83 219.16C711.833 219.16 710.865 218.837 709.926 218.192C709.281 217.723 708.782 217.107 708.43 216.344C707.961 215.464 707.638 214.467 707.462 213.352C707.345 212.179 707.257 210.976 707.198 209.744C707.198 208.512 707.227 207.309 707.286 206.136C707.345 204.963 707.374 203.877 707.374 202.88C707.433 200.357 707.462 197.864 707.462 195.4C707.462 192.877 707.462 190.384 707.462 187.92V186.776C707.403 186.131 707.374 185.456 707.374 184.752C707.433 183.989 707.55 183.285 707.726 182.64C707.961 181.76 708.489 180.821 709.31 179.824C709.779 179.237 710.425 178.827 711.246 178.592C712.126 178.299 713.065 178.211 714.062 178.328C715.822 178.621 716.995 179.384 717.582 180.616C717.934 181.379 718.081 182.317 718.022 183.432C718.022 184.547 717.993 185.221 717.934 185.456V213.44ZM684.67 200.592C684.67 199.301 684.611 198.099 684.494 196.984C684.377 195.811 684.113 194.755 683.702 193.816C683.35 192.819 682.793 191.939 682.03 191.176C681.267 190.413 680.27 189.797 679.038 189.328C677.689 188.859 676.222 188.624 674.638 188.624C673.054 188.624 671.558 188.917 670.15 189.504C668.742 190.032 667.51 190.883 666.454 192.056C665.398 193.171 664.723 194.637 664.43 196.456C664.254 197.688 664.254 198.949 664.43 200.24C664.665 201.472 665.105 202.616 665.75 203.672C666.454 204.669 667.393 205.52 668.566 206.224C669.798 206.928 671.323 207.368 673.142 207.544C674.374 207.661 675.606 207.661 676.838 207.544C678.07 207.368 679.214 207.016 680.27 206.488C681.326 205.96 682.235 205.227 682.998 204.288C683.761 203.291 684.318 202.059 684.67 200.592ZM745.573 178.064C746.336 178.064 747.069 178.093 747.773 178.152C748.477 178.211 749.181 178.299 749.885 178.416C752.114 178.768 754.08 179.795 755.781 181.496C757.189 183.021 758.333 184.781 759.213 186.776C760.152 188.712 760.885 190.765 761.413 192.936C761.941 195.107 762.322 197.336 762.557 199.624C762.792 201.853 762.968 204.024 763.085 206.136C763.202 208.835 763.232 211.533 763.173 214.232C763.114 216.931 762.938 219.6 762.645 222.24C762.352 224.997 761.912 227.784 761.325 230.6C760.797 233.357 759.8 235.851 758.333 238.08C757.101 239.957 755.576 241.512 753.757 242.744C751.938 243.917 750.032 244.709 748.037 245.12C746.218 245.472 744.37 245.531 742.493 245.296C740.616 245.061 738.826 244.445 737.125 243.448C735.541 242.509 734.192 241.336 733.077 239.928C732.021 238.52 731.082 236.877 730.261 235C729.088 232.184 728.413 229.28 728.237 226.288C728.002 223.824 727.826 221.36 727.709 218.896C727.65 216.432 727.621 213.968 727.621 211.504C727.621 209.803 727.621 208.16 727.621 206.576C727.68 204.933 727.797 203.291 727.973 201.648C728.09 200.299 728.237 198.979 728.413 197.688C728.589 196.339 728.794 195.019 729.029 193.728C729.264 192.672 729.469 191.675 729.645 190.736C729.821 189.797 730.144 188.829 730.613 187.832C731.082 186.835 731.581 185.896 732.109 185.016C732.696 184.136 733.37 183.344 734.133 182.64C735.424 181.349 736.861 180.352 738.445 179.648C740.029 178.944 741.672 178.475 743.373 178.24C743.725 178.181 744.077 178.152 744.429 178.152C744.84 178.152 745.221 178.123 745.573 178.064ZM777.165 216.52C776.344 216.403 775.258 216.344 773.909 216.344C772.56 216.285 771.474 216.197 770.653 216.08C768.6 215.963 767.133 215.2 766.253 213.792C765.373 212.384 765.256 210.565 765.901 208.336C766.018 207.867 766.253 207.368 766.605 206.84C767.016 206.312 767.397 205.901 767.749 205.608C768.57 205.021 769.392 204.64 770.213 204.464C771.152 204.347 772.266 204.317 773.557 204.376C774.906 204.435 776.08 204.405 777.077 204.288H777.341V203.936C777.341 203.232 777.341 202.704 777.341 202.352C777.4 202 777.429 201.677 777.429 201.384C777.429 201.091 777.4 200.768 777.341 200.416C777.341 200.064 777.341 199.507 777.341 198.744C777.341 197.219 777.312 195.723 777.253 194.256C777.253 192.731 777.282 191.235 777.341 189.768V188.536C777.341 187.773 777.341 186.952 777.341 186.072C777.4 185.133 777.488 184.224 777.605 183.344C777.722 182.405 777.928 181.555 778.221 180.792C778.514 179.971 778.925 179.296 779.453 178.768C780.333 178.005 781.272 177.624 782.269 177.624H782.445C783.853 177.683 784.968 178.123 785.789 178.944C786.669 179.707 787.314 180.645 787.725 181.76C788.194 182.875 788.488 184.048 788.605 185.28C788.722 186.453 788.781 187.509 788.781 188.448V241.248C788.781 241.307 788.781 241.6 788.781 242.128C788.781 242.597 788.722 243.184 788.605 243.888C788.488 244.592 788.312 245.296 788.077 246C787.842 246.704 787.461 247.291 786.933 247.76C786.522 248.171 785.936 248.493 785.173 248.728C784.41 248.963 783.706 249.08 783.061 249.08C781.653 249.08 780.538 248.611 779.717 247.672C778.954 246.851 778.485 246 778.309 245.12C778.133 244.24 777.986 243.301 777.869 242.304C777.869 242.128 777.84 241.952 777.781 241.776C777.781 241.6 777.781 241.395 777.781 241.16C777.664 240.221 777.605 239.224 777.605 238.168C777.605 237.112 777.576 236.056 777.517 235C777.458 234.355 777.429 233.739 777.429 233.152C777.429 232.507 777.429 231.861 777.429 231.216V229.192C777.429 228.605 777.429 227.843 777.429 226.904C777.429 225.907 777.4 224.88 777.341 223.824C777.341 222.768 777.341 221.771 777.341 220.832C777.341 219.893 777.341 219.101 777.341 218.456C777.341 218.163 777.341 217.84 777.341 217.488C777.341 217.136 777.282 216.813 777.165 216.52ZM745.309 233.416C746.424 233.416 747.509 233.064 748.565 232.36C749.562 231.656 750.266 230.717 750.677 229.544C751.088 228.371 751.44 227.08 751.733 225.672C752.202 222.973 752.466 220.099 752.525 217.048C752.584 213.997 752.554 211.064 752.437 208.248C752.437 207.133 752.408 205.96 752.349 204.728C752.29 203.437 752.173 202.176 751.997 200.944C751.88 199.712 751.674 198.539 751.381 197.424C751.088 196.251 750.677 195.224 750.149 194.344C749.562 193.347 748.858 192.584 748.037 192.056C747.216 191.528 746.336 191.323 745.397 191.44C744.4 191.557 743.49 191.909 742.669 192.496C741.848 193.083 741.173 193.963 740.645 195.136L739.853 196.984C739.501 198.099 739.237 199.272 739.061 200.504C738.885 201.677 738.738 202.851 738.621 204.024C738.504 205.197 738.416 206.4 738.357 207.632C738.298 208.864 738.269 210.067 738.269 211.24C738.328 212.413 738.298 213.557 738.181 214.672C738.122 215.787 738.152 216.931 738.269 218.104C738.386 219.629 738.533 221.272 738.709 223.032C738.944 224.792 739.296 226.464 739.765 228.048C740.234 229.573 740.909 230.864 741.789 231.92C742.669 232.917 743.842 233.416 745.309 233.416ZM856.35 233.064C856.526 233.123 856.702 233.152 856.878 233.152C857.054 233.093 857.23 233.064 857.406 233.064C858.403 233.181 859.313 233.387 860.134 233.68C861.014 233.915 861.865 234.413 862.686 235.176C863.507 235.88 863.918 236.877 863.918 238.168C863.918 238.813 863.801 239.517 863.566 240.28C863.39 240.984 863.126 241.541 862.774 241.952C862.305 242.421 861.718 242.773 861.014 243.008C860.369 243.243 859.694 243.419 858.99 243.536C858.345 243.595 857.758 243.624 857.23 243.624C856.761 243.624 856.497 243.624 856.438 243.624H808.126C807.833 243.624 807.393 243.653 806.806 243.712C806.219 243.712 805.779 243.712 805.486 243.712C804.195 243.771 802.846 243.771 801.438 243.712C800.03 243.595 798.827 243.125 797.83 242.304C796.598 241.189 795.982 239.928 795.982 238.52C795.982 237.64 796.246 236.731 796.774 235.792C797.302 234.853 798.006 234.208 798.886 233.856C800.059 233.387 801.262 233.152 802.494 233.152C803.785 233.152 805.075 233.123 806.366 233.064H806.806C807.686 233.064 808.713 233.064 809.886 233.064C811.118 233.005 812.203 232.976 813.142 232.976C813.083 232.741 813.054 232.448 813.054 232.096V231.744V223.56C813.054 223.032 813.142 222.504 813.318 221.976C813.435 221.507 813.641 221.037 813.934 220.568C814.227 220.04 814.638 219.541 815.166 219.072C812.995 218.544 810.942 217.723 809.006 216.608C807.129 215.493 805.486 213.909 804.078 211.856C802.729 210.037 801.819 208.101 801.35 206.048C800.939 203.995 800.734 201.853 800.734 199.624C800.734 195.048 801.937 191.235 804.342 188.184C806.806 185.075 810.15 182.845 814.374 181.496C817.19 180.557 820.035 179.971 822.91 179.736C825.843 179.443 828.777 179.413 831.71 179.648C834.115 179.824 836.521 180.059 838.926 180.352C841.331 180.645 843.649 181.291 845.878 182.288C846.875 182.757 847.843 183.315 848.782 183.96C849.721 184.605 850.601 185.368 851.422 186.248C853.475 188.477 854.883 190.883 855.646 193.464C856.409 196.045 856.673 198.803 856.438 201.736C856.086 206.312 854.737 209.979 852.39 212.736C850.043 215.435 847.11 217.4 843.59 218.632C844.235 218.984 844.763 219.453 845.174 220.04C845.585 220.627 845.819 221.331 845.878 222.152C845.937 223.091 845.966 224.557 845.966 226.552C846.025 228.488 846.054 230.659 846.054 233.064H849.574C850.63 233.123 851.774 233.123 853.006 233.064C854.297 232.947 855.411 232.947 856.35 233.064ZM844.91 203.056C845.086 202.293 845.145 201.56 845.086 200.856C844.969 197.805 844.001 195.547 842.182 194.08C840.422 192.555 838.134 191.616 835.318 191.264C833.675 191.088 831.651 190.912 829.246 190.736C826.841 190.501 824.465 190.56 822.118 190.912C819.83 191.264 817.806 191.997 816.046 193.112C814.286 194.168 813.23 195.869 812.878 198.216C812.702 199.624 812.702 200.973 812.878 202.264C813.113 203.555 813.611 204.699 814.374 205.696C815.137 206.693 816.193 207.544 817.542 208.248C818.891 208.952 820.622 209.392 822.734 209.568C824.787 209.803 826.87 210.008 828.982 210.184C831.153 210.36 833.265 210.243 835.318 209.832C836.315 209.656 837.313 209.421 838.31 209.128C839.366 208.776 840.334 208.336 841.214 207.808C842.094 207.28 842.857 206.635 843.502 205.872C844.147 205.051 844.617 204.112 844.91 203.056ZM833.03 220.216C831.505 220.216 829.891 220.245 828.19 220.304C826.547 220.304 824.875 220.245 823.174 220.128C823.585 220.832 823.819 221.507 823.878 222.152C823.937 223.091 823.966 224.557 823.966 226.552C824.025 228.488 824.054 230.659 824.054 233.064H833.382H835.142C835.083 232.829 835.054 232.507 835.054 232.096V231.744V223.56C835.054 223.208 835.113 222.827 835.23 222.416C835.347 222.123 835.465 221.771 835.582 221.36C835.699 220.949 835.905 220.539 836.198 220.128C835.67 220.187 835.142 220.216 834.614 220.216C834.086 220.216 833.558 220.216 833.03 220.216ZM871.268 199.8C871.033 198.275 870.916 196.72 870.916 195.136C870.975 193.552 871.268 191.997 871.796 190.472C872.441 188.477 873.497 186.717 874.964 185.192C876.431 183.667 878.103 182.464 879.98 181.584C881.975 180.645 883.999 180 886.052 179.648C888.164 179.237 890.217 179.149 892.212 179.384C894.265 179.619 896.231 180.147 898.108 180.968C900.044 181.731 901.863 182.845 903.564 184.312C905.383 185.896 906.732 187.744 907.612 189.856C908.551 191.909 909.049 194.051 909.108 196.28C909.225 198.509 908.961 200.739 908.316 202.968C907.729 205.139 906.82 207.163 905.588 209.04C905.588 209.04 905.559 209.099 905.5 209.216C904.503 210.565 903.359 211.797 902.068 212.912C900.777 213.968 899.575 215.112 898.46 216.344C897.169 217.693 896.407 219.072 896.172 220.48C895.937 221.829 895.703 223.355 895.468 225.056C895.292 226.699 894.852 228.136 894.148 229.368C893.503 230.541 892.271 231.099 890.452 231.04C889.22 230.981 888.281 230.6 887.636 229.896C887.049 229.133 886.609 228.253 886.316 227.256C886.081 226.2 885.993 225.115 886.052 224C886.111 222.827 886.199 221.8 886.316 220.92C886.668 218.867 887.313 216.931 888.252 215.112C889.191 213.235 890.335 211.475 891.684 209.832C892.447 208.952 893.209 208.16 893.972 207.456C894.735 206.693 895.439 205.901 896.084 205.08C896.729 204.259 897.287 203.379 897.756 202.44C898.225 201.501 898.548 200.416 898.724 199.184C898.9 198.069 898.812 196.955 898.46 195.84C898.108 194.667 897.58 193.64 896.876 192.76C896.172 191.821 895.321 191.059 894.324 190.472C893.327 189.827 892.241 189.475 891.068 189.416C890.012 189.357 888.897 189.504 887.724 189.856C886.551 190.149 885.465 190.648 884.468 191.352C883.471 191.997 882.649 192.789 882.004 193.728C881.417 194.667 881.153 195.723 881.212 196.896C881.271 197.6 881.388 198.333 881.564 199.096C881.799 199.8 881.945 200.504 882.004 201.208C882.121 201.853 882.092 202.499 881.916 203.144C881.799 203.789 881.417 204.405 880.772 204.992C879.716 205.989 878.66 206.488 877.604 206.488C876.548 206.429 875.58 206.077 874.7 205.432C873.82 204.787 873.057 203.965 872.412 202.968C871.825 201.912 871.444 200.856 871.268 199.8ZM896.612 243.712C896.612 245.413 895.967 246.939 894.676 248.288C893.444 249.579 892.007 250.224 890.364 250.224C888.78 250.224 887.372 249.579 886.14 248.288C884.908 246.88 884.292 245.355 884.292 243.712C884.292 241.893 884.908 240.368 886.14 239.136C887.372 237.787 888.78 237.112 890.364 237.112C892.007 237.112 893.444 237.787 894.676 239.136C895.967 240.427 896.612 241.952 896.612 243.712Z" fill="#FF5D7D"/>
<path d="M79.7162 180.088C83.2362 181.965 85.7295 184.547 87.1962 187.832C88.7215 191.117 89.3082 195.048 88.9562 199.624C88.6042 205.491 86.9322 209.861 83.9402 212.736C81.0069 215.611 76.4895 217.048 70.3882 217.048C68.8042 217.048 67.3375 217.077 65.9882 217.136C64.6975 217.136 63.4655 217.048 62.2922 216.872C61.1189 216.696 59.9162 216.403 58.6842 215.992C57.4522 215.523 56.1322 214.819 54.7242 213.88C51.9669 212.061 50.0602 209.685 49.0042 206.752C48.0069 203.819 47.5082 200.797 47.5082 197.688C47.5082 194.579 48.0655 191.675 49.1802 188.976C50.2949 186.219 52.1135 183.872 54.6362 181.936C56.6895 180.293 58.9775 179.091 61.5002 178.328C64.0815 177.565 66.6629 177.301 69.2442 177.536C70.4175 177.653 71.4149 177.771 72.2362 177.888C73.1162 177.947 73.9375 178.064 74.7002 178.24C75.4629 178.416 76.2255 178.651 76.9882 178.944C77.7509 179.237 78.6602 179.619 79.7162 180.088ZM53.8442 235.44C53.8442 232.8 54.6069 230.6 56.1322 228.84C57.7162 227.08 59.8282 225.701 62.4682 224.704C65.1082 223.648 68.2175 222.915 71.7962 222.504C75.3749 222.093 79.1882 221.888 83.2362 221.888C87.2842 221.888 91.0975 222.035 94.6762 222.328C98.2549 222.621 101.364 223.267 104.004 224.264C106.644 225.203 108.727 226.552 110.252 228.312C111.836 230.072 112.628 232.448 112.628 235.44C112.628 238.373 111.836 240.72 110.252 242.48C108.727 244.24 106.644 245.589 104.004 246.528C101.364 247.525 98.2549 248.171 94.6762 248.464C91.0975 248.816 87.2842 248.992 83.2362 248.992C79.1882 248.992 75.3749 248.816 71.7962 248.464C68.2175 248.171 65.1082 247.525 62.4682 246.528C59.8282 245.589 57.7162 244.24 56.1322 242.48C54.6069 240.72 53.8442 238.373 53.8442 235.44ZM99.3402 211.152C98.9295 211.152 98.4015 211.123 97.7562 211.064C97.1695 211.005 96.5535 210.888 95.9082 210.712C95.3215 210.536 94.7642 210.301 94.2362 210.008C93.7082 209.715 93.2975 209.304 93.0042 208.776C92.8282 208.541 92.6815 208.219 92.5642 207.808C92.5055 207.397 92.4469 206.987 92.3882 206.576C92.3882 206.107 92.3882 205.667 92.3882 205.256C92.4469 204.845 92.5055 204.523 92.5642 204.288C92.6815 203.643 93.0042 203.085 93.5322 202.616C94.0602 202.088 94.6762 201.677 95.3802 201.384C95.6149 201.325 96.0549 201.267 96.7002 201.208C97.4042 201.149 98.1082 201.12 98.8122 201.12H101.452C101.394 200.475 101.364 199.859 101.364 199.272V196.544H99.3402C98.9295 196.544 98.4015 196.515 97.7562 196.456C97.1695 196.397 96.5535 196.28 95.9082 196.104C95.3215 195.928 94.7642 195.693 94.2362 195.4C93.7082 195.107 93.2975 194.696 93.0042 194.168C92.5349 193.405 92.3002 192.613 92.3002 191.792C92.3002 190.912 92.4762 190.12 92.8282 189.416C93.2389 188.653 93.7669 188.037 94.4122 187.568C95.1162 187.04 95.9375 186.747 96.8762 186.688C96.9349 186.688 97.1989 186.688 97.6682 186.688C98.1962 186.688 98.7535 186.688 99.3402 186.688C99.9269 186.688 100.455 186.688 100.924 186.688C101.394 186.629 101.628 186.541 101.628 186.424C101.746 185.837 101.775 185.192 101.716 184.488C101.716 183.784 101.746 183.08 101.804 182.376C101.863 181.672 101.98 181.027 102.156 180.44C102.391 179.795 102.802 179.237 103.388 178.768C103.858 178.416 104.415 178.181 105.06 178.064C105.706 177.947 106.322 177.859 106.908 177.8C108.375 177.624 109.636 178.123 110.692 179.296C111.103 179.824 111.396 180.323 111.572 180.792C111.807 181.496 111.895 182.229 111.836 182.992C111.836 183.755 111.836 184.517 111.836 185.28V210.536C111.836 210.536 111.836 210.917 111.836 211.68C111.836 212.443 111.778 213.293 111.66 214.232C111.543 215.171 111.338 216.109 111.044 217.048C110.81 217.928 110.399 218.544 109.812 218.896C109.402 219.131 108.903 219.307 108.316 219.424C107.73 219.541 107.202 219.6 106.732 219.6C105.735 219.6 104.767 219.277 103.828 218.632C103.124 218.163 102.626 217.605 102.332 216.96C102.156 216.608 102.01 216.168 101.892 215.64C101.775 215.112 101.687 214.584 101.628 214.056C101.57 213.469 101.511 212.912 101.452 212.384C101.394 211.856 101.364 211.445 101.364 211.152H99.3402ZM78.4842 200.592C78.4842 199.301 78.4255 198.099 78.3082 196.984C78.1909 195.811 77.9269 194.755 77.5162 193.816C77.1642 192.819 76.6069 191.939 75.8442 191.176C75.0815 190.413 74.0842 189.797 72.8522 189.328C71.5029 188.859 70.0362 188.624 68.4522 188.624C66.8682 188.624 65.3722 188.917 63.9642 189.504C62.5562 190.032 61.3242 190.883 60.2682 192.056C59.2122 193.171 58.5375 194.637 58.2442 196.456C58.0682 197.688 58.0682 198.949 58.2442 200.24C58.4789 201.472 58.9189 202.616 59.5642 203.672C60.2682 204.669 61.2069 205.52 62.3802 206.224C63.6122 206.928 65.1375 207.368 66.9562 207.544C68.1882 207.661 69.4202 207.661 70.6522 207.544C71.8842 207.368 73.0282 207.016 74.0842 206.488C75.1402 205.96 76.0495 205.227 76.8122 204.288C77.5749 203.291 78.1322 202.059 78.4842 200.592ZM100.748 235.44C100.748 234.443 100.22 233.651 99.1642 233.064C98.1082 232.477 96.7295 232.037 95.0282 231.744C93.3855 231.451 91.5082 231.275 89.3962 231.216C87.3429 231.099 85.2895 231.04 83.2362 231.04C81.1829 231.04 79.1295 231.099 77.0762 231.216C75.0815 231.275 73.2629 231.451 71.6202 231.744C70.0362 232.037 68.7455 232.477 67.7482 233.064C66.7509 233.651 66.2522 234.443 66.2522 235.44C66.2522 236.32 66.7509 237.053 67.7482 237.64C68.7455 238.227 70.0362 238.667 71.6202 238.96C73.2629 239.253 75.0815 239.459 77.0762 239.576C79.1295 239.693 81.1829 239.752 83.2362 239.752C85.2895 239.752 87.3429 239.752 89.3962 239.752C91.5082 239.752 93.3855 239.635 95.0282 239.4C96.7295 239.165 98.1082 238.755 99.1642 238.168C100.22 237.523 100.748 236.613 100.748 235.44ZM138.7 178.064C139.462 178.064 140.196 178.093 140.9 178.152C141.604 178.211 142.308 178.299 143.012 178.416C145.241 178.768 147.206 179.795 148.908 181.496C150.316 183.021 151.46 184.781 152.34 186.776C153.278 188.712 154.012 190.765 154.54 192.936C155.068 195.107 155.449 197.336 155.684 199.624C155.918 201.853 156.094 204.024 156.212 206.136C156.329 208.835 156.358 211.533 156.3 214.232C156.241 216.931 156.065 219.6 155.772 222.24C155.478 224.997 155.038 227.784 154.452 230.6C153.924 233.357 152.926 235.851 151.46 238.08C150.228 239.957 148.702 241.512 146.884 242.744C145.065 243.917 143.158 244.709 141.164 245.12C139.345 245.472 137.497 245.531 135.62 245.296C133.742 245.061 131.953 244.445 130.252 243.448C128.668 242.509 127.318 241.336 126.204 239.928C125.148 238.52 124.209 236.877 123.388 235C122.214 232.184 121.54 229.28 121.364 226.288C121.129 223.824 120.953 221.36 120.836 218.896C120.777 216.432 120.748 213.968 120.748 211.504C120.748 209.803 120.748 208.16 120.748 206.576C120.806 204.933 120.924 203.291 121.1 201.648C121.217 200.299 121.364 198.979 121.54 197.688C121.716 196.339 121.921 195.019 122.156 193.728C122.39 192.672 122.596 191.675 122.772 190.736C122.948 189.797 123.27 188.829 123.74 187.832C124.209 186.835 124.708 185.896 125.236 185.016C125.822 184.136 126.497 183.344 127.26 182.64C128.55 181.349 129.988 180.352 131.572 179.648C133.156 178.944 134.798 178.475 136.5 178.24C136.852 178.181 137.204 178.152 137.556 178.152C137.966 178.152 138.348 178.123 138.7 178.064ZM170.292 216.52C169.47 216.403 168.385 216.344 167.036 216.344C165.686 216.285 164.601 216.197 163.78 216.08C161.726 215.963 160.26 215.2 159.38 213.792C158.5 212.384 158.382 210.565 159.028 208.336C159.145 207.867 159.38 207.368 159.732 206.84C160.142 206.312 160.524 205.901 160.876 205.608C161.697 205.021 162.518 204.64 163.34 204.464C164.278 204.347 165.393 204.317 166.684 204.376C168.033 204.435 169.206 204.405 170.204 204.288H170.468V203.936C170.468 203.232 170.468 202.704 170.468 202.352C170.526 202 170.556 201.677 170.556 201.384C170.556 201.091 170.526 200.768 170.468 200.416C170.468 200.064 170.468 199.507 170.468 198.744C170.468 197.219 170.438 195.723 170.38 194.256C170.38 192.731 170.409 191.235 170.468 189.768V188.536C170.468 187.773 170.468 186.952 170.468 186.072C170.526 185.133 170.614 184.224 170.732 183.344C170.849 182.405 171.054 181.555 171.348 180.792C171.641 179.971 172.052 179.296 172.58 178.768C173.46 178.005 174.398 177.624 175.396 177.624H175.572C176.98 177.683 178.094 178.123 178.916 178.944C179.796 179.707 180.441 180.645 180.852 181.76C181.321 182.875 181.614 184.048 181.732 185.28C181.849 186.453 181.908 187.509 181.908 188.448V241.248C181.908 241.307 181.908 241.6 181.908 242.128C181.908 242.597 181.849 243.184 181.732 243.888C181.614 244.592 181.438 245.296 181.204 246C180.969 246.704 180.588 247.291 180.06 247.76C179.649 248.171 179.062 248.493 178.3 248.728C177.537 248.963 176.833 249.08 176.188 249.08C174.78 249.08 173.665 248.611 172.844 247.672C172.081 246.851 171.612 246 171.436 245.12C171.26 244.24 171.113 243.301 170.996 242.304C170.996 242.128 170.966 241.952 170.908 241.776C170.908 241.6 170.908 241.395 170.908 241.16C170.79 240.221 170.732 239.224 170.732 238.168C170.732 237.112 170.702 236.056 170.644 235C170.585 234.355 170.556 233.739 170.556 233.152C170.556 232.507 170.556 231.861 170.556 231.216V229.192C170.556 228.605 170.556 227.843 170.556 226.904C170.556 225.907 170.526 224.88 170.468 223.824C170.468 222.768 170.468 221.771 170.468 220.832C170.468 219.893 170.468 219.101 170.468 218.456C170.468 218.163 170.468 217.84 170.468 217.488C170.468 217.136 170.409 216.813 170.292 216.52ZM138.436 233.416C139.55 233.416 140.636 233.064 141.692 232.36C142.689 231.656 143.393 230.717 143.804 229.544C144.214 228.371 144.566 227.08 144.86 225.672C145.329 222.973 145.593 220.099 145.652 217.048C145.71 213.997 145.681 211.064 145.564 208.248C145.564 207.133 145.534 205.96 145.476 204.728C145.417 203.437 145.3 202.176 145.124 200.944C145.006 199.712 144.801 198.539 144.508 197.424C144.214 196.251 143.804 195.224 143.276 194.344C142.689 193.347 141.985 192.584 141.164 192.056C140.342 191.528 139.462 191.323 138.524 191.44C137.526 191.557 136.617 191.909 135.796 192.496C134.974 193.083 134.3 193.963 133.772 195.136L132.98 196.984C132.628 198.099 132.364 199.272 132.188 200.504C132.012 201.677 131.865 202.851 131.748 204.024C131.63 205.197 131.542 206.4 131.484 207.632C131.425 208.864 131.396 210.067 131.396 211.24C131.454 212.413 131.425 213.557 131.308 214.672C131.249 215.787 131.278 216.931 131.396 218.104C131.513 219.629 131.66 221.272 131.836 223.032C132.07 224.792 132.422 226.464 132.892 228.048C133.361 229.573 134.036 230.864 134.916 231.92C135.796 232.917 136.969 233.416 138.436 233.416ZM249.476 232.976C249.652 233.035 249.828 233.064 250.004 233.064C250.18 233.005 250.356 232.976 250.532 232.976C251.53 233.093 252.439 233.299 253.26 233.592C254.14 233.827 254.991 234.296 255.812 235C256.634 235.821 257.044 236.848 257.044 238.08C257.044 238.725 256.927 239.429 256.692 240.192C256.516 240.896 256.252 241.453 255.9 241.864C255.431 242.333 254.844 242.685 254.14 242.92C253.436 243.155 252.762 243.331 252.116 243.448C251.471 243.507 250.884 243.536 250.356 243.536C249.887 243.536 249.623 243.536 249.564 243.536H200.284C199.991 243.536 199.698 243.565 199.404 243.624C199.111 243.624 198.818 243.624 198.524 243.624C197.292 243.683 195.972 243.683 194.564 243.624C193.156 243.507 191.954 243.037 190.956 242.216C189.724 241.101 189.108 239.84 189.108 238.432C189.108 237.552 189.372 236.643 189.9 235.704C190.428 234.765 191.132 234.12 192.012 233.768C193.186 233.299 194.388 233.064 195.62 233.064C196.911 233.064 198.202 233.035 199.492 232.976H199.932C205.564 232.859 211.314 232.859 217.18 232.976L217.092 224.704H207.94C206.767 224.704 205.535 224.704 204.244 224.704C203.012 224.704 201.751 224.675 200.46 224.616C199.228 224.499 198.202 223.883 197.38 222.768C196.559 221.653 196.09 220.333 195.972 218.808C195.914 218.28 195.855 217.429 195.796 216.256C195.796 215.083 195.767 213.851 195.708 212.56C195.708 211.269 195.708 210.067 195.708 208.952C195.708 207.837 195.708 207.045 195.708 206.576V204.464C195.65 203.76 195.65 203.027 195.708 202.264C195.826 201.443 196.148 200.709 196.676 200.064C197.439 199.067 198.495 198.451 199.844 198.216C201.252 197.923 202.602 197.776 203.892 197.776C204.186 197.776 204.655 197.805 205.3 197.864C206.004 197.923 206.562 197.923 206.972 197.864H238.212V190.472H206.092C205.799 190.472 205.476 190.501 205.124 190.56C204.772 190.56 204.45 190.56 204.156 190.56C203.804 190.56 203.423 190.589 203.012 190.648C202.66 190.648 202.308 190.648 201.956 190.648C200.724 190.648 199.727 190.531 198.964 190.296C197.967 190.061 197.146 189.387 196.5 188.272C195.738 186.923 195.532 185.485 195.884 183.96C196.178 182.904 196.852 182.112 197.908 181.584C198.964 181.056 199.815 180.733 200.46 180.616C200.93 180.499 201.37 180.44 201.78 180.44C202.25 180.44 202.748 180.44 203.276 180.44H206.356C207.295 180.44 208.439 180.469 209.788 180.528C211.196 180.528 212.663 180.528 214.188 180.528C215.714 180.528 217.239 180.528 218.764 180.528C220.348 180.469 221.786 180.44 223.076 180.44H240.852C241.85 180.44 242.847 180.469 243.844 180.528C244.842 180.587 245.81 180.763 246.748 181.056C248.156 181.467 249.066 182.376 249.476 183.784C249.887 185.133 250.092 186.453 250.092 187.744V199.36C250.092 199.829 250.034 200.445 249.916 201.208C249.858 201.971 249.74 202.763 249.564 203.584C249.388 204.405 249.124 205.197 248.772 205.96C248.479 206.664 248.098 207.163 247.628 207.456C246.807 207.925 246.015 208.219 245.252 208.336C244.49 208.395 243.756 208.395 243.052 208.336H208.292V215.376H243.14C243.668 215.376 244.167 215.376 244.636 215.376C245.164 215.376 245.663 215.405 246.132 215.464C247.012 215.523 247.804 215.787 248.508 216.256C249.271 216.667 249.799 217.371 250.092 218.368C250.386 219.541 250.327 220.656 249.916 221.712C249.564 222.768 248.86 223.531 247.804 224C247.1 224.293 246.367 224.499 245.604 224.616C244.9 224.675 244.226 224.704 243.58 224.704H228.444L228.532 232.976C229.94 232.976 231.231 232.976 232.404 232.976C233.636 232.917 234.839 232.888 236.012 232.888C237.244 232.888 238.447 232.917 239.62 232.976C240.852 232.976 242.143 232.976 243.492 232.976C244.548 233.035 245.575 233.035 246.572 232.976C247.57 232.859 248.538 232.859 249.476 232.976ZM346.235 214.408C345.824 214.467 344.885 214.496 343.419 214.496C342.011 214.496 340.485 214.496 338.843 214.496C337.2 214.437 335.645 214.408 334.179 214.408C332.712 214.408 331.744 214.408 331.275 214.408H331.187C330.131 214.408 329.075 214.408 328.019 214.408C327.021 214.349 326.053 214.261 325.115 214.144C324.176 213.968 323.325 213.704 322.563 213.352C321.8 213 321.184 212.472 320.715 211.768C320.187 211.005 319.805 210.037 319.571 208.864C319.395 207.691 319.248 206.576 319.131 205.52C319.072 204.405 319.043 203.437 319.043 202.616C319.101 201.795 319.131 201.355 319.131 201.296V199.36C319.131 198.715 319.131 197.981 319.131 197.16C319.131 196.339 319.16 195.429 319.219 194.432C319.219 193.376 319.219 192.437 319.219 191.616C319.277 190.795 319.307 190.061 319.307 189.416V187.48C319.307 187.304 319.307 186.981 319.307 186.512C319.307 186.043 319.336 185.544 319.395 185.016C319.453 184.429 319.541 183.872 319.659 183.344C319.776 182.757 319.952 182.288 320.187 181.936C320.715 181.115 321.243 180.528 321.771 180.176C322.357 179.765 323.091 179.472 323.971 179.296C324.264 179.237 324.704 179.208 325.291 179.208C325.877 179.149 326.435 179.091 326.963 179.032C327.608 178.973 328.283 178.944 328.987 178.944H348.875C350.165 178.944 351.515 179.061 352.923 179.296C354.389 179.472 355.68 179.912 356.795 180.616C357.675 181.144 358.291 181.819 358.643 182.64C358.995 183.461 359.229 184.341 359.347 185.28C359.464 186.219 359.493 187.187 359.435 188.184C359.376 189.123 359.347 190.003 359.347 190.824C359.347 191.763 359.317 192.408 359.259 192.76C359.259 193.053 359.288 193.669 359.347 194.608V199.448C359.288 199.741 359.259 200.064 359.259 200.416C359.317 200.768 359.347 201.12 359.347 201.472C359.229 202.235 359.2 202.997 359.259 203.76C359.317 204.464 359.347 205.227 359.347 206.048C359.347 206.693 359.288 207.397 359.171 208.16C359.112 208.864 358.936 209.597 358.643 210.36C358.408 211.064 358.056 211.709 357.587 212.296C357.176 212.883 356.619 213.293 355.915 213.528C354.389 214.173 352.776 214.496 351.075 214.496C349.432 214.437 347.819 214.408 346.235 214.408ZM377.387 241.952C378.267 242.011 379.059 242.245 379.763 242.656C380.525 243.008 381.053 243.653 381.347 244.592C381.992 246.704 381.229 248.171 379.059 248.992C378.355 249.285 377.621 249.461 376.859 249.52C376.155 249.579 375.48 249.608 374.835 249.608H334.795C333.621 249.608 332.389 249.608 331.099 249.608C329.867 249.608 328.605 249.579 327.315 249.52C326.083 249.461 325.056 249.021 324.235 248.2C323.413 247.379 322.944 246.293 322.827 244.944C322.709 243.947 322.621 242.861 322.563 241.688C322.563 240.456 322.563 239.429 322.563 238.608V237.816C322.504 237.171 322.504 236.408 322.563 235.528C322.68 234.648 323.003 233.885 323.531 233.24C324.293 232.419 325.349 231.891 326.699 231.656C328.107 231.421 329.456 231.304 330.747 231.304H332.595C332.829 231.304 333.035 231.333 333.211 231.392C333.445 231.392 333.651 231.392 333.827 231.392H371.227V227.608H332.947C332.653 227.608 332.331 227.608 331.979 227.608C331.627 227.549 331.304 227.549 331.011 227.608H328.811C328.224 227.608 327.696 227.608 327.227 227.608C326.757 227.608 326.288 227.549 325.819 227.432C325.349 227.315 324.88 227.197 324.411 227.08C324 226.963 323.648 226.669 323.355 226.2C322.592 225.027 322.387 223.765 322.739 222.416C322.915 221.947 323.179 221.595 323.531 221.36C323.883 221.067 324.293 220.832 324.763 220.656C325.232 220.48 325.672 220.363 326.083 220.304C326.552 220.187 326.963 220.099 327.315 220.04C327.784 219.981 328.224 219.952 328.635 219.952C329.104 219.893 329.603 219.864 330.131 219.864H331.627C331.92 219.864 332.184 219.893 332.419 219.952C332.653 219.952 332.917 219.952 333.211 219.952H372.107C375.099 219.952 377.387 220.421 378.971 221.36C380.555 222.24 381.347 223.707 381.347 225.76V232.624C381.347 233.445 381.171 234.237 380.819 235C380.467 235.763 379.821 236.437 378.883 237.024C378.061 237.493 377.269 237.757 376.507 237.816C375.744 237.816 375.011 237.816 374.307 237.816H333.387V241.952H377.387ZM380.907 202.88V210.888C380.907 212.413 380.467 213.763 379.587 214.936C378.707 216.051 377.357 216.608 375.539 216.608C374.541 216.608 373.72 216.403 373.075 215.992C371.901 215.288 371.139 214.437 370.787 213.44C370.493 212.384 370.347 211.621 370.347 211.152V184.84C370.288 184.605 370.317 183.96 370.435 182.904C370.552 181.848 370.787 180.968 371.139 180.264C371.725 179.032 372.899 178.328 374.659 178.152C376.829 177.859 378.443 178.299 379.499 179.472C379.851 179.941 380.085 180.411 380.203 180.88C380.379 181.291 380.525 181.731 380.643 182.2C380.819 182.728 380.907 183.491 380.907 184.488C380.965 185.485 380.965 186.277 380.907 186.864V193.112C381.141 193.112 381.581 193.141 382.227 193.2C382.872 193.2 383.547 193.229 384.251 193.288C384.955 193.288 385.629 193.317 386.275 193.376C386.92 193.435 387.389 193.493 387.683 193.552C388.856 193.787 389.677 194.139 390.147 194.608C390.616 195.019 390.909 195.547 391.027 196.192C391.203 196.837 391.291 197.6 391.291 198.48C391.291 199.301 391.115 200.005 390.763 200.592C390.059 201.765 389.003 202.44 387.595 202.616C386.187 202.733 384.632 202.821 382.931 202.88H380.907ZM334.971 189.944C334.443 189.944 333.944 189.944 333.475 189.944C333.064 189.944 332.683 190.003 332.331 190.12C331.509 190.179 330.835 190.531 330.307 191.176C330.072 191.469 329.925 191.909 329.867 192.496C329.867 193.083 329.867 193.435 329.867 193.552V195.488C329.808 195.957 329.779 196.397 329.779 196.808C329.779 197.16 329.779 197.483 329.779 197.776V198.832C329.779 198.832 329.779 199.008 329.779 199.36C329.779 199.712 329.779 200.123 329.779 200.592C329.837 201.061 329.925 201.531 330.043 202C330.16 202.469 330.365 202.88 330.659 203.232C331.128 203.819 331.891 204.171 332.947 204.288C334.003 204.347 335.059 204.376 336.115 204.376H336.203C337.728 204.317 338.989 204.317 339.987 204.376C340.984 204.376 342.275 204.376 343.859 204.376C344.328 204.376 344.797 204.405 345.267 204.464C345.795 204.464 346.293 204.405 346.763 204.288C347.232 204.229 347.555 204.083 347.731 203.848C347.907 203.613 348.053 203.32 348.171 202.968C348.288 202.499 348.347 202.117 348.347 201.824C348.581 200.709 348.699 199.448 348.699 198.04C348.699 197.101 348.699 196.456 348.699 196.104C348.757 195.752 348.757 195.107 348.699 194.168C348.64 193.699 348.611 193.229 348.611 192.76C348.669 192.291 348.64 191.821 348.523 191.352C348.288 190.707 347.907 190.355 347.379 190.296C346.851 190.179 346.323 190.12 345.795 190.12L334.971 189.944ZM454.17 242.92C455.05 242.979 455.842 243.213 456.546 243.624C457.309 243.976 457.837 244.621 458.13 245.56C458.775 247.672 458.013 249.139 455.842 249.96C455.138 250.253 454.405 250.429 453.642 250.488C452.938 250.547 452.263 250.576 451.618 250.576H411.754C410.581 250.576 409.349 250.576 408.058 250.576C406.826 250.576 405.565 250.547 404.274 250.488C403.042 250.429 402.015 249.989 401.194 249.168C400.373 248.347 399.903 247.261 399.786 245.912C399.669 244.915 399.581 243.829 399.522 242.656C399.522 241.424 399.522 240.397 399.522 239.576V238.784C399.463 238.139 399.463 237.376 399.522 236.496C399.639 235.616 399.962 234.853 400.49 234.208C401.253 233.387 402.309 232.859 403.658 232.624C405.066 232.389 406.415 232.272 407.706 232.272H409.554C409.789 232.272 409.994 232.301 410.17 232.36C410.405 232.36 410.61 232.36 410.786 232.36H447.042V228.576H409.906C409.613 228.576 409.29 228.576 408.938 228.576C408.586 228.517 408.263 228.517 407.97 228.576H405.77C405.183 228.576 404.655 228.576 404.186 228.576C403.717 228.576 403.247 228.517 402.778 228.4C402.309 228.283 401.839 228.165 401.37 228.048C400.959 227.931 400.607 227.637 400.314 227.168C399.551 225.995 399.346 224.733 399.698 223.384C399.874 222.915 400.138 222.563 400.49 222.328C400.842 222.035 401.253 221.8 401.722 221.624C402.191 221.448 402.631 221.331 403.042 221.272C403.511 221.155 403.922 221.067 404.274 221.008C404.743 220.949 405.183 220.92 405.594 220.92C406.063 220.861 406.562 220.832 407.09 220.832H408.586C408.879 220.832 409.143 220.861 409.378 220.92C409.613 220.92 409.877 220.92 410.17 220.92H447.922C450.914 220.92 453.202 221.389 454.786 222.328C456.37 223.208 457.162 224.675 457.162 226.728V233.592C457.162 234.413 456.986 235.205 456.634 235.968C456.282 236.731 455.637 237.405 454.698 237.992C453.877 238.461 453.085 238.725 452.322 238.784C451.559 238.784 450.826 238.784 450.122 238.784H410.346V242.92H454.17ZM455.05 203.76V210.888C455.05 212.413 454.61 213.763 453.73 214.936C452.85 216.051 451.501 216.608 449.682 216.608C448.685 216.608 447.863 216.403 447.218 215.992C446.045 215.288 445.282 214.437 444.93 213.44C444.637 212.384 444.49 211.621 444.49 211.152V184.84C444.431 184.605 444.461 183.96 444.578 182.904C444.695 181.848 444.93 180.968 445.282 180.264C445.869 179.032 447.042 178.328 448.802 178.152C450.973 177.859 452.586 178.299 453.642 179.472C453.994 179.941 454.229 180.411 454.346 180.88C454.522 181.291 454.669 181.731 454.786 182.2C454.962 182.728 455.05 183.491 455.05 184.488C455.109 185.485 455.109 186.277 455.05 186.864V193.992C455.285 193.992 455.725 194.021 456.37 194.08C457.015 194.08 457.69 194.109 458.394 194.168C459.098 194.168 459.773 194.197 460.418 194.256C461.063 194.315 461.533 194.373 461.826 194.432C462.999 194.667 463.821 195.019 464.29 195.488C464.759 195.899 465.053 196.427 465.17 197.072C465.346 197.717 465.434 198.48 465.434 199.36C465.434 200.181 465.258 200.885 464.906 201.472C464.202 202.645 463.146 203.32 461.738 203.496C460.33 203.613 458.775 203.701 457.074 203.76H455.05ZM432.17 200.856C432.17 203.437 431.554 205.901 430.322 208.248C429.383 210.125 428.181 211.621 426.714 212.736C425.247 213.792 423.605 214.613 421.786 215.2C420.026 215.728 418.149 216.021 416.154 216.08C414.218 216.139 412.341 216.08 410.522 215.904C407.706 215.728 405.095 214.907 402.69 213.44C400.343 211.915 398.554 209.92 397.322 207.456C396.383 205.579 395.914 203.379 395.914 200.856C395.914 198.627 396.207 196.72 396.794 195.136C397.146 194.256 397.557 193.435 398.026 192.672C398.495 191.851 398.994 191.117 399.522 190.472H398.026C397.322 190.472 396.706 190.384 396.178 190.208C395.65 189.973 395.122 189.651 394.594 189.24C393.714 188.419 393.274 187.421 393.274 186.248C393.274 184.957 393.714 183.872 394.594 182.992C395.591 182.229 396.735 181.848 398.026 181.848H407.442V179.208C407.677 177.565 408.469 176.333 409.818 175.512C411.167 174.691 412.575 174.339 414.042 174.456C415.509 174.573 416.799 175.248 417.914 176.48C419.029 177.653 419.498 179.443 419.322 181.848H429.354C430.762 181.848 431.877 182.229 432.698 182.992C433.637 183.931 434.106 185.016 434.106 186.248C434.106 187.363 433.637 188.36 432.698 189.24C431.759 190.061 430.645 190.472 429.354 190.472H428.474C429.002 191.117 429.471 191.851 429.882 192.672C430.293 193.435 430.703 194.256 431.114 195.136C431.818 196.837 432.17 198.744 432.17 200.856ZM415.45 206.664C416.623 206.547 417.767 206.224 418.882 205.696C420.055 205.168 420.877 204.317 421.346 203.144C422.167 201.443 422.197 199.859 421.434 198.392C420.671 196.867 419.439 195.664 417.738 194.784C416.623 194.315 415.362 194.08 413.954 194.08C412.487 194.08 411.255 194.285 410.258 194.696C409.613 194.989 409.055 195.371 408.586 195.84C408.175 196.251 407.794 196.691 407.442 197.16C406.914 197.923 406.562 198.744 406.386 199.624C406.21 200.445 406.21 201.267 406.386 202.088C406.621 202.909 407.002 203.672 407.53 204.376C408.058 205.08 408.733 205.608 409.554 205.96C410.493 206.371 411.461 206.635 412.458 206.752C413.455 206.811 414.453 206.781 415.45 206.664ZM559.177 198.92L554.425 203.672C553.134 204.904 551.843 206.107 550.553 207.28C549.262 208.453 547.942 209.627 546.593 210.8C546.475 210.917 546.358 211.035 546.241 211.152C546.123 211.211 546.006 211.299 545.889 211.416C544.774 212.413 543.659 213.469 542.545 214.584C541.489 215.699 540.198 216.491 538.673 216.96C537.617 217.253 536.473 217.224 535.241 216.872C534.009 216.52 533.07 215.904 532.425 215.024C531.955 214.32 531.721 213.616 531.721 212.912C531.721 212.208 531.838 211.533 532.073 210.888C532.366 210.184 532.718 209.509 533.129 208.864C533.539 208.219 533.979 207.632 534.449 207.104C536.209 205.051 538.027 203.115 539.905 201.296C541.841 199.419 543.806 197.6 545.801 195.84C546.446 195.312 547.179 194.608 548.001 193.728C548.822 192.789 549.614 191.88 550.377 191C551.257 189.944 552.166 188.888 553.105 187.832C552.987 186.483 552.958 185.192 553.017 183.96C553.075 182.904 553.222 181.848 553.457 180.792C553.691 179.736 554.131 178.885 554.777 178.24C555.539 177.536 556.625 177.096 558.033 176.92C559.441 176.685 560.614 176.715 561.553 177.008C562.902 177.419 563.841 178.123 564.369 179.12C564.955 180.117 565.337 181.291 565.513 182.64C565.571 183.755 565.571 184.723 565.513 185.544C565.513 186.307 565.835 187.157 566.481 188.096C566.95 188.8 567.478 189.475 568.065 190.12C568.71 190.765 569.326 191.411 569.913 192.056C571.966 194.344 573.961 196.544 575.897 198.656C577.891 200.768 579.945 202.939 582.057 205.168C582.761 205.872 583.435 206.752 584.081 207.808C584.726 208.864 585.166 209.949 585.401 211.064C585.694 212.12 585.665 213.147 585.313 214.144C585.019 215.083 584.257 215.845 583.025 216.432C582.145 216.843 581.294 217.019 580.473 216.96C579.651 216.843 578.859 216.608 578.097 216.256C577.334 215.845 576.601 215.347 575.897 214.76C575.251 214.173 574.665 213.587 574.137 213L559.177 198.92ZM533.745 233.064C532.395 233.005 531.105 232.829 529.873 232.536C528.699 232.184 527.731 231.421 526.969 230.248C526.323 229.251 526.001 228.195 526.001 227.08C526.059 225.907 526.499 224.909 527.321 224.088C527.79 223.619 528.377 223.267 529.081 223.032C529.785 222.797 530.459 222.621 531.105 222.504C531.75 222.387 532.307 222.328 532.777 222.328C533.305 222.328 533.598 222.328 533.657 222.328H582.497C583.435 222.269 584.433 222.269 585.489 222.328C586.603 222.387 587.63 222.592 588.569 222.944C589.507 223.237 590.299 223.765 590.945 224.528C591.59 225.232 591.913 226.229 591.913 227.52C591.913 228.987 591.414 230.101 590.417 230.864C589.419 231.568 588.217 232.096 586.809 232.448C585.459 232.741 584.051 232.917 582.585 232.976C581.118 232.976 579.915 232.976 578.977 232.976H575.545C574.371 233.035 573.227 233.064 572.113 233.064C570.998 233.005 569.854 232.976 568.681 232.976H565.337C565.395 234.619 565.454 236.349 565.513 238.168C565.571 239.987 565.483 241.6 565.249 243.008C565.131 244.123 564.838 245.179 564.369 246.176C563.958 247.232 563.254 248.083 562.257 248.728C561.377 249.315 560.35 249.608 559.177 249.608C558.003 249.667 556.947 249.432 556.009 248.904C555.246 248.435 554.659 247.76 554.249 246.88C553.897 246 553.662 245.149 553.545 244.328C553.427 243.683 553.369 242.979 553.369 242.216C553.427 241.453 553.457 240.749 553.457 240.104C553.398 239.048 553.369 237.904 553.369 236.672C553.369 235.381 553.369 234.12 553.369 232.888H551.169C549.526 232.888 548.001 232.917 546.593 232.976C545.185 232.976 543.806 233.005 542.457 233.064C541.107 233.064 539.729 233.064 538.321 233.064C536.913 233.064 535.387 233.064 533.745 233.064ZM685.902 180.088C689.422 181.965 691.915 184.547 693.382 187.832C694.907 191.117 695.494 195.048 695.142 199.624C694.79 205.491 693.118 209.861 690.126 212.736C687.193 215.611 682.675 217.048 676.574 217.048C674.99 217.048 673.523 217.077 672.174 217.136C670.883 217.136 669.651 217.048 668.478 216.872C667.305 216.696 666.102 216.403 664.87 215.992C663.638 215.523 662.318 214.819 660.91 213.88C658.153 212.061 656.246 209.685 655.19 206.752C654.193 203.819 653.694 200.797 653.694 197.688C653.694 194.579 654.251 191.675 655.366 188.976C656.481 186.219 658.299 183.872 660.822 181.936C662.875 180.293 665.163 179.091 667.686 178.328C670.267 177.565 672.849 177.301 675.43 177.536C676.603 177.653 677.601 177.771 678.422 177.888C679.302 177.947 680.123 178.064 680.886 178.24C681.649 178.416 682.411 178.651 683.174 178.944C683.937 179.237 684.846 179.619 685.902 180.088ZM672.35 244.24C671.705 245.12 671.03 245.941 670.326 246.704C669.681 247.525 668.947 248.2 668.126 248.728C667.363 249.256 666.542 249.579 665.662 249.696C664.782 249.872 663.843 249.784 662.846 249.432C661.614 249.021 660.881 248.405 660.646 247.584C660.47 246.763 660.558 245.883 660.91 244.944C661.262 244.005 661.761 243.096 662.406 242.216C663.051 241.336 663.579 240.573 663.99 239.928C665.046 238.227 666.073 236.525 667.07 234.824C668.067 233.064 669.153 231.363 670.326 229.72C670.795 229.075 671.294 228.371 671.822 227.608C672.409 226.845 673.025 226.171 673.67 225.584C674.315 224.939 675.019 224.411 675.782 224C676.545 223.531 677.366 223.267 678.246 223.208C679.126 223.149 679.918 223.325 680.622 223.736C681.326 224.147 681.942 224.675 682.47 225.32C683.057 225.907 683.585 226.581 684.054 227.344C684.582 228.048 685.051 228.693 685.462 229.28C687.574 232.565 689.598 235.821 691.534 239.048C692.531 237.523 693.47 235.968 694.35 234.384C695.289 232.8 696.286 231.245 697.342 229.72C698.281 228.371 699.366 226.992 700.598 225.584C701.889 224.117 703.443 223.325 705.262 223.208C706.142 223.149 706.963 223.325 707.726 223.736C708.547 224.147 709.281 224.675 709.926 225.32C710.63 225.907 711.275 226.581 711.862 227.344C712.449 228.048 712.947 228.693 713.358 229.28C714.766 231.333 716.086 233.445 717.318 235.616C718.609 237.728 719.929 239.84 721.278 241.952C721.923 243.008 722.393 243.976 722.686 244.856C722.979 245.736 722.715 246.763 721.894 247.936C721.249 248.933 720.427 249.52 719.43 249.696C718.433 249.931 717.435 249.725 716.438 249.08C714.443 247.907 712.713 246.381 711.246 244.504C709.779 242.627 708.371 240.808 707.022 239.048C706.142 237.933 705.409 237.405 704.822 237.464C704.294 237.523 703.649 238.109 702.886 239.224C702.358 239.928 701.801 240.632 701.214 241.336C700.627 242.04 700.011 242.891 699.366 243.888C698.721 244.768 698.046 245.619 697.342 246.44C696.697 247.32 695.963 248.024 695.142 248.552C694.379 249.139 693.558 249.52 692.678 249.696C691.798 249.872 690.859 249.784 689.862 249.432C688.923 249.08 688.278 248.64 687.926 248.112C686.342 246.939 684.934 245.531 683.702 243.888C682.47 242.187 681.238 240.573 680.006 239.048C679.126 237.933 678.422 237.405 677.894 237.464C677.366 237.523 676.691 238.109 675.87 239.224C675.342 239.928 674.785 240.691 674.198 241.512C673.611 242.333 672.995 243.243 672.35 244.24ZM717.934 213.44C717.934 213.44 717.905 213.645 717.846 214.056C717.787 214.467 717.67 214.936 717.494 215.464C717.318 215.992 717.054 216.549 716.702 217.136C716.35 217.664 715.881 218.104 715.294 218.456C714.473 218.925 713.651 219.16 712.83 219.16C711.833 219.16 710.865 218.837 709.926 218.192C709.281 217.723 708.782 217.107 708.43 216.344C707.961 215.464 707.638 214.467 707.462 213.352C707.345 212.179 707.257 210.976 707.198 209.744C707.198 208.512 707.227 207.309 707.286 206.136C707.345 204.963 707.374 203.877 707.374 202.88C707.433 200.357 707.462 197.864 707.462 195.4C707.462 192.877 707.462 190.384 707.462 187.92V186.776C707.403 186.131 707.374 185.456 707.374 184.752C707.433 183.989 707.55 183.285 707.726 182.64C707.961 181.76 708.489 180.821 709.31 179.824C709.779 179.237 710.425 178.827 711.246 178.592C712.126 178.299 713.065 178.211 714.062 178.328C715.822 178.621 716.995 179.384 717.582 180.616C717.934 181.379 718.081 182.317 718.022 183.432C718.022 184.547 717.993 185.221 717.934 185.456V213.44ZM684.67 200.592C684.67 199.301 684.611 198.099 684.494 196.984C684.377 195.811 684.113 194.755 683.702 193.816C683.35 192.819 682.793 191.939 682.03 191.176C681.267 190.413 680.27 189.797 679.038 189.328C677.689 188.859 676.222 188.624 674.638 188.624C673.054 188.624 671.558 188.917 670.15 189.504C668.742 190.032 667.51 190.883 666.454 192.056C665.398 193.171 664.723 194.637 664.43 196.456C664.254 197.688 664.254 198.949 664.43 200.24C664.665 201.472 665.105 202.616 665.75 203.672C666.454 204.669 667.393 205.52 668.566 206.224C669.798 206.928 671.323 207.368 673.142 207.544C674.374 207.661 675.606 207.661 676.838 207.544C678.07 207.368 679.214 207.016 680.27 206.488C681.326 205.96 682.235 205.227 682.998 204.288C683.761 203.291 684.318 202.059 684.67 200.592ZM745.573 178.064C746.336 178.064 747.069 178.093 747.773 178.152C748.477 178.211 749.181 178.299 749.885 178.416C752.114 178.768 754.08 179.795 755.781 181.496C757.189 183.021 758.333 184.781 759.213 186.776C760.152 188.712 760.885 190.765 761.413 192.936C761.941 195.107 762.322 197.336 762.557 199.624C762.792 201.853 762.968 204.024 763.085 206.136C763.202 208.835 763.232 211.533 763.173 214.232C763.114 216.931 762.938 219.6 762.645 222.24C762.352 224.997 761.912 227.784 761.325 230.6C760.797 233.357 759.8 235.851 758.333 238.08C757.101 239.957 755.576 241.512 753.757 242.744C751.938 243.917 750.032 244.709 748.037 245.12C746.218 245.472 744.37 245.531 742.493 245.296C740.616 245.061 738.826 244.445 737.125 243.448C735.541 242.509 734.192 241.336 733.077 239.928C732.021 238.52 731.082 236.877 730.261 235C729.088 232.184 728.413 229.28 728.237 226.288C728.002 223.824 727.826 221.36 727.709 218.896C727.65 216.432 727.621 213.968 727.621 211.504C727.621 209.803 727.621 208.16 727.621 206.576C727.68 204.933 727.797 203.291 727.973 201.648C728.09 200.299 728.237 198.979 728.413 197.688C728.589 196.339 728.794 195.019 729.029 193.728C729.264 192.672 729.469 191.675 729.645 190.736C729.821 189.797 730.144 188.829 730.613 187.832C731.082 186.835 731.581 185.896 732.109 185.016C732.696 184.136 733.37 183.344 734.133 182.64C735.424 181.349 736.861 180.352 738.445 179.648C740.029 178.944 741.672 178.475 743.373 178.24C743.725 178.181 744.077 178.152 744.429 178.152C744.84 178.152 745.221 178.123 745.573 178.064ZM777.165 216.52C776.344 216.403 775.258 216.344 773.909 216.344C772.56 216.285 771.474 216.197 770.653 216.08C768.6 215.963 767.133 215.2 766.253 213.792C765.373 212.384 765.256 210.565 765.901 208.336C766.018 207.867 766.253 207.368 766.605 206.84C767.016 206.312 767.397 205.901 767.749 205.608C768.57 205.021 769.392 204.64 770.213 204.464C771.152 204.347 772.266 204.317 773.557 204.376C774.906 204.435 776.08 204.405 777.077 204.288H777.341V203.936C777.341 203.232 777.341 202.704 777.341 202.352C777.4 202 777.429 201.677 777.429 201.384C777.429 201.091 777.4 200.768 777.341 200.416C777.341 200.064 777.341 199.507 777.341 198.744C777.341 197.219 777.312 195.723 777.253 194.256C777.253 192.731 777.282 191.235 777.341 189.768V188.536C777.341 187.773 777.341 186.952 777.341 186.072C777.4 185.133 777.488 184.224 777.605 183.344C777.722 182.405 777.928 181.555 778.221 180.792C778.514 179.971 778.925 179.296 779.453 178.768C780.333 178.005 781.272 177.624 782.269 177.624H782.445C783.853 177.683 784.968 178.123 785.789 178.944C786.669 179.707 787.314 180.645 787.725 181.76C788.194 182.875 788.488 184.048 788.605 185.28C788.722 186.453 788.781 187.509 788.781 188.448V241.248C788.781 241.307 788.781 241.6 788.781 242.128C788.781 242.597 788.722 243.184 788.605 243.888C788.488 244.592 788.312 245.296 788.077 246C787.842 246.704 787.461 247.291 786.933 247.76C786.522 248.171 785.936 248.493 785.173 248.728C784.41 248.963 783.706 249.08 783.061 249.08C781.653 249.08 780.538 248.611 779.717 247.672C778.954 246.851 778.485 246 778.309 245.12C778.133 244.24 777.986 243.301 777.869 242.304C777.869 242.128 777.84 241.952 777.781 241.776C777.781 241.6 777.781 241.395 777.781 241.16C777.664 240.221 777.605 239.224 777.605 238.168C777.605 237.112 777.576 236.056 777.517 235C777.458 234.355 777.429 233.739 777.429 233.152C777.429 232.507 777.429 231.861 777.429 231.216V229.192C777.429 228.605 777.429 227.843 777.429 226.904C777.429 225.907 777.4 224.88 777.341 223.824C777.341 222.768 777.341 221.771 777.341 220.832C777.341 219.893 777.341 219.101 777.341 218.456C777.341 218.163 777.341 217.84 777.341 217.488C777.341 217.136 777.282 216.813 777.165 216.52ZM745.309 233.416C746.424 233.416 747.509 233.064 748.565 232.36C749.562 231.656 750.266 230.717 750.677 229.544C751.088 228.371 751.44 227.08 751.733 225.672C752.202 222.973 752.466 220.099 752.525 217.048C752.584 213.997 752.554 211.064 752.437 208.248C752.437 207.133 752.408 205.96 752.349 204.728C752.29 203.437 752.173 202.176 751.997 200.944C751.88 199.712 751.674 198.539 751.381 197.424C751.088 196.251 750.677 195.224 750.149 194.344C749.562 193.347 748.858 192.584 748.037 192.056C747.216 191.528 746.336 191.323 745.397 191.44C744.4 191.557 743.49 191.909 742.669 192.496C741.848 193.083 741.173 193.963 740.645 195.136L739.853 196.984C739.501 198.099 739.237 199.272 739.061 200.504C738.885 201.677 738.738 202.851 738.621 204.024C738.504 205.197 738.416 206.4 738.357 207.632C738.298 208.864 738.269 210.067 738.269 211.24C738.328 212.413 738.298 213.557 738.181 214.672C738.122 215.787 738.152 216.931 738.269 218.104C738.386 219.629 738.533 221.272 738.709 223.032C738.944 224.792 739.296 226.464 739.765 228.048C740.234 229.573 740.909 230.864 741.789 231.92C742.669 232.917 743.842 233.416 745.309 233.416ZM856.35 233.064C856.526 233.123 856.702 233.152 856.878 233.152C857.054 233.093 857.23 233.064 857.406 233.064C858.403 233.181 859.313 233.387 860.134 233.68C861.014 233.915 861.865 234.413 862.686 235.176C863.507 235.88 863.918 236.877 863.918 238.168C863.918 238.813 863.801 239.517 863.566 240.28C863.39 240.984 863.126 241.541 862.774 241.952C862.305 242.421 861.718 242.773 861.014 243.008C860.369 243.243 859.694 243.419 858.99 243.536C858.345 243.595 857.758 243.624 857.23 243.624C856.761 243.624 856.497 243.624 856.438 243.624H808.126C807.833 243.624 807.393 243.653 806.806 243.712C806.219 243.712 805.779 243.712 805.486 243.712C804.195 243.771 802.846 243.771 801.438 243.712C800.03 243.595 798.827 243.125 797.83 242.304C796.598 241.189 795.982 239.928 795.982 238.52C795.982 237.64 796.246 236.731 796.774 235.792C797.302 234.853 798.006 234.208 798.886 233.856C800.059 233.387 801.262 233.152 802.494 233.152C803.785 233.152 805.075 233.123 806.366 233.064H806.806C807.686 233.064 808.713 233.064 809.886 233.064C811.118 233.005 812.203 232.976 813.142 232.976C813.083 232.741 813.054 232.448 813.054 232.096V231.744V223.56C813.054 223.032 813.142 222.504 813.318 221.976C813.435 221.507 813.641 221.037 813.934 220.568C814.227 220.04 814.638 219.541 815.166 219.072C812.995 218.544 810.942 217.723 809.006 216.608C807.129 215.493 805.486 213.909 804.078 211.856C802.729 210.037 801.819 208.101 801.35 206.048C800.939 203.995 800.734 201.853 800.734 199.624C800.734 195.048 801.937 191.235 804.342 188.184C806.806 185.075 810.15 182.845 814.374 181.496C817.19 180.557 820.035 179.971 822.91 179.736C825.843 179.443 828.777 179.413 831.71 179.648C834.115 179.824 836.521 180.059 838.926 180.352C841.331 180.645 843.649 181.291 845.878 182.288C846.875 182.757 847.843 183.315 848.782 183.96C849.721 184.605 850.601 185.368 851.422 186.248C853.475 188.477 854.883 190.883 855.646 193.464C856.409 196.045 856.673 198.803 856.438 201.736C856.086 206.312 854.737 209.979 852.39 212.736C850.043 215.435 847.11 217.4 843.59 218.632C844.235 218.984 844.763 219.453 845.174 220.04C845.585 220.627 845.819 221.331 845.878 222.152C845.937 223.091 845.966 224.557 845.966 226.552C846.025 228.488 846.054 230.659 846.054 233.064H849.574C850.63 233.123 851.774 233.123 853.006 233.064C854.297 232.947 855.411 232.947 856.35 233.064ZM844.91 203.056C845.086 202.293 845.145 201.56 845.086 200.856C844.969 197.805 844.001 195.547 842.182 194.08C840.422 192.555 838.134 191.616 835.318 191.264C833.675 191.088 831.651 190.912 829.246 190.736C826.841 190.501 824.465 190.56 822.118 190.912C819.83 191.264 817.806 191.997 816.046 193.112C814.286 194.168 813.23 195.869 812.878 198.216C812.702 199.624 812.702 200.973 812.878 202.264C813.113 203.555 813.611 204.699 814.374 205.696C815.137 206.693 816.193 207.544 817.542 208.248C818.891 208.952 820.622 209.392 822.734 209.568C824.787 209.803 826.87 210.008 828.982 210.184C831.153 210.36 833.265 210.243 835.318 209.832C836.315 209.656 837.313 209.421 838.31 209.128C839.366 208.776 840.334 208.336 841.214 207.808C842.094 207.28 842.857 206.635 843.502 205.872C844.147 205.051 844.617 204.112 844.91 203.056ZM833.03 220.216C831.505 220.216 829.891 220.245 828.19 220.304C826.547 220.304 824.875 220.245 823.174 220.128C823.585 220.832 823.819 221.507 823.878 222.152C823.937 223.091 823.966 224.557 823.966 226.552C824.025 228.488 824.054 230.659 824.054 233.064H833.382H835.142C835.083 232.829 835.054 232.507 835.054 232.096V231.744V223.56C835.054 223.208 835.113 222.827 835.23 222.416C835.347 222.123 835.465 221.771 835.582 221.36C835.699 220.949 835.905 220.539 836.198 220.128C835.67 220.187 835.142 220.216 834.614 220.216C834.086 220.216 833.558 220.216 833.03 220.216ZM871.268 199.8C871.033 198.275 870.916 196.72 870.916 195.136C870.975 193.552 871.268 191.997 871.796 190.472C872.441 188.477 873.497 186.717 874.964 185.192C876.431 183.667 878.103 182.464 879.98 181.584C881.975 180.645 883.999 180 886.052 179.648C888.164 179.237 890.217 179.149 892.212 179.384C894.265 179.619 896.231 180.147 898.108 180.968C900.044 181.731 901.863 182.845 903.564 184.312C905.383 185.896 906.732 187.744 907.612 189.856C908.551 191.909 909.049 194.051 909.108 196.28C909.225 198.509 908.961 200.739 908.316 202.968C907.729 205.139 906.82 207.163 905.588 209.04C905.588 209.04 905.559 209.099 905.5 209.216C904.503 210.565 903.359 211.797 902.068 212.912C900.777 213.968 899.575 215.112 898.46 216.344C897.169 217.693 896.407 219.072 896.172 220.48C895.937 221.829 895.703 223.355 895.468 225.056C895.292 226.699 894.852 228.136 894.148 229.368C893.503 230.541 892.271 231.099 890.452 231.04C889.22 230.981 888.281 230.6 887.636 229.896C887.049 229.133 886.609 228.253 886.316 227.256C886.081 226.2 885.993 225.115 886.052 224C886.111 222.827 886.199 221.8 886.316 220.92C886.668 218.867 887.313 216.931 888.252 215.112C889.191 213.235 890.335 211.475 891.684 209.832C892.447 208.952 893.209 208.16 893.972 207.456C894.735 206.693 895.439 205.901 896.084 205.08C896.729 204.259 897.287 203.379 897.756 202.44C898.225 201.501 898.548 200.416 898.724 199.184C898.9 198.069 898.812 196.955 898.46 195.84C898.108 194.667 897.58 193.64 896.876 192.76C896.172 191.821 895.321 191.059 894.324 190.472C893.327 189.827 892.241 189.475 891.068 189.416C890.012 189.357 888.897 189.504 887.724 189.856C886.551 190.149 885.465 190.648 884.468 191.352C883.471 191.997 882.649 192.789 882.004 193.728C881.417 194.667 881.153 195.723 881.212 196.896C881.271 197.6 881.388 198.333 881.564 199.096C881.799 199.8 881.945 200.504 882.004 201.208C882.121 201.853 882.092 202.499 881.916 203.144C881.799 203.789 881.417 204.405 880.772 204.992C879.716 205.989 878.66 206.488 877.604 206.488C876.548 206.429 875.58 206.077 874.7 205.432C873.82 204.787 873.057 203.965 872.412 202.968C871.825 201.912 871.444 200.856 871.268 199.8ZM896.612 243.712C896.612 245.413 895.967 246.939 894.676 248.288C893.444 249.579 892.007 250.224 890.364 250.224C888.78 250.224 887.372 249.579 886.14 248.288C884.908 246.88 884.292 245.355 884.292 243.712C884.292 241.893 884.908 240.368 886.14 239.136C887.372 237.787 888.78 237.112 890.364 237.112C892.007 237.112 893.444 237.787 894.676 239.136C895.967 240.427 896.612 241.952 896.612 243.712Z" fill="url(#paint0_linear)"/>
<defs>
<linearGradient id="paint0_linear" x1="480" y1="173" x2="480" y2="252.5" gradientUnits="userSpaceOnUse">
<stop offset="0.208203" stop-color="#FF5D7D"/>
<stop offset="0.209087" stop-color="#FF764E"/>
<stop offset="0.357606" stop-color="#FF764E"/>
<stop offset="0.359833" stop-color="#FFC144"/>
<stop offset="0.495578" stop-color="#FFC144"/>
<stop offset="0.495678" stop-color="#88DF8E"/>
<stop offset="0.658805" stop-color="#88DF8E"/>
<stop offset="0.658905" stop-color="#00CCF2"/>
<stop offset="0.843259" stop-color="#00CCF2"/>
<stop offset="0.849351" stop-color="#B278D3"/>
</linearGradient>
</defs>
</svg>
