<svg width="960" height="440" viewBox="0 0 960 440" fill="none" xmlns="http://www.w3.org/2000/svg">
<path d="M431 205.5L470.5 215.5L473.922 229.5M431 205.5V127.5L394 100L363.5 78M431 205.5C325.8 213.5 245.576 239.167 218.614 251M347.5 58.5L363.5 62V78M347.5 58.5L308.5 15.5L224 100C224 109.333 224 134.7 224 161.5M347.5 58.5C327.5 65.8333 271.2 91.9 224 161.5M224 161.5C286.4 99.5 348 67.5 363.5 78M224 161.5C224 169.724 223.372 182.993 222.406 198.5M218.614 251C218.32 254.708 218.024 258.384 217.729 262M218.614 251C219.827 235.71 221.01 221.878 221.957 207.5M217.729 262C216.365 278.734 215.025 294.175 214 305.5H180V317.5H730L492.5 305.5L473.922 229.5M217.729 262C248.434 248.833 342.66 223.9 473.922 229.5M438 141C448.584 139.053 452.086 137.097 470.5 136C478.5 153.5 483 141.5 487.5 130.5C528.876 129.197 583.5 131 671.062 168.5V245.5M609.5 305.5L690.5 298L671.062 245.5M671.062 245.5H568.5M470.5 205.5C467.167 193.167 465.3 168.5 484.5 168.5C503.7 168.5 507.5 196.167 507 210M507 210H478.5M507 210L512.5 245.5H484.5M222.406 198.5C237.104 184.333 278.1 152 324.5 136C370.9 120 393.167 114.333 398.5 113.5L403 141C381.5 143.5 327.4 150.2 283 173C238.6 195.8 223.804 207.5 221.957 207.5M222.406 198.5C222.263 200.788 222.113 205.124 221.957 207.5M456.5 309H408.5C407.5 287.333 410.6 244.3 431 245.5C451.4 246.7 456.5 288.333 456.5 309ZM394 309H363.5C363.667 286 367 241.1 379 245.5C391 249.9 394 289.667 394 309ZM345.5 311.5H314C313.5 291.333 315.8 251 329 251C342.2 251 345.5 291.333 345.5 311.5ZM283 311.5H304.5C306.333 293.167 307.3 256.6 296.5 257C285.7 257.4 283 293.5 283 311.5ZM257 309H272.5C274.667 295 277.2 266.5 270 264.5C262.8 262.5 258.333 293.333 257 309ZM231 309L247 311.5C249.667 295.833 252.6 264.5 243 264.5C233.4 264.5 231 294.167 231 309ZM539 215.5C539.333 207 542.1 190.2 550.5 191C558.9 191.8 560 207.667 559.5 215.5H539ZM577 168.5C586.6 168.5 589 181.5 589 188H568.5C567.333 181.5 567.4 168.5 577 168.5ZM579 300.5L596.5 298C597.167 284.333 595.5 257 583.5 257C571.5 257 575.5 286 579 300.5ZM609.5 298H618.5C622.167 287.667 626.2 266 613 262C599.8 258 605.167 284.333 609.5 298ZM641.5 293.5H628C627.167 283 627.1 262 633.5 262C639.9 262 641.5 283 641.5 293.5ZM654.5 262C658.167 262.333 664.9 269.1 662.5 293.5H651C649.5 282.167 648.1 260 654.5 262Z" stroke="white" stroke-width="5"/>
<path d="M673.469 318.167C658.773 318.268 641.284 303.287 632.372 274.114C623.46 244.941 629.897 214.217 649.693 188.993C669.49 163.77 713.662 181.402 736.045 191.669C740.762 214.923 775.705 213.253 747.123 266.369C744.919 273.217 749.9 267.411 751.58 274.62C753.261 281.83 752.511 291.296 730.536 293.04C730.868 293.246 733.526 293.187 735.502 294.416C729.599 301.704 699.61 317.985 673.469 318.167Z" fill="black" stroke="white" stroke-width="5"/>
<path d="M651.621 224.44C659.391 225.163 658.88 244.708 651.11 243.985C643.34 243.263 643.851 223.717 651.621 224.44Z" fill="white"/>
<path d="M701.807 224.144C709.577 224.867 709.065 244.412 701.295 243.689C693.525 242.967 694.037 223.421 701.807 224.144Z" fill="white"/>
<path d="M673.594 235.366L658.717 254.881L666.912 266.485L673.321 264.991L665.406 254.589L673.594 235.366Z" fill="white"/>
<path d="M646.601 211.197L659.996 217.431L657.596 222.439L642.215 217.05L646.601 211.197Z" fill="white"/>
<path d="M693.274 217.501L694.749 223L710.097 216.219L705.959 211.376L693.274 217.501Z" fill="white"/>
<path d="M657.837 294.398L695.994 294.389L677.529 299.74L657.837 294.398Z" fill="white"/>
<path fill-rule="evenodd" clip-rule="evenodd" d="M650 283.394C667.5 287.394 682.5 291.5 703.809 287.186L705.381 295.076C705.381 295.076 710.024 280.343 707.203 277.671C704.381 275 692 279.5 677.529 277.671C663.058 275.843 650 283.394 650 283.394ZM657.596 283.394C673.321 280.47 689.5 282 702.821 280.47L702.77 283.394C695 287.186 681 284 681 284L657.596 283.394Z" fill="white"/>
<path d="M758.329 245.597C756.95 254.177 752.155 269.841 744.973 269.826C744.114 269.448 746.555 265.621 747.271 263.378C748.331 261.535 749.218 259.41 749.952 257.263C750.811 254.749 751.461 252.205 751.933 250.044C752.657 246.726 752.962 244.315 752.962 244.315C748.198 236.557 744.554 233.605 735.356 228.57C745.357 220.749 747.282 212.699 746.161 207.892C743.903 198.205 743.131 203.953 731.076 202.963C725.966 202.543 721.746 193.735 721.746 193.735C721.746 193.735 698.596 194.064 701.999 199.605C694.63 198.789 688.558 185.424 670.332 196.007C655.751 204.474 644.697 201.983 640.96 198.631C635.049 200.009 628.833 220.884 628.833 220.884C628.833 220.884 623.884 199.655 635.958 193.04C627.415 157.224 661.742 159.157 661.742 159.157C661.742 159.157 648.482 171.117 657.866 176.953C669.377 168.358 687.856 160.672 692.34 167.228C696.825 173.784 703.357 160.141 718.321 164.55C733.285 168.959 740.134 172.979 724.914 176.527C760.041 169.606 761.43 226.293 758.329 245.597Z" fill="black"/>
<path d="M747.271 263.378C746.555 265.621 744.114 269.448 744.973 269.826C752.155 269.841 756.95 254.177 758.329 245.597C761.43 226.293 760.041 169.606 724.914 176.527C740.134 172.979 733.285 168.959 718.321 164.55C703.357 160.141 696.825 173.784 692.34 167.228C687.856 160.672 669.377 168.358 657.866 176.953C648.482 171.117 661.742 159.157 661.742 159.157C661.742 159.157 627.415 157.224 635.958 193.04C623.884 199.655 628.833 220.884 628.833 220.884C628.833 220.884 635.049 200.009 640.96 198.631C644.697 201.983 655.751 204.474 670.332 196.007C688.558 185.424 694.63 198.789 701.999 199.605C698.596 194.064 721.746 193.735 721.746 193.735C721.746 193.735 725.966 202.543 731.076 202.963C743.131 203.953 743.903 198.205 746.161 207.892C747.282 212.699 745.357 220.749 735.356 228.57C744.554 233.605 748.198 236.557 752.962 244.315C752.962 244.315 752.657 246.726 751.933 250.044M747.271 263.378C748.331 261.535 749.218 259.41 749.952 257.263M747.271 263.378C744.316 260.97 739.181 257.662 733.534 255.178M751.933 250.044C747.586 246.131 737.794 238.306 733.405 238.316M751.933 250.044C751.461 252.205 750.811 254.749 749.952 257.263M749.952 257.263C745.459 253.524 735.753 246.215 732.869 246.887" stroke="white" stroke-width="5"/>
<path d="M691.5 147L696.5 127.5C694 116.833 679.8 99.5 643 115.5L624 73C633.671 70.7549 643.01 69.0605 652 67.8439C661.568 66.549 670.742 65.7955 679.5 65.4957C689.746 65.1448 699.423 65.4148 708.5 66.1651C718.004 66.9507 726.849 68.2629 735 69.9402C749.165 72.8553 757.229 75.2264 767 79.5C777.281 83.9972 789.023 90.4244 794 94.5L756.5 119.5C743.5 111.5 730.5 108 708.5 129.5L708.5 149C708.5 149 748.408 159.519 758.5 185C769.716 213.32 758.5 268 758.5 268L716 268L735 211L685.5 202L679.5 249.5L661 249.5L669 202L636 208L627 260.5L619.5 257L627 208C627 208 631.367 181.193 639.5 168.5C652.996 147.434 691.5 147 691.5 147Z" fill="black"/>
<path d="M696.5 127.5L691.5 147C691.5 147 652.996 147.434 639.5 168.5C631.367 181.193 627 208 627 208L619.5 257L627 260.5L636 208L669 202L661 249.5L679.5 249.5L685.5 202L735 211L716 268L758.5 268C758.5 268 769.716 213.32 758.5 185C748.408 159.519 708.5 149 708.5 149L708.5 129.5M696.5 127.5L708.5 129.5M696.5 127.5C694 116.833 679.8 99.5 643 115.5L624 73C633.671 70.7549 643.01 69.0605 652 67.8439M708.5 129.5C730.5 108 743.5 111.5 756.5 119.5L794 94.5C789.023 90.4244 777.281 83.9972 767 79.5M652 67.8439L659 97.5M652 67.8439C661.568 66.549 670.742 65.7955 679.5 65.4957M679.5 65.4957L679.5 94.5M679.5 65.4957C689.746 65.1448 699.423 65.4148 708.5 66.1651M708.5 66.1651L704.5 94.5M708.5 66.1651C718.004 66.9507 726.849 68.2629 735 69.9402M735 69.9402L726.5 99.5M735 69.9402C749.165 72.8553 757.229 75.2264 767 79.5M767 79.5L746 104.5" stroke="white" stroke-width="5"/>
<path d="M765.742 474.87L628.654 488.245L620.158 451.795L602.698 376.894C602.698 376.894 565.5 449.306 526.5 444C487.5 438.694 492.5 403.5 492.5 403.5C492.5 403.5 488.5 380.5 524 388.5C559.5 396.5 575.511 288.984 623.968 306.901C630.275 309.233 639.306 314.728 639.306 314.728L649.72 312.301C650.716 316.573 658.161 331.463 681.264 329.864C707.031 328.08 714.737 318.26 717.195 310.086L733.997 310.603C733.997 310.603 740.069 305.195 744.646 302.842C773.295 288.114 795.939 338.582 816.5 371.5C838.798 407.197 877.5 394 849.5 469.5C822.059 543.492 762.772 382.986 757.921 382.097C758.663 400.593 757.685 416.107 756.312 434.416C757.428 448.504 765.742 474.87 765.742 474.87Z" fill="black"/>
<path d="M639.306 314.728L649.72 312.301C650.716 316.573 658.161 331.463 681.264 329.864C707.031 328.08 714.737 318.26 717.195 310.086L733.997 310.603M639.306 314.728C639.306 314.728 630.275 309.233 623.968 306.901C575.511 288.984 559.5 396.5 524 388.5C488.5 380.5 492.5 403.5 492.5 403.5C492.5 403.5 487.5 438.694 526.5 444C565.5 449.306 602.698 376.894 602.698 376.894L620.158 451.795M639.306 314.728C639.719 320.122 633.015 327.597 652.717 343.275C645.496 395.635 650.764 421.856 658.98 457.104C639.995 458.996 620.158 451.795 620.158 451.795M620.158 451.795L628.654 488.245L765.742 474.87C765.742 474.87 757.428 448.504 756.312 434.416M733.997 310.603C733.997 310.603 740.069 305.195 744.646 302.842C773.295 288.114 795.939 338.582 816.5 371.5C838.798 407.197 877.5 394 849.5 469.5C822.059 543.492 762.772 382.986 757.921 382.097C758.663 400.593 757.685 416.107 756.312 434.416M733.997 310.603C731.01 325.869 708.176 343.861 693.383 345.62C691.348 373.122 686.97 428.62 698.926 454.549C742.585 444.372 716.002 454.031 756.312 434.416" stroke="white" stroke-width="5"/>
<path d="M554 306.5C577.5 275.5 635.833 302.667 647 311L638.5 317C619 309 601.5 345.833 586.5 345.5C590 321 573 301.5 554 306.5Z" fill="black" stroke="white" stroke-width="5"/>
<path d="M814 310.5C790.5 279.5 731.666 302.167 720.5 310.5L732 318.5C751.5 310.5 769 347.333 784 347C780.5 322.5 795 305.5 814 310.5Z" fill="black" stroke="white" stroke-width="5"/>
<path d="M468 426.216L484 401.216L438 378.716L459.5 328.216L420 350.836L233 269.716L396 383.216L383.5 439.632L428.5 393.716L468 426.216Z" fill="black" stroke="white" stroke-width="5"/>
</svg>
