<svg width="960" height="440" viewBox="0 0 960 440" fill="none" xmlns="http://www.w3.org/2000/svg">
<path d="M542.452 32.6413C529.181 32.6413 500.893 4.1426 472.195 8.44171C439.264 13.3747 424.264 63.8667 407.402 63.8667C386.325 63.8667 355.88 41.2283 344.951 24.835C334.022 8.44171 294.991 13.9061 273.914 58.4022C252.837 102.898 319.971 163.788 316.068 204.381C312.165 244.974 277.036 284.786 252.056 319.134C227.076 353.482 214.586 396.417 262.985 422.958C311.384 449.5 347.293 408.907 387.106 408.126C426.918 407.345 467.511 438.571 501.078 426.861C534.645 415.152 542.452 383.146 585.386 404.223C628.321 425.3 664.23 416.713 682.185 404.223C700.14 391.733 704.823 377.681 672.037 323.818C639.25 269.954 642.373 217.651 693.895 150.517C745.416 83.3825 736.829 70.1118 707.165 48.254C677.501 26.3963 643.934 63.0861 630.663 63.8667C617.392 64.6473 603.705 17.3505 576.019 18.5899C561.822 19.2255 555.722 32.6413 542.452 32.6413Z" stroke="white" stroke-width="7"/>
<path fill-rule="evenodd" clip-rule="evenodd" d="M578.751 94.3114C576.409 94.3114 576.409 98.9952 578.751 98.9952C581.093 98.9952 581.093 94.3114 578.751 94.3114Z" fill="white"/>
<path d="M480.001 95.092C477.659 95.092 477.659 99.7758 480.001 99.7758C482.343 99.7758 482.343 95.092 480.001 95.092Z" fill="white"/>
<path fill-rule="evenodd" clip-rule="evenodd" d="M578.751 94.3114C576.409 94.3114 576.409 98.9952 578.751 98.9952C581.093 98.9952 581.093 94.3114 578.751 94.3114Z" stroke="white" stroke-width="7"/>
<path d="M480.001 95.092C477.659 95.092 477.659 99.7758 480.001 99.7758C482.343 99.7758 482.343 95.092 480.001 95.092Z" stroke="white" stroke-width="7"/>
<path d="M531.523 136.856C497.565 136.856 470.243 126.708 464.388 123.975C458.533 121.243 456.582 130.221 461.266 131.782C465.949 133.343 493.783 145.053 531.523 145.053C565.48 145.053 592.802 133.343 597.096 131.001C601.389 128.659 598.267 121.243 593.973 123.585C589.68 125.927 565.48 136.856 531.523 136.856Z" stroke="white" stroke-width="3"/>
</svg>
