<svg width="960" height="440" viewBox="0 0 960 440" fill="none" xmlns="http://www.w3.org/2000/svg">
<path d="M476.682 333.078C463.015 330.262 449.743 312.888 447.245 284.035C444.747 255.182 456.807 227.929 480.184 208.428C503.56 188.928 541.084 214.046 559.834 228.012C559.609 250.537 592.386 255.906 555.329 299.566C551.926 305.489 557.701 301.084 557.834 308.111C557.966 315.138 555.396 323.779 534.645 321.047C534.913 321.304 537.393 321.776 538.984 323.308C532.06 328.906 500.99 338.086 476.682 333.078Z" fill="black" stroke="white" stroke-width="5"/>
<path d="M474.955 241.723C482.026 243.933 477.681 261.98 470.609 259.77C463.538 257.561 467.883 239.513 474.955 241.723Z" fill="white"/>
<path d="M493.194 256.219L475.516 271.394L480.827 283.791L487.074 283.673L481.784 272.447L493.194 256.219Z" fill="white"/>
<path d="M475.111 310.253L491.972 313.84L483.052 317.133L475.111 310.253Z" fill="white"/>
<path fill-rule="evenodd" clip-rule="evenodd" d="M504.215 309.217L503.423 312.931L512.805 303.566C512.805 303.566 502.499 298.951 495.535 297.135C481.248 293.411 462.274 301.187 462.274 301.187C477.171 305.732 487.885 301.555 504.215 309.217Z" fill="white"/>
<path d="M468.759 230.455L484.684 225.858L486.274 232.077L489.538 229.69L484.574 220.002L469.819 225.485L468.759 230.455Z" fill="white"/>
<path d="M508.544 250.532L510.871 246.985L513.685 250.152L528.003 240.41L529.071 245.042L511.963 254.984L508.544 250.532Z" fill="white"/>
<path fill-rule="evenodd" clip-rule="evenodd" d="M522.503 268.424C525.551 263.637 526.043 254.751 521.216 253.243C516.668 251.822 513.248 258.779 513.267 264.513L522.503 268.424Z" fill="white"/>
<path d="M569.847 282.498C566.868 290.192 559.314 303.787 552.648 302.351C551.925 301.83 554.949 298.76 556.058 296.819C557.407 295.317 558.652 293.52 559.758 291.672C561.054 289.508 562.161 287.274 563.027 285.361C564.357 282.424 565.118 280.245 565.118 280.245C562.23 272.098 559.43 268.636 551.887 262.139C562.723 256.857 566.103 249.764 566.015 245.079C565.836 235.636 563.982 240.821 552.984 237.514C548.322 236.112 546.148 227.099 546.148 227.099C546.148 227.099 524.587 222.82 526.65 228.639C519.969 226.422 516.977 212.81 497.958 219.027C482.743 224.001 472.973 219.5 470.166 215.647C464.405 215.756 454.499 233.908 454.499 233.908C454.499 233.908 454.108 213.217 466.629 209.465C465.788 174.517 497.279 183.11 497.279 183.11C497.279 183.11 482.599 191.589 490.157 198.867C502.547 193.165 521.227 189.687 524.093 196.663C526.958 203.638 535.726 192.264 548.747 199.321C561.768 206.378 567.332 211.467 552.497 211.748C586.484 212.277 576.549 265.188 569.847 282.498Z" fill="black"/>
<path d="M556.058 296.819C554.949 298.76 551.925 301.83 552.648 302.351C559.314 303.787 566.868 290.192 569.847 282.498C576.549 265.188 586.484 212.277 552.497 211.748C567.332 211.467 561.768 206.378 548.747 199.321C535.726 192.264 526.958 203.638 524.093 196.663C521.227 189.687 502.547 193.165 490.157 198.867C482.599 191.589 497.279 183.11 497.279 183.11C497.279 183.11 465.788 174.517 466.629 209.465C454.108 213.217 454.499 233.908 454.499 233.908C454.499 233.908 464.405 215.756 470.166 215.647C472.973 219.5 482.743 224.001 497.958 219.027C516.977 212.81 519.969 226.422 526.65 228.639C524.587 222.82 546.148 227.099 546.148 227.099C546.148 227.099 548.322 236.112 552.984 237.514C563.982 240.821 565.836 235.636 566.015 245.079C566.103 249.764 562.723 256.857 551.887 262.139C559.43 268.636 562.23 272.098 565.118 280.245C565.118 280.245 564.357 282.424 563.027 285.361M556.058 296.819C557.407 295.317 558.652 293.52 559.758 291.672M556.058 296.819C553.791 293.998 549.679 289.91 544.927 286.484M563.027 285.361C559.766 280.867 552.224 271.662 548.146 270.802M563.027 285.361C562.161 287.274 561.054 289.508 559.758 291.672M559.758 291.672C556.327 287.31 548.762 278.601 545.951 278.654" stroke="white" stroke-width="5"/>
<path d="M275.18 410.673L233.51 214.687L248.834 221.651L260.931 214.687L270.341 209.042L282.439 202.321C282.439 202.321 286.917 204.835 294.518 209.042L303.409 196.675L477.349 295.878L670.915 201.245L681.4 213.936C690.023 209.866 695.111 207.429 695.111 207.429L700.219 217.275L706.268 228.935L712.317 240.595L725.49 235.926L695.111 431.105L504.502 445.623L454.229 443.472L275.18 410.673Z" fill="black"/>
<path d="M513.105 311.202C488.641 323.299 477.349 324.375 445.895 311.202L248.834 221.651L260.931 214.687L270.341 209.042L282.439 202.321C282.439 202.321 286.917 204.835 294.518 209.042L303.409 196.675L477.349 295.878L670.915 201.245L681.4 213.936C690.023 209.866 695.111 207.429 695.111 207.429L700.219 217.275L706.268 228.935L712.317 240.595L513.105 311.202Z" fill="black"/>
<path d="M651.021 416.588L665.27 313.89L626.019 328.627C614.728 356.098 603.139 355.748 592.145 336.911L555.045 346.958L560.421 433.256L651.021 416.588Z" fill="black"/>
<path d="M275.18 410.673L233.51 214.687L248.834 221.651M445.895 311.202C477.349 324.375 488.641 323.299 513.105 311.202M445.895 311.202L454.229 443.472M445.895 311.202L248.834 221.651M695.111 431.105L725.49 235.926L712.317 240.595M513.105 311.202L504.502 445.623M513.105 311.202L712.317 240.595M248.834 221.651L260.931 214.687M477.349 295.878L303.408 196.675L294.518 209.042M477.349 295.878C468.047 304.046 335.623 231.792 294.518 209.042M477.349 295.878L670.915 201.245L681.4 213.936M477.349 295.878C487.319 304.488 635.167 235.756 681.4 213.936M712.317 240.595L706.268 228.935M270.341 209.042L282.439 202.321C282.439 202.321 286.917 204.835 294.518 209.042M270.341 209.042L452.885 295.878M270.341 209.042L260.931 214.687M260.931 214.687L452.885 302.867M681.4 213.936C690.023 209.866 695.111 207.429 695.111 207.429L700.219 217.275M700.219 217.275L494.824 302.867L706.268 228.935M700.219 217.275L706.268 228.935M555.045 346.958L560.421 433.256L651.021 416.588L665.27 313.89L626.019 328.627C614.728 356.098 603.139 355.748 592.145 336.911L555.045 346.958Z" stroke="white" stroke-width="4"/>
<path d="M602.361 377.337L614.19 413.63L617.147 396.156L622.793 413.63L627.094 374.111M627.901 412.555L630.457 396.156M644.3 409.598L642.809 393.198M630.457 396.156L634.353 371.153H640.805L642.809 393.198M630.457 396.156L642.809 393.198" stroke="white" stroke-width="4"/>
<path d="M507.728 42.8973C491.753 28.6724 461.219 46.3922 470.359 69.5126L433.797 90.2134C419.548 65.7488 432.99 28.3798 463.907 12.5181C490.791 -1.27461 539.298 6.83692 543.753 36.7139C548.324 67.3619 526.816 78.3844 509.341 92.0953C491.867 105.806 515.171 98.2787 519.557 106.613C523.944 114.947 522.515 125.163 503.158 134.841C483.801 144.52 466.058 135.11 470.359 117.366C474.661 99.6229 527.354 60.372 507.728 42.8973Z" stroke="white" stroke-width="6"/>
<path d="M524.128 162.263C497.208 184.116 470.359 162.263 503.158 140.756C533 121.188 546.979 143.713 524.128 162.263Z" stroke="white" stroke-width="6"/>
<path d="M715.274 356.905C717.604 351.438 723.985 339.538 714.737 334.591C709.241 331.651 709.898 341.581 708.016 350.721L706.94 356.905C706.94 356.905 686.508 337.817 677.637 343.194C664.233 351.317 709.091 372.229 709.091 372.229C709.091 372.229 683.77 361.15 682.476 370.616C681.271 379.429 706.94 384.864 706.94 384.864C706.94 384.864 682.187 381.209 682.476 389.703C682.764 398.198 702.101 397.769 702.101 397.769C702.101 397.769 690.81 399.919 688.659 401.801C686.508 403.683 691.885 409.867 709.091 403.146C726.297 396.424 720.83 373.573 715.274 356.905Z" fill="black" stroke="white" stroke-width="3"/>
<path d="M262.545 284.242C251.476 284.168 245.118 296.097 241.306 308.707C237.811 320.267 235.66 325.375 235.66 342.312C235.66 352.543 242.919 365.432 254.748 356.023C266.577 346.613 268.728 353.334 275.718 351.453C282.708 349.571 274.911 342.85 269.534 342.312C263.328 341.691 257.437 342.312 257.437 342.312C257.437 342.312 257.731 338.943 262.545 336.935C273.029 332.562 283.783 344.463 287.278 339.623C290.773 334.784 276.255 326.45 269.534 326.45C257.881 326.45 254.748 329.676 254.748 329.676C254.748 329.676 259.671 319.349 266.577 317.041C275.092 314.195 286.471 325.644 287.278 320.267C288.085 314.89 275.906 305.363 266.577 305.481C259.727 305.567 250.984 317.041 250.984 317.041C250.984 317.041 255.288 299.855 262.545 296.609C272.034 292.363 280.826 304.136 283.783 300.91C286.74 297.684 276.108 284.333 262.545 284.242Z" fill="black" stroke="white" stroke-width="3"/>
</svg>
