<svg width="960" height="440" viewBox="0 0 960 440" fill="none" xmlns="http://www.w3.org/2000/svg">
<path d="M476.682 366.078C463.015 363.262 449.743 345.888 447.245 317.035C444.747 288.182 456.807 260.929 480.184 241.428C503.56 221.928 541.084 247.046 559.834 261.012C559.609 283.537 592.386 288.906 555.329 332.566C551.926 338.489 557.701 334.084 557.834 341.111C557.966 348.138 555.396 356.779 534.645 354.047C534.913 354.304 537.393 354.776 538.984 356.308C532.06 361.906 500.99 371.086 476.682 366.078Z" fill="black" stroke="white" stroke-width="5"/>
<path d="M474.955 274.723C482.026 276.933 477.681 294.98 470.609 292.77C463.538 290.561 467.883 272.513 474.955 274.723Z" fill="white"/>
<path d="M493.194 289.219L475.516 304.394L480.827 316.791L487.074 316.673L481.784 305.447L493.194 289.219Z" fill="white"/>
<path d="M475.111 343.253L491.972 346.84L483.052 350.133L475.111 343.253Z" fill="white"/>
<path fill-rule="evenodd" clip-rule="evenodd" d="M504.215 342.217L503.423 345.931L512.805 336.566C512.805 336.566 502.499 331.951 495.535 330.135C481.248 326.411 462.274 334.187 462.274 334.187C477.171 338.732 487.885 334.555 504.215 342.217Z" fill="white"/>
<path d="M468.759 263.455L484.684 258.858L486.274 265.077L489.538 262.69L484.574 253.002L469.819 258.485L468.759 263.455Z" fill="white"/>
<path d="M508.544 283.532L510.871 279.985L513.685 283.152L528.003 273.41L529.071 278.042L511.963 287.984L508.544 283.532Z" fill="white"/>
<path fill-rule="evenodd" clip-rule="evenodd" d="M522.503 301.424C525.551 296.637 526.043 287.751 521.216 286.243C516.668 284.822 513.248 291.779 513.267 297.513L522.503 301.424Z" fill="white"/>
<path d="M569.847 315.498C566.868 323.192 559.314 336.787 552.648 335.351C551.925 334.83 554.949 331.76 556.058 329.819C557.407 328.317 558.652 326.52 559.758 324.672C561.054 322.508 562.161 320.274 563.027 318.361C564.357 315.424 565.118 313.245 565.118 313.245C562.23 305.098 559.43 301.636 551.887 295.139C562.723 289.857 566.103 282.764 566.015 278.079C565.836 268.636 563.982 273.821 552.984 270.514C548.322 269.112 546.148 260.099 546.148 260.099C546.148 260.099 524.587 255.82 526.65 261.639C519.969 259.422 516.977 245.81 497.958 252.027C482.743 257.001 472.973 252.5 470.166 248.647C464.405 248.756 454.499 266.908 454.499 266.908C454.499 266.908 454.108 246.217 466.629 242.465C465.788 207.517 497.279 216.11 497.279 216.11C497.279 216.11 482.599 224.589 490.157 231.867C502.547 226.165 521.227 222.687 524.093 229.663C526.958 236.638 535.726 225.264 548.747 232.321C561.768 239.378 567.332 244.467 552.497 244.748C586.484 245.277 576.549 298.188 569.847 315.498Z" fill="black"/>
<path d="M556.058 329.819C554.949 331.76 551.925 334.83 552.648 335.351C559.314 336.787 566.868 323.192 569.847 315.498C576.549 298.188 586.484 245.277 552.497 244.748C567.332 244.467 561.768 239.378 548.747 232.321C535.726 225.264 526.958 236.638 524.093 229.663C521.227 222.687 502.547 226.165 490.157 231.867C482.599 224.589 497.279 216.11 497.279 216.11C497.279 216.11 465.788 207.517 466.629 242.465C454.108 246.217 454.499 266.908 454.499 266.908C454.499 266.908 464.405 248.756 470.166 248.647C472.973 252.5 482.743 257.001 497.958 252.027C516.977 245.81 519.969 259.422 526.65 261.639C524.587 255.82 546.148 260.099 546.148 260.099C546.148 260.099 548.322 269.112 552.984 270.514C563.982 273.821 565.836 268.636 566.015 278.079C566.103 282.764 562.723 289.857 551.887 295.139C559.43 301.636 562.23 305.098 565.118 313.245C565.118 313.245 564.357 315.424 563.027 318.361M556.058 329.819C557.407 328.317 558.652 326.52 559.758 324.672M556.058 329.819C553.791 326.998 549.679 322.91 544.927 319.484M563.027 318.361C559.766 313.867 552.224 304.662 548.146 303.802M563.027 318.361C562.161 320.274 561.054 322.508 559.758 324.672M559.758 324.672C556.327 320.31 548.762 311.601 545.951 311.654" stroke="white" stroke-width="5"/>
<path d="M275.18 443.673L233.51 247.687L248.834 254.651L260.931 247.687L270.341 242.042L282.439 235.321C282.439 235.321 286.917 237.835 294.518 242.042L303.409 229.675L477.349 328.878L670.915 234.245L681.4 246.936C690.023 242.866 695.111 240.429 695.111 240.429L700.219 250.275L706.268 261.935L712.317 273.595L725.49 268.926L695.111 464.105L504.502 478.623L454.229 476.472L275.18 443.673Z" fill="black"/>
<path d="M513.105 344.202C488.641 356.299 477.349 357.375 445.895 344.202L248.834 254.651L260.931 247.687L270.341 242.042L282.439 235.321C282.439 235.321 286.917 237.835 294.518 242.042L303.409 229.675L477.349 328.878L670.915 234.245L681.4 246.936C690.023 242.866 695.111 240.429 695.111 240.429L700.219 250.275L706.268 261.935L712.317 273.595L513.105 344.202Z" fill="black"/>
<path d="M651.021 449.588L665.27 346.89L626.019 361.627C614.728 389.098 603.139 388.748 592.145 369.911L555.045 379.958L560.421 466.256L651.021 449.588Z" fill="black"/>
<path d="M275.18 443.673L233.51 247.687L248.834 254.651M445.895 344.202C477.349 357.375 488.641 356.299 513.105 344.202M445.895 344.202L454.229 476.472M445.895 344.202L248.834 254.651M695.111 464.105L725.49 268.926L712.317 273.595M513.105 344.202L504.502 478.623M513.105 344.202L712.317 273.595M248.834 254.651L260.931 247.687M477.349 328.878L303.408 229.675L294.518 242.042M477.349 328.878C468.047 337.046 335.623 264.792 294.518 242.042M477.349 328.878L670.915 234.245L681.4 246.936M477.349 328.878C487.319 337.488 635.167 268.756 681.4 246.936M712.317 273.595L706.268 261.935M270.341 242.042L282.439 235.321C282.439 235.321 286.917 237.835 294.518 242.042M270.341 242.042L452.885 328.878M270.341 242.042L260.931 247.687M260.931 247.687L452.885 335.867M681.4 246.936C690.023 242.866 695.111 240.429 695.111 240.429L700.219 250.275M700.219 250.275L494.824 335.867L706.268 261.935M700.219 250.275L706.268 261.935M555.045 379.958L560.421 466.256L651.021 449.588L665.27 346.89L626.019 361.627C614.728 389.098 603.139 388.748 592.145 369.911L555.045 379.958Z" stroke="white" stroke-width="4"/>
<path d="M602.361 410.337L614.19 446.63L617.147 429.156L622.793 446.63L627.094 407.111M627.901 445.555L630.457 429.156M644.3 442.598L642.809 426.198M630.457 429.156L634.353 404.153H640.805L642.809 426.198M630.457 429.156L642.809 426.198" stroke="white" stroke-width="4"/>
<path d="M496.2 88C498.9 88 501.4 86.5 502.8 84.2L513.1 66.8C514.6 64.3 511.7 61.5 509.2 63L492 73.7C489.7 75.1 488.3 77.6 488.4 80.3C488.4 84.6 491.9 88 496.2 88Z" fill="white"/>
<path d="M523.4 102.2C524.6 102.2 525.7 101.6 526.3 100.7C530.4 94.7 532.6 87.6 532.6 80.2C532.6 59.9 516.2 43.5 496 43.5C475.8 43.5 459.4 59.9 459.4 80.1C459.4 87.4 461.6 94.5 465.7 100.6C466.5 101.8 467.9 102.3 469.3 102.1L484.7 99C486.6 98.6 487.9 96.7 487.5 94.8C487.1 92.9 485.3 91.7 483.3 92L470.3 94.6C468.4 91.2 467.2 87.5 466.7 83.6H471.1C473.1 83.6 474.6 82 474.6 80.1C474.6 78.2 473 76.6 471.1 76.6H466.7C467.4 71.1 469.5 66.1 472.8 61.9L475.9 65C476.6 65.7 477.5 66 478.4 66C479.3 66 480.2 65.7 480.9 65C482.3 63.6 482.3 61.4 480.9 60L477.8 56.9C481.9 53.6 487 51.5 492.5 50.8V55.2C492.5 57.2 494.1 58.7 496 58.7C498 58.7 499.5 57.1 499.5 55.2V50.8C513 52.4 523.7 63.1 525.3 76.6H520.9C518.9 76.6 517.4 78.2 517.4 80.1C517.4 82 519 83.6 520.9 83.6H525.3C524.8 87.5 523.6 91.2 521.7 94.6L508.7 92C506.8 91.7 504.9 92.9 504.5 94.8C504.1 96.7 505.4 98.6 507.3 99L522.7 102.1C523 102.2 523.2 102.2 523.4 102.2Z" fill="white"/>
<path d="M472.3 109.3C470.9 107.9 468.5 107.9 467.1 109.3C465.7 110.7 465.7 113.1 467.1 114.5L475.9 123.3L467.1 132.1C465.7 133.5 465.7 135.9 467.1 137.3C467.8 138 468.8 138.4 469.7 138.4C470.6 138.4 471.6 138 472.3 137.3L483.8 126C485.2 124.6 485.2 122.2 483.8 120.8L472.3 109.3Z" fill="white"/>
<path d="M493.1 109.3C491.7 107.9 489.3 107.9 487.9 109.3C486.5 110.7 486.5 113.1 487.9 114.5L496.7 123.3L487.9 132.1C486.5 133.5 486.5 135.9 487.9 137.3C488.6 138 489.6 138.4 490.5 138.4C491.4 138.4 492.4 138 493.1 137.3L504.6 126C505.3 125.3 505.7 124.4 505.7 123.4C505.7 122.4 505.3 121.5 504.6 120.8L493.1 109.3Z" fill="white"/>
<path d="M514 109.3C512.6 107.9 510.2 107.9 508.8 109.3C507.4 110.7 507.4 113.1 508.8 114.5L517.6 123.3L508.8 132.1C507.4 133.5 507.4 135.9 508.8 137.3C509.5 138 510.5 138.4 511.4 138.4C512.3 138.4 513.3 138 514 137.3L525.4 126C526.8 124.6 526.8 122.2 525.4 120.8L514 109.3Z" fill="white"/>
<path d="M715.274 389.905C717.604 384.438 723.985 372.538 714.737 367.591C709.241 364.651 709.898 374.581 708.016 383.721L706.94 389.905C706.94 389.905 686.508 370.817 677.637 376.194C664.233 384.317 709.091 405.229 709.091 405.229C709.091 405.229 683.77 394.15 682.476 403.616C681.271 412.429 706.94 417.864 706.94 417.864C706.94 417.864 682.187 414.209 682.476 422.703C682.764 431.198 702.101 430.769 702.101 430.769C702.101 430.769 690.81 432.919 688.659 434.801C686.508 436.683 691.885 442.867 709.091 436.146C726.297 429.424 720.83 406.573 715.274 389.905Z" fill="black" stroke="white" stroke-width="3"/>
<path d="M262.545 317.242C251.476 317.168 245.118 329.097 241.306 341.707C237.811 353.267 235.66 358.375 235.66 375.312C235.66 385.543 242.919 398.432 254.748 389.023C266.577 379.613 268.728 386.334 275.718 384.453C282.708 382.571 274.911 375.85 269.534 375.312C263.328 374.691 257.437 375.312 257.437 375.312C257.437 375.312 257.731 371.943 262.545 369.935C273.029 365.562 283.783 377.463 287.278 372.623C290.773 367.784 276.255 359.45 269.534 359.45C257.881 359.45 254.748 362.676 254.748 362.676C254.748 362.676 259.671 352.349 266.577 350.041C275.092 347.195 286.471 358.644 287.278 353.267C288.085 347.89 275.906 338.363 266.577 338.481C259.727 338.567 250.984 350.041 250.984 350.041C250.984 350.041 255.288 332.855 262.545 329.609C272.034 325.363 280.826 337.136 283.783 333.91C286.74 330.684 276.108 317.333 262.545 317.242Z" fill="black" stroke="white" stroke-width="3"/>
<path d="M455.5 26C441 1.5 403 27.5 406.5 54.5C392 48 385 64 389.5 74C367 73 368 121.5 406.5 129C401.5 152 416.5 156 437.5 156C431 167.5 459.5 194.5 510 163C542 212.5 569.5 171.5 563 151C598 151 628.5 100.5 591.5 102.5C622 74 596.5 57 574.5 62.5C594 27.5 562.5 -7 551.5 15.5C535.953 -5.85712 501 5.5 501 21.5C490 4 461.5 10.5 455.5 26Z" stroke="white" stroke-width="6"/>
<path d="M396 171.5C399.6 162.3 413.831 163.952 416.5 171.5C418.538 177.263 415.333 183.673 409.5 185.5C402.252 187.77 391.5 183 396 171.5Z" stroke="white" stroke-width="6"/>
<path d="M401.5 215.5C399.167 214.167 397.051 204.678 401.5 201.5C404.678 199.23 408.235 199.357 411.5 201.5C416.097 204.518 418.5 210.5 413 215.5C408.6 219.5 403.5 217.167 401.5 215.5Z" stroke="white" stroke-width="6"/>
<path d="M423.5 236C419.055 236.261 415.152 231.244 416.5 227C418.123 221.89 430.315 224.148 430 229.5C429.789 233.084 427.084 235.789 423.5 236Z" stroke="white" stroke-width="6"/>
<path d="M446.5 250C445.181 253.401 436.876 251.094 437.5 247.5C437.993 244.659 441.357 242.848 444 244C446.327 245.014 447.418 247.633 446.5 250Z" stroke="white" stroke-width="6"/>
</svg>
