<svg width="960" height="440" viewBox="0 0 960 440" fill="none" xmlns="http://www.w3.org/2000/svg">
<path d="M383.304 190.816L387.663 163.361L387.569 163.324L371.755 186.317L364.175 183.364L370.075 142.826L377.561 145.743L372.824 173.05L372.918 173.087L388.953 150.18L395.956 152.909L391.516 180.692L391.611 180.729L407.441 157.383L414.791 160.246L390.758 193.72L383.304 190.816Z" fill="white"/>
<path fill-rule="evenodd" clip-rule="evenodd" d="M424.523 206.874L425.197 197.602L411.726 192.355L406.538 199.868L399.052 196.951L423.222 163.531L435.033 168.132L432.313 209.909L424.523 206.874ZM415.573 186.826L424.155 174.452L427.304 175.679L425.736 190.785L415.573 186.826Z" fill="white"/>
<path d="M435.126 103.61L435.346 103.044L478.917 120.018L437.99 225.073L325 181.054L365.927 76L409.435 92.9497L409.214 93.5158C407.969 96.7106 408.141 100.306 409.69 103.512C411.24 106.717 414.041 109.27 417.477 110.609C420.913 111.948 424.703 111.962 428.013 110.65C431.322 109.337 433.881 106.805 435.126 103.61Z" stroke="white" stroke-width="5"/>
<path d="M616.209 207.602L599.964 185.043L599.871 185.083L604.842 212.543L597.381 215.786L573.016 182.855L580.384 179.653L596.256 202.373L596.349 202.333L591.596 174.779L598.488 171.783L614.907 194.631L615 194.591L609.793 166.868L617.026 163.724L623.546 204.412L616.209 207.602Z" fill="white"/>
<path fill-rule="evenodd" clip-rule="evenodd" d="M656.778 189.966L650.725 182.91L637.467 188.674L639.077 197.661L631.709 200.864L625.324 160.117L636.949 155.063L664.445 186.633L656.778 189.966ZM636.304 182.04L633.679 167.211L636.779 165.864L646.307 177.692L636.304 182.04Z" fill="white"/>
<path d="M591.567 109.199L591.325 108.642L634.209 90L679.156 193.398L567.947 241.741L523 138.343L565.822 119.728L566.064 120.285C567.431 123.43 570.085 125.861 573.443 127.045C576.801 128.229 580.588 128.068 583.97 126.598C587.351 125.128 590.052 122.469 591.477 119.206C592.902 115.943 592.934 112.343 591.567 109.199Z" stroke="white" stroke-width="5"/>
<path d="M468.205 203.12C469.024 202.731 469.752 202.463 470.391 202.317C471.029 202.171 471.766 202.098 472.601 202.098C473.829 202.098 474.836 202.406 475.622 203.023C476.424 203.639 476.825 204.564 476.825 205.797V210.713C476.825 211.362 477.095 211.687 477.635 211.687C477.783 211.687 477.971 211.654 478.2 211.589L478.225 213.025C477.685 213.333 477.095 213.488 476.457 213.488C475.065 213.488 474.312 212.766 474.197 211.322V211.273C473.87 211.841 473.403 212.352 472.798 212.806C472.208 213.26 471.471 213.488 470.587 213.488C469.818 213.488 469.057 213.26 468.303 212.806C467.567 212.336 467.198 211.524 467.198 210.372C467.198 209.026 467.739 208.141 468.819 207.72C469.9 207.282 471.07 207.063 472.331 207.063C472.642 207.063 472.961 207.071 473.289 207.087C473.616 207.103 473.919 207.127 474.197 207.16V206.551C474.197 205.902 474.083 205.318 473.854 204.799C473.624 204.28 473.051 204.02 472.134 204.02C471.791 204.02 471.463 204.045 471.152 204.093C470.857 204.142 470.571 204.239 470.293 204.385L469.851 206.065L467.739 205.846L468.205 203.12ZM474.197 208.912V208.523C473.919 208.49 473.633 208.458 473.338 208.425C473.043 208.393 472.74 208.377 472.429 208.377C471.774 208.377 471.185 208.49 470.661 208.717C470.153 208.945 469.9 209.399 469.9 210.08C469.9 211.07 470.432 211.565 471.496 211.565C472.118 211.565 472.707 211.346 473.264 210.908C473.821 210.454 474.132 209.788 474.197 208.912Z" fill="white"/>
<path d="M488.959 209.983C488.959 211.119 488.484 211.987 487.534 212.587C486.601 213.187 485.406 213.488 483.949 213.488C483.163 213.488 482.369 213.398 481.567 213.22C480.781 213.041 480.068 212.774 479.43 212.417L479.823 209.594L481.886 209.788L481.861 211.2C482.172 211.33 482.5 211.419 482.844 211.468C483.204 211.516 483.523 211.541 483.801 211.541C484.473 211.541 485.054 211.427 485.545 211.2C486.052 210.956 486.306 210.6 486.306 210.129C486.306 209.675 486.077 209.35 485.619 209.156C485.177 208.961 484.62 208.815 483.949 208.717C483.277 208.604 482.606 208.458 481.935 208.279C481.264 208.085 480.699 207.776 480.24 207.355C479.798 206.917 479.577 206.268 479.577 205.408C479.577 204.142 480.06 203.274 481.026 202.804C482.009 202.333 483.04 202.098 484.121 202.098C485.545 202.098 486.887 202.43 488.148 203.096L488.418 205.797L486.355 206.04L486.134 204.41C485.496 204.166 484.849 204.045 484.194 204.045C483.687 204.045 483.253 204.15 482.893 204.361C482.549 204.556 482.377 204.872 482.377 205.31C482.377 205.765 482.598 206.081 483.04 206.259C483.482 206.438 484.031 206.584 484.685 206.697C485.34 206.795 485.995 206.941 486.65 207.136C487.305 207.314 487.853 207.622 488.295 208.06C488.738 208.482 488.959 209.123 488.959 209.983Z" fill="white"/>
<path d="M510.819 213.244H505.957V211.249H506.571V206.965C506.571 205.927 506.383 205.197 506.006 204.775C505.646 204.337 505.13 204.118 504.459 204.118C503.591 204.118 502.953 204.41 502.543 204.994C502.15 205.578 501.946 206.243 501.929 206.99V211.249H503.575V213.244H498.712V211.249H499.302V206.965C499.302 205.927 499.113 205.197 498.737 204.775C498.377 204.337 497.869 204.118 497.214 204.118C496.363 204.118 495.733 204.41 495.323 204.994C494.914 205.562 494.701 206.219 494.685 206.965V211.249H496.748V213.244H490.412V211.249H492.057V204.337H490.436V202.317H494.685V204.118C495.029 203.517 495.487 203.031 496.06 202.657C496.633 202.284 497.329 202.098 498.147 202.098C498.966 202.098 499.703 202.301 500.358 202.706C501.013 203.096 501.471 203.712 501.733 204.556C502.06 203.809 502.535 203.217 503.157 202.779C503.779 202.325 504.541 202.098 505.441 202.098C506.44 202.098 507.316 202.414 508.069 203.047C508.822 203.68 509.199 204.669 509.199 206.016V211.249H510.819V213.244Z" fill="white"/>
<path d="M512.172 213.244V209.788H515.414V213.244H512.172Z" fill="white"/>
<path d="M518.314 200.053V197.182H520.991V200.053H518.314ZM520.991 213.122C520.991 215.183 520.581 216.668 519.763 217.576C518.944 218.485 517.618 218.85 515.784 218.671L515.711 216.895C516.382 216.895 516.988 216.7 517.528 216.311C518.085 215.938 518.363 214.875 518.363 213.122V204.337H516.374V202.317H520.991V213.122Z" fill="white"/>
<path d="M532.847 209.983C532.847 211.119 532.372 211.987 531.422 212.587C530.489 213.187 529.294 213.488 527.837 213.488C527.051 213.488 526.257 213.398 525.455 213.22C524.669 213.041 523.957 212.774 523.318 212.417L523.711 209.594L525.774 209.788L525.749 211.2C526.06 211.33 526.388 211.419 526.732 211.468C527.092 211.516 527.411 211.541 527.689 211.541C528.361 211.541 528.942 211.427 529.433 211.2C529.941 210.956 530.194 210.6 530.194 210.129C530.194 209.675 529.965 209.35 529.507 209.156C529.065 208.961 528.508 208.815 527.837 208.717C527.165 208.604 526.494 208.458 525.823 208.279C525.152 208.085 524.587 207.776 524.128 207.355C523.686 206.917 523.465 206.268 523.465 205.408C523.465 204.142 523.948 203.274 524.914 202.804C525.897 202.333 526.928 202.098 528.009 202.098C529.433 202.098 530.776 202.43 532.036 203.096L532.306 205.797L530.243 206.04L530.022 204.41C529.384 204.166 528.737 204.045 528.082 204.045C527.575 204.045 527.141 204.15 526.781 204.361C526.437 204.556 526.265 204.872 526.265 205.31C526.265 205.765 526.486 206.081 526.928 206.259C527.37 206.438 527.919 206.584 528.573 206.697C529.228 206.795 529.883 206.941 530.538 207.136C531.193 207.314 531.741 207.622 532.184 208.06C532.626 208.482 532.847 209.123 532.847 209.983Z" fill="white"/>
<path fill-rule="evenodd" clip-rule="evenodd" d="M541.442 190.535H458.558V224.465H541.442V190.535ZM456 188V227H544V188H456Z" fill="white"/>
<path d="M282.477 239.019C282.951 238.246 283.416 237.624 283.871 237.154C284.326 236.683 284.904 236.22 285.604 235.764C286.633 235.095 287.645 234.804 288.64 234.892C289.649 234.971 290.489 235.527 291.162 236.561L293.844 240.681C294.198 241.225 294.601 241.349 295.054 241.055C295.178 240.974 295.318 240.844 295.474 240.665L296.278 241.855C295.994 242.408 295.584 242.859 295.049 243.207C293.882 243.966 292.857 243.772 291.973 242.624L291.947 242.583C291.982 243.238 291.87 243.921 291.61 244.632C291.364 245.334 290.87 245.926 290.129 246.409C289.485 246.829 288.723 247.053 287.844 247.084C286.969 247.091 286.218 246.612 285.59 245.647C284.855 244.518 284.826 243.482 285.501 242.539C286.168 241.583 287.029 240.76 288.086 240.073C288.347 239.903 288.619 239.736 288.902 239.571C289.185 239.406 289.452 239.261 289.703 239.136L289.371 238.626C289.017 238.082 288.603 237.655 288.127 237.345C287.652 237.035 287.03 237.13 286.262 237.63C285.974 237.818 285.712 238.017 285.478 238.227C285.258 238.429 285.071 238.667 284.917 238.941L285.463 240.59L283.573 241.558L282.477 239.019ZM290.659 240.605L290.447 240.278C290.196 240.403 289.938 240.532 289.673 240.666C289.409 240.799 289.146 240.951 288.885 241.121C288.336 241.478 287.904 241.895 287.589 242.371C287.288 242.838 287.323 243.357 287.694 243.928C288.234 244.758 288.95 244.882 289.842 244.302C290.364 243.962 290.738 243.457 290.966 242.786C291.184 242.102 291.082 241.375 290.659 240.605Z" fill="white"/>
<path d="M303.615 233.45C304.234 234.402 304.31 235.388 303.841 236.409C303.387 237.422 302.549 238.325 301.328 239.12C300.669 239.549 299.955 239.907 299.185 240.195C298.429 240.474 297.686 240.638 296.956 240.688L295.746 238.107L297.581 237.145L298.33 238.341C298.662 238.28 298.985 238.177 299.3 238.03C299.628 237.874 299.909 237.72 300.142 237.569C300.705 237.202 301.13 236.79 301.418 236.332C301.71 235.851 301.728 235.413 301.471 235.019C301.224 234.638 300.854 234.491 300.364 234.578C299.887 234.656 299.341 234.838 298.725 235.122C298.101 235.393 297.459 235.637 296.799 235.854C296.13 236.057 295.488 236.106 294.874 236.003C294.265 235.877 293.725 235.453 293.256 234.733C292.566 233.672 292.497 232.681 293.05 231.76C293.617 230.83 294.353 230.07 295.258 229.48C296.452 228.703 297.759 228.25 299.178 228.12L300.878 230.236L299.282 231.566L298.207 230.32C297.54 230.464 296.931 230.715 296.382 231.072C295.957 231.349 295.651 231.674 295.464 232.047C295.282 232.398 295.311 232.757 295.55 233.124C295.797 233.505 296.155 233.649 296.623 233.558C297.091 233.466 297.63 233.289 298.241 233.027C298.843 232.752 299.472 232.517 300.127 232.323C300.773 232.115 301.401 232.074 302.01 232.2C302.611 232.313 303.146 232.729 303.615 233.45Z" fill="white"/>
<path d="M323.715 224.258L319.64 226.91L318.551 225.238L319.066 224.903L316.729 221.313C316.163 220.443 315.607 219.933 315.061 219.785C314.52 219.615 313.969 219.712 313.406 220.078C312.679 220.552 312.303 221.145 312.279 221.858C312.268 222.562 312.459 223.231 312.853 223.865L315.176 227.435L316.555 226.537L317.644 228.21L313.568 230.862L312.48 229.19L312.974 228.868L310.637 225.278C310.071 224.408 309.514 223.899 308.969 223.751C308.428 223.58 307.883 223.673 307.334 224.031C306.621 224.495 306.252 225.084 306.227 225.796C306.194 226.496 306.374 227.162 306.768 227.797L309.104 231.387L310.833 230.261L311.922 231.934L306.612 235.39L305.523 233.718L306.902 232.82L303.131 227.027L301.773 227.912L300.671 226.219L304.232 223.901L305.214 225.41C305.175 224.72 305.294 224.062 305.57 223.436C305.847 222.811 306.328 222.275 307.014 221.829C307.7 221.382 308.429 221.15 309.199 221.133C309.96 221.102 310.681 221.368 311.36 221.933C311.228 221.129 311.302 220.373 311.585 219.667C311.859 218.947 312.373 218.341 313.127 217.85C313.964 217.305 314.871 217.092 315.847 217.212C316.824 217.331 317.679 217.955 318.414 219.084L321.268 223.469L322.627 222.585L323.715 224.258Z" fill="white"/>
<path d="M324.849 223.52L322.964 220.623L325.681 218.855L327.566 221.751L324.849 223.52Z" fill="white"/>
<path d="M322.801 209.114L321.234 206.707L323.478 205.247L325.044 207.654L322.801 209.114ZM332.174 218.607C333.298 220.334 333.764 221.802 333.574 223.01C333.384 224.218 332.471 225.247 330.837 226.098L329.806 224.649C330.369 224.283 330.77 223.789 331.011 223.168C331.274 222.552 330.927 221.509 329.971 220.041L325.179 212.677L323.511 213.762L322.409 212.069L326.279 209.551L332.174 218.607Z" fill="white"/>
<path d="M340.397 209.508C341.017 210.46 341.092 211.447 340.624 212.468C340.169 213.48 339.332 214.384 338.11 215.178C337.452 215.607 336.738 215.966 335.968 216.254C335.212 216.533 334.469 216.697 333.739 216.746L332.528 214.166L334.363 213.203L335.113 214.4C335.444 214.339 335.767 214.235 336.082 214.088C336.411 213.933 336.691 213.779 336.925 213.627C337.487 213.261 337.912 212.849 338.2 212.39C338.493 211.909 338.511 211.472 338.254 211.078C338.006 210.697 337.637 210.55 337.147 210.637C336.67 210.715 336.124 210.896 335.508 211.181C334.884 211.452 334.241 211.695 333.581 211.912C332.913 212.115 332.271 212.165 331.657 212.061C331.047 211.935 330.508 211.512 330.039 210.791C329.349 209.731 329.28 208.74 329.833 207.818C330.399 206.888 331.135 206.128 332.041 205.539C333.235 204.762 334.541 204.308 335.961 204.178L337.661 206.295L336.065 207.624L334.99 206.378C334.322 206.522 333.714 206.773 333.165 207.13C332.74 207.407 332.434 207.732 332.247 208.106C332.065 208.456 332.093 208.815 332.332 209.182C332.58 209.563 332.938 209.708 333.406 209.616C333.874 209.525 334.413 209.348 335.024 209.086C335.626 208.81 336.254 208.575 336.909 208.381C337.555 208.173 338.183 208.133 338.793 208.259C339.393 208.371 339.928 208.788 340.397 209.508Z" fill="white"/>
<path fill-rule="evenodd" clip-rule="evenodd" d="M336.992 188.52L267.527 233.734L286.036 262.171L355.501 216.957L336.992 188.52ZM264 233.005L285.275 265.691L359.028 217.686L337.753 185L264 233.005Z" fill="white"/>
<path d="M358.205 242.12C359.024 241.731 359.752 241.463 360.391 241.317C361.029 241.171 361.766 241.098 362.601 241.098C363.829 241.098 364.836 241.406 365.622 242.023C366.424 242.639 366.825 243.564 366.825 244.797V249.713C366.825 250.362 367.095 250.687 367.635 250.687C367.783 250.687 367.971 250.654 368.2 250.589L368.225 252.025C367.685 252.333 367.095 252.488 366.457 252.488C365.065 252.488 364.312 251.766 364.197 250.322V250.273C363.87 250.841 363.403 251.352 362.798 251.806C362.208 252.26 361.471 252.488 360.587 252.488C359.818 252.488 359.057 252.26 358.303 251.806C357.567 251.336 357.198 250.524 357.198 249.372C357.198 248.026 357.739 247.141 358.819 246.72C359.9 246.282 361.07 246.063 362.331 246.063C362.642 246.063 362.961 246.071 363.289 246.087C363.616 246.103 363.919 246.127 364.197 246.16V245.551C364.197 244.902 364.083 244.318 363.854 243.799C363.624 243.28 363.051 243.02 362.134 243.02C361.791 243.02 361.463 243.045 361.152 243.093C360.857 243.142 360.571 243.239 360.293 243.385L359.851 245.065L357.739 244.846L358.205 242.12ZM364.197 247.912V247.523C363.919 247.49 363.633 247.458 363.338 247.425C363.043 247.393 362.74 247.377 362.429 247.377C361.774 247.377 361.185 247.49 360.661 247.717C360.153 247.945 359.9 248.399 359.9 249.08C359.9 250.07 360.432 250.565 361.496 250.565C362.118 250.565 362.707 250.346 363.264 249.908C363.821 249.454 364.132 248.788 364.197 247.912Z" fill="white"/>
<path d="M378.959 248.983C378.959 250.119 378.484 250.987 377.534 251.587C376.601 252.187 375.406 252.488 373.949 252.488C373.163 252.488 372.369 252.398 371.567 252.22C370.781 252.041 370.068 251.774 369.43 251.417L369.823 248.594L371.886 248.788L371.861 250.2C372.172 250.33 372.5 250.419 372.844 250.468C373.204 250.516 373.523 250.541 373.801 250.541C374.473 250.541 375.054 250.427 375.545 250.2C376.052 249.956 376.306 249.6 376.306 249.129C376.306 248.675 376.077 248.35 375.619 248.156C375.177 247.961 374.62 247.815 373.949 247.717C373.277 247.604 372.606 247.458 371.935 247.279C371.264 247.085 370.699 246.776 370.24 246.355C369.798 245.917 369.577 245.268 369.577 244.408C369.577 243.142 370.06 242.274 371.026 241.804C372.009 241.333 373.04 241.098 374.121 241.098C375.545 241.098 376.887 241.43 378.148 242.096L378.418 244.797L376.355 245.04L376.134 243.41C375.496 243.166 374.849 243.045 374.194 243.045C373.687 243.045 373.253 243.15 372.893 243.361C372.549 243.556 372.377 243.872 372.377 244.31C372.377 244.765 372.598 245.081 373.04 245.259C373.482 245.438 374.031 245.584 374.685 245.697C375.34 245.795 375.995 245.941 376.65 246.136C377.305 246.314 377.853 246.622 378.295 247.06C378.738 247.482 378.959 248.123 378.959 248.983Z" fill="white"/>
<path d="M400.819 252.244H395.957V250.249H396.571V245.965C396.571 244.927 396.383 244.197 396.006 243.775C395.646 243.337 395.13 243.118 394.459 243.118C393.591 243.118 392.953 243.41 392.543 243.994C392.15 244.578 391.946 245.243 391.929 245.99V250.249H393.575V252.244H388.712V250.249H389.302V245.965C389.302 244.927 389.113 244.197 388.737 243.775C388.377 243.337 387.869 243.118 387.214 243.118C386.363 243.118 385.733 243.41 385.323 243.994C384.914 244.562 384.701 245.219 384.685 245.965V250.249H386.748V252.244H380.412V250.249H382.057V243.337H380.436V241.317H384.685V243.118C385.029 242.517 385.487 242.031 386.06 241.657C386.633 241.284 387.329 241.098 388.147 241.098C388.966 241.098 389.703 241.301 390.358 241.706C391.013 242.096 391.471 242.712 391.733 243.556C392.06 242.809 392.535 242.217 393.157 241.779C393.779 241.325 394.541 241.098 395.441 241.098C396.44 241.098 397.316 241.414 398.069 242.047C398.822 242.68 399.199 243.669 399.199 245.016V250.249H400.819V252.244Z" fill="white"/>
<path d="M402.172 252.244V248.788H405.414V252.244H402.172Z" fill="white"/>
<path d="M408.314 239.053V236.182H410.991V239.053H408.314ZM410.991 252.122C410.991 254.183 410.581 255.668 409.763 256.576C408.944 257.485 407.618 257.85 405.784 257.671L405.711 255.895C406.382 255.895 406.988 255.7 407.528 255.311C408.085 254.938 408.363 253.875 408.363 252.122V243.337H406.374V241.317H410.991V252.122Z" fill="white"/>
<path d="M422.847 248.983C422.847 250.119 422.372 250.987 421.422 251.587C420.489 252.187 419.294 252.488 417.837 252.488C417.051 252.488 416.257 252.398 415.455 252.22C414.669 252.041 413.957 251.774 413.318 251.417L413.711 248.594L415.774 248.788L415.749 250.2C416.06 250.33 416.388 250.419 416.732 250.468C417.092 250.516 417.411 250.541 417.689 250.541C418.361 250.541 418.942 250.427 419.433 250.2C419.941 249.956 420.194 249.6 420.194 249.129C420.194 248.675 419.965 248.35 419.507 248.156C419.065 247.961 418.508 247.815 417.837 247.717C417.165 247.604 416.494 247.458 415.823 247.279C415.152 247.085 414.587 246.776 414.128 246.355C413.686 245.917 413.465 245.268 413.465 244.408C413.465 243.142 413.948 242.274 414.914 241.804C415.897 241.333 416.928 241.098 418.009 241.098C419.433 241.098 420.776 241.43 422.036 242.096L422.306 244.797L420.243 245.04L420.022 243.41C419.384 243.166 418.737 243.045 418.082 243.045C417.575 243.045 417.141 243.15 416.781 243.361C416.437 243.556 416.265 243.872 416.265 244.31C416.265 244.765 416.486 245.081 416.928 245.259C417.37 245.438 417.919 245.584 418.573 245.697C419.228 245.795 419.883 245.941 420.538 246.136C421.193 246.314 421.741 246.622 422.184 247.06C422.626 247.482 422.847 248.123 422.847 248.983Z" fill="white"/>
<path fill-rule="evenodd" clip-rule="evenodd" d="M431.442 229.535H348.558V263.465H431.442V229.535ZM346 227V266H434V227H346Z" fill="white"/>
<path d="M446.344 242.12C447.172 241.731 447.909 241.463 448.554 241.317C449.2 241.171 449.945 241.098 450.79 241.098C452.032 241.098 453.05 241.406 453.845 242.023C454.656 242.639 455.062 243.564 455.062 244.797V249.713C455.062 250.362 455.335 250.687 455.881 250.687C456.03 250.687 456.221 250.654 456.453 250.589L456.477 252.025C455.931 252.333 455.335 252.488 454.689 252.488C453.282 252.488 452.52 251.766 452.404 250.322V250.273C452.073 250.841 451.601 251.352 450.988 251.806C450.392 252.26 449.647 252.488 448.753 252.488C447.975 252.488 447.205 252.26 446.443 251.806C445.698 251.336 445.326 250.524 445.326 249.372C445.326 248.026 445.872 247.141 446.965 246.72C448.058 246.282 449.242 246.063 450.517 246.063C450.831 246.063 451.154 246.071 451.485 246.087C451.816 246.103 452.123 246.127 452.404 246.16V245.551C452.404 244.902 452.288 244.318 452.056 243.799C451.825 243.28 451.245 243.02 450.318 243.02C449.97 243.02 449.639 243.045 449.324 243.093C449.026 243.142 448.737 243.239 448.455 243.385L448.008 245.065L445.872 244.846L446.344 242.12ZM452.404 247.912V247.523C452.123 247.49 451.833 247.458 451.535 247.425C451.237 247.393 450.93 247.377 450.616 247.377C449.954 247.377 449.357 247.49 448.828 247.717C448.314 247.945 448.058 248.399 448.058 249.08C448.058 250.07 448.596 250.565 449.672 250.565C450.301 250.565 450.897 250.346 451.46 249.908C452.023 249.454 452.338 248.788 452.404 247.912Z" fill="white"/>
<path d="M467.333 248.983C467.333 250.119 466.853 250.987 465.892 251.587C464.949 252.187 463.74 252.488 462.266 252.488C461.471 252.488 460.668 252.398 459.857 252.22C459.062 252.041 458.342 251.774 457.696 251.417L458.094 248.594L460.18 248.788L460.155 250.2C460.47 250.33 460.801 250.419 461.149 250.468C461.513 250.516 461.836 250.541 462.117 250.541C462.796 250.541 463.384 250.427 463.881 250.2C464.394 249.956 464.651 249.6 464.651 249.129C464.651 248.675 464.419 248.35 463.955 248.156C463.508 247.961 462.945 247.815 462.266 247.717C461.587 247.604 460.908 247.458 460.23 247.279C459.551 247.085 458.979 246.776 458.516 246.355C458.069 245.917 457.845 245.268 457.845 244.408C457.845 243.142 458.334 242.274 459.311 241.804C460.304 241.333 461.347 241.098 462.44 241.098C463.881 241.098 465.238 241.43 466.513 242.096L466.787 244.797L464.7 245.04L464.477 243.41C463.831 243.166 463.177 243.045 462.515 243.045C462.001 243.045 461.563 243.15 461.198 243.361C460.851 243.556 460.677 243.872 460.677 244.31C460.677 244.765 460.9 245.081 461.347 245.259C461.794 245.438 462.349 245.584 463.011 245.697C463.674 245.795 464.336 245.941 464.998 246.136C465.661 246.314 466.215 246.622 466.662 247.06C467.11 247.482 467.333 248.123 467.333 248.983Z" fill="white"/>
<path d="M489.442 252.244H484.525V250.249H485.146V245.965C485.146 244.927 484.955 244.197 484.574 243.775C484.21 243.337 483.688 243.118 483.01 243.118C482.132 243.118 481.486 243.41 481.072 243.994C480.675 244.578 480.468 245.243 480.451 245.99V250.249H482.115V252.244H477.198V250.249H477.794V245.965C477.794 244.927 477.603 244.197 477.223 243.775C476.858 243.337 476.345 243.118 475.683 243.118C474.822 243.118 474.184 243.41 473.77 243.994C473.356 244.562 473.141 245.219 473.124 245.965V250.249H475.211V252.244H468.803V250.249H470.467V243.337H468.828V241.317H473.124V243.118C473.472 242.517 473.936 242.031 474.515 241.657C475.095 241.284 475.799 241.098 476.626 241.098C477.454 241.098 478.199 241.301 478.862 241.706C479.524 242.096 479.988 242.712 480.253 243.556C480.584 242.809 481.064 242.217 481.693 241.779C482.322 241.325 483.092 241.098 484.003 241.098C485.013 241.098 485.899 241.414 486.661 242.047C487.422 242.68 487.803 243.669 487.803 245.016V250.249H489.442V252.244Z" fill="white"/>
<path d="M490.811 252.244V248.788H494.089V252.244H490.811Z" fill="white"/>
<path d="M497.022 239.053V236.182H499.729V239.053H497.022ZM499.729 252.122C499.729 254.183 499.315 255.668 498.487 256.576C497.66 257.485 496.318 257.85 494.464 257.671L494.389 255.895C495.068 255.895 495.681 255.7 496.227 255.311C496.79 254.938 497.072 253.875 497.072 252.122V243.337H495.06V241.317H499.729V252.122Z" fill="white"/>
<path d="M511.72 248.983C511.72 250.119 511.24 250.987 510.279 251.587C509.335 252.187 508.127 252.488 506.653 252.488C505.858 252.488 505.055 252.398 504.244 252.22C503.449 252.041 502.729 251.774 502.083 251.417L502.48 248.594L504.567 248.788L504.542 250.2C504.857 250.33 505.188 250.419 505.535 250.468C505.9 250.516 506.223 250.541 506.504 250.541C507.183 250.541 507.771 250.427 508.267 250.2C508.781 249.956 509.037 249.6 509.037 249.129C509.037 248.675 508.806 248.35 508.342 248.156C507.895 247.961 507.332 247.815 506.653 247.717C505.974 247.604 505.295 247.458 504.616 247.279C503.938 247.085 503.366 246.776 502.903 246.355C502.456 245.917 502.232 245.268 502.232 244.408C502.232 243.142 502.721 242.274 503.697 241.804C504.691 241.333 505.734 241.098 506.827 241.098C508.267 241.098 509.625 241.43 510.9 242.096L511.173 244.797L509.087 245.04L508.864 243.41C508.218 243.166 507.564 243.045 506.901 243.045C506.388 243.045 505.949 243.15 505.585 243.361C505.237 243.556 505.063 243.872 505.063 244.31C505.063 244.765 505.287 245.081 505.734 245.259C506.181 245.438 506.736 245.584 507.398 245.697C508.061 245.795 508.723 245.941 509.385 246.136C510.047 246.314 510.602 246.622 511.049 247.06C511.496 247.482 511.72 248.123 511.72 248.983Z" fill="white"/>
<path fill-rule="evenodd" clip-rule="evenodd" d="M520.413 229.535H436.587V263.465H520.413V229.535ZM434 227V266H523V227H434Z" fill="white"/>
<path d="M620.205 242.12C621.024 241.731 621.752 241.463 622.391 241.317C623.029 241.171 623.766 241.098 624.601 241.098C625.829 241.098 626.836 241.406 627.622 242.023C628.424 242.639 628.825 243.564 628.825 244.797V249.713C628.825 250.362 629.095 250.687 629.635 250.687C629.783 250.687 629.971 250.654 630.2 250.589L630.225 252.025C629.685 252.333 629.095 252.488 628.457 252.488C627.065 252.488 626.312 251.766 626.197 250.322V250.273C625.87 250.841 625.403 251.352 624.798 251.806C624.208 252.26 623.471 252.488 622.587 252.488C621.818 252.488 621.057 252.26 620.303 251.806C619.567 251.336 619.198 250.524 619.198 249.372C619.198 248.026 619.739 247.141 620.819 246.72C621.9 246.282 623.07 246.063 624.331 246.063C624.642 246.063 624.961 246.071 625.289 246.087C625.616 246.103 625.919 246.127 626.197 246.16V245.551C626.197 244.902 626.083 244.318 625.854 243.799C625.624 243.28 625.051 243.02 624.134 243.02C623.791 243.02 623.463 243.045 623.152 243.093C622.857 243.142 622.571 243.239 622.293 243.385L621.851 245.065L619.739 244.846L620.205 242.12ZM626.197 247.912V247.523C625.919 247.49 625.633 247.458 625.338 247.425C625.043 247.393 624.74 247.377 624.429 247.377C623.774 247.377 623.185 247.49 622.661 247.717C622.153 247.945 621.9 248.399 621.9 249.08C621.9 250.07 622.432 250.565 623.496 250.565C624.118 250.565 624.707 250.346 625.264 249.908C625.821 249.454 626.132 248.788 626.197 247.912Z" fill="white"/>
<path d="M640.959 248.983C640.959 250.119 640.484 250.987 639.534 251.587C638.601 252.187 637.406 252.488 635.949 252.488C635.163 252.488 634.369 252.398 633.567 252.22C632.781 252.041 632.068 251.774 631.43 251.417L631.823 248.594L633.886 248.788L633.861 250.2C634.172 250.33 634.5 250.419 634.844 250.468C635.204 250.516 635.523 250.541 635.801 250.541C636.473 250.541 637.054 250.427 637.545 250.2C638.052 249.956 638.306 249.6 638.306 249.129C638.306 248.675 638.077 248.35 637.619 248.156C637.177 247.961 636.62 247.815 635.949 247.717C635.277 247.604 634.606 247.458 633.935 247.279C633.264 247.085 632.699 246.776 632.24 246.355C631.798 245.917 631.577 245.268 631.577 244.408C631.577 243.142 632.06 242.274 633.026 241.804C634.009 241.333 635.04 241.098 636.121 241.098C637.545 241.098 638.887 241.43 640.148 242.096L640.418 244.797L638.355 245.04L638.134 243.41C637.496 243.166 636.849 243.045 636.194 243.045C635.687 243.045 635.253 243.15 634.893 243.361C634.549 243.556 634.377 243.872 634.377 244.31C634.377 244.765 634.598 245.081 635.04 245.259C635.482 245.438 636.031 245.584 636.685 245.697C637.34 245.795 637.995 245.941 638.65 246.136C639.305 246.314 639.853 246.622 640.295 247.06C640.738 247.482 640.959 248.123 640.959 248.983Z" fill="white"/>
<path d="M662.819 252.244H657.957V250.249H658.571V245.965C658.571 244.927 658.383 244.197 658.006 243.775C657.646 243.337 657.13 243.118 656.459 243.118C655.591 243.118 654.953 243.41 654.543 243.994C654.15 244.578 653.946 245.243 653.929 245.99V250.249H655.575V252.244H650.712V250.249H651.302V245.965C651.302 244.927 651.113 244.197 650.737 243.775C650.377 243.337 649.869 243.118 649.214 243.118C648.363 243.118 647.733 243.41 647.323 243.994C646.914 244.562 646.701 245.219 646.685 245.965V250.249H648.748V252.244H642.412V250.249H644.057V243.337H642.436V241.317H646.685V243.118C647.029 242.517 647.487 242.031 648.06 241.657C648.633 241.284 649.329 241.098 650.147 241.098C650.966 241.098 651.703 241.301 652.358 241.706C653.013 242.096 653.471 242.712 653.733 243.556C654.06 242.809 654.535 242.217 655.157 241.779C655.779 241.325 656.541 241.098 657.441 241.098C658.44 241.098 659.316 241.414 660.069 242.047C660.822 242.68 661.199 243.669 661.199 245.016V250.249H662.819V252.244Z" fill="white"/>
<path d="M664.172 252.244V248.788H667.414V252.244H664.172Z" fill="white"/>
<path d="M670.314 239.053V236.182H672.991V239.053H670.314ZM672.991 252.122C672.991 254.183 672.581 255.668 671.763 256.576C670.944 257.485 669.618 257.85 667.784 257.671L667.711 255.895C668.382 255.895 668.988 255.7 669.528 255.311C670.085 254.938 670.363 253.875 670.363 252.122V243.337H668.374V241.317H672.991V252.122Z" fill="white"/>
<path d="M684.847 248.983C684.847 250.119 684.372 250.987 683.422 251.587C682.489 252.187 681.294 252.488 679.837 252.488C679.051 252.488 678.257 252.398 677.455 252.22C676.669 252.041 675.957 251.774 675.318 251.417L675.711 248.594L677.774 248.788L677.749 250.2C678.06 250.33 678.388 250.419 678.732 250.468C679.092 250.516 679.411 250.541 679.689 250.541C680.361 250.541 680.942 250.427 681.433 250.2C681.941 249.956 682.194 249.6 682.194 249.129C682.194 248.675 681.965 248.35 681.507 248.156C681.065 247.961 680.508 247.815 679.837 247.717C679.165 247.604 678.494 247.458 677.823 247.279C677.152 247.085 676.587 246.776 676.128 246.355C675.686 245.917 675.465 245.268 675.465 244.408C675.465 243.142 675.948 242.274 676.914 241.804C677.897 241.333 678.928 241.098 680.009 241.098C681.433 241.098 682.776 241.43 684.036 242.096L684.306 244.797L682.243 245.04L682.022 243.41C681.384 243.166 680.737 243.045 680.082 243.045C679.575 243.045 679.141 243.15 678.781 243.361C678.437 243.556 678.265 243.872 678.265 244.31C678.265 244.765 678.486 245.081 678.928 245.259C679.37 245.438 679.919 245.584 680.573 245.697C681.228 245.795 681.883 245.941 682.538 246.136C683.193 246.314 683.741 246.622 684.184 247.06C684.626 247.482 684.847 248.123 684.847 248.983Z" fill="white"/>
<path fill-rule="evenodd" clip-rule="evenodd" d="M693.442 229.535H610.558V263.465H693.442V229.535ZM608 227V266H696V227H608Z" fill="white"/>
<path d="M138 271H830V359H138V271Z" stroke="white" stroke-width="10"/>
<path d="M294.93 305.219V299.898H314.805V305.266C314.805 305.812 314.609 306.281 314.219 306.672C313.828 307.047 313.367 307.234 312.836 307.234C312.289 307.234 311.812 307.039 311.406 306.648C311.016 306.258 310.82 305.797 310.82 305.266V303.836H306.836V329.031C306.836 329.578 306.641 330.047 306.25 330.438C305.859 330.812 305.398 331 304.867 331C304.305 331 303.828 330.812 303.438 330.438C303.047 330.047 302.852 329.578 302.852 329.031V303.836H298.867V305.219C298.867 305.766 298.672 306.234 298.281 306.625C297.906 307 297.445 307.188 296.898 307.188C296.352 307.188 295.883 307 295.492 306.625C295.117 306.234 294.93 305.766 294.93 305.219ZM318.367 329.031V301.82C318.367 301.289 318.555 300.828 318.93 300.438C319.32 300.047 319.789 299.852 320.336 299.852C320.867 299.852 321.328 300.047 321.719 300.438C322.109 300.828 322.305 301.289 322.305 301.82V313.422H334.305V301.82C334.305 301.289 334.492 300.828 334.867 300.438C335.258 300.047 335.727 299.852 336.273 299.852C336.82 299.852 337.281 300.047 337.656 300.438C338.047 300.828 338.242 301.305 338.242 301.867V329.031C338.242 329.562 338.039 330.023 337.633 330.414C337.242 330.805 336.789 331 336.273 331C335.711 331 335.242 330.812 334.867 330.438C334.492 330.047 334.305 329.578 334.305 329.031V317.359H322.352V329.031C322.352 329.562 322.148 330.023 321.742 330.414C321.352 330.805 320.883 331 320.336 331C319.805 331 319.344 330.812 318.953 330.438C318.562 330.047 318.367 329.578 318.367 329.031ZM359.664 303.836H345.742V313.422H351.742C352.273 313.422 352.734 313.617 353.125 314.008C353.516 314.398 353.711 314.859 353.711 315.391C353.711 315.953 353.516 316.43 353.125 316.82C352.75 317.211 352.289 317.406 351.742 317.406H345.742V327.062H359.711C360.242 327.062 360.703 327.258 361.094 327.648C361.484 328.023 361.68 328.484 361.68 329.031C361.68 329.578 361.477 330.047 361.07 330.438C360.68 330.812 360.211 331 359.664 331H341.805V299.852H359.664C360.211 299.852 360.68 300.055 361.07 300.461C361.477 300.852 361.68 301.32 361.68 301.867C361.68 302.398 361.477 302.859 361.07 303.25C360.68 303.641 360.211 303.836 359.664 303.836ZM361.656 305.219C361.656 305.766 361.469 306.234 361.094 306.625C360.719 307 360.25 307.188 359.688 307.188C359.141 307.188 358.68 307 358.305 306.625C357.93 306.234 357.742 305.766 357.742 305.219V301.867C357.742 301.32 357.93 300.859 358.305 300.484C358.68 300.094 359.141 299.898 359.688 299.898C360.25 299.898 360.719 300.094 361.094 300.484C361.469 300.859 361.656 301.32 361.656 301.867V305.219ZM361.656 328.984C361.656 329.531 361.469 330 361.094 330.391C360.719 330.766 360.25 330.953 359.688 330.953C359.141 330.953 358.68 330.766 358.305 330.391C357.93 330 357.742 329.531 357.742 328.984V325.633C357.742 325.086 357.93 324.625 358.305 324.25C358.68 323.859 359.141 323.664 359.688 323.664C360.25 323.664 360.719 323.859 361.094 324.25C361.469 324.625 361.656 325.086 361.656 325.633V328.984ZM393.648 324.273C395.68 311.461 396.883 304.859 397.258 304.469C397.648 304.078 398.117 303.883 398.664 303.883C399.195 303.883 399.656 304.078 400.047 304.469C400.438 304.859 401.539 311.523 403.352 324.461L404.617 301.82C404.617 301.289 404.812 300.828 405.203 300.438C405.594 300.047 406.055 299.852 406.586 299.852C407.133 299.852 407.602 300.047 407.992 300.438C408.398 300.812 408.602 301.273 408.602 301.82L406.164 329.383C406.164 330.461 405.672 331 404.688 331H402.859C402.141 331 401.648 330.609 401.383 329.828L398.617 314.594L395.617 329.828C395.305 330.609 394.812 331 394.141 331H391.961C391.023 331 390.555 330.477 390.555 329.43L388.68 301.82C388.68 301.289 388.867 300.828 389.242 300.438C389.633 300.047 390.102 299.852 390.648 299.852C391.195 299.852 391.656 300.047 392.031 300.438C392.422 300.812 392.617 301.273 392.617 301.82L393.648 324.273ZM429.977 303.836H416.055V313.422H422.055C422.586 313.422 423.047 313.617 423.438 314.008C423.828 314.398 424.023 314.859 424.023 315.391C424.023 315.953 423.828 316.43 423.438 316.82C423.062 317.211 422.602 317.406 422.055 317.406H416.055V327.062H430.023C430.555 327.062 431.016 327.258 431.406 327.648C431.797 328.023 431.992 328.484 431.992 329.031C431.992 329.578 431.789 330.047 431.383 330.438C430.992 330.812 430.523 331 429.977 331H412.117V299.852H429.977C430.523 299.852 430.992 300.055 431.383 300.461C431.789 300.852 431.992 301.32 431.992 301.867C431.992 302.398 431.789 302.859 431.383 303.25C430.992 303.641 430.523 303.836 429.977 303.836ZM431.969 305.219C431.969 305.766 431.781 306.234 431.406 306.625C431.031 307 430.562 307.188 430 307.188C429.453 307.188 428.992 307 428.617 306.625C428.242 306.234 428.055 305.766 428.055 305.219V301.867C428.055 301.32 428.242 300.859 428.617 300.484C428.992 300.094 429.453 299.898 430 299.898C430.562 299.898 431.031 300.094 431.406 300.484C431.781 300.859 431.969 301.32 431.969 301.867V305.219ZM431.969 328.984C431.969 329.531 431.781 330 431.406 330.391C431.031 330.766 430.562 330.953 430 330.953C429.453 330.953 428.992 330.766 428.617 330.391C428.242 330 428.055 329.531 428.055 328.984V325.633C428.055 325.086 428.242 324.625 428.617 324.25C428.992 323.859 429.453 323.664 430 323.664C430.562 323.664 431.031 323.859 431.406 324.25C431.781 324.625 431.969 325.086 431.969 325.633V328.984ZM455.477 321.344V323.078C455.477 325.25 454.703 327.117 453.156 328.68C451.625 330.227 449.773 331 447.602 331H435.555V299.852H447.602C449.773 299.852 451.625 300.625 453.156 302.172C454.703 303.719 455.477 305.586 455.477 307.773V309.438C455.477 311.766 454.578 313.75 452.781 315.391C454.578 317.062 455.477 319.047 455.477 321.344ZM451.445 309.391V307.773C451.445 306.68 451.055 305.742 450.273 304.961C449.508 304.18 448.586 303.789 447.508 303.789H439.492V313.328H447.508C448.57 313.328 449.492 312.945 450.273 312.18C451.055 311.398 451.445 310.469 451.445 309.391ZM451.445 323.078V321.438C451.445 320.344 451.055 319.406 450.273 318.625C449.508 317.844 448.586 317.453 447.508 317.453H439.539V327.016H447.508C448.57 327.016 449.492 326.633 450.273 325.867C451.055 325.086 451.445 324.156 451.445 323.078ZM482.43 329.031V299.852H496.398C498.008 299.852 499.391 300.438 500.547 301.609C501.719 302.781 502.305 304.18 502.305 305.805V313.188C502.305 314.812 501.727 316.203 500.57 317.359C499.414 318.516 498.023 319.094 496.398 319.094H486.414V329.031C486.414 329.578 486.219 330.047 485.828 330.438C485.453 330.812 484.992 331 484.445 331C483.883 331 483.406 330.812 483.016 330.438C482.625 330.047 482.43 329.578 482.43 329.031ZM486.414 315.156H496.398C496.93 315.156 497.391 314.969 497.781 314.594C498.172 314.203 498.367 313.734 498.367 313.188V305.805C498.367 305.258 498.172 304.797 497.781 304.422C497.391 304.031 496.93 303.836 496.398 303.836H486.414V315.156ZM505.867 331V301.82C505.867 301.289 506.062 300.828 506.453 300.438C506.844 300.047 507.305 299.852 507.836 299.852C508.367 299.852 508.828 300.047 509.219 300.438C509.609 300.828 509.805 301.289 509.805 301.82V327.062H523.727C524.273 327.062 524.742 327.258 525.133 327.648C525.539 328.023 525.742 328.484 525.742 329.031C525.742 329.578 525.539 330.047 525.133 330.438C524.742 330.812 524.273 331 523.727 331H505.867ZM525.906 328.984C525.906 329.531 525.719 330 525.344 330.391C524.969 330.766 524.5 330.953 523.938 330.953C523.391 330.953 522.93 330.766 522.555 330.391C522.18 330 521.992 329.531 521.992 328.984V325.633C521.992 325.086 522.18 324.625 522.555 324.25C522.93 323.859 523.391 323.664 523.938 323.664C524.5 323.664 524.969 323.859 525.344 324.25C525.719 324.625 525.906 325.086 525.906 325.633V328.984ZM529.422 328.258L537.391 301.328C537.703 300.344 538.359 299.852 539.359 299.852C540.328 299.852 540.938 300.266 541.188 301.094L549.039 328.445C549.102 328.648 549.133 328.844 549.133 329.031C549.133 329.578 548.945 330.047 548.57 330.438C548.195 330.812 547.766 331 547.281 331C546.25 331 545.594 330.523 545.312 329.57L543.719 324.227H534.742L533.008 329.945C532.961 330.195 532.766 330.438 532.422 330.672C532.078 330.891 531.703 331 531.297 331C530.719 331 530.242 330.805 529.867 330.414C529.492 330.023 529.305 329.547 529.305 328.984C529.305 328.75 529.344 328.508 529.422 328.258ZM539.312 308.969L535.938 320.242H542.57L539.312 308.969ZM552.742 305.219V299.898H572.617V305.266C572.617 305.812 572.422 306.281 572.031 306.672C571.641 307.047 571.18 307.234 570.648 307.234C570.102 307.234 569.625 307.039 569.219 306.648C568.828 306.258 568.633 305.797 568.633 305.266V303.836H564.648V329.031C564.648 329.578 564.453 330.047 564.062 330.438C563.672 330.812 563.211 331 562.68 331C562.117 331 561.641 330.812 561.25 330.438C560.859 330.047 560.664 329.578 560.664 329.031V303.836H556.68V305.219C556.68 305.766 556.484 306.234 556.094 306.625C555.719 307 555.258 307.188 554.711 307.188C554.164 307.188 553.695 307 553.305 306.625C552.93 306.234 552.742 305.766 552.742 305.219ZM594.062 303.836H580.141V313.422H586.141C586.672 313.422 587.133 313.617 587.523 314.008C587.914 314.398 588.109 314.859 588.109 315.391C588.109 315.953 587.914 316.43 587.523 316.82C587.148 317.211 586.688 317.406 586.141 317.406H580.141V327.062L576.203 327.297V299.852H594.062C594.609 299.852 595.078 300.055 595.469 300.461C595.875 300.852 596.078 301.32 596.078 301.867C596.078 302.398 595.875 302.859 595.469 303.25C595.078 303.641 594.609 303.836 594.062 303.836ZM596.055 305.219C596.055 305.766 595.867 306.234 595.492 306.625C595.117 307 594.648 307.188 594.086 307.188C593.539 307.188 593.078 307 592.703 306.625C592.328 306.234 592.141 305.766 592.141 305.219V301.867C592.141 301.32 592.328 300.859 592.703 300.484C593.078 300.094 593.539 299.898 594.086 299.898C594.648 299.898 595.117 300.094 595.492 300.484C595.867 300.859 596.055 301.32 596.055 301.867V305.219ZM580.094 329.031C580.094 329.578 579.906 330.047 579.531 330.438C579.156 330.812 578.688 331 578.125 331C577.578 331 577.117 330.812 576.742 330.438C576.367 330.047 576.18 329.578 576.18 329.031V325.68C576.18 325.133 576.367 324.672 576.742 324.297C577.117 323.906 577.578 323.711 578.125 323.711C578.688 323.711 579.156 323.906 579.531 324.297C579.906 324.672 580.094 325.133 580.094 325.68V329.031ZM614.242 302.734L618.578 311.57C619.188 312.773 619.492 314.078 619.492 315.484C619.492 316.859 619.188 318.156 618.578 319.375L614.242 328.117C613.32 330.039 611.758 331 609.555 331C608.508 331 607.562 330.727 606.719 330.18C605.891 329.633 605.266 328.945 604.844 328.117L600.484 319.375C599.906 318.234 599.617 316.938 599.617 315.484C599.617 314.031 599.906 312.727 600.484 311.57L604.844 302.734C605.828 300.812 607.398 299.852 609.555 299.852C611.742 299.852 613.305 300.812 614.242 302.734ZM608.242 304.703L604.164 313C603.789 313.828 603.602 314.641 603.602 315.438C603.602 316.297 603.789 317.117 604.164 317.898L608.359 326.289C608.578 326.805 608.977 327.062 609.555 327.062C610.055 327.062 610.438 326.805 610.703 326.289L614.922 317.898C615.312 317.07 615.508 316.25 615.508 315.438C615.508 314.578 615.312 313.766 614.922 313L610.797 304.703C610.531 304.094 610.117 303.789 609.555 303.789C608.992 303.789 608.555 304.094 608.242 304.703ZM623.055 329.031V299.852H636.977C638.586 299.852 639.969 300.438 641.125 301.609C642.297 302.781 642.883 304.18 642.883 305.805V308.055C642.883 309.695 642.305 311.102 641.148 312.273C639.992 313.43 638.602 314.008 636.977 314.008H634.469L642.531 327.836C642.781 328.242 642.906 328.648 642.906 329.055C642.906 329.586 642.703 330.047 642.297 330.438C641.891 330.812 641.43 331 640.914 331C640.133 331 639.539 330.648 639.133 329.945L629.875 314.008H627.039V329.031C627.039 329.578 626.836 330.047 626.43 330.438C626.039 330.812 625.57 331 625.023 331C624.477 331 624.008 330.812 623.617 330.438C623.242 330.047 623.055 329.578 623.055 329.031ZM626.992 310.07H636.977C637.523 310.07 637.984 309.883 638.359 309.508C638.75 309.117 638.945 308.648 638.945 308.102V305.805C638.945 305.258 638.75 304.797 638.359 304.422C637.984 304.031 637.523 303.836 636.977 303.836H626.992V310.07ZM650.43 307.258V329.031C650.43 329.578 650.234 330.047 649.844 330.438C649.469 330.812 649.008 331 648.461 331C647.914 331 647.445 330.805 647.055 330.414C646.68 330.023 646.492 329.562 646.492 329.031V299.852H651.578L656.383 310.867L661.422 299.852H666.414V329.031C666.414 329.578 666.211 330.047 665.805 330.438C665.414 330.812 664.945 331 664.398 331C663.867 331 663.406 330.805 663.016 330.414C662.625 330.023 662.43 329.562 662.43 329.031V307.352C659.742 312.367 658.203 315.07 657.812 315.461C657.422 315.852 656.961 316.047 656.43 316.047C655.883 316.047 655.414 315.852 655.023 315.461C654.648 315.07 653.117 312.336 650.43 307.258Z" fill="white"/>
</svg>
